G04 #@! TF.GenerationSoftware,KiCad,Pcbnew,(5.0.0)*
G04 #@! TF.CreationDate,2018-12-02T13:03:49-08:00*
G04 #@! TF.ProjectId,HamShield1.1,48616D536869656C64312E312E6B6963,rev?*
G04 #@! TF.SameCoordinates,PX581e980PY882a660*
G04 #@! TF.FileFunction,Other,Comment*
%FSLAX46Y46*%
G04 Gerber Fmt 4.6, Leading zero omitted, Abs format (unit mm)*
G04 Created by KiCad (PCBNEW (5.0.0)) date 12/02/18 13:03:49*
%MOMM*%
%LPD*%
G01*
G04 APERTURE LIST*
%ADD10C,0.304800*%
G04 APERTURE END LIST*
D10*
X90597262Y47962743D02*
X90089262Y47962743D01*
X90089262Y46898362D02*
X90089262Y48930362D01*
X90814977Y48930362D01*
X91613262Y46898362D02*
X91468120Y46995124D01*
X91395548Y47091886D01*
X91322977Y47285410D01*
X91322977Y47865981D01*
X91395548Y48059505D01*
X91468120Y48156267D01*
X91613262Y48253029D01*
X91830977Y48253029D01*
X91976120Y48156267D01*
X92048691Y48059505D01*
X92121262Y47865981D01*
X92121262Y47285410D01*
X92048691Y47091886D01*
X91976120Y46995124D01*
X91830977Y46898362D01*
X91613262Y46898362D01*
X93427548Y48253029D02*
X93427548Y46898362D01*
X92774405Y48253029D02*
X92774405Y47188648D01*
X92846977Y46995124D01*
X92992120Y46898362D01*
X93209834Y46898362D01*
X93354977Y46995124D01*
X93427548Y47091886D01*
X94153262Y46898362D02*
X94153262Y48253029D01*
X94153262Y47865981D02*
X94225834Y48059505D01*
X94298405Y48156267D01*
X94443548Y48253029D01*
X94588691Y48253029D01*
X96983548Y46898362D02*
X96257834Y46898362D01*
X96257834Y48930362D01*
X98144691Y46898362D02*
X98144691Y47962743D01*
X98072120Y48156267D01*
X97926977Y48253029D01*
X97636691Y48253029D01*
X97491548Y48156267D01*
X98144691Y46995124D02*
X97999548Y46898362D01*
X97636691Y46898362D01*
X97491548Y46995124D01*
X97418977Y47188648D01*
X97418977Y47382172D01*
X97491548Y47575696D01*
X97636691Y47672458D01*
X97999548Y47672458D01*
X98144691Y47769220D01*
X98725262Y48253029D02*
X99088120Y46898362D01*
X99450977Y48253029D02*
X99088120Y46898362D01*
X98942977Y46414553D01*
X98870405Y46317791D01*
X98725262Y46221029D01*
X100612120Y46995124D02*
X100466977Y46898362D01*
X100176691Y46898362D01*
X100031548Y46995124D01*
X99958977Y47188648D01*
X99958977Y47962743D01*
X100031548Y48156267D01*
X100176691Y48253029D01*
X100466977Y48253029D01*
X100612120Y48156267D01*
X100684691Y47962743D01*
X100684691Y47769220D01*
X99958977Y47575696D01*
X101337834Y46898362D02*
X101337834Y48253029D01*
X101337834Y47865981D02*
X101410405Y48059505D01*
X101482977Y48156267D01*
X101628120Y48253029D01*
X101773262Y48253029D01*
X103442405Y46898362D02*
X103442405Y48930362D01*
X104022977Y48930362D01*
X104168120Y48833600D01*
X104240691Y48736839D01*
X104313262Y48543315D01*
X104313262Y48253029D01*
X104240691Y48059505D01*
X104168120Y47962743D01*
X104022977Y47865981D01*
X103442405Y47865981D01*
X105837262Y47091886D02*
X105764691Y46995124D01*
X105546977Y46898362D01*
X105401834Y46898362D01*
X105184120Y46995124D01*
X105038977Y47188648D01*
X104966405Y47382172D01*
X104893834Y47769220D01*
X104893834Y48059505D01*
X104966405Y48446553D01*
X105038977Y48640077D01*
X105184120Y48833600D01*
X105401834Y48930362D01*
X105546977Y48930362D01*
X105764691Y48833600D01*
X105837262Y48736839D01*
X106998405Y47962743D02*
X107216120Y47865981D01*
X107288691Y47769220D01*
X107361262Y47575696D01*
X107361262Y47285410D01*
X107288691Y47091886D01*
X107216120Y46995124D01*
X107070977Y46898362D01*
X106490405Y46898362D01*
X106490405Y48930362D01*
X106998405Y48930362D01*
X107143548Y48833600D01*
X107216120Y48736839D01*
X107288691Y48543315D01*
X107288691Y48349791D01*
X107216120Y48156267D01*
X107143548Y48059505D01*
X106998405Y47962743D01*
X106490405Y47962743D01*
X72672120Y43545562D02*
X72672120Y44900229D01*
X72672120Y44706705D02*
X72744691Y44803467D01*
X72889834Y44900229D01*
X73107548Y44900229D01*
X73252691Y44803467D01*
X73325262Y44609943D01*
X73325262Y43545562D01*
X73325262Y44609943D02*
X73397834Y44803467D01*
X73542977Y44900229D01*
X73760691Y44900229D01*
X73905834Y44803467D01*
X73978405Y44609943D01*
X73978405Y43545562D01*
X74704120Y43545562D02*
X74704120Y44900229D01*
X74704120Y45577562D02*
X74631548Y45480800D01*
X74704120Y45384039D01*
X74776691Y45480800D01*
X74704120Y45577562D01*
X74704120Y45384039D01*
X75647548Y43545562D02*
X75502405Y43642324D01*
X75429834Y43835848D01*
X75429834Y45577562D01*
X88928120Y43642324D02*
X89073262Y43545562D01*
X89363548Y43545562D01*
X89508691Y43642324D01*
X89581262Y43835848D01*
X89581262Y43932610D01*
X89508691Y44126134D01*
X89363548Y44222896D01*
X89145834Y44222896D01*
X89000691Y44319658D01*
X88928120Y44513181D01*
X88928120Y44609943D01*
X89000691Y44803467D01*
X89145834Y44900229D01*
X89363548Y44900229D01*
X89508691Y44803467D01*
X90452120Y43545562D02*
X90306977Y43642324D01*
X90234405Y43739086D01*
X90161834Y43932610D01*
X90161834Y44513181D01*
X90234405Y44706705D01*
X90306977Y44803467D01*
X90452120Y44900229D01*
X90669834Y44900229D01*
X90814977Y44803467D01*
X90887548Y44706705D01*
X90960120Y44513181D01*
X90960120Y43932610D01*
X90887548Y43739086D01*
X90814977Y43642324D01*
X90669834Y43545562D01*
X90452120Y43545562D01*
X91830977Y43545562D02*
X91685834Y43642324D01*
X91613262Y43835848D01*
X91613262Y45577562D01*
X93064691Y43545562D02*
X93064691Y45577562D01*
X93064691Y43642324D02*
X92919548Y43545562D01*
X92629262Y43545562D01*
X92484120Y43642324D01*
X92411548Y43739086D01*
X92338977Y43932610D01*
X92338977Y44513181D01*
X92411548Y44706705D01*
X92484120Y44803467D01*
X92629262Y44900229D01*
X92919548Y44900229D01*
X93064691Y44803467D01*
X94370977Y43642324D02*
X94225834Y43545562D01*
X93935548Y43545562D01*
X93790405Y43642324D01*
X93717834Y43835848D01*
X93717834Y44609943D01*
X93790405Y44803467D01*
X93935548Y44900229D01*
X94225834Y44900229D01*
X94370977Y44803467D01*
X94443548Y44609943D01*
X94443548Y44416420D01*
X93717834Y44222896D01*
X95096691Y43545562D02*
X95096691Y44900229D01*
X95096691Y44513181D02*
X95169262Y44706705D01*
X95241834Y44803467D01*
X95386977Y44900229D01*
X95532120Y44900229D01*
X97201262Y43545562D02*
X97201262Y44900229D01*
X97201262Y44513181D02*
X97273834Y44706705D01*
X97346405Y44803467D01*
X97491548Y44900229D01*
X97636691Y44900229D01*
X98725262Y43642324D02*
X98580120Y43545562D01*
X98289834Y43545562D01*
X98144691Y43642324D01*
X98072120Y43835848D01*
X98072120Y44609943D01*
X98144691Y44803467D01*
X98289834Y44900229D01*
X98580120Y44900229D01*
X98725262Y44803467D01*
X98797834Y44609943D01*
X98797834Y44416420D01*
X98072120Y44222896D01*
X99378405Y43642324D02*
X99523548Y43545562D01*
X99813834Y43545562D01*
X99958977Y43642324D01*
X100031548Y43835848D01*
X100031548Y43932610D01*
X99958977Y44126134D01*
X99813834Y44222896D01*
X99596120Y44222896D01*
X99450977Y44319658D01*
X99378405Y44513181D01*
X99378405Y44609943D01*
X99450977Y44803467D01*
X99596120Y44900229D01*
X99813834Y44900229D01*
X99958977Y44803467D01*
X100684691Y43545562D02*
X100684691Y44900229D01*
X100684691Y45577562D02*
X100612120Y45480800D01*
X100684691Y45384039D01*
X100757262Y45480800D01*
X100684691Y45577562D01*
X100684691Y45384039D01*
X101337834Y43642324D02*
X101482977Y43545562D01*
X101773262Y43545562D01*
X101918405Y43642324D01*
X101990977Y43835848D01*
X101990977Y43932610D01*
X101918405Y44126134D01*
X101773262Y44222896D01*
X101555548Y44222896D01*
X101410405Y44319658D01*
X101337834Y44513181D01*
X101337834Y44609943D01*
X101410405Y44803467D01*
X101555548Y44900229D01*
X101773262Y44900229D01*
X101918405Y44803467D01*
X102426405Y44900229D02*
X103006977Y44900229D01*
X102644120Y45577562D02*
X102644120Y43835848D01*
X102716691Y43642324D01*
X102861834Y43545562D01*
X103006977Y43545562D01*
X115126405Y44319658D02*
X116287548Y44319658D01*
X115706977Y43545562D02*
X115706977Y45093753D01*
X118101834Y45674324D02*
X116795548Y43061753D01*
X118609834Y44319658D02*
X119770977Y44319658D01*
X120786977Y45577562D02*
X120932120Y45577562D01*
X121077262Y45480800D01*
X121149834Y45384039D01*
X121222405Y45190515D01*
X121294977Y44803467D01*
X121294977Y44319658D01*
X121222405Y43932610D01*
X121149834Y43739086D01*
X121077262Y43642324D01*
X120932120Y43545562D01*
X120786977Y43545562D01*
X120641834Y43642324D01*
X120569262Y43739086D01*
X120496691Y43932610D01*
X120424120Y44319658D01*
X120424120Y44803467D01*
X120496691Y45190515D01*
X120569262Y45384039D01*
X120641834Y45480800D01*
X120786977Y45577562D01*
X121948120Y43739086D02*
X122020691Y43642324D01*
X121948120Y43545562D01*
X121875548Y43642324D01*
X121948120Y43739086D01*
X121948120Y43545562D01*
X122601262Y45384039D02*
X122673834Y45480800D01*
X122818977Y45577562D01*
X123181834Y45577562D01*
X123326977Y45480800D01*
X123399548Y45384039D01*
X123472120Y45190515D01*
X123472120Y44996991D01*
X123399548Y44706705D01*
X122528691Y43545562D01*
X123472120Y43545562D01*
X124125262Y43545562D02*
X124125262Y44900229D01*
X124125262Y44706705D02*
X124197834Y44803467D01*
X124342977Y44900229D01*
X124560691Y44900229D01*
X124705834Y44803467D01*
X124778405Y44609943D01*
X124778405Y43545562D01*
X124778405Y44609943D02*
X124850977Y44803467D01*
X124996120Y44900229D01*
X125213834Y44900229D01*
X125358977Y44803467D01*
X125431548Y44609943D01*
X125431548Y43545562D01*
X126157262Y43545562D02*
X126157262Y44900229D01*
X126157262Y45577562D02*
X126084691Y45480800D01*
X126157262Y45384039D01*
X126229834Y45480800D01*
X126157262Y45577562D01*
X126157262Y45384039D01*
X127100691Y43545562D02*
X126955548Y43642324D01*
X126882977Y43835848D01*
X126882977Y45577562D01*
X72309262Y40192762D02*
X71438405Y40192762D01*
X71873834Y40192762D02*
X71873834Y42224762D01*
X71728691Y41934477D01*
X71583548Y41740953D01*
X71438405Y41644191D01*
X72962405Y40386286D02*
X73034977Y40289524D01*
X72962405Y40192762D01*
X72889834Y40289524D01*
X72962405Y40386286D01*
X72962405Y40192762D01*
X74341262Y41547429D02*
X74341262Y40192762D01*
X73978405Y42321524D02*
X73615548Y40870096D01*
X74558977Y40870096D01*
X76300691Y40192762D02*
X76300691Y41547429D01*
X76300691Y41353905D02*
X76373262Y41450667D01*
X76518405Y41547429D01*
X76736120Y41547429D01*
X76881262Y41450667D01*
X76953834Y41257143D01*
X76953834Y40192762D01*
X76953834Y41257143D02*
X77026405Y41450667D01*
X77171548Y41547429D01*
X77389262Y41547429D01*
X77534405Y41450667D01*
X77606977Y41257143D01*
X77606977Y40192762D01*
X78332691Y40192762D02*
X78332691Y41547429D01*
X78332691Y42224762D02*
X78260120Y42128000D01*
X78332691Y42031239D01*
X78405262Y42128000D01*
X78332691Y42224762D01*
X78332691Y42031239D01*
X79276120Y40192762D02*
X79130977Y40289524D01*
X79058405Y40483048D01*
X79058405Y42224762D01*
X86460691Y40192762D02*
X85589834Y40192762D01*
X86025262Y40192762D02*
X86025262Y42224762D01*
X85880120Y41934477D01*
X85734977Y41740953D01*
X85589834Y41644191D01*
X88492691Y40192762D02*
X88347548Y40289524D01*
X88274977Y40386286D01*
X88202405Y40579810D01*
X88202405Y41160381D01*
X88274977Y41353905D01*
X88347548Y41450667D01*
X88492691Y41547429D01*
X88710405Y41547429D01*
X88855548Y41450667D01*
X88928120Y41353905D01*
X89000691Y41160381D01*
X89000691Y40579810D01*
X88928120Y40386286D01*
X88855548Y40289524D01*
X88710405Y40192762D01*
X88492691Y40192762D01*
X89508691Y41547429D02*
X90306977Y41547429D01*
X89508691Y40192762D01*
X90306977Y40192762D01*
X92701834Y40289524D02*
X92556691Y40192762D01*
X92266405Y40192762D01*
X92121262Y40289524D01*
X92048691Y40386286D01*
X91976120Y40579810D01*
X91976120Y41160381D01*
X92048691Y41353905D01*
X92121262Y41450667D01*
X92266405Y41547429D01*
X92556691Y41547429D01*
X92701834Y41450667D01*
X93572691Y40192762D02*
X93427548Y40289524D01*
X93354977Y40386286D01*
X93282405Y40579810D01*
X93282405Y41160381D01*
X93354977Y41353905D01*
X93427548Y41450667D01*
X93572691Y41547429D01*
X93790405Y41547429D01*
X93935548Y41450667D01*
X94008120Y41353905D01*
X94080691Y41160381D01*
X94080691Y40579810D01*
X94008120Y40386286D01*
X93935548Y40289524D01*
X93790405Y40192762D01*
X93572691Y40192762D01*
X94733834Y41547429D02*
X94733834Y39515429D01*
X94733834Y41450667D02*
X94878977Y41547429D01*
X95169262Y41547429D01*
X95314405Y41450667D01*
X95386977Y41353905D01*
X95459548Y41160381D01*
X95459548Y40579810D01*
X95386977Y40386286D01*
X95314405Y40289524D01*
X95169262Y40192762D01*
X94878977Y40192762D01*
X94733834Y40289524D01*
X96112691Y41547429D02*
X96112691Y39515429D01*
X96112691Y41450667D02*
X96257834Y41547429D01*
X96548120Y41547429D01*
X96693262Y41450667D01*
X96765834Y41353905D01*
X96838405Y41160381D01*
X96838405Y40579810D01*
X96765834Y40386286D01*
X96693262Y40289524D01*
X96548120Y40192762D01*
X96257834Y40192762D01*
X96112691Y40289524D01*
X98072120Y40289524D02*
X97926977Y40192762D01*
X97636691Y40192762D01*
X97491548Y40289524D01*
X97418977Y40483048D01*
X97418977Y41257143D01*
X97491548Y41450667D01*
X97636691Y41547429D01*
X97926977Y41547429D01*
X98072120Y41450667D01*
X98144691Y41257143D01*
X98144691Y41063620D01*
X97418977Y40870096D01*
X98797834Y40192762D02*
X98797834Y41547429D01*
X98797834Y41160381D02*
X98870405Y41353905D01*
X98942977Y41450667D01*
X99088120Y41547429D01*
X99233262Y41547429D01*
X99958977Y40386286D02*
X100031548Y40289524D01*
X99958977Y40192762D01*
X99886405Y40289524D01*
X99958977Y40386286D01*
X99958977Y40192762D01*
X99668691Y42128000D02*
X99813834Y42224762D01*
X100176691Y42224762D01*
X100321834Y42128000D01*
X100394405Y41934477D01*
X100394405Y41740953D01*
X100321834Y41547429D01*
X100249262Y41450667D01*
X100104120Y41353905D01*
X100031548Y41257143D01*
X99958977Y41063620D01*
X99958977Y40966858D01*
X72164120Y38871962D02*
X71873834Y38871962D01*
X71728691Y38775200D01*
X71656120Y38678439D01*
X71510977Y38388153D01*
X71438405Y38001105D01*
X71438405Y37227010D01*
X71510977Y37033486D01*
X71583548Y36936724D01*
X71728691Y36839962D01*
X72018977Y36839962D01*
X72164120Y36936724D01*
X72236691Y37033486D01*
X72309262Y37227010D01*
X72309262Y37710820D01*
X72236691Y37904343D01*
X72164120Y38001105D01*
X72018977Y38097867D01*
X71728691Y38097867D01*
X71583548Y38001105D01*
X71510977Y37904343D01*
X71438405Y37710820D01*
X72962405Y37033486D02*
X73034977Y36936724D01*
X72962405Y36839962D01*
X72889834Y36936724D01*
X72962405Y37033486D01*
X72962405Y36839962D01*
X73542977Y38871962D02*
X74558977Y38871962D01*
X73905834Y36839962D01*
X76300691Y36839962D02*
X76300691Y38194629D01*
X76300691Y38001105D02*
X76373262Y38097867D01*
X76518405Y38194629D01*
X76736120Y38194629D01*
X76881262Y38097867D01*
X76953834Y37904343D01*
X76953834Y36839962D01*
X76953834Y37904343D02*
X77026405Y38097867D01*
X77171548Y38194629D01*
X77389262Y38194629D01*
X77534405Y38097867D01*
X77606977Y37904343D01*
X77606977Y36839962D01*
X78332691Y36839962D02*
X78332691Y38194629D01*
X78332691Y38871962D02*
X78260120Y38775200D01*
X78332691Y38678439D01*
X78405262Y38775200D01*
X78332691Y38871962D01*
X78332691Y38678439D01*
X79276120Y36839962D02*
X79130977Y36936724D01*
X79058405Y37130248D01*
X79058405Y38871962D01*
X86170405Y37904343D02*
X85662405Y37904343D01*
X85662405Y36839962D02*
X85662405Y38871962D01*
X86388120Y38871962D01*
X87839548Y36839962D02*
X87331548Y37807581D01*
X86968691Y36839962D02*
X86968691Y38871962D01*
X87549262Y38871962D01*
X87694405Y38775200D01*
X87766977Y38678439D01*
X87839548Y38484915D01*
X87839548Y38194629D01*
X87766977Y38001105D01*
X87694405Y37904343D01*
X87549262Y37807581D01*
X86968691Y37807581D01*
X89145834Y38194629D02*
X89145834Y36839962D01*
X88782977Y38968724D02*
X88420120Y37517296D01*
X89363548Y37517296D01*
X91105262Y38194629D02*
X91105262Y36162629D01*
X91105262Y38097867D02*
X91250405Y38194629D01*
X91540691Y38194629D01*
X91685834Y38097867D01*
X91758405Y38001105D01*
X91830977Y37807581D01*
X91830977Y37227010D01*
X91758405Y37033486D01*
X91685834Y36936724D01*
X91540691Y36839962D01*
X91250405Y36839962D01*
X91105262Y36936724D01*
X92484120Y36839962D02*
X92484120Y38194629D01*
X92484120Y37807581D02*
X92556691Y38001105D01*
X92629262Y38097867D01*
X92774405Y38194629D01*
X92919548Y38194629D01*
X94008120Y36936724D02*
X93862977Y36839962D01*
X93572691Y36839962D01*
X93427548Y36936724D01*
X93354977Y37130248D01*
X93354977Y37904343D01*
X93427548Y38097867D01*
X93572691Y38194629D01*
X93862977Y38194629D01*
X94008120Y38097867D01*
X94080691Y37904343D01*
X94080691Y37710820D01*
X93354977Y37517296D01*
X94733834Y38194629D02*
X94733834Y36162629D01*
X94733834Y38097867D02*
X94878977Y38194629D01*
X95169262Y38194629D01*
X95314405Y38097867D01*
X95386977Y38001105D01*
X95459548Y37807581D01*
X95459548Y37227010D01*
X95386977Y37033486D01*
X95314405Y36936724D01*
X95169262Y36839962D01*
X94878977Y36839962D01*
X94733834Y36936724D01*
X96112691Y36839962D02*
X96112691Y38194629D01*
X96112691Y37807581D02*
X96185262Y38001105D01*
X96257834Y38097867D01*
X96402977Y38194629D01*
X96548120Y38194629D01*
X97636691Y36936724D02*
X97491548Y36839962D01*
X97201262Y36839962D01*
X97056120Y36936724D01*
X96983548Y37130248D01*
X96983548Y37904343D01*
X97056120Y38097867D01*
X97201262Y38194629D01*
X97491548Y38194629D01*
X97636691Y38097867D01*
X97709262Y37904343D01*
X97709262Y37710820D01*
X96983548Y37517296D01*
X99015548Y38194629D02*
X99015548Y36549677D01*
X98942977Y36356153D01*
X98870405Y36259391D01*
X98725262Y36162629D01*
X98507548Y36162629D01*
X98362405Y36259391D01*
X99015548Y36936724D02*
X98870405Y36839962D01*
X98580120Y36839962D01*
X98434977Y36936724D01*
X98362405Y37033486D01*
X98289834Y37227010D01*
X98289834Y37807581D01*
X98362405Y38001105D01*
X98434977Y38097867D01*
X98580120Y38194629D01*
X98870405Y38194629D01*
X99015548Y38097867D01*
X111352691Y37614058D02*
X112513834Y37614058D01*
X111933262Y36839962D02*
X111933262Y38388153D01*
X114328120Y38968724D02*
X113021834Y36356153D01*
X114836120Y37614058D02*
X115997262Y37614058D01*
X116722977Y37033486D02*
X116795548Y36936724D01*
X116722977Y36839962D01*
X116650405Y36936724D01*
X116722977Y37033486D01*
X116722977Y36839962D01*
X118101834Y38871962D02*
X117811548Y38871962D01*
X117666405Y38775200D01*
X117593834Y38678439D01*
X117448691Y38388153D01*
X117376120Y38001105D01*
X117376120Y37227010D01*
X117448691Y37033486D01*
X117521262Y36936724D01*
X117666405Y36839962D01*
X117956691Y36839962D01*
X118101834Y36936724D01*
X118174405Y37033486D01*
X118246977Y37227010D01*
X118246977Y37710820D01*
X118174405Y37904343D01*
X118101834Y38001105D01*
X117956691Y38097867D01*
X117666405Y38097867D01*
X117521262Y38001105D01*
X117448691Y37904343D01*
X117376120Y37710820D01*
X118754977Y38871962D02*
X119770977Y38871962D01*
X119117834Y36839962D01*
X120351548Y36839962D02*
X120351548Y38194629D01*
X120351548Y38001105D02*
X120424120Y38097867D01*
X120569262Y38194629D01*
X120786977Y38194629D01*
X120932120Y38097867D01*
X121004691Y37904343D01*
X121004691Y36839962D01*
X121004691Y37904343D02*
X121077262Y38097867D01*
X121222405Y38194629D01*
X121440120Y38194629D01*
X121585262Y38097867D01*
X121657834Y37904343D01*
X121657834Y36839962D01*
X122383548Y36839962D02*
X122383548Y38194629D01*
X122383548Y38871962D02*
X122310977Y38775200D01*
X122383548Y38678439D01*
X122456120Y38775200D01*
X122383548Y38871962D01*
X122383548Y38678439D01*
X123326977Y36839962D02*
X123181834Y36936724D01*
X123109262Y37130248D01*
X123109262Y38871962D01*
X71801262Y35519162D02*
X71946405Y35519162D01*
X72091548Y35422400D01*
X72164120Y35325639D01*
X72236691Y35132115D01*
X72309262Y34745067D01*
X72309262Y34261258D01*
X72236691Y33874210D01*
X72164120Y33680686D01*
X72091548Y33583924D01*
X71946405Y33487162D01*
X71801262Y33487162D01*
X71656120Y33583924D01*
X71583548Y33680686D01*
X71510977Y33874210D01*
X71438405Y34261258D01*
X71438405Y34745067D01*
X71510977Y35132115D01*
X71583548Y35325639D01*
X71656120Y35422400D01*
X71801262Y35519162D01*
X72962405Y33680686D02*
X73034977Y33583924D01*
X72962405Y33487162D01*
X72889834Y33583924D01*
X72962405Y33680686D01*
X72962405Y33487162D01*
X73542977Y35519162D02*
X74558977Y35519162D01*
X73905834Y33487162D01*
X76300691Y33487162D02*
X76300691Y34841829D01*
X76300691Y34648305D02*
X76373262Y34745067D01*
X76518405Y34841829D01*
X76736120Y34841829D01*
X76881262Y34745067D01*
X76953834Y34551543D01*
X76953834Y33487162D01*
X76953834Y34551543D02*
X77026405Y34745067D01*
X77171548Y34841829D01*
X77389262Y34841829D01*
X77534405Y34745067D01*
X77606977Y34551543D01*
X77606977Y33487162D01*
X78332691Y33487162D02*
X78332691Y34841829D01*
X78332691Y35519162D02*
X78260120Y35422400D01*
X78332691Y35325639D01*
X78405262Y35422400D01*
X78332691Y35519162D01*
X78332691Y35325639D01*
X79276120Y33487162D02*
X79130977Y33583924D01*
X79058405Y33777448D01*
X79058405Y35519162D01*
X85952691Y35519162D02*
X86097834Y35519162D01*
X86242977Y35422400D01*
X86315548Y35325639D01*
X86388120Y35132115D01*
X86460691Y34745067D01*
X86460691Y34261258D01*
X86388120Y33874210D01*
X86315548Y33680686D01*
X86242977Y33583924D01*
X86097834Y33487162D01*
X85952691Y33487162D01*
X85807548Y33583924D01*
X85734977Y33680686D01*
X85662405Y33874210D01*
X85589834Y34261258D01*
X85589834Y34745067D01*
X85662405Y35132115D01*
X85734977Y35325639D01*
X85807548Y35422400D01*
X85952691Y35519162D01*
X87113834Y33680686D02*
X87186405Y33583924D01*
X87113834Y33487162D01*
X87041262Y33583924D01*
X87113834Y33680686D01*
X87113834Y33487162D01*
X88565262Y35519162D02*
X87839548Y35519162D01*
X87766977Y34551543D01*
X87839548Y34648305D01*
X87984691Y34745067D01*
X88347548Y34745067D01*
X88492691Y34648305D01*
X88565262Y34551543D01*
X88637834Y34358020D01*
X88637834Y33874210D01*
X88565262Y33680686D01*
X88492691Y33583924D01*
X88347548Y33487162D01*
X87984691Y33487162D01*
X87839548Y33583924D01*
X87766977Y33680686D01*
X90669834Y33487162D02*
X90524691Y33583924D01*
X90452120Y33680686D01*
X90379548Y33874210D01*
X90379548Y34454781D01*
X90452120Y34648305D01*
X90524691Y34745067D01*
X90669834Y34841829D01*
X90887548Y34841829D01*
X91032691Y34745067D01*
X91105262Y34648305D01*
X91177834Y34454781D01*
X91177834Y33874210D01*
X91105262Y33680686D01*
X91032691Y33583924D01*
X90887548Y33487162D01*
X90669834Y33487162D01*
X91685834Y34841829D02*
X92484120Y34841829D01*
X91685834Y33487162D01*
X92484120Y33487162D01*
X94878977Y33583924D02*
X94733834Y33487162D01*
X94443548Y33487162D01*
X94298405Y33583924D01*
X94225834Y33680686D01*
X94153262Y33874210D01*
X94153262Y34454781D01*
X94225834Y34648305D01*
X94298405Y34745067D01*
X94443548Y34841829D01*
X94733834Y34841829D01*
X94878977Y34745067D01*
X95749834Y33487162D02*
X95604691Y33583924D01*
X95532120Y33680686D01*
X95459548Y33874210D01*
X95459548Y34454781D01*
X95532120Y34648305D01*
X95604691Y34745067D01*
X95749834Y34841829D01*
X95967548Y34841829D01*
X96112691Y34745067D01*
X96185262Y34648305D01*
X96257834Y34454781D01*
X96257834Y33874210D01*
X96185262Y33680686D01*
X96112691Y33583924D01*
X95967548Y33487162D01*
X95749834Y33487162D01*
X96910977Y34841829D02*
X96910977Y32809829D01*
X96910977Y34745067D02*
X97056120Y34841829D01*
X97346405Y34841829D01*
X97491548Y34745067D01*
X97564120Y34648305D01*
X97636691Y34454781D01*
X97636691Y33874210D01*
X97564120Y33680686D01*
X97491548Y33583924D01*
X97346405Y33487162D01*
X97056120Y33487162D01*
X96910977Y33583924D01*
X98289834Y34841829D02*
X98289834Y32809829D01*
X98289834Y34745067D02*
X98434977Y34841829D01*
X98725262Y34841829D01*
X98870405Y34745067D01*
X98942977Y34648305D01*
X99015548Y34454781D01*
X99015548Y33874210D01*
X98942977Y33680686D01*
X98870405Y33583924D01*
X98725262Y33487162D01*
X98434977Y33487162D01*
X98289834Y33583924D01*
X100249262Y33583924D02*
X100104120Y33487162D01*
X99813834Y33487162D01*
X99668691Y33583924D01*
X99596120Y33777448D01*
X99596120Y34551543D01*
X99668691Y34745067D01*
X99813834Y34841829D01*
X100104120Y34841829D01*
X100249262Y34745067D01*
X100321834Y34551543D01*
X100321834Y34358020D01*
X99596120Y34164496D01*
X100974977Y33487162D02*
X100974977Y34841829D01*
X100974977Y34454781D02*
X101047548Y34648305D01*
X101120120Y34745067D01*
X101265262Y34841829D01*
X101410405Y34841829D01*
X102136120Y33680686D02*
X102208691Y33583924D01*
X102136120Y33487162D01*
X102063548Y33583924D01*
X102136120Y33680686D01*
X102136120Y33487162D01*
X101845834Y35422400D02*
X101990977Y35519162D01*
X102353834Y35519162D01*
X102498977Y35422400D01*
X102571548Y35228877D01*
X102571548Y35035353D01*
X102498977Y34841829D01*
X102426405Y34745067D01*
X102281262Y34648305D01*
X102208691Y34551543D01*
X102136120Y34358020D01*
X102136120Y34261258D01*
X72164120Y31489029D02*
X72164120Y30134362D01*
X71801262Y32263124D02*
X71438405Y30811696D01*
X72381834Y30811696D01*
X72817262Y32166362D02*
X73833262Y32166362D01*
X73180120Y30134362D01*
X75574977Y30134362D02*
X75574977Y31489029D01*
X75574977Y31295505D02*
X75647548Y31392267D01*
X75792691Y31489029D01*
X76010405Y31489029D01*
X76155548Y31392267D01*
X76228120Y31198743D01*
X76228120Y30134362D01*
X76228120Y31198743D02*
X76300691Y31392267D01*
X76445834Y31489029D01*
X76663548Y31489029D01*
X76808691Y31392267D01*
X76881262Y31198743D01*
X76881262Y30134362D01*
X77606977Y30134362D02*
X77606977Y31489029D01*
X77606977Y32166362D02*
X77534405Y32069600D01*
X77606977Y31972839D01*
X77679548Y32069600D01*
X77606977Y32166362D01*
X77606977Y31972839D01*
X78550405Y30134362D02*
X78405262Y30231124D01*
X78332691Y30424648D01*
X78332691Y32166362D01*
X86605834Y31198743D02*
X86097834Y31198743D01*
X86097834Y30134362D02*
X86097834Y32166362D01*
X86823548Y32166362D01*
X88274977Y30134362D02*
X87766977Y31101981D01*
X87404120Y30134362D02*
X87404120Y32166362D01*
X87984691Y32166362D01*
X88129834Y32069600D01*
X88202405Y31972839D01*
X88274977Y31779315D01*
X88274977Y31489029D01*
X88202405Y31295505D01*
X88129834Y31198743D01*
X87984691Y31101981D01*
X87404120Y31101981D01*
X89581262Y31489029D02*
X89581262Y30134362D01*
X89218405Y32263124D02*
X88855548Y30811696D01*
X89798977Y30811696D01*
X92193834Y30231124D02*
X92048691Y30134362D01*
X91758405Y30134362D01*
X91613262Y30231124D01*
X91540691Y30327886D01*
X91468120Y30521410D01*
X91468120Y31101981D01*
X91540691Y31295505D01*
X91613262Y31392267D01*
X91758405Y31489029D01*
X92048691Y31489029D01*
X92193834Y31392267D01*
X93064691Y30134362D02*
X92919548Y30231124D01*
X92846977Y30327886D01*
X92774405Y30521410D01*
X92774405Y31101981D01*
X92846977Y31295505D01*
X92919548Y31392267D01*
X93064691Y31489029D01*
X93282405Y31489029D01*
X93427548Y31392267D01*
X93500120Y31295505D01*
X93572691Y31101981D01*
X93572691Y30521410D01*
X93500120Y30327886D01*
X93427548Y30231124D01*
X93282405Y30134362D01*
X93064691Y30134362D01*
X94225834Y30134362D02*
X94225834Y31489029D01*
X94225834Y31101981D02*
X94298405Y31295505D01*
X94370977Y31392267D01*
X94516120Y31489029D01*
X94661262Y31489029D01*
X95749834Y30231124D02*
X95604691Y30134362D01*
X95314405Y30134362D01*
X95169262Y30231124D01*
X95096691Y30424648D01*
X95096691Y31198743D01*
X95169262Y31392267D01*
X95314405Y31489029D01*
X95604691Y31489029D01*
X95749834Y31392267D01*
X95822405Y31198743D01*
X95822405Y31005220D01*
X95096691Y30811696D01*
X115053834Y30908458D02*
X116214977Y30908458D01*
X115634405Y30134362D02*
X115634405Y31682553D01*
X118029262Y32263124D02*
X116722977Y29650553D01*
X118537262Y30908458D02*
X119698405Y30908458D01*
X121077262Y31489029D02*
X121077262Y30134362D01*
X120714405Y32263124D02*
X120351548Y30811696D01*
X121294977Y30811696D01*
X121875548Y30327886D02*
X121948120Y30231124D01*
X121875548Y30134362D01*
X121802977Y30231124D01*
X121875548Y30327886D01*
X121875548Y30134362D01*
X122456120Y32166362D02*
X123472120Y32166362D01*
X122818977Y30134362D01*
X124052691Y30134362D02*
X124052691Y31489029D01*
X124052691Y31295505D02*
X124125262Y31392267D01*
X124270405Y31489029D01*
X124488120Y31489029D01*
X124633262Y31392267D01*
X124705834Y31198743D01*
X124705834Y30134362D01*
X124705834Y31198743D02*
X124778405Y31392267D01*
X124923548Y31489029D01*
X125141262Y31489029D01*
X125286405Y31392267D01*
X125358977Y31198743D01*
X125358977Y30134362D01*
X126084691Y30134362D02*
X126084691Y31489029D01*
X126084691Y32166362D02*
X126012120Y32069600D01*
X126084691Y31972839D01*
X126157262Y32069600D01*
X126084691Y32166362D01*
X126084691Y31972839D01*
X127028120Y30134362D02*
X126882977Y30231124D01*
X126810405Y30424648D01*
X126810405Y32166362D01*
X71801262Y28813562D02*
X71946405Y28813562D01*
X72091548Y28716800D01*
X72164120Y28620039D01*
X72236691Y28426515D01*
X72309262Y28039467D01*
X72309262Y27555658D01*
X72236691Y27168610D01*
X72164120Y26975086D01*
X72091548Y26878324D01*
X71946405Y26781562D01*
X71801262Y26781562D01*
X71656120Y26878324D01*
X71583548Y26975086D01*
X71510977Y27168610D01*
X71438405Y27555658D01*
X71438405Y28039467D01*
X71510977Y28426515D01*
X71583548Y28620039D01*
X71656120Y28716800D01*
X71801262Y28813562D01*
X72962405Y26975086D02*
X73034977Y26878324D01*
X72962405Y26781562D01*
X72889834Y26878324D01*
X72962405Y26975086D01*
X72962405Y26781562D01*
X73542977Y28813562D02*
X74558977Y28813562D01*
X73905834Y26781562D01*
X76300691Y26781562D02*
X76300691Y28136229D01*
X76300691Y27942705D02*
X76373262Y28039467D01*
X76518405Y28136229D01*
X76736120Y28136229D01*
X76881262Y28039467D01*
X76953834Y27845943D01*
X76953834Y26781562D01*
X76953834Y27845943D02*
X77026405Y28039467D01*
X77171548Y28136229D01*
X77389262Y28136229D01*
X77534405Y28039467D01*
X77606977Y27845943D01*
X77606977Y26781562D01*
X78332691Y26781562D02*
X78332691Y28136229D01*
X78332691Y28813562D02*
X78260120Y28716800D01*
X78332691Y28620039D01*
X78405262Y28716800D01*
X78332691Y28813562D01*
X78332691Y28620039D01*
X79276120Y26781562D02*
X79130977Y26878324D01*
X79058405Y27071848D01*
X79058405Y28813562D01*
X85952691Y28813562D02*
X86097834Y28813562D01*
X86242977Y28716800D01*
X86315548Y28620039D01*
X86388120Y28426515D01*
X86460691Y28039467D01*
X86460691Y27555658D01*
X86388120Y27168610D01*
X86315548Y26975086D01*
X86242977Y26878324D01*
X86097834Y26781562D01*
X85952691Y26781562D01*
X85807548Y26878324D01*
X85734977Y26975086D01*
X85662405Y27168610D01*
X85589834Y27555658D01*
X85589834Y28039467D01*
X85662405Y28426515D01*
X85734977Y28620039D01*
X85807548Y28716800D01*
X85952691Y28813562D01*
X87113834Y26975086D02*
X87186405Y26878324D01*
X87113834Y26781562D01*
X87041262Y26878324D01*
X87113834Y26975086D01*
X87113834Y26781562D01*
X88565262Y28813562D02*
X87839548Y28813562D01*
X87766977Y27845943D01*
X87839548Y27942705D01*
X87984691Y28039467D01*
X88347548Y28039467D01*
X88492691Y27942705D01*
X88565262Y27845943D01*
X88637834Y27652420D01*
X88637834Y27168610D01*
X88565262Y26975086D01*
X88492691Y26878324D01*
X88347548Y26781562D01*
X87984691Y26781562D01*
X87839548Y26878324D01*
X87766977Y26975086D01*
X90669834Y26781562D02*
X90524691Y26878324D01*
X90452120Y26975086D01*
X90379548Y27168610D01*
X90379548Y27749181D01*
X90452120Y27942705D01*
X90524691Y28039467D01*
X90669834Y28136229D01*
X90887548Y28136229D01*
X91032691Y28039467D01*
X91105262Y27942705D01*
X91177834Y27749181D01*
X91177834Y27168610D01*
X91105262Y26975086D01*
X91032691Y26878324D01*
X90887548Y26781562D01*
X90669834Y26781562D01*
X91685834Y28136229D02*
X92484120Y28136229D01*
X91685834Y26781562D01*
X92484120Y26781562D01*
X94878977Y26878324D02*
X94733834Y26781562D01*
X94443548Y26781562D01*
X94298405Y26878324D01*
X94225834Y26975086D01*
X94153262Y27168610D01*
X94153262Y27749181D01*
X94225834Y27942705D01*
X94298405Y28039467D01*
X94443548Y28136229D01*
X94733834Y28136229D01*
X94878977Y28039467D01*
X95749834Y26781562D02*
X95604691Y26878324D01*
X95532120Y26975086D01*
X95459548Y27168610D01*
X95459548Y27749181D01*
X95532120Y27942705D01*
X95604691Y28039467D01*
X95749834Y28136229D01*
X95967548Y28136229D01*
X96112691Y28039467D01*
X96185262Y27942705D01*
X96257834Y27749181D01*
X96257834Y27168610D01*
X96185262Y26975086D01*
X96112691Y26878324D01*
X95967548Y26781562D01*
X95749834Y26781562D01*
X96910977Y28136229D02*
X96910977Y26104229D01*
X96910977Y28039467D02*
X97056120Y28136229D01*
X97346405Y28136229D01*
X97491548Y28039467D01*
X97564120Y27942705D01*
X97636691Y27749181D01*
X97636691Y27168610D01*
X97564120Y26975086D01*
X97491548Y26878324D01*
X97346405Y26781562D01*
X97056120Y26781562D01*
X96910977Y26878324D01*
X98289834Y28136229D02*
X98289834Y26104229D01*
X98289834Y28039467D02*
X98434977Y28136229D01*
X98725262Y28136229D01*
X98870405Y28039467D01*
X98942977Y27942705D01*
X99015548Y27749181D01*
X99015548Y27168610D01*
X98942977Y26975086D01*
X98870405Y26878324D01*
X98725262Y26781562D01*
X98434977Y26781562D01*
X98289834Y26878324D01*
X100249262Y26878324D02*
X100104120Y26781562D01*
X99813834Y26781562D01*
X99668691Y26878324D01*
X99596120Y27071848D01*
X99596120Y27845943D01*
X99668691Y28039467D01*
X99813834Y28136229D01*
X100104120Y28136229D01*
X100249262Y28039467D01*
X100321834Y27845943D01*
X100321834Y27652420D01*
X99596120Y27458896D01*
X100974977Y26781562D02*
X100974977Y28136229D01*
X100974977Y27749181D02*
X101047548Y27942705D01*
X101120120Y28039467D01*
X101265262Y28136229D01*
X101410405Y28136229D01*
X102136120Y26975086D02*
X102208691Y26878324D01*
X102136120Y26781562D01*
X102063548Y26878324D01*
X102136120Y26975086D01*
X102136120Y26781562D01*
X101845834Y28716800D02*
X101990977Y28813562D01*
X102353834Y28813562D01*
X102498977Y28716800D01*
X102571548Y28523277D01*
X102571548Y28329753D01*
X102498977Y28136229D01*
X102426405Y28039467D01*
X102281262Y27942705D01*
X102208691Y27845943D01*
X102136120Y27652420D01*
X102136120Y27555658D01*
X72164120Y25460762D02*
X71873834Y25460762D01*
X71728691Y25364000D01*
X71656120Y25267239D01*
X71510977Y24976953D01*
X71438405Y24589905D01*
X71438405Y23815810D01*
X71510977Y23622286D01*
X71583548Y23525524D01*
X71728691Y23428762D01*
X72018977Y23428762D01*
X72164120Y23525524D01*
X72236691Y23622286D01*
X72309262Y23815810D01*
X72309262Y24299620D01*
X72236691Y24493143D01*
X72164120Y24589905D01*
X72018977Y24686667D01*
X71728691Y24686667D01*
X71583548Y24589905D01*
X71510977Y24493143D01*
X71438405Y24299620D01*
X72962405Y23622286D02*
X73034977Y23525524D01*
X72962405Y23428762D01*
X72889834Y23525524D01*
X72962405Y23622286D01*
X72962405Y23428762D01*
X73542977Y25460762D02*
X74558977Y25460762D01*
X73905834Y23428762D01*
X76300691Y23428762D02*
X76300691Y24783429D01*
X76300691Y24589905D02*
X76373262Y24686667D01*
X76518405Y24783429D01*
X76736120Y24783429D01*
X76881262Y24686667D01*
X76953834Y24493143D01*
X76953834Y23428762D01*
X76953834Y24493143D02*
X77026405Y24686667D01*
X77171548Y24783429D01*
X77389262Y24783429D01*
X77534405Y24686667D01*
X77606977Y24493143D01*
X77606977Y23428762D01*
X78332691Y23428762D02*
X78332691Y24783429D01*
X78332691Y25460762D02*
X78260120Y25364000D01*
X78332691Y25267239D01*
X78405262Y25364000D01*
X78332691Y25460762D01*
X78332691Y25267239D01*
X79276120Y23428762D02*
X79130977Y23525524D01*
X79058405Y23719048D01*
X79058405Y25460762D01*
X86170405Y24493143D02*
X85662405Y24493143D01*
X85662405Y23428762D02*
X85662405Y25460762D01*
X86388120Y25460762D01*
X87839548Y23428762D02*
X87331548Y24396381D01*
X86968691Y23428762D02*
X86968691Y25460762D01*
X87549262Y25460762D01*
X87694405Y25364000D01*
X87766977Y25267239D01*
X87839548Y25073715D01*
X87839548Y24783429D01*
X87766977Y24589905D01*
X87694405Y24493143D01*
X87549262Y24396381D01*
X86968691Y24396381D01*
X89145834Y24783429D02*
X89145834Y23428762D01*
X88782977Y25557524D02*
X88420120Y24106096D01*
X89363548Y24106096D01*
X91105262Y24783429D02*
X91105262Y22751429D01*
X91105262Y24686667D02*
X91250405Y24783429D01*
X91540691Y24783429D01*
X91685834Y24686667D01*
X91758405Y24589905D01*
X91830977Y24396381D01*
X91830977Y23815810D01*
X91758405Y23622286D01*
X91685834Y23525524D01*
X91540691Y23428762D01*
X91250405Y23428762D01*
X91105262Y23525524D01*
X92484120Y23428762D02*
X92484120Y24783429D01*
X92484120Y24396381D02*
X92556691Y24589905D01*
X92629262Y24686667D01*
X92774405Y24783429D01*
X92919548Y24783429D01*
X94008120Y23525524D02*
X93862977Y23428762D01*
X93572691Y23428762D01*
X93427548Y23525524D01*
X93354977Y23719048D01*
X93354977Y24493143D01*
X93427548Y24686667D01*
X93572691Y24783429D01*
X93862977Y24783429D01*
X94008120Y24686667D01*
X94080691Y24493143D01*
X94080691Y24299620D01*
X93354977Y24106096D01*
X94733834Y24783429D02*
X94733834Y22751429D01*
X94733834Y24686667D02*
X94878977Y24783429D01*
X95169262Y24783429D01*
X95314405Y24686667D01*
X95386977Y24589905D01*
X95459548Y24396381D01*
X95459548Y23815810D01*
X95386977Y23622286D01*
X95314405Y23525524D01*
X95169262Y23428762D01*
X94878977Y23428762D01*
X94733834Y23525524D01*
X96112691Y23428762D02*
X96112691Y24783429D01*
X96112691Y24396381D02*
X96185262Y24589905D01*
X96257834Y24686667D01*
X96402977Y24783429D01*
X96548120Y24783429D01*
X97636691Y23525524D02*
X97491548Y23428762D01*
X97201262Y23428762D01*
X97056120Y23525524D01*
X96983548Y23719048D01*
X96983548Y24493143D01*
X97056120Y24686667D01*
X97201262Y24783429D01*
X97491548Y24783429D01*
X97636691Y24686667D01*
X97709262Y24493143D01*
X97709262Y24299620D01*
X96983548Y24106096D01*
X99015548Y24783429D02*
X99015548Y23138477D01*
X98942977Y22944953D01*
X98870405Y22848191D01*
X98725262Y22751429D01*
X98507548Y22751429D01*
X98362405Y22848191D01*
X99015548Y23525524D02*
X98870405Y23428762D01*
X98580120Y23428762D01*
X98434977Y23525524D01*
X98362405Y23622286D01*
X98289834Y23815810D01*
X98289834Y24396381D01*
X98362405Y24589905D01*
X98434977Y24686667D01*
X98580120Y24783429D01*
X98870405Y24783429D01*
X99015548Y24686667D01*
X111352691Y24202858D02*
X112513834Y24202858D01*
X111933262Y23428762D02*
X111933262Y24976953D01*
X114328120Y25557524D02*
X113021834Y22944953D01*
X114836120Y24202858D02*
X115997262Y24202858D01*
X116722977Y23622286D02*
X116795548Y23525524D01*
X116722977Y23428762D01*
X116650405Y23525524D01*
X116722977Y23622286D01*
X116722977Y23428762D01*
X118101834Y25460762D02*
X117811548Y25460762D01*
X117666405Y25364000D01*
X117593834Y25267239D01*
X117448691Y24976953D01*
X117376120Y24589905D01*
X117376120Y23815810D01*
X117448691Y23622286D01*
X117521262Y23525524D01*
X117666405Y23428762D01*
X117956691Y23428762D01*
X118101834Y23525524D01*
X118174405Y23622286D01*
X118246977Y23815810D01*
X118246977Y24299620D01*
X118174405Y24493143D01*
X118101834Y24589905D01*
X117956691Y24686667D01*
X117666405Y24686667D01*
X117521262Y24589905D01*
X117448691Y24493143D01*
X117376120Y24299620D01*
X118754977Y25460762D02*
X119770977Y25460762D01*
X119117834Y23428762D01*
X120351548Y23428762D02*
X120351548Y24783429D01*
X120351548Y24589905D02*
X120424120Y24686667D01*
X120569262Y24783429D01*
X120786977Y24783429D01*
X120932120Y24686667D01*
X121004691Y24493143D01*
X121004691Y23428762D01*
X121004691Y24493143D02*
X121077262Y24686667D01*
X121222405Y24783429D01*
X121440120Y24783429D01*
X121585262Y24686667D01*
X121657834Y24493143D01*
X121657834Y23428762D01*
X122383548Y23428762D02*
X122383548Y24783429D01*
X122383548Y25460762D02*
X122310977Y25364000D01*
X122383548Y25267239D01*
X122456120Y25364000D01*
X122383548Y25460762D01*
X122383548Y25267239D01*
X123326977Y23428762D02*
X123181834Y23525524D01*
X123109262Y23719048D01*
X123109262Y25460762D01*
X72309262Y20075962D02*
X71438405Y20075962D01*
X71873834Y20075962D02*
X71873834Y22107962D01*
X71728691Y21817677D01*
X71583548Y21624153D01*
X71438405Y21527391D01*
X72962405Y20269486D02*
X73034977Y20172724D01*
X72962405Y20075962D01*
X72889834Y20172724D01*
X72962405Y20269486D01*
X72962405Y20075962D01*
X74341262Y21430629D02*
X74341262Y20075962D01*
X73978405Y22204724D02*
X73615548Y20753296D01*
X74558977Y20753296D01*
X76300691Y20075962D02*
X76300691Y21430629D01*
X76300691Y21237105D02*
X76373262Y21333867D01*
X76518405Y21430629D01*
X76736120Y21430629D01*
X76881262Y21333867D01*
X76953834Y21140343D01*
X76953834Y20075962D01*
X76953834Y21140343D02*
X77026405Y21333867D01*
X77171548Y21430629D01*
X77389262Y21430629D01*
X77534405Y21333867D01*
X77606977Y21140343D01*
X77606977Y20075962D01*
X78332691Y20075962D02*
X78332691Y21430629D01*
X78332691Y22107962D02*
X78260120Y22011200D01*
X78332691Y21914439D01*
X78405262Y22011200D01*
X78332691Y22107962D01*
X78332691Y21914439D01*
X79276120Y20075962D02*
X79130977Y20172724D01*
X79058405Y20366248D01*
X79058405Y22107962D01*
X86460691Y20075962D02*
X85589834Y20075962D01*
X86025262Y20075962D02*
X86025262Y22107962D01*
X85880120Y21817677D01*
X85734977Y21624153D01*
X85589834Y21527391D01*
X88492691Y20075962D02*
X88347548Y20172724D01*
X88274977Y20269486D01*
X88202405Y20463010D01*
X88202405Y21043581D01*
X88274977Y21237105D01*
X88347548Y21333867D01*
X88492691Y21430629D01*
X88710405Y21430629D01*
X88855548Y21333867D01*
X88928120Y21237105D01*
X89000691Y21043581D01*
X89000691Y20463010D01*
X88928120Y20269486D01*
X88855548Y20172724D01*
X88710405Y20075962D01*
X88492691Y20075962D01*
X89508691Y21430629D02*
X90306977Y21430629D01*
X89508691Y20075962D01*
X90306977Y20075962D01*
X92701834Y20172724D02*
X92556691Y20075962D01*
X92266405Y20075962D01*
X92121262Y20172724D01*
X92048691Y20269486D01*
X91976120Y20463010D01*
X91976120Y21043581D01*
X92048691Y21237105D01*
X92121262Y21333867D01*
X92266405Y21430629D01*
X92556691Y21430629D01*
X92701834Y21333867D01*
X93572691Y20075962D02*
X93427548Y20172724D01*
X93354977Y20269486D01*
X93282405Y20463010D01*
X93282405Y21043581D01*
X93354977Y21237105D01*
X93427548Y21333867D01*
X93572691Y21430629D01*
X93790405Y21430629D01*
X93935548Y21333867D01*
X94008120Y21237105D01*
X94080691Y21043581D01*
X94080691Y20463010D01*
X94008120Y20269486D01*
X93935548Y20172724D01*
X93790405Y20075962D01*
X93572691Y20075962D01*
X94733834Y21430629D02*
X94733834Y19398629D01*
X94733834Y21333867D02*
X94878977Y21430629D01*
X95169262Y21430629D01*
X95314405Y21333867D01*
X95386977Y21237105D01*
X95459548Y21043581D01*
X95459548Y20463010D01*
X95386977Y20269486D01*
X95314405Y20172724D01*
X95169262Y20075962D01*
X94878977Y20075962D01*
X94733834Y20172724D01*
X96112691Y21430629D02*
X96112691Y19398629D01*
X96112691Y21333867D02*
X96257834Y21430629D01*
X96548120Y21430629D01*
X96693262Y21333867D01*
X96765834Y21237105D01*
X96838405Y21043581D01*
X96838405Y20463010D01*
X96765834Y20269486D01*
X96693262Y20172724D01*
X96548120Y20075962D01*
X96257834Y20075962D01*
X96112691Y20172724D01*
X98072120Y20172724D02*
X97926977Y20075962D01*
X97636691Y20075962D01*
X97491548Y20172724D01*
X97418977Y20366248D01*
X97418977Y21140343D01*
X97491548Y21333867D01*
X97636691Y21430629D01*
X97926977Y21430629D01*
X98072120Y21333867D01*
X98144691Y21140343D01*
X98144691Y20946820D01*
X97418977Y20753296D01*
X98797834Y20075962D02*
X98797834Y21430629D01*
X98797834Y21043581D02*
X98870405Y21237105D01*
X98942977Y21333867D01*
X99088120Y21430629D01*
X99233262Y21430629D01*
X99958977Y20269486D02*
X100031548Y20172724D01*
X99958977Y20075962D01*
X99886405Y20172724D01*
X99958977Y20269486D01*
X99958977Y20075962D01*
X99668691Y22011200D02*
X99813834Y22107962D01*
X100176691Y22107962D01*
X100321834Y22011200D01*
X100394405Y21817677D01*
X100394405Y21624153D01*
X100321834Y21430629D01*
X100249262Y21333867D01*
X100104120Y21237105D01*
X100031548Y21140343D01*
X99958977Y20946820D01*
X99958977Y20850058D01*
X72309262Y16723162D02*
X71438405Y16723162D01*
X71873834Y16723162D02*
X71873834Y18755162D01*
X71728691Y18464877D01*
X71583548Y18271353D01*
X71438405Y18174591D01*
X74123548Y16723162D02*
X74123548Y18077829D01*
X74123548Y17884305D02*
X74196120Y17981067D01*
X74341262Y18077829D01*
X74558977Y18077829D01*
X74704120Y17981067D01*
X74776691Y17787543D01*
X74776691Y16723162D01*
X74776691Y17787543D02*
X74849262Y17981067D01*
X74994405Y18077829D01*
X75212120Y18077829D01*
X75357262Y17981067D01*
X75429834Y17787543D01*
X75429834Y16723162D01*
X76155548Y16723162D02*
X76155548Y18077829D01*
X76155548Y18755162D02*
X76082977Y18658400D01*
X76155548Y18561639D01*
X76228120Y18658400D01*
X76155548Y18755162D01*
X76155548Y18561639D01*
X77098977Y16723162D02*
X76953834Y16819924D01*
X76881262Y17013448D01*
X76881262Y18755162D01*
X86896120Y16819924D02*
X87041262Y16723162D01*
X87331548Y16723162D01*
X87476691Y16819924D01*
X87549262Y17013448D01*
X87549262Y17110210D01*
X87476691Y17303734D01*
X87331548Y17400496D01*
X87113834Y17400496D01*
X86968691Y17497258D01*
X86896120Y17690781D01*
X86896120Y17787543D01*
X86968691Y17981067D01*
X87113834Y18077829D01*
X87331548Y18077829D01*
X87476691Y17981067D01*
X88420120Y16723162D02*
X88274977Y16819924D01*
X88202405Y16916686D01*
X88129834Y17110210D01*
X88129834Y17690781D01*
X88202405Y17884305D01*
X88274977Y17981067D01*
X88420120Y18077829D01*
X88637834Y18077829D01*
X88782977Y17981067D01*
X88855548Y17884305D01*
X88928120Y17690781D01*
X88928120Y17110210D01*
X88855548Y16916686D01*
X88782977Y16819924D01*
X88637834Y16723162D01*
X88420120Y16723162D01*
X89798977Y16723162D02*
X89653834Y16819924D01*
X89581262Y17013448D01*
X89581262Y18755162D01*
X91032691Y16723162D02*
X91032691Y18755162D01*
X91032691Y16819924D02*
X90887548Y16723162D01*
X90597262Y16723162D01*
X90452120Y16819924D01*
X90379548Y16916686D01*
X90306977Y17110210D01*
X90306977Y17690781D01*
X90379548Y17884305D01*
X90452120Y17981067D01*
X90597262Y18077829D01*
X90887548Y18077829D01*
X91032691Y17981067D01*
X92338977Y16819924D02*
X92193834Y16723162D01*
X91903548Y16723162D01*
X91758405Y16819924D01*
X91685834Y17013448D01*
X91685834Y17787543D01*
X91758405Y17981067D01*
X91903548Y18077829D01*
X92193834Y18077829D01*
X92338977Y17981067D01*
X92411548Y17787543D01*
X92411548Y17594020D01*
X91685834Y17400496D01*
X93064691Y16723162D02*
X93064691Y18077829D01*
X93064691Y17690781D02*
X93137262Y17884305D01*
X93209834Y17981067D01*
X93354977Y18077829D01*
X93500120Y18077829D01*
X95169262Y16723162D02*
X95169262Y18077829D01*
X95169262Y17690781D02*
X95241834Y17884305D01*
X95314405Y17981067D01*
X95459548Y18077829D01*
X95604691Y18077829D01*
X96693262Y16819924D02*
X96548120Y16723162D01*
X96257834Y16723162D01*
X96112691Y16819924D01*
X96040120Y17013448D01*
X96040120Y17787543D01*
X96112691Y17981067D01*
X96257834Y18077829D01*
X96548120Y18077829D01*
X96693262Y17981067D01*
X96765834Y17787543D01*
X96765834Y17594020D01*
X96040120Y17400496D01*
X97346405Y16819924D02*
X97491548Y16723162D01*
X97781834Y16723162D01*
X97926977Y16819924D01*
X97999548Y17013448D01*
X97999548Y17110210D01*
X97926977Y17303734D01*
X97781834Y17400496D01*
X97564120Y17400496D01*
X97418977Y17497258D01*
X97346405Y17690781D01*
X97346405Y17787543D01*
X97418977Y17981067D01*
X97564120Y18077829D01*
X97781834Y18077829D01*
X97926977Y17981067D01*
X98652691Y16723162D02*
X98652691Y18077829D01*
X98652691Y18755162D02*
X98580120Y18658400D01*
X98652691Y18561639D01*
X98725262Y18658400D01*
X98652691Y18755162D01*
X98652691Y18561639D01*
X99305834Y16819924D02*
X99450977Y16723162D01*
X99741262Y16723162D01*
X99886405Y16819924D01*
X99958977Y17013448D01*
X99958977Y17110210D01*
X99886405Y17303734D01*
X99741262Y17400496D01*
X99523548Y17400496D01*
X99378405Y17497258D01*
X99305834Y17690781D01*
X99305834Y17787543D01*
X99378405Y17981067D01*
X99523548Y18077829D01*
X99741262Y18077829D01*
X99886405Y17981067D01*
X100394405Y18077829D02*
X100974977Y18077829D01*
X100612120Y18755162D02*
X100612120Y17013448D01*
X100684691Y16819924D01*
X100829834Y16723162D01*
X100974977Y16723162D01*
X114255548Y17497258D02*
X115416691Y17497258D01*
X114836120Y16723162D02*
X114836120Y18271353D01*
X117230977Y18851924D02*
X115924691Y16239353D01*
X117738977Y17497258D02*
X118900120Y17497258D01*
X119916120Y18755162D02*
X120061262Y18755162D01*
X120206405Y18658400D01*
X120278977Y18561639D01*
X120351548Y18368115D01*
X120424120Y17981067D01*
X120424120Y17497258D01*
X120351548Y17110210D01*
X120278977Y16916686D01*
X120206405Y16819924D01*
X120061262Y16723162D01*
X119916120Y16723162D01*
X119770977Y16819924D01*
X119698405Y16916686D01*
X119625834Y17110210D01*
X119553262Y17497258D01*
X119553262Y17981067D01*
X119625834Y18368115D01*
X119698405Y18561639D01*
X119770977Y18658400D01*
X119916120Y18755162D01*
X121077262Y16916686D02*
X121149834Y16819924D01*
X121077262Y16723162D01*
X121004691Y16819924D01*
X121077262Y16916686D01*
X121077262Y16723162D01*
X121730405Y18561639D02*
X121802977Y18658400D01*
X121948120Y18755162D01*
X122310977Y18755162D01*
X122456120Y18658400D01*
X122528691Y18561639D01*
X122601262Y18368115D01*
X122601262Y18174591D01*
X122528691Y17884305D01*
X121657834Y16723162D01*
X122601262Y16723162D01*
X123254405Y16723162D02*
X123254405Y18077829D01*
X123254405Y17884305D02*
X123326977Y17981067D01*
X123472120Y18077829D01*
X123689834Y18077829D01*
X123834977Y17981067D01*
X123907548Y17787543D01*
X123907548Y16723162D01*
X123907548Y17787543D02*
X123980120Y17981067D01*
X124125262Y18077829D01*
X124342977Y18077829D01*
X124488120Y17981067D01*
X124560691Y17787543D01*
X124560691Y16723162D01*
X125286405Y16723162D02*
X125286405Y18077829D01*
X125286405Y18755162D02*
X125213834Y18658400D01*
X125286405Y18561639D01*
X125358977Y18658400D01*
X125286405Y18755162D01*
X125286405Y18561639D01*
X126229834Y16723162D02*
X126084691Y16819924D01*
X126012120Y17013448D01*
X126012120Y18755162D01*
X-5038362Y19792000D02*
X-5038362Y19501715D01*
X-4941600Y19356572D01*
X-4844839Y19284000D01*
X-4554553Y19138858D01*
X-4167505Y19066286D01*
X-3393410Y19066286D01*
X-3199886Y19138858D01*
X-3103124Y19211429D01*
X-3006362Y19356572D01*
X-3006362Y19646858D01*
X-3103124Y19792000D01*
X-3199886Y19864572D01*
X-3393410Y19937143D01*
X-3877220Y19937143D01*
X-4070743Y19864572D01*
X-4167505Y19792000D01*
X-4264267Y19646858D01*
X-4264267Y19356572D01*
X-4167505Y19211429D01*
X-4070743Y19138858D01*
X-3877220Y19066286D01*
X-4167505Y20808000D02*
X-4264267Y20662858D01*
X-4361029Y20590286D01*
X-4554553Y20517715D01*
X-4651315Y20517715D01*
X-4844839Y20590286D01*
X-4941600Y20662858D01*
X-5038362Y20808000D01*
X-5038362Y21098286D01*
X-4941600Y21243429D01*
X-4844839Y21316000D01*
X-4651315Y21388572D01*
X-4554553Y21388572D01*
X-4361029Y21316000D01*
X-4264267Y21243429D01*
X-4167505Y21098286D01*
X-4167505Y20808000D01*
X-4070743Y20662858D01*
X-3973981Y20590286D01*
X-3780458Y20517715D01*
X-3393410Y20517715D01*
X-3199886Y20590286D01*
X-3103124Y20662858D01*
X-3006362Y20808000D01*
X-3006362Y21098286D01*
X-3103124Y21243429D01*
X-3199886Y21316000D01*
X-3393410Y21388572D01*
X-3780458Y21388572D01*
X-3973981Y21316000D01*
X-4070743Y21243429D01*
X-4167505Y21098286D01*
X-3199886Y22041715D02*
X-3103124Y22114286D01*
X-3006362Y22041715D01*
X-3103124Y21969143D01*
X-3199886Y22041715D01*
X-3006362Y22041715D01*
X-5038362Y23493143D02*
X-5038362Y22767429D01*
X-4070743Y22694858D01*
X-4167505Y22767429D01*
X-4264267Y22912572D01*
X-4264267Y23275429D01*
X-4167505Y23420572D01*
X-4070743Y23493143D01*
X-3877220Y23565715D01*
X-3393410Y23565715D01*
X-3199886Y23493143D01*
X-3103124Y23420572D01*
X-3006362Y23275429D01*
X-3006362Y22912572D01*
X-3103124Y22767429D01*
X-3199886Y22694858D01*
X-5038362Y24509143D02*
X-5038362Y24654286D01*
X-4941600Y24799429D01*
X-4844839Y24872000D01*
X-4651315Y24944572D01*
X-4264267Y25017143D01*
X-3780458Y25017143D01*
X-3393410Y24944572D01*
X-3199886Y24872000D01*
X-3103124Y24799429D01*
X-3006362Y24654286D01*
X-3006362Y24509143D01*
X-3103124Y24364000D01*
X-3199886Y24291429D01*
X-3393410Y24218858D01*
X-3780458Y24146286D01*
X-4264267Y24146286D01*
X-4651315Y24218858D01*
X-4844839Y24291429D01*
X-4941600Y24364000D01*
X-5038362Y24509143D01*
X-5038362Y25960572D02*
X-5038362Y26105715D01*
X-4941600Y26250858D01*
X-4844839Y26323429D01*
X-4651315Y26396000D01*
X-4264267Y26468572D01*
X-3780458Y26468572D01*
X-3393410Y26396000D01*
X-3199886Y26323429D01*
X-3103124Y26250858D01*
X-3006362Y26105715D01*
X-3006362Y25960572D01*
X-3103124Y25815429D01*
X-3199886Y25742858D01*
X-3393410Y25670286D01*
X-3780458Y25597715D01*
X-4264267Y25597715D01*
X-4651315Y25670286D01*
X-4844839Y25742858D01*
X-4941600Y25815429D01*
X-5038362Y25960572D01*
X-3006362Y28282858D02*
X-4361029Y28282858D01*
X-4167505Y28282858D02*
X-4264267Y28355429D01*
X-4361029Y28500572D01*
X-4361029Y28718286D01*
X-4264267Y28863429D01*
X-4070743Y28936000D01*
X-3006362Y28936000D01*
X-4070743Y28936000D02*
X-4264267Y29008572D01*
X-4361029Y29153715D01*
X-4361029Y29371429D01*
X-4264267Y29516572D01*
X-4070743Y29589143D01*
X-3006362Y29589143D01*
X-3006362Y30314858D02*
X-4361029Y30314858D01*
X-4167505Y30314858D02*
X-4264267Y30387429D01*
X-4361029Y30532572D01*
X-4361029Y30750286D01*
X-4264267Y30895429D01*
X-4070743Y30968000D01*
X-3006362Y30968000D01*
X-4070743Y30968000D02*
X-4264267Y31040572D01*
X-4361029Y31185715D01*
X-4361029Y31403429D01*
X-4264267Y31548572D01*
X-4070743Y31621143D01*
X-3006362Y31621143D01*
X-2300000Y-8870000D02*
X-2300000Y59630000D01*
X150000Y-8870000D02*
X-5551200Y-8870000D01*
X150000Y59630000D02*
X-5551200Y59630000D01*
X-2300000Y59630000D02*
X-1713579Y58503496D01*
X-2300000Y59630000D02*
X-2886421Y58503496D01*
X-2300000Y-8870000D02*
X-1713579Y-7743496D01*
X-2300000Y-8870000D02*
X-2886421Y-7743496D01*
X21134571Y-12332838D02*
X20408857Y-12332838D01*
X20336285Y-13300457D01*
X20408857Y-13203695D01*
X20554000Y-13106933D01*
X20916857Y-13106933D01*
X21062000Y-13203695D01*
X21134571Y-13300457D01*
X21207142Y-13493980D01*
X21207142Y-13977790D01*
X21134571Y-14171314D01*
X21062000Y-14268076D01*
X20916857Y-14364838D01*
X20554000Y-14364838D01*
X20408857Y-14268076D01*
X20336285Y-14171314D01*
X21715142Y-12332838D02*
X22658571Y-12332838D01*
X22150571Y-13106933D01*
X22368285Y-13106933D01*
X22513428Y-13203695D01*
X22586000Y-13300457D01*
X22658571Y-13493980D01*
X22658571Y-13977790D01*
X22586000Y-14171314D01*
X22513428Y-14268076D01*
X22368285Y-14364838D01*
X21932857Y-14364838D01*
X21787714Y-14268076D01*
X21715142Y-14171314D01*
X23311714Y-14171314D02*
X23384285Y-14268076D01*
X23311714Y-14364838D01*
X23239142Y-14268076D01*
X23311714Y-14171314D01*
X23311714Y-14364838D01*
X24327714Y-12332838D02*
X24472857Y-12332838D01*
X24618000Y-12429600D01*
X24690571Y-12526361D01*
X24763142Y-12719885D01*
X24835714Y-13106933D01*
X24835714Y-13590742D01*
X24763142Y-13977790D01*
X24690571Y-14171314D01*
X24618000Y-14268076D01*
X24472857Y-14364838D01*
X24327714Y-14364838D01*
X24182571Y-14268076D01*
X24110000Y-14171314D01*
X24037428Y-13977790D01*
X23964857Y-13590742D01*
X23964857Y-13106933D01*
X24037428Y-12719885D01*
X24110000Y-12526361D01*
X24182571Y-12429600D01*
X24327714Y-12332838D01*
X25779142Y-12332838D02*
X25924285Y-12332838D01*
X26069428Y-12429600D01*
X26142000Y-12526361D01*
X26214571Y-12719885D01*
X26287142Y-13106933D01*
X26287142Y-13590742D01*
X26214571Y-13977790D01*
X26142000Y-14171314D01*
X26069428Y-14268076D01*
X25924285Y-14364838D01*
X25779142Y-14364838D01*
X25634000Y-14268076D01*
X25561428Y-14171314D01*
X25488857Y-13977790D01*
X25416285Y-13590742D01*
X25416285Y-13106933D01*
X25488857Y-12719885D01*
X25561428Y-12526361D01*
X25634000Y-12429600D01*
X25779142Y-12332838D01*
X27230571Y-12332838D02*
X27375714Y-12332838D01*
X27520857Y-12429600D01*
X27593428Y-12526361D01*
X27666000Y-12719885D01*
X27738571Y-13106933D01*
X27738571Y-13590742D01*
X27666000Y-13977790D01*
X27593428Y-14171314D01*
X27520857Y-14268076D01*
X27375714Y-14364838D01*
X27230571Y-14364838D01*
X27085428Y-14268076D01*
X27012857Y-14171314D01*
X26940285Y-13977790D01*
X26867714Y-13590742D01*
X26867714Y-13106933D01*
X26940285Y-12719885D01*
X27012857Y-12526361D01*
X27085428Y-12429600D01*
X27230571Y-12332838D01*
X29552857Y-14364838D02*
X29552857Y-13010171D01*
X29552857Y-13203695D02*
X29625428Y-13106933D01*
X29770571Y-13010171D01*
X29988285Y-13010171D01*
X30133428Y-13106933D01*
X30206000Y-13300457D01*
X30206000Y-14364838D01*
X30206000Y-13300457D02*
X30278571Y-13106933D01*
X30423714Y-13010171D01*
X30641428Y-13010171D01*
X30786571Y-13106933D01*
X30859142Y-13300457D01*
X30859142Y-14364838D01*
X31584857Y-14364838D02*
X31584857Y-13010171D01*
X31584857Y-13203695D02*
X31657428Y-13106933D01*
X31802571Y-13010171D01*
X32020285Y-13010171D01*
X32165428Y-13106933D01*
X32238000Y-13300457D01*
X32238000Y-14364838D01*
X32238000Y-13300457D02*
X32310571Y-13106933D01*
X32455714Y-13010171D01*
X32673428Y-13010171D01*
X32818571Y-13106933D01*
X32891142Y-13300457D01*
X32891142Y-14364838D01*
X150000Y-11820000D02*
X53150000Y-11820000D01*
X150000Y-8870000D02*
X150000Y-15071200D01*
X53150000Y-8870000D02*
X53150000Y-15071200D01*
X53150000Y-11820000D02*
X52023496Y-12406421D01*
X53150000Y-11820000D02*
X52023496Y-11233579D01*
X150000Y-11820000D02*
X1276504Y-12406421D01*
X150000Y-11820000D02*
X1276504Y-11233579D01*
M02*
