G04 #@! TF.GenerationSoftware,KiCad,Pcbnew,(5.0.0)*
G04 #@! TF.CreationDate,2018-12-02T13:03:49-08:00*
G04 #@! TF.ProjectId,HamShield1.1,48616D536869656C64312E312E6B6963,rev?*
G04 #@! TF.SameCoordinates,PX581e980PY882a660*
G04 #@! TF.FileFunction,Soldermask,Bot*
G04 #@! TF.FilePolarity,Negative*
%FSLAX46Y46*%
G04 Gerber Fmt 4.6, Leading zero omitted, Abs format (unit mm)*
G04 Created by KiCad (PCBNEW (5.0.0)) date 12/02/18 13:03:49*
%MOMM*%
%LPD*%
G01*
G04 APERTURE LIST*
%ADD10C,1.950000*%
%ADD11R,1.977200X2.282000*%
%ADD12O,1.977200X2.282000*%
%ADD13R,1.950000X1.950000*%
%ADD14O,1.950000X1.950000*%
%ADD15C,2.129600*%
%ADD16C,3.750000*%
%ADD17R,2.250000X4.314000*%
G04 APERTURE END LIST*
D10*
G04 #@! TO.C,J2*
X43200000Y-3220000D03*
X43200000Y3780000D03*
G04 #@! TD*
D11*
G04 #@! TO.C,P1*
X25480000Y1780000D03*
D12*
X22940000Y1780000D03*
X20400000Y1780000D03*
X17860000Y1780000D03*
X15320000Y1780000D03*
X12780000Y1780000D03*
X10240000Y1780000D03*
X7700000Y1780000D03*
X5160000Y1780000D03*
X2620000Y1780000D03*
G04 #@! TD*
D13*
G04 #@! TO.C,JP3*
X35470000Y4165000D03*
D14*
X35470000Y1625000D03*
X35470000Y-915000D03*
X35470000Y-3455000D03*
G04 #@! TD*
D15*
G04 #@! TO.C,U5*
X50830000Y26680000D03*
X50830000Y29220000D03*
X50830000Y41920000D03*
X50830000Y44460000D03*
X50830000Y47000000D03*
X50830000Y49540000D03*
X50830000Y52080000D03*
X50830000Y54620000D03*
X2570000Y15250000D03*
X2570000Y49540000D03*
X2570000Y47000000D03*
X2570000Y44460000D03*
X2570000Y41920000D03*
X2570000Y39380000D03*
X2570000Y36840000D03*
X2570000Y33030000D03*
X2570000Y30490000D03*
X2570000Y27950000D03*
X2570000Y25410000D03*
X2570000Y22870000D03*
X2570000Y20330000D03*
X50830000Y31760000D03*
X50830000Y34300000D03*
X2570000Y17790000D03*
X50830000Y24140000D03*
X2570000Y54620000D03*
X2570000Y52080000D03*
X50830000Y36840000D03*
D16*
X2570000Y6360000D03*
X45755000Y57165000D03*
X17815000Y57160000D03*
X50830000Y5095000D03*
D15*
X2570000Y12710000D03*
X2570000Y10170000D03*
X50830000Y21600000D03*
X50830000Y19060000D03*
G04 #@! TD*
D17*
G04 #@! TO.C,J1*
X8838000Y57240000D03*
X14362000Y57240000D03*
G04 #@! TD*
M02*
