G04 #@! TF.GenerationSoftware,KiCad,Pcbnew,(5.0.0)*
G04 #@! TF.CreationDate,2018-12-02T13:03:49-08:00*
G04 #@! TF.ProjectId,HamShield1.1,48616D536869656C64312E312E6B6963,rev?*
G04 #@! TF.SameCoordinates,PX581e980PY882a660*
G04 #@! TF.FileFunction,Legend,Bot*
G04 #@! TF.FilePolarity,Positive*
%FSLAX46Y46*%
G04 Gerber Fmt 4.6, Leading zero omitted, Abs format (unit mm)*
G04 Created by KiCad (PCBNEW (5.0.0)) date 12/02/18 13:03:49*
%MOMM*%
%LPD*%
G01*
G04 APERTURE LIST*
%ADD10C,0.304800*%
%ADD11C,0.125000*%
%ADD12C,1.950000*%
%ADD13R,1.977200X2.282000*%
%ADD14O,1.977200X2.282000*%
%ADD15R,1.950000X1.950000*%
%ADD16O,1.950000X1.950000*%
%ADD17C,2.129600*%
%ADD18C,3.750000*%
%ADD19R,2.250000X4.314000*%
G04 APERTURE END LIST*
D10*
X50439022Y14623562D02*
X50439022Y16655562D01*
X50439022Y15687943D02*
X49568165Y15687943D01*
X49568165Y14623562D02*
X49568165Y16655562D01*
X48189308Y14623562D02*
X48189308Y15687943D01*
X48261880Y15881467D01*
X48407022Y15978229D01*
X48697308Y15978229D01*
X48842451Y15881467D01*
X48189308Y14720324D02*
X48334451Y14623562D01*
X48697308Y14623562D01*
X48842451Y14720324D01*
X48915022Y14913848D01*
X48915022Y15107372D01*
X48842451Y15300896D01*
X48697308Y15397658D01*
X48334451Y15397658D01*
X48189308Y15494420D01*
X47463594Y14623562D02*
X47463594Y15978229D01*
X47463594Y15784705D02*
X47391022Y15881467D01*
X47245880Y15978229D01*
X47028165Y15978229D01*
X46883022Y15881467D01*
X46810451Y15687943D01*
X46810451Y14623562D01*
X46810451Y15687943D02*
X46737880Y15881467D01*
X46592737Y15978229D01*
X46375022Y15978229D01*
X46229880Y15881467D01*
X46157308Y15687943D01*
X46157308Y14623562D01*
X45504165Y14720324D02*
X45286451Y14623562D01*
X44923594Y14623562D01*
X44778451Y14720324D01*
X44705880Y14817086D01*
X44633308Y15010610D01*
X44633308Y15204134D01*
X44705880Y15397658D01*
X44778451Y15494420D01*
X44923594Y15591181D01*
X45213880Y15687943D01*
X45359022Y15784705D01*
X45431594Y15881467D01*
X45504165Y16074991D01*
X45504165Y16268515D01*
X45431594Y16462039D01*
X45359022Y16558800D01*
X45213880Y16655562D01*
X44851022Y16655562D01*
X44633308Y16558800D01*
X43980165Y14623562D02*
X43980165Y16655562D01*
X43327022Y14623562D02*
X43327022Y15687943D01*
X43399594Y15881467D01*
X43544737Y15978229D01*
X43762451Y15978229D01*
X43907594Y15881467D01*
X43980165Y15784705D01*
X42601308Y14623562D02*
X42601308Y15978229D01*
X42601308Y16655562D02*
X42673880Y16558800D01*
X42601308Y16462039D01*
X42528737Y16558800D01*
X42601308Y16655562D01*
X42601308Y16462039D01*
X41295022Y14720324D02*
X41440165Y14623562D01*
X41730451Y14623562D01*
X41875594Y14720324D01*
X41948165Y14913848D01*
X41948165Y15687943D01*
X41875594Y15881467D01*
X41730451Y15978229D01*
X41440165Y15978229D01*
X41295022Y15881467D01*
X41222451Y15687943D01*
X41222451Y15494420D01*
X41948165Y15300896D01*
X40351594Y14623562D02*
X40496737Y14720324D01*
X40569308Y14913848D01*
X40569308Y16655562D01*
X39117880Y14623562D02*
X39117880Y16655562D01*
X39117880Y14720324D02*
X39263022Y14623562D01*
X39553308Y14623562D01*
X39698451Y14720324D01*
X39771022Y14817086D01*
X39843594Y15010610D01*
X39843594Y15591181D01*
X39771022Y15784705D01*
X39698451Y15881467D01*
X39553308Y15978229D01*
X39263022Y15978229D01*
X39117880Y15881467D01*
X37593880Y14623562D02*
X38464737Y14623562D01*
X38029308Y14623562D02*
X38029308Y16655562D01*
X38174451Y16365277D01*
X38319594Y16171753D01*
X38464737Y16074991D01*
X36940737Y14817086D02*
X36868165Y14720324D01*
X36940737Y14623562D01*
X37013308Y14720324D01*
X36940737Y14817086D01*
X36940737Y14623562D01*
X35416737Y14623562D02*
X36287594Y14623562D01*
X35852165Y14623562D02*
X35852165Y16655562D01*
X35997308Y16365277D01*
X36142451Y16171753D01*
X36287594Y16074991D01*
X50439022Y12335143D02*
X49931022Y12335143D01*
X49713308Y11270762D02*
X50439022Y11270762D01*
X50439022Y13302762D01*
X49713308Y13302762D01*
X49060165Y12625429D02*
X49060165Y11270762D01*
X49060165Y12431905D02*
X48987594Y12528667D01*
X48842451Y12625429D01*
X48624737Y12625429D01*
X48479594Y12528667D01*
X48407022Y12335143D01*
X48407022Y11270762D01*
X47681308Y11270762D02*
X47681308Y13302762D01*
X47028165Y11270762D02*
X47028165Y12335143D01*
X47100737Y12528667D01*
X47245880Y12625429D01*
X47463594Y12625429D01*
X47608737Y12528667D01*
X47681308Y12431905D01*
X45649308Y11270762D02*
X45649308Y12335143D01*
X45721880Y12528667D01*
X45867022Y12625429D01*
X46157308Y12625429D01*
X46302451Y12528667D01*
X45649308Y11367524D02*
X45794451Y11270762D01*
X46157308Y11270762D01*
X46302451Y11367524D01*
X46375022Y11561048D01*
X46375022Y11754572D01*
X46302451Y11948096D01*
X46157308Y12044858D01*
X45794451Y12044858D01*
X45649308Y12141620D01*
X44923594Y12625429D02*
X44923594Y11270762D01*
X44923594Y12431905D02*
X44851022Y12528667D01*
X44705880Y12625429D01*
X44488165Y12625429D01*
X44343022Y12528667D01*
X44270451Y12335143D01*
X44270451Y11270762D01*
X42891594Y11367524D02*
X43036737Y11270762D01*
X43327022Y11270762D01*
X43472165Y11367524D01*
X43544737Y11464286D01*
X43617308Y11657810D01*
X43617308Y12238381D01*
X43544737Y12431905D01*
X43472165Y12528667D01*
X43327022Y12625429D01*
X43036737Y12625429D01*
X42891594Y12528667D01*
X41657880Y11367524D02*
X41803022Y11270762D01*
X42093308Y11270762D01*
X42238451Y11367524D01*
X42311022Y11561048D01*
X42311022Y12335143D01*
X42238451Y12528667D01*
X42093308Y12625429D01*
X41803022Y12625429D01*
X41657880Y12528667D01*
X41585308Y12335143D01*
X41585308Y12141620D01*
X42311022Y11948096D01*
X40279022Y11270762D02*
X40279022Y13302762D01*
X40279022Y11367524D02*
X40424165Y11270762D01*
X40714451Y11270762D01*
X40859594Y11367524D01*
X40932165Y11464286D01*
X41004737Y11657810D01*
X41004737Y12238381D01*
X40932165Y12431905D01*
X40859594Y12528667D01*
X40714451Y12625429D01*
X40424165Y12625429D01*
X40279022Y12528667D01*
X37521308Y11270762D02*
X38029308Y12238381D01*
X38392165Y11270762D02*
X38392165Y13302762D01*
X37811594Y13302762D01*
X37666451Y13206000D01*
X37593880Y13109239D01*
X37521308Y12915715D01*
X37521308Y12625429D01*
X37593880Y12431905D01*
X37666451Y12335143D01*
X37811594Y12238381D01*
X38392165Y12238381D01*
X36215022Y11270762D02*
X36215022Y12335143D01*
X36287594Y12528667D01*
X36432737Y12625429D01*
X36723022Y12625429D01*
X36868165Y12528667D01*
X36215022Y11367524D02*
X36360165Y11270762D01*
X36723022Y11270762D01*
X36868165Y11367524D01*
X36940737Y11561048D01*
X36940737Y11754572D01*
X36868165Y11948096D01*
X36723022Y12044858D01*
X36360165Y12044858D01*
X36215022Y12141620D01*
X34836165Y11270762D02*
X34836165Y13302762D01*
X34836165Y11367524D02*
X34981308Y11270762D01*
X35271594Y11270762D01*
X35416737Y11367524D01*
X35489308Y11464286D01*
X35561880Y11657810D01*
X35561880Y12238381D01*
X35489308Y12431905D01*
X35416737Y12528667D01*
X35271594Y12625429D01*
X34981308Y12625429D01*
X34836165Y12528667D01*
X34110451Y11270762D02*
X34110451Y12625429D01*
X34110451Y13302762D02*
X34183022Y13206000D01*
X34110451Y13109239D01*
X34037880Y13206000D01*
X34110451Y13302762D01*
X34110451Y13109239D01*
X33167022Y11270762D02*
X33312165Y11367524D01*
X33384737Y11464286D01*
X33457308Y11657810D01*
X33457308Y12238381D01*
X33384737Y12431905D01*
X33312165Y12528667D01*
X33167022Y12625429D01*
X32949308Y12625429D01*
X32804165Y12528667D01*
X32731594Y12431905D01*
X32659022Y12238381D01*
X32659022Y11657810D01*
X32731594Y11464286D01*
X32804165Y11367524D01*
X32949308Y11270762D01*
X33167022Y11270762D01*
X30844737Y11270762D02*
X30844737Y13302762D01*
X30481880Y13302762D01*
X30264165Y13206000D01*
X30119022Y13012477D01*
X30046451Y12818953D01*
X29973880Y12431905D01*
X29973880Y12141620D01*
X30046451Y11754572D01*
X30119022Y11561048D01*
X30264165Y11367524D01*
X30481880Y11270762D01*
X30844737Y11270762D01*
X28740165Y11367524D02*
X28885308Y11270762D01*
X29175594Y11270762D01*
X29320737Y11367524D01*
X29393308Y11561048D01*
X29393308Y12335143D01*
X29320737Y12528667D01*
X29175594Y12625429D01*
X28885308Y12625429D01*
X28740165Y12528667D01*
X28667594Y12335143D01*
X28667594Y12141620D01*
X29393308Y11948096D01*
X28159594Y12625429D02*
X27796737Y11270762D01*
X27433880Y12625429D01*
X26853308Y11270762D02*
X26853308Y12625429D01*
X26853308Y13302762D02*
X26925880Y13206000D01*
X26853308Y13109239D01*
X26780737Y13206000D01*
X26853308Y13302762D01*
X26853308Y13109239D01*
X25474451Y11367524D02*
X25619594Y11270762D01*
X25909880Y11270762D01*
X26055022Y11367524D01*
X26127594Y11464286D01*
X26200165Y11657810D01*
X26200165Y12238381D01*
X26127594Y12431905D01*
X26055022Y12528667D01*
X25909880Y12625429D01*
X25619594Y12625429D01*
X25474451Y12528667D01*
X24240737Y11367524D02*
X24385880Y11270762D01*
X24676165Y11270762D01*
X24821308Y11367524D01*
X24893880Y11561048D01*
X24893880Y12335143D01*
X24821308Y12528667D01*
X24676165Y12625429D01*
X24385880Y12625429D01*
X24240737Y12528667D01*
X24168165Y12335143D01*
X24168165Y12141620D01*
X24893880Y11948096D01*
X23587594Y11367524D02*
X23442451Y11270762D01*
X23152165Y11270762D01*
X23007022Y11367524D01*
X22934451Y11561048D01*
X22934451Y11657810D01*
X23007022Y11851334D01*
X23152165Y11948096D01*
X23369880Y11948096D01*
X23515022Y12044858D01*
X23587594Y12238381D01*
X23587594Y12335143D01*
X23515022Y12528667D01*
X23369880Y12625429D01*
X23152165Y12625429D01*
X23007022Y12528667D01*
X50511594Y9756439D02*
X50439022Y9853200D01*
X50293880Y9949962D01*
X49931022Y9949962D01*
X49785880Y9853200D01*
X49713308Y9756439D01*
X49640737Y9562915D01*
X49640737Y9369391D01*
X49713308Y9079105D01*
X50584165Y7917962D01*
X49640737Y7917962D01*
X48697308Y9949962D02*
X48552165Y9949962D01*
X48407022Y9853200D01*
X48334451Y9756439D01*
X48261880Y9562915D01*
X48189308Y9175867D01*
X48189308Y8692058D01*
X48261880Y8305010D01*
X48334451Y8111486D01*
X48407022Y8014724D01*
X48552165Y7917962D01*
X48697308Y7917962D01*
X48842451Y8014724D01*
X48915022Y8111486D01*
X48987594Y8305010D01*
X49060165Y8692058D01*
X49060165Y9175867D01*
X48987594Y9562915D01*
X48915022Y9756439D01*
X48842451Y9853200D01*
X48697308Y9949962D01*
X46737880Y7917962D02*
X47608737Y7917962D01*
X47173308Y7917962D02*
X47173308Y9949962D01*
X47318451Y9659677D01*
X47463594Y9466153D01*
X47608737Y9369391D01*
X46012165Y7917962D02*
X45721880Y7917962D01*
X45576737Y8014724D01*
X45504165Y8111486D01*
X45359022Y8401772D01*
X45286451Y8788820D01*
X45286451Y9562915D01*
X45359022Y9756439D01*
X45431594Y9853200D01*
X45576737Y9949962D01*
X45867022Y9949962D01*
X46012165Y9853200D01*
X46084737Y9756439D01*
X46157308Y9562915D01*
X46157308Y9079105D01*
X46084737Y8885581D01*
X46012165Y8788820D01*
X45867022Y8692058D01*
X45576737Y8692058D01*
X45431594Y8788820D01*
X45359022Y8885581D01*
X45286451Y9079105D01*
G04 #@! TO.C,U5*
D11*
X49234761Y21187620D02*
X49234761Y22187620D01*
X48568095Y22187620D02*
X48377619Y22187620D01*
X48282380Y22140000D01*
X48187142Y22044762D01*
X48139523Y21854286D01*
X48139523Y21520953D01*
X48187142Y21330477D01*
X48282380Y21235239D01*
X48377619Y21187620D01*
X48568095Y21187620D01*
X48663333Y21235239D01*
X48758571Y21330477D01*
X48806190Y21520953D01*
X48806190Y21854286D01*
X48758571Y22044762D01*
X48663333Y22140000D01*
X48568095Y22187620D01*
X47139523Y21187620D02*
X47472857Y21663810D01*
X47710952Y21187620D02*
X47710952Y22187620D01*
X47330000Y22187620D01*
X47234761Y22140000D01*
X47187142Y22092381D01*
X47139523Y21997143D01*
X47139523Y21854286D01*
X47187142Y21759048D01*
X47234761Y21711429D01*
X47330000Y21663810D01*
X47710952Y21663810D01*
X46710952Y21711429D02*
X46377619Y21711429D01*
X46234761Y21187620D02*
X46710952Y21187620D01*
X46710952Y22187620D01*
X46234761Y22187620D01*
X45472857Y21711429D02*
X45806190Y21711429D01*
X45806190Y21187620D02*
X45806190Y22187620D01*
X45330000Y22187620D01*
X6500476Y9695239D02*
X6357619Y9647620D01*
X6119523Y9647620D01*
X6024285Y9695239D01*
X5976666Y9742858D01*
X5929047Y9838096D01*
X5929047Y9933334D01*
X5976666Y10028572D01*
X6024285Y10076191D01*
X6119523Y10123810D01*
X6310000Y10171429D01*
X6405238Y10219048D01*
X6452857Y10266667D01*
X6500476Y10361905D01*
X6500476Y10457143D01*
X6452857Y10552381D01*
X6405238Y10600000D01*
X6310000Y10647620D01*
X6071904Y10647620D01*
X5929047Y10600000D01*
X4929047Y9742858D02*
X4976666Y9695239D01*
X5119523Y9647620D01*
X5214761Y9647620D01*
X5357619Y9695239D01*
X5452857Y9790477D01*
X5500476Y9885715D01*
X5548095Y10076191D01*
X5548095Y10219048D01*
X5500476Y10409524D01*
X5452857Y10504762D01*
X5357619Y10600000D01*
X5214761Y10647620D01*
X5119523Y10647620D01*
X4976666Y10600000D01*
X4929047Y10552381D01*
X4024285Y9647620D02*
X4500476Y9647620D01*
X4500476Y10647620D01*
X6664285Y12375239D02*
X6521428Y12327620D01*
X6283333Y12327620D01*
X6188095Y12375239D01*
X6140476Y12422858D01*
X6092857Y12518096D01*
X6092857Y12613334D01*
X6140476Y12708572D01*
X6188095Y12756191D01*
X6283333Y12803810D01*
X6473809Y12851429D01*
X6569047Y12899048D01*
X6616666Y12946667D01*
X6664285Y13041905D01*
X6664285Y13137143D01*
X6616666Y13232381D01*
X6569047Y13280000D01*
X6473809Y13327620D01*
X6235714Y13327620D01*
X6092857Y13280000D01*
X5664285Y12327620D02*
X5664285Y13327620D01*
X5426190Y13327620D01*
X5283333Y13280000D01*
X5188095Y13184762D01*
X5140476Y13089524D01*
X5092857Y12899048D01*
X5092857Y12756191D01*
X5140476Y12565715D01*
X5188095Y12470477D01*
X5283333Y12375239D01*
X5426190Y12327620D01*
X5664285Y12327620D01*
X4711904Y12613334D02*
X4235714Y12613334D01*
X4807142Y12327620D02*
X4473809Y13327620D01*
X4140476Y12327620D01*
X48683604Y32140000D02*
X48778842Y32187620D01*
X48921700Y32187620D01*
X49064557Y32140000D01*
X49159795Y32044762D01*
X49207414Y31949524D01*
X49255033Y31759048D01*
X49255033Y31616191D01*
X49207414Y31425715D01*
X49159795Y31330477D01*
X49064557Y31235239D01*
X48921700Y31187620D01*
X48826461Y31187620D01*
X48683604Y31235239D01*
X48635985Y31282858D01*
X48635985Y31616191D01*
X48826461Y31616191D01*
X48207414Y31187620D02*
X48207414Y32187620D01*
X47635985Y31187620D01*
X47635985Y32187620D01*
X47159795Y31187620D02*
X47159795Y32187620D01*
X46921700Y32187620D01*
X46778842Y32140000D01*
X46683604Y32044762D01*
X46635985Y31949524D01*
X46588366Y31759048D01*
X46588366Y31616191D01*
X46635985Y31425715D01*
X46683604Y31330477D01*
X46778842Y31235239D01*
X46921700Y31187620D01*
X47159795Y31187620D01*
X48683604Y34540000D02*
X48778842Y34587620D01*
X48921700Y34587620D01*
X49064557Y34540000D01*
X49159795Y34444762D01*
X49207414Y34349524D01*
X49255033Y34159048D01*
X49255033Y34016191D01*
X49207414Y33825715D01*
X49159795Y33730477D01*
X49064557Y33635239D01*
X48921700Y33587620D01*
X48826461Y33587620D01*
X48683604Y33635239D01*
X48635985Y33682858D01*
X48635985Y34016191D01*
X48826461Y34016191D01*
X48207414Y33587620D02*
X48207414Y34587620D01*
X47635985Y33587620D01*
X47635985Y34587620D01*
X47159795Y33587620D02*
X47159795Y34587620D01*
X46921700Y34587620D01*
X46778842Y34540000D01*
X46683604Y34444762D01*
X46635985Y34349524D01*
X46588366Y34159048D01*
X46588366Y34016191D01*
X46635985Y33825715D01*
X46683604Y33730477D01*
X46778842Y33635239D01*
X46921700Y33587620D01*
X47159795Y33587620D01*
X49207414Y29148572D02*
X48445509Y29148572D01*
X48826461Y28767620D02*
X48826461Y29529524D01*
X47493128Y29767620D02*
X47969319Y29767620D01*
X48016938Y29291429D01*
X47969319Y29339048D01*
X47874080Y29386667D01*
X47635985Y29386667D01*
X47540747Y29339048D01*
X47493128Y29291429D01*
X47445509Y29196191D01*
X47445509Y28958096D01*
X47493128Y28862858D01*
X47540747Y28815239D01*
X47635985Y28767620D01*
X47874080Y28767620D01*
X47969319Y28815239D01*
X48016938Y28862858D01*
X47159795Y29767620D02*
X46826461Y28767620D01*
X46493128Y29767620D01*
X48469319Y23687620D02*
X48802652Y24163810D01*
X49040747Y23687620D02*
X49040747Y24687620D01*
X48659795Y24687620D01*
X48564557Y24640000D01*
X48516938Y24592381D01*
X48469319Y24497143D01*
X48469319Y24354286D01*
X48516938Y24259048D01*
X48564557Y24211429D01*
X48659795Y24163810D01*
X49040747Y24163810D01*
X48088366Y23735239D02*
X47945509Y23687620D01*
X47707414Y23687620D01*
X47612176Y23735239D01*
X47564557Y23782858D01*
X47516938Y23878096D01*
X47516938Y23973334D01*
X47564557Y24068572D01*
X47612176Y24116191D01*
X47707414Y24163810D01*
X47897890Y24211429D01*
X47993128Y24259048D01*
X48040747Y24306667D01*
X48088366Y24401905D01*
X48088366Y24497143D01*
X48040747Y24592381D01*
X47993128Y24640000D01*
X47897890Y24687620D01*
X47659795Y24687620D01*
X47516938Y24640000D01*
X47231223Y24687620D02*
X46659795Y24687620D01*
X46945509Y23687620D02*
X46945509Y24687620D01*
X49016938Y37387620D02*
X48683604Y36387620D01*
X48350271Y37387620D01*
X48016938Y36387620D02*
X48016938Y37387620D01*
X47540747Y36387620D02*
X47540747Y37387620D01*
X46969319Y36387620D01*
X46969319Y37387620D01*
X49570000Y26588572D02*
X48808095Y26588572D01*
X49189047Y26207620D02*
X49189047Y26969524D01*
X48427142Y27207620D02*
X47808095Y27207620D01*
X48141428Y26826667D01*
X47998571Y26826667D01*
X47903333Y26779048D01*
X47855714Y26731429D01*
X47808095Y26636191D01*
X47808095Y26398096D01*
X47855714Y26302858D01*
X47903333Y26255239D01*
X47998571Y26207620D01*
X48284285Y26207620D01*
X48379523Y26255239D01*
X48427142Y26302858D01*
X47379523Y26302858D02*
X47331904Y26255239D01*
X47379523Y26207620D01*
X47427142Y26255239D01*
X47379523Y26302858D01*
X47379523Y26207620D01*
X46998571Y27207620D02*
X46379523Y27207620D01*
X46712857Y26826667D01*
X46570000Y26826667D01*
X46474761Y26779048D01*
X46427142Y26731429D01*
X46379523Y26636191D01*
X46379523Y26398096D01*
X46427142Y26302858D01*
X46474761Y26255239D01*
X46570000Y26207620D01*
X46855714Y26207620D01*
X46950952Y26255239D01*
X46998571Y26302858D01*
X46093809Y27207620D02*
X45760476Y26207620D01*
X45427142Y27207620D01*
X48985319Y42467620D02*
X48890080Y42467620D01*
X48794842Y42420000D01*
X48747223Y42372381D01*
X48699604Y42277143D01*
X48651985Y42086667D01*
X48651985Y41848572D01*
X48699604Y41658096D01*
X48747223Y41562858D01*
X48794842Y41515239D01*
X48890080Y41467620D01*
X48985319Y41467620D01*
X49080557Y41515239D01*
X49128176Y41562858D01*
X49175795Y41658096D01*
X49223414Y41848572D01*
X49223414Y42086667D01*
X49175795Y42277143D01*
X49128176Y42372381D01*
X49080557Y42420000D01*
X48985319Y42467620D01*
X48651985Y44007620D02*
X49223414Y44007620D01*
X48937700Y44007620D02*
X48937700Y45007620D01*
X49032938Y44864762D01*
X49128176Y44769524D01*
X49223414Y44721905D01*
X49223414Y47452381D02*
X49175795Y47500000D01*
X49080557Y47547620D01*
X48842461Y47547620D01*
X48747223Y47500000D01*
X48699604Y47452381D01*
X48651985Y47357143D01*
X48651985Y47261905D01*
X48699604Y47119048D01*
X49271033Y46547620D01*
X48651985Y46547620D01*
X49271033Y50087620D02*
X48651985Y50087620D01*
X48985319Y49706667D01*
X48842461Y49706667D01*
X48747223Y49659048D01*
X48699604Y49611429D01*
X48651985Y49516191D01*
X48651985Y49278096D01*
X48699604Y49182858D01*
X48747223Y49135239D01*
X48842461Y49087620D01*
X49128176Y49087620D01*
X49223414Y49135239D01*
X49271033Y49182858D01*
X48747223Y52294286D02*
X48747223Y51627620D01*
X48985319Y52675239D02*
X49223414Y51960953D01*
X48604366Y51960953D01*
X48699604Y55167620D02*
X49175795Y55167620D01*
X49223414Y54691429D01*
X49175795Y54739048D01*
X49080557Y54786667D01*
X48842461Y54786667D01*
X48747223Y54739048D01*
X48699604Y54691429D01*
X48651985Y54596191D01*
X48651985Y54358096D01*
X48699604Y54262858D01*
X48747223Y54215239D01*
X48842461Y54167620D01*
X49080557Y54167620D01*
X49175795Y54215239D01*
X49223414Y54262858D01*
X47580366Y51078192D02*
X47580366Y50602002D01*
X47866080Y51209145D02*
X46866080Y50750812D01*
X47866080Y50542478D01*
X47199414Y50125812D02*
X47866080Y50209145D01*
X47294652Y50137716D02*
X47247033Y50084145D01*
X47199414Y49982954D01*
X47199414Y49840097D01*
X47247033Y49750812D01*
X47342271Y49715097D01*
X47866080Y49780573D01*
X47866080Y48875812D02*
X47342271Y48810335D01*
X47247033Y48846050D01*
X47199414Y48935335D01*
X47199414Y49125812D01*
X47247033Y49227002D01*
X47818461Y48869859D02*
X47866080Y48971050D01*
X47866080Y49209145D01*
X47818461Y49298431D01*
X47723223Y49334145D01*
X47627985Y49322240D01*
X47532747Y49262716D01*
X47485128Y49161526D01*
X47485128Y48923431D01*
X47437509Y48822240D01*
X47866080Y48256764D02*
X47818461Y48346050D01*
X47723223Y48381764D01*
X46866080Y48274621D01*
X47866080Y47732954D02*
X47818461Y47822240D01*
X47770842Y47863907D01*
X47675604Y47899621D01*
X47389890Y47863907D01*
X47294652Y47804383D01*
X47247033Y47750812D01*
X47199414Y47649621D01*
X47199414Y47506764D01*
X47247033Y47417478D01*
X47294652Y47375812D01*
X47389890Y47340097D01*
X47675604Y47375812D01*
X47770842Y47435335D01*
X47818461Y47488907D01*
X47866080Y47590097D01*
X47866080Y47732954D01*
X47199414Y46459145D02*
X48008938Y46560335D01*
X48104176Y46619859D01*
X48151795Y46673431D01*
X48199414Y46774621D01*
X48199414Y46917478D01*
X48151795Y47006764D01*
X47818461Y46536526D02*
X47866080Y46637716D01*
X47866080Y46828192D01*
X47818461Y46917478D01*
X47770842Y46959145D01*
X47675604Y46994859D01*
X47389890Y46959145D01*
X47294652Y46899621D01*
X47247033Y46846050D01*
X47199414Y46744859D01*
X47199414Y46554383D01*
X47247033Y46465097D01*
X47866080Y45304383D02*
X46866080Y45179383D01*
X47199414Y44744859D02*
X47866080Y44828192D01*
X47294652Y44756764D02*
X47247033Y44703192D01*
X47199414Y44602002D01*
X47199414Y44459145D01*
X47247033Y44369859D01*
X47342271Y44334145D01*
X47866080Y44399621D01*
X6291904Y18060000D02*
X6387142Y18107620D01*
X6530000Y18107620D01*
X6672857Y18060000D01*
X6768095Y17964762D01*
X6815714Y17869524D01*
X6863333Y17679048D01*
X6863333Y17536191D01*
X6815714Y17345715D01*
X6768095Y17250477D01*
X6672857Y17155239D01*
X6530000Y17107620D01*
X6434761Y17107620D01*
X6291904Y17155239D01*
X6244285Y17202858D01*
X6244285Y17536191D01*
X6434761Y17536191D01*
X5815714Y17107620D02*
X5815714Y18107620D01*
X5244285Y17107620D01*
X5244285Y18107620D01*
X4768095Y17107620D02*
X4768095Y18107620D01*
X4530000Y18107620D01*
X4387142Y18060000D01*
X4291904Y17964762D01*
X4244285Y17869524D01*
X4196666Y17679048D01*
X4196666Y17536191D01*
X4244285Y17345715D01*
X4291904Y17250477D01*
X4387142Y17155239D01*
X4530000Y17107620D01*
X4768095Y17107620D01*
X5046476Y19877620D02*
X5617904Y19877620D01*
X5332190Y19877620D02*
X5332190Y20877620D01*
X5427428Y20734762D01*
X5522666Y20639524D01*
X5617904Y20591905D01*
X4713142Y20877620D02*
X4094095Y20877620D01*
X4427428Y20496667D01*
X4284571Y20496667D01*
X4189333Y20449048D01*
X4141714Y20401429D01*
X4094095Y20306191D01*
X4094095Y20068096D01*
X4141714Y19972858D01*
X4189333Y19925239D01*
X4284571Y19877620D01*
X4570285Y19877620D01*
X4665523Y19925239D01*
X4713142Y19972858D01*
X5046476Y22417620D02*
X5617904Y22417620D01*
X5332190Y22417620D02*
X5332190Y23417620D01*
X5427428Y23274762D01*
X5522666Y23179524D01*
X5617904Y23131905D01*
X4665523Y23322381D02*
X4617904Y23370000D01*
X4522666Y23417620D01*
X4284571Y23417620D01*
X4189333Y23370000D01*
X4141714Y23322381D01*
X4094095Y23227143D01*
X4094095Y23131905D01*
X4141714Y22989048D01*
X4713142Y22417620D01*
X4094095Y22417620D01*
X5046476Y24957620D02*
X5617904Y24957620D01*
X5332190Y24957620D02*
X5332190Y25957620D01*
X5427428Y25814762D01*
X5522666Y25719524D01*
X5617904Y25671905D01*
X4094095Y24957620D02*
X4665523Y24957620D01*
X4379809Y24957620D02*
X4379809Y25957620D01*
X4475047Y25814762D01*
X4570285Y25719524D01*
X4665523Y25671905D01*
X7379047Y14993334D02*
X6902857Y14993334D01*
X7474285Y14707620D02*
X7140952Y15707620D01*
X6807619Y14707620D01*
X5902857Y14707620D02*
X6236190Y15183810D01*
X6474285Y14707620D02*
X6474285Y15707620D01*
X6093333Y15707620D01*
X5998095Y15660000D01*
X5950476Y15612381D01*
X5902857Y15517143D01*
X5902857Y15374286D01*
X5950476Y15279048D01*
X5998095Y15231429D01*
X6093333Y15183810D01*
X6474285Y15183810D01*
X5474285Y15231429D02*
X5140952Y15231429D01*
X4998095Y14707620D02*
X5474285Y14707620D01*
X5474285Y15707620D01*
X4998095Y15707620D01*
X4236190Y15231429D02*
X4569523Y15231429D01*
X4569523Y14707620D02*
X4569523Y15707620D01*
X4093333Y15707620D01*
X5046476Y27497620D02*
X5617904Y27497620D01*
X5332190Y27497620D02*
X5332190Y28497620D01*
X5427428Y28354762D01*
X5522666Y28259524D01*
X5617904Y28211905D01*
X4427428Y28497620D02*
X4332190Y28497620D01*
X4236952Y28450000D01*
X4189333Y28402381D01*
X4141714Y28307143D01*
X4094095Y28116667D01*
X4094095Y27878572D01*
X4141714Y27688096D01*
X4189333Y27592858D01*
X4236952Y27545239D01*
X4332190Y27497620D01*
X4427428Y27497620D01*
X4522666Y27545239D01*
X4570285Y27592858D01*
X4617904Y27688096D01*
X4665523Y27878572D01*
X4665523Y28116667D01*
X4617904Y28307143D01*
X4570285Y28402381D01*
X4522666Y28450000D01*
X4427428Y28497620D01*
X4538476Y30037620D02*
X4348000Y30037620D01*
X4252761Y30085239D01*
X4205142Y30132858D01*
X4109904Y30275715D01*
X4062285Y30466191D01*
X4062285Y30847143D01*
X4109904Y30942381D01*
X4157523Y30990000D01*
X4252761Y31037620D01*
X4443238Y31037620D01*
X4538476Y30990000D01*
X4586095Y30942381D01*
X4633714Y30847143D01*
X4633714Y30609048D01*
X4586095Y30513810D01*
X4538476Y30466191D01*
X4443238Y30418572D01*
X4252761Y30418572D01*
X4157523Y30466191D01*
X4109904Y30513810D01*
X4062285Y30609048D01*
X4443238Y33149048D02*
X4538476Y33196667D01*
X4586095Y33244286D01*
X4633714Y33339524D01*
X4633714Y33387143D01*
X4586095Y33482381D01*
X4538476Y33530000D01*
X4443238Y33577620D01*
X4252761Y33577620D01*
X4157523Y33530000D01*
X4109904Y33482381D01*
X4062285Y33387143D01*
X4062285Y33339524D01*
X4109904Y33244286D01*
X4157523Y33196667D01*
X4252761Y33149048D01*
X4443238Y33149048D01*
X4538476Y33101429D01*
X4586095Y33053810D01*
X4633714Y32958572D01*
X4633714Y32768096D01*
X4586095Y32672858D01*
X4538476Y32625239D01*
X4443238Y32577620D01*
X4252761Y32577620D01*
X4157523Y32625239D01*
X4109904Y32672858D01*
X4062285Y32768096D01*
X4062285Y32958572D01*
X4109904Y33053810D01*
X4157523Y33101429D01*
X4252761Y33149048D01*
X4681333Y37387620D02*
X4014666Y37387620D01*
X4443238Y36387620D01*
X4157523Y39927620D02*
X4348000Y39927620D01*
X4443238Y39880000D01*
X4490857Y39832381D01*
X4586095Y39689524D01*
X4633714Y39499048D01*
X4633714Y39118096D01*
X4586095Y39022858D01*
X4538476Y38975239D01*
X4443238Y38927620D01*
X4252761Y38927620D01*
X4157523Y38975239D01*
X4109904Y39022858D01*
X4062285Y39118096D01*
X4062285Y39356191D01*
X4109904Y39451429D01*
X4157523Y39499048D01*
X4252761Y39546667D01*
X4443238Y39546667D01*
X4538476Y39499048D01*
X4586095Y39451429D01*
X4633714Y39356191D01*
X4109904Y42467620D02*
X4586095Y42467620D01*
X4633714Y41991429D01*
X4586095Y42039048D01*
X4490857Y42086667D01*
X4252761Y42086667D01*
X4157523Y42039048D01*
X4109904Y41991429D01*
X4062285Y41896191D01*
X4062285Y41658096D01*
X4109904Y41562858D01*
X4157523Y41515239D01*
X4252761Y41467620D01*
X4490857Y41467620D01*
X4586095Y41515239D01*
X4633714Y41562858D01*
X4157523Y44674286D02*
X4157523Y44007620D01*
X4395619Y45055239D02*
X4633714Y44340953D01*
X4014666Y44340953D01*
X4681333Y47547620D02*
X4062285Y47547620D01*
X4395619Y47166667D01*
X4252761Y47166667D01*
X4157523Y47119048D01*
X4109904Y47071429D01*
X4062285Y46976191D01*
X4062285Y46738096D01*
X4109904Y46642858D01*
X4157523Y46595239D01*
X4252761Y46547620D01*
X4538476Y46547620D01*
X4633714Y46595239D01*
X4681333Y46642858D01*
X4633714Y49992381D02*
X4586095Y50040000D01*
X4490857Y50087620D01*
X4252761Y50087620D01*
X4157523Y50040000D01*
X4109904Y49992381D01*
X4062285Y49897143D01*
X4062285Y49801905D01*
X4109904Y49659048D01*
X4681333Y49087620D01*
X4062285Y49087620D01*
X5617904Y52627620D02*
X5046476Y52627620D01*
X5332190Y51627620D02*
X5332190Y52627620D01*
X4808380Y52627620D02*
X4141714Y51627620D01*
X4141714Y52627620D02*
X4808380Y51627620D01*
X5022666Y54167620D02*
X5356000Y54643810D01*
X5594095Y54167620D02*
X5594095Y55167620D01*
X5213142Y55167620D01*
X5117904Y55120000D01*
X5070285Y55072381D01*
X5022666Y54977143D01*
X5022666Y54834286D01*
X5070285Y54739048D01*
X5117904Y54691429D01*
X5213142Y54643810D01*
X5594095Y54643810D01*
X4689333Y55167620D02*
X4022666Y54167620D01*
X4022666Y55167620D02*
X4689333Y54167620D01*
G04 #@! TD*
%LPC*%
D12*
G04 #@! TO.C,J2*
X43200000Y-3220000D03*
X43200000Y3780000D03*
G04 #@! TD*
D13*
G04 #@! TO.C,P1*
X25480000Y1780000D03*
D14*
X22940000Y1780000D03*
X20400000Y1780000D03*
X17860000Y1780000D03*
X15320000Y1780000D03*
X12780000Y1780000D03*
X10240000Y1780000D03*
X7700000Y1780000D03*
X5160000Y1780000D03*
X2620000Y1780000D03*
G04 #@! TD*
D15*
G04 #@! TO.C,JP3*
X35470000Y4165000D03*
D16*
X35470000Y1625000D03*
X35470000Y-915000D03*
X35470000Y-3455000D03*
G04 #@! TD*
D17*
G04 #@! TO.C,U5*
X50830000Y26680000D03*
X50830000Y29220000D03*
X50830000Y41920000D03*
X50830000Y44460000D03*
X50830000Y47000000D03*
X50830000Y49540000D03*
X50830000Y52080000D03*
X50830000Y54620000D03*
X2570000Y15250000D03*
X2570000Y49540000D03*
X2570000Y47000000D03*
X2570000Y44460000D03*
X2570000Y41920000D03*
X2570000Y39380000D03*
X2570000Y36840000D03*
X2570000Y33030000D03*
X2570000Y30490000D03*
X2570000Y27950000D03*
X2570000Y25410000D03*
X2570000Y22870000D03*
X2570000Y20330000D03*
X50830000Y31760000D03*
X50830000Y34300000D03*
X2570000Y17790000D03*
X50830000Y24140000D03*
X2570000Y54620000D03*
X2570000Y52080000D03*
X50830000Y36840000D03*
D18*
X2570000Y6360000D03*
X45755000Y57165000D03*
X17815000Y57160000D03*
X50830000Y5095000D03*
D17*
X2570000Y12710000D03*
X2570000Y10170000D03*
X50830000Y21600000D03*
X50830000Y19060000D03*
G04 #@! TD*
D19*
G04 #@! TO.C,J1*
X8838000Y57240000D03*
X14362000Y57240000D03*
G04 #@! TD*
M02*
