M48
;DRILL file {KiCad (5.0.0)} date 12/02/18 13:03:51
;FORMAT={2:4/ absolute / inch / suppress leading zeros}
FMAT,2
INCH,TZ
T1C0.0100
T2C0.0130
T3C0.0394
T4C0.0400
T5C0.0669
T6C0.1378
%
G90
G05
M72
T1
X2283Y12906
X2292Y10386
X2521Y11331
X3858Y11606
X4134Y4772
X4134Y4425
X4173Y-362
X4350Y3417
X4980Y15465
X5079Y15071
X5098Y3713
X5551Y19559
X5551Y-1878
X5748Y17531
X5787Y17945
X5984Y15661
X6043Y18339
X6378Y4992
X6417Y-2803
X8413Y4280
X8413Y3709
X8591Y5484
X8933Y5728
X9008Y4319
X9012Y3732
X9134Y12197
X9390Y5366
X9941Y5071
X10157Y4756
X10295Y2906
X10531Y3220
X10965Y6370
X10965Y2295
X11319Y-1287
X12283Y13673
X12382Y20760
X13661Y18654
X13957Y7177
X14508Y3811
X14783Y16252
X15236Y18673
X15650Y4953
X15669Y7748
X16264Y12031
X16339Y16252
X16339Y9953
X16734Y13123
X16734Y12838
X16811Y18673
X16990Y13123
X16990Y12838
X17165Y18634
X17480Y5770
X17972Y16252
X18425Y209
X18882Y18972
X18882Y13972
X19193Y7472
X19764Y1016
T2
X7402Y-894
X11457Y17039
X4843Y-2272
X3976Y14874
X10472Y16744
X5630Y-3059
X2480Y19913
X10571Y14579
X14291Y6783
X3583Y18614
X10551Y12138
X14291Y7965
X1949Y17886
X12913Y8161
X19213Y4421
X4449Y2650
X7441Y12846
X5571Y11744
X3268Y4028
X8445Y14480
X5571Y11173
X3898Y13437
X8150Y16272
X2874Y13476
X15079Y13772
X5138Y-1071
X5630Y7768
X13504Y13772
X6417Y91
X14724Y18102
X8681Y9539
X8504Y22748
X1693Y10327
X7126Y18614
X19409Y484
X7717Y17433
X10551Y12728
X2520Y15465
X10374Y19205
X13110Y4618
X6535Y21173
X10374Y18122
X20000Y5209
X2520Y16252
X17441Y8752
X4843Y12394
X7795Y10524
X9213Y12709
X10748Y8752
X1693Y6390
X8976Y16252
X7874Y11783
X5630Y10524
X9350Y14047
X12539Y8929
X1693Y12098
X12913Y11016
X20020Y15465
X5236Y6193
X16555Y14657
X7008Y2846
X18287Y18043
X10472Y21567
X8583Y7177
X6339Y18614
X1689Y5504
X2638Y17197
X20394Y-697
X3583Y16646
X10571Y15563
X3563Y19697
X12618Y18594
X12323Y287
X3976Y14283
X13110Y15051
X20000Y4028
X9862Y18417
X11535Y8161
X17835Y5406
X1693Y13280
X7244Y14441
X5571Y12394
X1693Y14854
X16969Y-2843
X7697Y8063
X6614Y8949
X15079Y-2823
X12717Y12787
X17087Y19835
X2874Y12295
X15079Y14953
X8681Y10327
X17992Y21331
X1693Y7571
X13110Y16232
X7598Y5996
X6299Y5406
X14409Y22748
X12126Y-2469
X3583Y15858
X19409Y-697
X6142Y17236
X11339Y14165
X11457Y20189
X18346Y16350
X11339Y14854
X17441Y9933
X10827Y1862
X3740Y12394
X4843Y13181
X6811Y7374
X14291Y4224
X4055Y8555
X8661Y15189
X6319Y13181
X6614Y9736
X19213Y3240
X6358Y-1071
X14882Y10425
X3465Y-106
X13661Y8949
X2874Y7374
X16654Y13969
X8583Y91
X6220Y6587
X1701Y4488
X9685Y19598
X8583Y-3059
X11457Y18220
X16063Y2256
X4783Y18811
X11339Y12984
X5256Y17512
X9567Y10228
X11535Y6980
X11457Y19008
X18031Y10524
X7795Y9736
X6319Y12394
X7795Y8949
X7244Y13496
X11732Y9736
X4055Y10917
X14016Y-2488
X3661Y5406
X16063Y11606
X2874Y9736
X15177Y13083
X9665Y9146
X16260Y18083
X10472Y22748
X15177Y11902
X10551Y9933
X8996Y8043
X6614Y3831
X1102Y-500
X3583Y17433
X1102Y-1681
X20394Y484
X3583Y21173
X12618Y19579
X2500Y18870
X11339Y12000
X15256Y7768
X6319Y18043
X14291Y5602
X5039Y8358
X5591Y13201
X5039Y5012
X8346Y13437
X12224Y1567
X3465Y2846
X9331Y13240
X1693Y16035
X17835Y15740
X15118Y19835
X4055Y7374
X17047Y10425
X11732Y878
X2205Y22748
X12717Y14165
X6417Y2453
X8504Y21567
X10453Y11016
X1693Y9146
X9882Y16252
X12126Y-1287
X9862Y17630
X12618Y17413
X16063Y1075
X7126Y17827
X11339Y10819
X15276Y9343
X9055Y19933
X11437Y15839
X16260Y9343
X14409Y21567
X12913Y6980
X6614Y10524
X6969Y12827
X8740Y11783
X7008Y8358
X7835Y13909
X9764Y8161
X2874Y8555
X7717Y15287
X4055Y9736
X12323Y15740
X10886Y-2508
X4252Y5996
X2205Y21567
X15965Y10425
X10551Y2650
X17992Y20150
X7795Y6783
T3
X13965Y1640
X13965Y640
X13965Y-360
X13965Y-1360
T4
X1031Y701
X2031Y701
X3031Y701
X4031Y701
X5031Y701
X6031Y701
X7031Y701
X8031Y701
X9031Y701
X10031Y701
X1012Y21504
X1012Y20504
X1012Y19504
X1012Y18504
X1012Y17504
X1012Y16504
X1012Y15504
X1012Y14504
X1012Y13004
X1012Y12004
X1012Y11004
X1012Y10004
X1012Y9004
X1012Y8004
X1012Y7004
X1012Y6004
X1012Y5004
X1012Y4004
X20012Y21504
X20012Y20504
X20012Y19504
X20012Y18504
X20012Y17504
X20012Y16504
X20012Y14504
X20012Y13504
X20012Y12504
X20012Y11504
X20012Y10504
X20012Y9504
X20012Y8504
X20012Y7504
T5
X17008Y1488
X17008Y-1268
T6
X1012Y2504
X7014Y22504
X18014Y22506
X20012Y2006
T0
M30
