G04 #@! TF.GenerationSoftware,KiCad,Pcbnew,(5.0.0)*
G04 #@! TF.CreationDate,2018-12-02T13:03:49-08:00*
G04 #@! TF.ProjectId,HamShield1.1,48616D536869656C64312E312E6B6963,rev?*
G04 #@! TF.SameCoordinates,PX581e980PY882a660*
G04 #@! TF.FileFunction,Legend,Top*
G04 #@! TF.FilePolarity,Positive*
%FSLAX46Y46*%
G04 Gerber Fmt 4.6, Leading zero omitted, Abs format (unit mm)*
G04 Created by KiCad (PCBNEW (5.0.0)) date 12/02/18 13:03:49*
%MOMM*%
%LPD*%
G01*
G04 APERTURE LIST*
%ADD10C,0.187500*%
%ADD11C,0.150000*%
%ADD12C,0.381000*%
%ADD13C,0.152400*%
%ADD14C,0.203200*%
%ADD15C,0.101600*%
%ADD16C,0.635000*%
%ADD17C,0.120000*%
%ADD18C,0.063500*%
%ADD19C,0.127000*%
%ADD20C,0.254000*%
%ADD21C,0.125000*%
%ADD22R,0.650000X0.850000*%
%ADD23R,3.050000X2.250000*%
%ADD24R,3.050000X2.450000*%
%ADD25R,3.050000X3.050000*%
%ADD26C,1.950000*%
%ADD27R,0.504000X1.012000*%
%ADD28R,1.012000X0.504000*%
%ADD29R,3.249740X3.249740*%
%ADD30R,0.798640X1.448880*%
%ADD31R,1.800000X1.550000*%
%ADD32R,1.977200X2.282000*%
%ADD33O,1.977200X2.282000*%
%ADD34R,1.050000X1.000000*%
%ADD35R,1.250760X1.751140*%
%ADD36R,2.248980X3.249740*%
%ADD37C,0.999300*%
%ADD38R,0.850000X0.750000*%
%ADD39R,0.750000X0.850000*%
%ADD40R,1.000000X1.050000*%
%ADD41R,0.850000X0.650000*%
%ADD42R,1.250000X0.850000*%
%ADD43R,0.950000X0.670000*%
%ADD44R,0.999300X0.648780*%
%ADD45R,1.500000X1.250000*%
%ADD46R,1.250000X1.500000*%
%ADD47C,1.248220*%
%ADD48R,2.480000X2.050000*%
%ADD49R,0.750000X0.550000*%
%ADD50R,1.050000X1.130000*%
%ADD51R,2.050000X2.480000*%
%ADD52R,1.750000X4.250000*%
%ADD53R,1.000000X0.550000*%
%ADD54R,1.125000X0.975000*%
%ADD55R,1.050000X0.850000*%
%ADD56R,1.950000X1.950000*%
%ADD57O,1.950000X1.950000*%
%ADD58R,1.050000X1.150000*%
%ADD59R,1.150000X1.050000*%
%ADD60R,1.349820X2.149920*%
%ADD61R,2.450000X1.250000*%
%ADD62C,2.129600*%
%ADD63C,3.750000*%
%ADD64R,2.250000X4.314000*%
%ADD65R,1.774000X4.314000*%
%ADD66R,0.650000X0.900000*%
%ADD67O,0.550000X1.000000*%
%ADD68O,1.000000X0.550000*%
%ADD69R,1.150000X1.150000*%
G04 APERTURE END LIST*
D10*
X8889285Y-5991428D02*
X8889285Y-5562857D01*
X9639285Y-5777142D02*
X8889285Y-5777142D01*
X8889285Y-5384285D02*
X9639285Y-4884285D01*
X8889285Y-4884285D02*
X9639285Y-5384285D01*
X6139285Y-6420000D02*
X5389285Y-6420000D01*
X5389285Y-6134285D01*
X5425000Y-6062857D01*
X5460714Y-6027142D01*
X5532142Y-5991428D01*
X5639285Y-5991428D01*
X5710714Y-6027142D01*
X5746428Y-6062857D01*
X5782142Y-6134285D01*
X5782142Y-6420000D01*
X5389285Y-5741428D02*
X6139285Y-5562857D01*
X5603571Y-5420000D01*
X6139285Y-5277142D01*
X5389285Y-5098571D01*
X6139285Y-4384285D02*
X5782142Y-4634285D01*
X6139285Y-4812857D02*
X5389285Y-4812857D01*
X5389285Y-4527142D01*
X5425000Y-4455714D01*
X5460714Y-4420000D01*
X5532142Y-4384285D01*
X5639285Y-4384285D01*
X5710714Y-4420000D01*
X5746428Y-4455714D01*
X5782142Y-4527142D01*
X5782142Y-4812857D01*
X47532142Y44540715D02*
X47532142Y44040715D01*
X47532142Y44469286D02*
X47567857Y44505000D01*
X47639285Y44540715D01*
X47746428Y44540715D01*
X47817857Y44505000D01*
X47853571Y44433572D01*
X47853571Y44040715D01*
X48639285Y44112143D02*
X48603571Y44076429D01*
X48496428Y44040715D01*
X48425000Y44040715D01*
X48317857Y44076429D01*
X48246428Y44147858D01*
X48210714Y44219286D01*
X48175000Y44362143D01*
X48175000Y44469286D01*
X48210714Y44612143D01*
X48246428Y44683572D01*
X48317857Y44755000D01*
X48425000Y44790715D01*
X48496428Y44790715D01*
X48603571Y44755000D01*
X48639285Y44719286D01*
X48925000Y44076429D02*
X49032142Y44040715D01*
X49210714Y44040715D01*
X49282142Y44076429D01*
X49317857Y44112143D01*
X49353571Y44183572D01*
X49353571Y44255000D01*
X49317857Y44326429D01*
X49282142Y44362143D01*
X49210714Y44397858D01*
X49067857Y44433572D01*
X48996428Y44469286D01*
X48960714Y44505000D01*
X48925000Y44576429D01*
X48925000Y44647858D01*
X48960714Y44719286D01*
X48996428Y44755000D01*
X49067857Y44790715D01*
X49246428Y44790715D01*
X49353571Y44755000D01*
X23123303Y4190715D02*
X23194732Y4190715D01*
X23266160Y4155000D01*
X23301875Y4119286D01*
X23337589Y4047858D01*
X23373303Y3905000D01*
X23373303Y3726429D01*
X23337589Y3583572D01*
X23301875Y3512143D01*
X23266160Y3476429D01*
X23194732Y3440715D01*
X23123303Y3440715D01*
X23051875Y3476429D01*
X23016160Y3512143D01*
X22980446Y3583572D01*
X22944732Y3726429D01*
X22944732Y3905000D01*
X22980446Y4047858D01*
X23016160Y4119286D01*
X23051875Y4155000D01*
X23123303Y4190715D01*
X20753303Y3440715D02*
X20324732Y3440715D01*
X20539017Y3440715D02*
X20539017Y4190715D01*
X20467589Y4083572D01*
X20396160Y4012143D01*
X20324732Y3976429D01*
X17864732Y4119286D02*
X17900446Y4155000D01*
X17971875Y4190715D01*
X18150446Y4190715D01*
X18221875Y4155000D01*
X18257589Y4119286D01*
X18293303Y4047858D01*
X18293303Y3976429D01*
X18257589Y3869286D01*
X17829017Y3440715D01*
X18293303Y3440715D01*
X15369017Y4190715D02*
X15833303Y4190715D01*
X15583303Y3905000D01*
X15690446Y3905000D01*
X15761875Y3869286D01*
X15797589Y3833572D01*
X15833303Y3762143D01*
X15833303Y3583572D01*
X15797589Y3512143D01*
X15761875Y3476429D01*
X15690446Y3440715D01*
X15476160Y3440715D01*
X15404732Y3476429D01*
X15369017Y3512143D01*
X13441875Y3940715D02*
X13441875Y3440715D01*
X13263303Y4226429D02*
X13084732Y3690715D01*
X13549017Y3690715D01*
X10857589Y4190715D02*
X10500446Y4190715D01*
X10464732Y3833572D01*
X10500446Y3869286D01*
X10571875Y3905000D01*
X10750446Y3905000D01*
X10821875Y3869286D01*
X10857589Y3833572D01*
X10893303Y3762143D01*
X10893303Y3583572D01*
X10857589Y3512143D01*
X10821875Y3476429D01*
X10750446Y3440715D01*
X10571875Y3440715D01*
X10500446Y3476429D01*
X10464732Y3512143D01*
X8081875Y4190715D02*
X7939017Y4190715D01*
X7867589Y4155000D01*
X7831875Y4119286D01*
X7760446Y4012143D01*
X7724732Y3869286D01*
X7724732Y3583572D01*
X7760446Y3512143D01*
X7796160Y3476429D01*
X7867589Y3440715D01*
X8010446Y3440715D01*
X8081875Y3476429D01*
X8117589Y3512143D01*
X8153303Y3583572D01*
X8153303Y3762143D01*
X8117589Y3833572D01*
X8081875Y3869286D01*
X8010446Y3905000D01*
X7867589Y3905000D01*
X7796160Y3869286D01*
X7760446Y3833572D01*
X7724732Y3762143D01*
X5059017Y4190715D02*
X5559017Y4190715D01*
X5237589Y3440715D01*
X28180714Y2606697D02*
X27430714Y2356697D01*
X28180714Y2106697D01*
X27502142Y1428125D02*
X27466428Y1463840D01*
X27430714Y1570983D01*
X27430714Y1642411D01*
X27466428Y1749554D01*
X27537857Y1820983D01*
X27609285Y1856697D01*
X27752142Y1892411D01*
X27859285Y1892411D01*
X28002142Y1856697D01*
X28073571Y1820983D01*
X28145000Y1749554D01*
X28180714Y1642411D01*
X28180714Y1570983D01*
X28145000Y1463840D01*
X28109285Y1428125D01*
X27502142Y678125D02*
X27466428Y713840D01*
X27430714Y820983D01*
X27430714Y892411D01*
X27466428Y999554D01*
X27537857Y1070983D01*
X27609285Y1106697D01*
X27752142Y1142411D01*
X27859285Y1142411D01*
X28002142Y1106697D01*
X28073571Y1070983D01*
X28145000Y999554D01*
X28180714Y892411D01*
X28180714Y820983D01*
X28145000Y713840D01*
X28109285Y678125D01*
X46430714Y46726429D02*
X46537857Y46690715D01*
X46716428Y46690715D01*
X46787857Y46726429D01*
X46823571Y46762143D01*
X46859285Y46833572D01*
X46859285Y46905000D01*
X46823571Y46976429D01*
X46787857Y47012143D01*
X46716428Y47047858D01*
X46573571Y47083572D01*
X46502142Y47119286D01*
X46466428Y47155000D01*
X46430714Y47226429D01*
X46430714Y47297858D01*
X46466428Y47369286D01*
X46502142Y47405000D01*
X46573571Y47440715D01*
X46752142Y47440715D01*
X46859285Y47405000D01*
X47180714Y46690715D02*
X47180714Y47440715D01*
X47466428Y47440715D01*
X47537857Y47405000D01*
X47573571Y47369286D01*
X47609285Y47297858D01*
X47609285Y47190715D01*
X47573571Y47119286D01*
X47537857Y47083572D01*
X47466428Y47047858D01*
X47180714Y47047858D01*
X47930714Y46690715D02*
X47930714Y47440715D01*
X48359285Y46690715D02*
X48037857Y47119286D01*
X48359285Y47440715D02*
X47930714Y47012143D01*
X49109285Y46690715D02*
X48859285Y47047858D01*
X48680714Y46690715D02*
X48680714Y47440715D01*
X48966428Y47440715D01*
X49037857Y47405000D01*
X49073571Y47369286D01*
X49109285Y47297858D01*
X49109285Y47190715D01*
X49073571Y47119286D01*
X49037857Y47083572D01*
X48966428Y47047858D01*
X48680714Y47047858D01*
X32278571Y-3120000D02*
X32207142Y-3084285D01*
X32100000Y-3084285D01*
X31992857Y-3120000D01*
X31921428Y-3191428D01*
X31885714Y-3262857D01*
X31850000Y-3405714D01*
X31850000Y-3512857D01*
X31885714Y-3655714D01*
X31921428Y-3727142D01*
X31992857Y-3798571D01*
X32100000Y-3834285D01*
X32171428Y-3834285D01*
X32278571Y-3798571D01*
X32314285Y-3762857D01*
X32314285Y-3512857D01*
X32171428Y-3512857D01*
X32635714Y-3834285D02*
X32635714Y-3084285D01*
X33064285Y-3834285D01*
X33064285Y-3084285D01*
X33421428Y-3834285D02*
X33421428Y-3084285D01*
X33600000Y-3084285D01*
X33707142Y-3120000D01*
X33778571Y-3191428D01*
X33814285Y-3262857D01*
X33850000Y-3405714D01*
X33850000Y-3512857D01*
X33814285Y-3655714D01*
X33778571Y-3727142D01*
X33707142Y-3798571D01*
X33600000Y-3834285D01*
X33421428Y-3834285D01*
X32232142Y-1234285D02*
X31875000Y-1234285D01*
X31875000Y-484285D01*
X32767857Y-1198571D02*
X32696428Y-1234285D01*
X32553571Y-1234285D01*
X32482142Y-1198571D01*
X32446428Y-1127142D01*
X32446428Y-841428D01*
X32482142Y-770000D01*
X32553571Y-734285D01*
X32696428Y-734285D01*
X32767857Y-770000D01*
X32803571Y-841428D01*
X32803571Y-912857D01*
X32446428Y-984285D01*
X33017857Y-734285D02*
X33303571Y-734285D01*
X33125000Y-1234285D02*
X33125000Y-591428D01*
X33160714Y-520000D01*
X33232142Y-484285D01*
X33303571Y-484285D01*
X33446428Y-734285D02*
X33732142Y-734285D01*
X33553571Y-484285D02*
X33553571Y-1127142D01*
X33589285Y-1198571D01*
X33660714Y-1234285D01*
X33732142Y-1234285D01*
X31510714Y1265715D02*
X31260714Y1622858D01*
X31082142Y1265715D02*
X31082142Y2015715D01*
X31367857Y2015715D01*
X31439285Y1980000D01*
X31475000Y1944286D01*
X31510714Y1872858D01*
X31510714Y1765715D01*
X31475000Y1694286D01*
X31439285Y1658572D01*
X31367857Y1622858D01*
X31082142Y1622858D01*
X31832142Y1265715D02*
X31832142Y1765715D01*
X31832142Y2015715D02*
X31796428Y1980000D01*
X31832142Y1944286D01*
X31867857Y1980000D01*
X31832142Y2015715D01*
X31832142Y1944286D01*
X32510714Y1765715D02*
X32510714Y1158572D01*
X32475000Y1087143D01*
X32439285Y1051429D01*
X32367857Y1015715D01*
X32260714Y1015715D01*
X32189285Y1051429D01*
X32510714Y1301429D02*
X32439285Y1265715D01*
X32296428Y1265715D01*
X32225000Y1301429D01*
X32189285Y1337143D01*
X32153571Y1408572D01*
X32153571Y1622858D01*
X32189285Y1694286D01*
X32225000Y1730000D01*
X32296428Y1765715D01*
X32439285Y1765715D01*
X32510714Y1730000D01*
X32867857Y1265715D02*
X32867857Y2015715D01*
X33189285Y1265715D02*
X33189285Y1658572D01*
X33153571Y1730000D01*
X33082142Y1765715D01*
X32975000Y1765715D01*
X32903571Y1730000D01*
X32867857Y1694286D01*
X33439285Y1765715D02*
X33725000Y1765715D01*
X33546428Y2015715D02*
X33546428Y1372858D01*
X33582142Y1301429D01*
X33653571Y1265715D01*
X33725000Y1265715D01*
X32096428Y3815715D02*
X32096428Y4565715D01*
X32346428Y4030000D01*
X32596428Y4565715D01*
X32596428Y3815715D01*
X32953571Y3815715D02*
X32953571Y4565715D01*
X33739285Y3887143D02*
X33703571Y3851429D01*
X33596428Y3815715D01*
X33525000Y3815715D01*
X33417857Y3851429D01*
X33346428Y3922858D01*
X33310714Y3994286D01*
X33275000Y4137143D01*
X33275000Y4244286D01*
X33310714Y4387143D01*
X33346428Y4458572D01*
X33417857Y4530000D01*
X33525000Y4565715D01*
X33596428Y4565715D01*
X33703571Y4530000D01*
X33739285Y4494286D01*
X3939285Y49251429D02*
X4046428Y49215715D01*
X4225000Y49215715D01*
X4296428Y49251429D01*
X4332142Y49287143D01*
X4367857Y49358572D01*
X4367857Y49430000D01*
X4332142Y49501429D01*
X4296428Y49537143D01*
X4225000Y49572858D01*
X4082142Y49608572D01*
X4010714Y49644286D01*
X3975000Y49680000D01*
X3939285Y49751429D01*
X3939285Y49822858D01*
X3975000Y49894286D01*
X4010714Y49930000D01*
X4082142Y49965715D01*
X4260714Y49965715D01*
X4367857Y49930000D01*
X4617857Y49715715D02*
X4760714Y49215715D01*
X4903571Y49572858D01*
X5046428Y49215715D01*
X5189285Y49715715D01*
X5475000Y49215715D02*
X5475000Y49715715D01*
X5475000Y49965715D02*
X5439285Y49930000D01*
X5475000Y49894286D01*
X5510714Y49930000D01*
X5475000Y49965715D01*
X5475000Y49894286D01*
X5725000Y49715715D02*
X6010714Y49715715D01*
X5832142Y49965715D02*
X5832142Y49322858D01*
X5867857Y49251429D01*
X5939285Y49215715D01*
X6010714Y49215715D01*
X6582142Y49251429D02*
X6510714Y49215715D01*
X6367857Y49215715D01*
X6296428Y49251429D01*
X6260714Y49287143D01*
X6225000Y49358572D01*
X6225000Y49572858D01*
X6260714Y49644286D01*
X6296428Y49680000D01*
X6367857Y49715715D01*
X6510714Y49715715D01*
X6582142Y49680000D01*
X6903571Y49215715D02*
X6903571Y49965715D01*
X7225000Y49215715D02*
X7225000Y49608572D01*
X7189285Y49680000D01*
X7117857Y49715715D01*
X7010714Y49715715D01*
X6939285Y49680000D01*
X6903571Y49644286D01*
X4046428Y46640715D02*
X4046428Y47390715D01*
X4296428Y46855000D01*
X4546428Y47390715D01*
X4546428Y46640715D01*
X4903571Y46640715D02*
X4903571Y47390715D01*
X5689285Y46712143D02*
X5653571Y46676429D01*
X5546428Y46640715D01*
X5475000Y46640715D01*
X5367857Y46676429D01*
X5296428Y46747858D01*
X5260714Y46819286D01*
X5225000Y46962143D01*
X5225000Y47069286D01*
X5260714Y47212143D01*
X5296428Y47283572D01*
X5367857Y47355000D01*
X5475000Y47390715D01*
X5546428Y47390715D01*
X5653571Y47355000D01*
X5689285Y47319286D01*
X47989285Y49190715D02*
X47739285Y49547858D01*
X47560714Y49190715D02*
X47560714Y49940715D01*
X47846428Y49940715D01*
X47917857Y49905000D01*
X47953571Y49869286D01*
X47989285Y49797858D01*
X47989285Y49690715D01*
X47953571Y49619286D01*
X47917857Y49583572D01*
X47846428Y49547858D01*
X47560714Y49547858D01*
X48275000Y49226429D02*
X48382142Y49190715D01*
X48560714Y49190715D01*
X48632142Y49226429D01*
X48667857Y49262143D01*
X48703571Y49333572D01*
X48703571Y49405000D01*
X48667857Y49476429D01*
X48632142Y49512143D01*
X48560714Y49547858D01*
X48417857Y49583572D01*
X48346428Y49619286D01*
X48310714Y49655000D01*
X48275000Y49726429D01*
X48275000Y49797858D01*
X48310714Y49869286D01*
X48346428Y49905000D01*
X48417857Y49940715D01*
X48596428Y49940715D01*
X48703571Y49905000D01*
X48917857Y49940715D02*
X49346428Y49940715D01*
X49132142Y49190715D02*
X49132142Y49940715D01*
X47478571Y34455000D02*
X47407142Y34490715D01*
X47300000Y34490715D01*
X47192857Y34455000D01*
X47121428Y34383572D01*
X47085714Y34312143D01*
X47050000Y34169286D01*
X47050000Y34062143D01*
X47085714Y33919286D01*
X47121428Y33847858D01*
X47192857Y33776429D01*
X47300000Y33740715D01*
X47371428Y33740715D01*
X47478571Y33776429D01*
X47514285Y33812143D01*
X47514285Y34062143D01*
X47371428Y34062143D01*
X47835714Y33740715D02*
X47835714Y34490715D01*
X48264285Y33740715D01*
X48264285Y34490715D01*
X48621428Y33740715D02*
X48621428Y34490715D01*
X48800000Y34490715D01*
X48907142Y34455000D01*
X48978571Y34383572D01*
X49014285Y34312143D01*
X49050000Y34169286D01*
X49050000Y34062143D01*
X49014285Y33919286D01*
X48978571Y33847858D01*
X48907142Y33776429D01*
X48800000Y33740715D01*
X48621428Y33740715D01*
X47528571Y31955000D02*
X47457142Y31990715D01*
X47350000Y31990715D01*
X47242857Y31955000D01*
X47171428Y31883572D01*
X47135714Y31812143D01*
X47100000Y31669286D01*
X47100000Y31562143D01*
X47135714Y31419286D01*
X47171428Y31347858D01*
X47242857Y31276429D01*
X47350000Y31240715D01*
X47421428Y31240715D01*
X47528571Y31276429D01*
X47564285Y31312143D01*
X47564285Y31562143D01*
X47421428Y31562143D01*
X47885714Y31240715D02*
X47885714Y31990715D01*
X48314285Y31240715D01*
X48314285Y31990715D01*
X48671428Y31240715D02*
X48671428Y31990715D01*
X48850000Y31990715D01*
X48957142Y31955000D01*
X49028571Y31883572D01*
X49064285Y31812143D01*
X49100000Y31669286D01*
X49100000Y31562143D01*
X49064285Y31419286D01*
X49028571Y31347858D01*
X48957142Y31276429D01*
X48850000Y31240715D01*
X48671428Y31240715D01*
X47753571Y37265715D02*
X48003571Y36515715D01*
X48253571Y37265715D01*
X48503571Y36515715D02*
X48503571Y37265715D01*
X48860714Y36515715D02*
X48860714Y37265715D01*
X49289285Y36515715D01*
X49289285Y37265715D01*
X47646428Y51740715D02*
X47646428Y52490715D01*
X47825000Y52490715D01*
X47932142Y52455000D01*
X48003571Y52383572D01*
X48039285Y52312143D01*
X48075000Y52169286D01*
X48075000Y52062143D01*
X48039285Y51919286D01*
X48003571Y51847858D01*
X47932142Y51776429D01*
X47825000Y51740715D01*
X47646428Y51740715D01*
X48360714Y51955000D02*
X48717857Y51955000D01*
X48289285Y51740715D02*
X48539285Y52490715D01*
X48789285Y51740715D01*
X48932142Y52490715D02*
X49360714Y52490715D01*
X49146428Y51740715D02*
X49146428Y52490715D01*
X47953571Y54337143D02*
X47917857Y54301429D01*
X47810714Y54265715D01*
X47739285Y54265715D01*
X47632142Y54301429D01*
X47560714Y54372858D01*
X47525000Y54444286D01*
X47489285Y54587143D01*
X47489285Y54694286D01*
X47525000Y54837143D01*
X47560714Y54908572D01*
X47632142Y54980000D01*
X47739285Y55015715D01*
X47810714Y55015715D01*
X47917857Y54980000D01*
X47953571Y54944286D01*
X48632142Y54265715D02*
X48275000Y54265715D01*
X48275000Y55015715D01*
X48882142Y54265715D02*
X48882142Y55015715D01*
X49310714Y54265715D02*
X48989285Y54694286D01*
X49310714Y55015715D02*
X48882142Y54587143D01*
X1095000Y2186697D02*
X1130714Y2258125D01*
X1130714Y2365268D01*
X1095000Y2472411D01*
X1023571Y2543840D01*
X952142Y2579554D01*
X809285Y2615268D01*
X702142Y2615268D01*
X559285Y2579554D01*
X487857Y2543840D01*
X416428Y2472411D01*
X380714Y2365268D01*
X380714Y2293840D01*
X416428Y2186697D01*
X452142Y2150983D01*
X702142Y2150983D01*
X702142Y2293840D01*
X380714Y1829554D02*
X1130714Y1829554D01*
X380714Y1400983D01*
X1130714Y1400983D01*
X380714Y1043840D02*
X1130714Y1043840D01*
X1130714Y865268D01*
X1095000Y758125D01*
X1023571Y686697D01*
X952142Y650983D01*
X809285Y615268D01*
X702142Y615268D01*
X559285Y650983D01*
X487857Y686697D01*
X416428Y758125D01*
X380714Y865268D01*
X380714Y1043840D01*
D11*
G04 #@! TO.C,R36*
X42900000Y45755000D02*
X43400000Y45755000D01*
X43400000Y46805000D02*
X42900000Y46805000D01*
D12*
G04 #@! TO.C,J2*
X46900000Y7730000D02*
X39500000Y7730000D01*
X39500000Y7730000D02*
X39500000Y-9895000D01*
X39500000Y-9895000D02*
X46900000Y-9945000D01*
X46900000Y-9945000D02*
X46900000Y7730000D01*
D13*
G04 #@! TO.C,U1*
X24195500Y7132000D02*
X20004500Y7132000D01*
X20004500Y7132000D02*
X19052000Y7132000D01*
X19052000Y7132000D02*
X19052000Y13228000D01*
X19052000Y13228000D02*
X25148000Y13228000D01*
X25148000Y13228000D02*
X25148000Y8084500D01*
X25148000Y8084500D02*
X24195500Y7132000D01*
D14*
G04 #@! TO.C,U3*
X42037600Y16669740D02*
X42037600Y18290260D01*
X44882400Y18290260D02*
X44882400Y16669740D01*
X44785880Y18290260D02*
X44882400Y18290260D01*
X42037600Y18290260D02*
X42134120Y18290260D01*
X42134120Y16669740D02*
X42037600Y16669740D01*
X44882400Y16669740D02*
X44785880Y16669740D01*
D13*
X44495345Y18011000D02*
G75*
G03X44495345Y18011000I-25145J0D01*
G01*
D11*
G04 #@! TO.C,S1*
X42100000Y51880000D02*
X42100000Y58080000D01*
X42100000Y58080000D02*
X32300000Y58080000D01*
X32300000Y58080000D02*
X32300000Y51880000D01*
X32300000Y51880000D02*
X42100000Y51880000D01*
G04 #@! TO.C,P1*
X24210000Y510000D02*
X1350000Y510000D01*
X1350000Y510000D02*
X1350000Y3050000D01*
X1350000Y3050000D02*
X24210000Y3050000D01*
X27030000Y230000D02*
X25480000Y230000D01*
X24210000Y510000D02*
X24210000Y3050000D01*
X25480000Y3330000D02*
X27030000Y3330000D01*
X27030000Y3330000D02*
X27030000Y230000D01*
G04 #@! TO.C,C20*
X36000000Y27380000D02*
X35300000Y27380000D01*
X35300000Y28580000D02*
X36000000Y28580000D01*
G04 #@! TO.C,U9*
X12250080Y30329340D02*
X12499000Y30629060D01*
X12499000Y30629060D02*
X12600600Y30778920D01*
X12600600Y30778920D02*
X12600600Y29930560D01*
X11899560Y31830480D02*
X11899560Y30029620D01*
X11899560Y31830480D02*
X12549800Y31830480D01*
X16400440Y31830480D02*
X16400440Y30029620D01*
X16400440Y31830480D02*
X15750200Y31830480D01*
G04 #@! TO.C,C1*
X25860000Y5665000D02*
X25360000Y5665000D01*
X25360000Y4715000D02*
X25860000Y4715000D01*
G04 #@! TO.C,C2*
X25860000Y4515000D02*
X25360000Y4515000D01*
X25360000Y3565000D02*
X25860000Y3565000D01*
G04 #@! TO.C,C3*
X16975000Y7630000D02*
X16975000Y8130000D01*
X16025000Y8130000D02*
X16025000Y7630000D01*
G04 #@! TO.C,C4*
X15835000Y7630000D02*
X15835000Y8130000D01*
X14885000Y8130000D02*
X14885000Y7630000D01*
G04 #@! TO.C,C5*
X29900000Y8755000D02*
X29400000Y8755000D01*
X29400000Y7805000D02*
X29900000Y7805000D01*
G04 #@! TO.C,C6*
X29900000Y7755000D02*
X29400000Y7755000D01*
X29400000Y6805000D02*
X29900000Y6805000D01*
G04 #@! TO.C,C7*
X14665000Y7630000D02*
X14665000Y8130000D01*
X13715000Y8130000D02*
X13715000Y7630000D01*
G04 #@! TO.C,C8*
X13425000Y7630000D02*
X13425000Y8130000D01*
X12475000Y8130000D02*
X12475000Y7630000D01*
G04 #@! TO.C,C9*
X32800000Y9655000D02*
X32300000Y9655000D01*
X32300000Y8705000D02*
X32800000Y8705000D01*
G04 #@! TO.C,C10*
X30500000Y16855000D02*
X30000000Y16855000D01*
X30000000Y15905000D02*
X30500000Y15905000D01*
G04 #@! TO.C,C12*
X22620000Y15985000D02*
X22120000Y15985000D01*
X22120000Y15035000D02*
X22620000Y15035000D01*
G04 #@! TO.C,C13*
X22620000Y16935000D02*
X22120000Y16935000D01*
X22120000Y15985000D02*
X22620000Y15985000D01*
G04 #@! TO.C,C14*
X17845000Y13480000D02*
X17845000Y12980000D01*
X18795000Y12980000D02*
X18795000Y13480000D01*
G04 #@! TO.C,C15*
X16705000Y13480000D02*
X16705000Y12980000D01*
X17655000Y12980000D02*
X17655000Y13480000D01*
G04 #@! TO.C,C16*
X29225000Y-5020000D02*
X29225000Y-4520000D01*
X28275000Y-4520000D02*
X28275000Y-5020000D01*
G04 #@! TO.C,C17*
X16600000Y-6645000D02*
X17100000Y-6645000D01*
X17100000Y-5695000D02*
X16600000Y-5695000D01*
G04 #@! TO.C,C19*
X11010000Y52680000D02*
X11010000Y53380000D01*
X12210000Y53380000D02*
X12210000Y52680000D01*
G04 #@! TO.C,C23*
X15550000Y34430000D02*
X14850000Y34430000D01*
X14850000Y35630000D02*
X15550000Y35630000D01*
G04 #@! TO.C,C24*
X14550000Y35830000D02*
X13850000Y35830000D01*
X13850000Y37030000D02*
X14550000Y37030000D01*
G04 #@! TO.C,C25*
X15450000Y43130000D02*
X16150000Y43130000D01*
X16150000Y41930000D02*
X15450000Y41930000D01*
G04 #@! TO.C,C31*
X13050000Y46205000D02*
X13550000Y46205000D01*
X13550000Y47155000D02*
X13050000Y47155000D01*
G04 #@! TO.C,C35*
X12825000Y43080000D02*
X12825000Y42580000D01*
X13775000Y42580000D02*
X13775000Y43080000D01*
G04 #@! TO.C,C36*
X39475000Y32920000D02*
X39475000Y32420000D01*
X40425000Y32420000D02*
X40425000Y32920000D01*
G04 #@! TO.C,C37*
X20575000Y31780000D02*
X20575000Y31280000D01*
X21525000Y31280000D02*
X21525000Y31780000D01*
G04 #@! TO.C,C39*
X46300000Y14645000D02*
X46800000Y14645000D01*
X46800000Y15595000D02*
X46300000Y15595000D01*
G04 #@! TO.C,C40*
X41500000Y22380000D02*
X42200000Y22380000D01*
X42200000Y21180000D02*
X41500000Y21180000D01*
G04 #@! TO.C,C41*
X42900000Y22705000D02*
X43400000Y22705000D01*
X43400000Y23655000D02*
X42900000Y23655000D01*
G04 #@! TO.C,C43*
X37130000Y7975000D02*
X37630000Y7975000D01*
X37630000Y8925000D02*
X37130000Y8925000D01*
G04 #@! TO.C,C56*
X10450000Y38605000D02*
X10950000Y38605000D01*
X10950000Y39555000D02*
X10450000Y39555000D01*
G04 #@! TO.C,C59*
X7100000Y42105000D02*
X7600000Y42105000D01*
X7600000Y43055000D02*
X7100000Y43055000D01*
G04 #@! TO.C,C60*
X10450000Y41705000D02*
X10950000Y41705000D01*
X10950000Y42655000D02*
X10450000Y42655000D01*
G04 #@! TO.C,C94*
X36060000Y7600000D02*
X36060000Y6900000D01*
X34860000Y6900000D02*
X34860000Y7600000D01*
G04 #@! TO.C,R3*
X17800000Y7905000D02*
X18300000Y7905000D01*
X18300000Y8955000D02*
X17800000Y8955000D01*
G04 #@! TO.C,R12*
X41705000Y18990000D02*
X41705000Y19490000D01*
X40655000Y19490000D02*
X40655000Y18990000D01*
G04 #@! TO.C,R13*
X40575000Y16880000D02*
X40575000Y16380000D01*
X41625000Y16380000D02*
X41625000Y16880000D01*
G04 #@! TO.C,R23*
X45110000Y20785000D02*
X44610000Y20785000D01*
X44610000Y19735000D02*
X45110000Y19735000D01*
G04 #@! TO.C,R24*
X42075000Y25080000D02*
X42075000Y24580000D01*
X43125000Y24580000D02*
X43125000Y25080000D01*
G04 #@! TO.C,R27*
X46525000Y16380000D02*
X46525000Y16880000D01*
X45475000Y16880000D02*
X45475000Y16380000D01*
G04 #@! TO.C,R28*
X46905000Y17790000D02*
X46905000Y17290000D01*
X47955000Y17290000D02*
X47955000Y17790000D01*
G04 #@! TO.C,R31*
X37355000Y6710000D02*
X37355000Y7210000D01*
X36305000Y7210000D02*
X36305000Y6710000D01*
G04 #@! TO.C,R37*
X38900000Y45755000D02*
X39400000Y45755000D01*
X39400000Y46805000D02*
X38900000Y46805000D01*
D14*
G04 #@! TO.C,Q1*
X26897560Y-5868880D02*
X25302440Y-5868880D01*
X26867560Y-2541120D02*
X25272440Y-2541120D01*
D15*
X27075487Y-5747660D02*
G75*
G03X27075487Y-5747660I-96987J0D01*
G01*
D11*
G04 #@! TO.C,R4*
X25200000Y-7095000D02*
X25700000Y-7095000D01*
X25700000Y-6045000D02*
X25200000Y-6045000D01*
G04 #@! TO.C,R5*
X17900000Y40905000D02*
X18400000Y40905000D01*
X18400000Y41955000D02*
X17900000Y41955000D01*
G04 #@! TO.C,R6*
X41995000Y14550000D02*
X41995000Y14050000D01*
X43045000Y14050000D02*
X43045000Y14550000D01*
G04 #@! TO.C,R7*
X43200000Y20755000D02*
X42700000Y20755000D01*
X42700000Y19705000D02*
X43200000Y19705000D01*
D14*
G04 #@! TO.C,D1*
X20752440Y-3021120D02*
X22347560Y-3021120D01*
X20752440Y-5418880D02*
X22347560Y-5418880D01*
D15*
X20768487Y-2692340D02*
G75*
G03X20768487Y-2692340I-96987J0D01*
G01*
D11*
G04 #@! TO.C,C58*
X20575000Y43330000D02*
X20575000Y42830000D01*
X21525000Y42830000D02*
X21525000Y43330000D01*
G04 #@! TO.C,U12*
X17560780Y-5450960D02*
X18170380Y-5450960D01*
X18170380Y-5450960D02*
X18180540Y-5019160D01*
G04 #@! TO.C,C61*
X23200000Y45180000D02*
X22500000Y45180000D01*
X22500000Y46380000D02*
X23200000Y46380000D01*
G04 #@! TO.C,C67*
X9000000Y50530000D02*
X8300000Y50530000D01*
X8300000Y51730000D02*
X9000000Y51730000D01*
G04 #@! TO.C,C73*
X8800000Y12530000D02*
X8800000Y11830000D01*
X7600000Y11830000D02*
X7600000Y12530000D01*
G04 #@! TO.C,L18*
X8550000Y36530000D02*
X8550000Y35830000D01*
X7350000Y35830000D02*
X7350000Y36530000D01*
G04 #@! TO.C,L19*
X11900000Y37580000D02*
X11900000Y36880000D01*
X10700000Y36880000D02*
X10700000Y37580000D01*
G04 #@! TO.C,L21*
X8550000Y40680000D02*
X8550000Y39980000D01*
X7350000Y39980000D02*
X7350000Y40680000D01*
G04 #@! TO.C,L24*
X8500000Y45130000D02*
X8500000Y44430000D01*
X7300000Y44430000D02*
X7300000Y45130000D01*
G04 #@! TO.C,L27*
X8500000Y49380000D02*
X8500000Y48680000D01*
X7300000Y48680000D02*
X7300000Y49380000D01*
G04 #@! TO.C,L28*
X10750000Y46380000D02*
X10750000Y45680000D01*
X9550000Y45680000D02*
X9550000Y46380000D01*
G04 #@! TO.C,C30*
X19475000Y31780000D02*
X19475000Y31280000D01*
X20425000Y31280000D02*
X20425000Y31780000D01*
G04 #@! TO.C,C46*
X21175000Y39280000D02*
X21175000Y39780000D01*
X20225000Y39780000D02*
X20225000Y39280000D01*
G04 #@! TO.C,C51*
X21675000Y31780000D02*
X21675000Y31280000D01*
X22625000Y31280000D02*
X22625000Y31780000D01*
G04 #@! TO.C,C53*
X7150000Y37705000D02*
X7650000Y37705000D01*
X7650000Y38655000D02*
X7150000Y38655000D01*
G04 #@! TO.C,C62*
X7100000Y46405000D02*
X7600000Y46405000D01*
X7600000Y47355000D02*
X7100000Y47355000D01*
G04 #@! TO.C,C63*
X10950000Y44655000D02*
X10450000Y44655000D01*
X10450000Y43705000D02*
X10950000Y43705000D01*
G04 #@! TO.C,C66*
X20850000Y48055000D02*
X21350000Y48055000D01*
X21350000Y49005000D02*
X20850000Y49005000D01*
G04 #@! TO.C,C68*
X10750000Y49030000D02*
X10750000Y48330000D01*
X9550000Y48330000D02*
X9550000Y49030000D01*
G04 #@! TO.C,C70*
X17750000Y50380000D02*
X18450000Y50380000D01*
X18450000Y49180000D02*
X17750000Y49180000D01*
G04 #@! TO.C,C71*
X13350000Y12030000D02*
X14050000Y12030000D01*
X14050000Y10830000D02*
X13350000Y10830000D01*
G04 #@! TO.C,C72*
X25700000Y30355000D02*
X25200000Y30355000D01*
X25200000Y29405000D02*
X25700000Y29405000D01*
G04 #@! TO.C,C75*
X6050000Y8205000D02*
X6550000Y8205000D01*
X6550000Y9155000D02*
X6050000Y9155000D01*
G04 #@! TO.C,C76*
X10325000Y7880000D02*
X10325000Y8380000D01*
X9375000Y8380000D02*
X9375000Y7880000D01*
G04 #@! TO.C,L22*
X11725000Y40380000D02*
X11725000Y40880000D01*
X10775000Y40880000D02*
X10775000Y40380000D01*
G04 #@! TO.C,L23*
X24450000Y43030000D02*
X24450000Y44030000D01*
X22750000Y44030000D02*
X22750000Y43030000D01*
G04 #@! TO.C,L25*
X10950000Y43655000D02*
X10450000Y43655000D01*
X10450000Y42705000D02*
X10950000Y42705000D01*
G04 #@! TO.C,L26*
X23100000Y48130000D02*
X22100000Y48130000D01*
X22100000Y46430000D02*
X23100000Y46430000D01*
G04 #@! TO.C,C74*
X10250000Y9405000D02*
X10750000Y9405000D01*
X10750000Y10355000D02*
X10250000Y10355000D01*
G04 #@! TO.C,R8*
X8600000Y9205000D02*
X8100000Y9205000D01*
X8100000Y8155000D02*
X8600000Y8155000D01*
D16*
G04 #@! TO.C,FD1*
X52595802Y-6190000D02*
G75*
G03X52595802Y-6190000I-635802J0D01*
G01*
G04 #@! TO.C,FD2*
X2685802Y58160000D02*
G75*
G03X2685802Y58160000I-635802J0D01*
G01*
D11*
G04 #@! TO.C,C11*
X27390000Y14510000D02*
X26640000Y14510000D01*
X27010000Y14070000D02*
X27010000Y14970000D01*
X26700000Y19130000D02*
X26700000Y15030000D01*
X23700000Y19130000D02*
X23700000Y15030000D01*
G04 #@! TO.C,U4*
X12176023Y10860000D02*
G75*
G03X12176023Y10860000I-86023J0D01*
G01*
X11150000Y12830000D02*
X9850000Y12830000D01*
X11725000Y10530000D02*
X9850000Y10530000D01*
G04 #@! TO.C,C77*
X27100000Y47080000D02*
X27100000Y47780000D01*
X28300000Y47780000D02*
X28300000Y47080000D01*
G04 #@! TO.C,L30*
X28100000Y50280000D02*
X28800000Y50280000D01*
X28800000Y49080000D02*
X28100000Y49080000D01*
G04 #@! TO.C,L31*
X28100000Y45680000D02*
X28800000Y45680000D01*
X28800000Y44480000D02*
X28100000Y44480000D01*
G04 #@! TO.C,L32*
X14950000Y51680000D02*
X14250000Y51680000D01*
X14250000Y52880000D02*
X14950000Y52880000D01*
G04 #@! TO.C,L33*
X9300000Y14380000D02*
X8600000Y14380000D01*
X8600000Y15580000D02*
X9300000Y15580000D01*
G04 #@! TO.C,R9*
X13610000Y54305000D02*
X13110000Y54305000D01*
X13110000Y53255000D02*
X13610000Y53255000D01*
G04 #@! TO.C,C28*
X46035000Y31920000D02*
X46035000Y32420000D01*
X45085000Y32420000D02*
X45085000Y31920000D01*
G04 #@! TO.C,C29*
X43680000Y27755000D02*
X44180000Y27755000D01*
X44180000Y28705000D02*
X43680000Y28705000D01*
G04 #@! TO.C,C79*
X37720000Y32520000D02*
X37720000Y31770000D01*
X38160000Y32140000D02*
X37260000Y32140000D01*
X33100000Y31830000D02*
X37200000Y31830000D01*
X33100000Y28830000D02*
X37200000Y28830000D01*
G04 #@! TO.C,R10*
X44080000Y29995000D02*
X43580000Y29995000D01*
X43580000Y28945000D02*
X44080000Y28945000D01*
G04 #@! TO.C,R11*
X43580000Y30285000D02*
X44080000Y30285000D01*
X44080000Y31335000D02*
X43580000Y31335000D01*
G04 #@! TO.C,C18*
X45510000Y38310000D02*
X45510000Y37310000D01*
X47210000Y37310000D02*
X47210000Y38310000D01*
G04 #@! TO.C,C21*
X43430000Y38310000D02*
X43430000Y37310000D01*
X45130000Y37310000D02*
X45130000Y38310000D01*
G04 #@! TO.C,C78*
X35900000Y33930000D02*
X34900000Y33930000D01*
X34900000Y32230000D02*
X35900000Y32230000D01*
G04 #@! TO.C,L2*
X40900000Y34230000D02*
X35400000Y34230000D01*
X35400000Y34230000D02*
X35400000Y38730000D01*
X35400000Y38730000D02*
X40900000Y38730000D01*
X40900000Y38730000D02*
X40900000Y34230000D01*
G04 #@! TO.C,C22*
X33500000Y24830000D02*
X33500000Y25830000D01*
X31800000Y25830000D02*
X31800000Y24830000D01*
G04 #@! TO.C,L3*
X7450000Y11030000D02*
X7450000Y10330000D01*
X6250000Y10330000D02*
X6250000Y11030000D01*
G04 #@! TO.C,L20*
X19500000Y41930000D02*
X18800000Y41930000D01*
X18800000Y43130000D02*
X19500000Y43130000D01*
G04 #@! TO.C,L29*
X20500000Y50380000D02*
X21200000Y50380000D01*
X21200000Y49180000D02*
X20500000Y49180000D01*
G04 #@! TO.C,C80*
X29600000Y4980000D02*
X30600000Y4980000D01*
X30600000Y6680000D02*
X29600000Y6680000D01*
G04 #@! TO.C,C81*
X24500000Y-720000D02*
X23500000Y-720000D01*
X23500000Y-2420000D02*
X24500000Y-2420000D01*
G04 #@! TO.C,U2*
X43905000Y34095000D02*
X41755000Y34095000D01*
X44730000Y31845000D02*
X41755000Y31845000D01*
G04 #@! TO.C,C301*
X17250000Y12030000D02*
X17950000Y12030000D01*
X17950000Y10830000D02*
X17250000Y10830000D01*
G04 #@! TO.C,L301*
X15050000Y10330000D02*
X15050000Y11030000D01*
X16250000Y11030000D02*
X16250000Y10330000D01*
G04 #@! TO.C,R1*
X35850000Y40755000D02*
X36350000Y40755000D01*
X36350000Y41805000D02*
X35850000Y41805000D01*
G04 #@! TO.C,R2*
X27350000Y13230000D02*
X27350000Y12730000D01*
X28400000Y12730000D02*
X28400000Y13230000D01*
G04 #@! TO.C,R14*
X39850000Y40755000D02*
X40350000Y40755000D01*
X40350000Y41805000D02*
X39850000Y41805000D01*
G04 #@! TO.C,R15*
X43850000Y40755000D02*
X44350000Y40755000D01*
X44350000Y41805000D02*
X43850000Y41805000D01*
G04 #@! TO.C,R16*
X34900000Y45755000D02*
X35400000Y45755000D01*
X35400000Y46805000D02*
X34900000Y46805000D01*
G04 #@! TO.C,R17*
X26225000Y13230000D02*
X26225000Y12730000D01*
X27275000Y12730000D02*
X27275000Y13230000D01*
D17*
G04 #@! TO.C,D2*
X10030000Y-6520000D02*
X11170000Y-6520000D01*
X11170000Y-6520000D02*
X11170000Y-4420000D01*
X10030000Y-6520000D02*
X10030000Y-4420000D01*
G04 #@! TO.C,D3*
X6530000Y-6520000D02*
X7670000Y-6520000D01*
X7670000Y-6520000D02*
X7670000Y-4420000D01*
X6530000Y-6520000D02*
X6530000Y-4420000D01*
G04 #@! TO.C,R20*
X11130000Y-2470000D02*
X11130000Y-1970000D01*
X10070000Y-1970000D02*
X10070000Y-2470000D01*
G04 #@! TO.C,R22*
X7630000Y-2470000D02*
X7630000Y-1970000D01*
X6570000Y-1970000D02*
X6570000Y-2470000D01*
G04 #@! TO.C,C33*
X13750000Y21980000D02*
X13050000Y21980000D01*
X13050000Y23180000D02*
X13750000Y23180000D01*
G04 #@! TO.C,C38*
X25700000Y36650000D02*
X25200000Y36650000D01*
X25200000Y35710000D02*
X25700000Y35710000D01*
G04 #@! TO.C,L4*
X15180000Y18530000D02*
X15180000Y18030000D01*
X16120000Y18030000D02*
X16120000Y18530000D01*
G04 #@! TO.C,L6*
X25370000Y31280000D02*
X25370000Y31780000D01*
X24430000Y31780000D02*
X24430000Y31280000D01*
G04 #@! TO.C,L11*
X12180000Y26880000D02*
X12180000Y26380000D01*
X13120000Y26380000D02*
X13120000Y26880000D01*
G04 #@! TO.C,L12*
X22300000Y40680000D02*
X23000000Y40680000D01*
X23000000Y39480000D02*
X22300000Y39480000D01*
G04 #@! TO.C,C26*
X11420000Y16930000D02*
X11420000Y17430000D01*
X10480000Y17430000D02*
X10480000Y16930000D01*
G04 #@! TO.C,C32*
X16450000Y20550000D02*
X15950000Y20550000D01*
X15950000Y19610000D02*
X16450000Y19610000D01*
G04 #@! TO.C,JP3*
X34140000Y-4785000D02*
X36800000Y-4785000D01*
X34140000Y2895000D02*
X34140000Y-4785000D01*
X36800000Y2895000D02*
X36800000Y-4785000D01*
X34140000Y2895000D02*
X36800000Y2895000D01*
X34140000Y4165000D02*
X34140000Y5495000D01*
X34140000Y5495000D02*
X35470000Y5495000D01*
G04 #@! TO.C,Q5*
X37180000Y44540000D02*
X36250000Y44540000D01*
X34020000Y44540000D02*
X34950000Y44540000D01*
X34020000Y44540000D02*
X34020000Y42380000D01*
X37180000Y44540000D02*
X37180000Y43080000D01*
G04 #@! TO.C,Q6*
X41180000Y44540000D02*
X40250000Y44540000D01*
X38020000Y44540000D02*
X38950000Y44540000D01*
X38020000Y44540000D02*
X38020000Y42380000D01*
X41180000Y44540000D02*
X41180000Y43080000D01*
G04 #@! TO.C,Q7*
X45180000Y44540000D02*
X44250000Y44540000D01*
X42020000Y44540000D02*
X42950000Y44540000D01*
X42020000Y44540000D02*
X42020000Y42380000D01*
X45180000Y44540000D02*
X45180000Y43080000D01*
G04 #@! TO.C,U6*
X36160000Y23700000D02*
X36160000Y24630000D01*
X36160000Y26860000D02*
X36160000Y25930000D01*
X36160000Y26860000D02*
X34000000Y26860000D01*
X36160000Y23700000D02*
X34700000Y23700000D01*
D14*
G04 #@! TO.C,Y1*
X29252340Y12130560D02*
X29252340Y13329440D01*
X30550280Y15229360D02*
X31149720Y15229360D01*
X32447660Y13329440D02*
X32447660Y12130560D01*
X30550280Y10230640D02*
X31149720Y10230640D01*
D17*
G04 #@! TO.C,C27*
X15120000Y16930000D02*
X15120000Y17430000D01*
X14180000Y17430000D02*
X14180000Y16930000D01*
G04 #@! TO.C,C34*
X25700000Y33550000D02*
X25200000Y33550000D01*
X25200000Y32610000D02*
X25700000Y32610000D01*
G04 #@! TO.C,C42*
X46990000Y20060000D02*
X46990000Y19360000D01*
X45790000Y19360000D02*
X45790000Y20060000D01*
G04 #@! TO.C,C44*
X11850000Y24510000D02*
X12350000Y24510000D01*
X12350000Y25450000D02*
X11850000Y25450000D01*
G04 #@! TO.C,C47*
X41420000Y13280000D02*
X42120000Y13280000D01*
X42120000Y12080000D02*
X41420000Y12080000D01*
G04 #@! TO.C,C49*
X9000000Y16800000D02*
X8500000Y16800000D01*
X8500000Y15860000D02*
X9000000Y15860000D01*
G04 #@! TO.C,C69*
X23170000Y27980000D02*
X23170000Y28480000D01*
X22230000Y28480000D02*
X22230000Y27980000D01*
D11*
G04 #@! TO.C,C93*
X36490000Y18470000D02*
X37240000Y18470000D01*
X36870000Y18910000D02*
X36870000Y18010000D01*
X37180000Y13850000D02*
X37180000Y17950000D01*
X40180000Y13850000D02*
X40180000Y17950000D01*
D17*
G04 #@! TO.C,L1*
X12450000Y18330000D02*
X13150000Y18330000D01*
X13150000Y17130000D02*
X12450000Y17130000D01*
G04 #@! TO.C,L5*
X15250000Y20730000D02*
X14550000Y20730000D01*
X14550000Y21930000D02*
X15250000Y21930000D01*
G04 #@! TO.C,L7*
X13750000Y23230000D02*
X13050000Y23230000D01*
X13050000Y24430000D02*
X13750000Y24430000D01*
G04 #@! TO.C,L8*
X25370000Y34380000D02*
X25370000Y34880000D01*
X24430000Y34880000D02*
X24430000Y34380000D01*
G04 #@! TO.C,L9*
X8600000Y18330000D02*
X9300000Y18330000D01*
X9300000Y17130000D02*
X8600000Y17130000D01*
G04 #@! TO.C,L10*
X23800000Y37980000D02*
X24500000Y37980000D01*
X24500000Y36780000D02*
X23800000Y36780000D01*
D11*
G04 #@! TO.C,L15*
X16650000Y30380000D02*
X16650000Y29380000D01*
X19150000Y29380000D02*
X19150000Y30380000D01*
D17*
G04 #@! TO.C,L16*
X21050000Y28180000D02*
X20350000Y28180000D01*
X20350000Y29380000D02*
X21050000Y29380000D01*
G04 #@! TO.C,L17*
X24100000Y28310000D02*
X24600000Y28310000D01*
X24600000Y29250000D02*
X24100000Y29250000D01*
D16*
G04 #@! TO.C,FD3*
X2685802Y-6190000D02*
G75*
G03X2685802Y-6190000I-635802J0D01*
G01*
D17*
G04 #@! TO.C,C48*
X19000000Y39480000D02*
X18300000Y39480000D01*
X18300000Y40680000D02*
X19000000Y40680000D01*
D18*
G04 #@! TO.C,U5*
X19167038Y57160000D02*
G75*
G03X19167038Y57160000I-1347038J0D01*
G01*
X19167038Y57160000D02*
G75*
G03X19167038Y57160000I-1347038J0D01*
G01*
D19*
X18987433Y57160000D02*
G75*
G03X18987433Y57160000I-1167433J0D01*
G01*
X16169000Y57160000D02*
X19471000Y57160000D01*
X17820000Y55509000D02*
X17820000Y58811000D01*
X50840000Y3439000D02*
X50840000Y6741000D01*
X49189000Y5090000D02*
X52491000Y5090000D01*
X52007433Y5090000D02*
G75*
G03X52007433Y5090000I-1167433J0D01*
G01*
D18*
X52187038Y5090000D02*
G75*
G03X52187038Y5090000I-1347038J0D01*
G01*
X52187038Y5090000D02*
G75*
G03X52187038Y5090000I-1347038J0D01*
G01*
D20*
X30000Y-8880000D02*
X53370000Y-8880000D01*
X53370000Y57160000D02*
X50830000Y57160000D01*
X50830000Y57160000D02*
X48290000Y59700000D01*
X30000Y59700000D02*
X30000Y-8880000D01*
X48290000Y59700000D02*
X30000Y59700000D01*
X53370000Y-8880000D02*
X53370000Y57160000D01*
D19*
X1300000Y55890000D02*
X3840000Y55890000D01*
X3840000Y55890000D02*
X3840000Y35570000D01*
X3840000Y35570000D02*
X1300000Y35570000D01*
X1300000Y35570000D02*
X1300000Y55890000D01*
X1300000Y34300000D02*
X3840000Y34300000D01*
X3840000Y34300000D02*
X3840000Y8900000D01*
X3840000Y8900000D02*
X1300000Y8900000D01*
X1300000Y8900000D02*
X1300000Y34300000D01*
X49560000Y17790000D02*
X52100000Y17790000D01*
X52100000Y17790000D02*
X52100000Y38110000D01*
X52100000Y38110000D02*
X49560000Y38110000D01*
X49560000Y38110000D02*
X49560000Y17790000D01*
X52100000Y40650000D02*
X49560000Y40650000D01*
X49560000Y40650000D02*
X49560000Y55890000D01*
X49560000Y55890000D02*
X52100000Y55890000D01*
X52100000Y55890000D02*
X52100000Y40650000D01*
D18*
X3917038Y6360000D02*
G75*
G03X3917038Y6360000I-1347038J0D01*
G01*
X3917038Y6360000D02*
G75*
G03X3917038Y6360000I-1347038J0D01*
G01*
X47097038Y57160000D02*
G75*
G03X47097038Y57160000I-1347038J0D01*
G01*
X47097038Y57160000D02*
G75*
G03X47097038Y57160000I-1347038J0D01*
G01*
D19*
X46917433Y57160000D02*
G75*
G03X46917433Y57160000I-1167433J0D01*
G01*
X44099000Y57160000D02*
X47401000Y57160000D01*
X45750000Y55509000D02*
X45750000Y58811000D01*
X3737433Y6360000D02*
G75*
G03X3737433Y6360000I-1167433J0D01*
G01*
X919000Y6360000D02*
X4221000Y6360000D01*
X2570000Y4709000D02*
X2570000Y8011000D01*
D17*
G04 #@! TO.C,C45*
X24200000Y39230000D02*
X23700000Y39230000D01*
X23700000Y38290000D02*
X24200000Y38290000D01*
G04 #@! TO.C,U7*
X8760000Y28080000D02*
X8760000Y29480000D01*
X6440000Y29480000D02*
X6440000Y27580000D01*
D11*
G04 #@! TO.C,U10*
X12475000Y51305000D02*
X12975000Y51305000D01*
X15725000Y48055000D02*
X15225000Y48055000D01*
X15725000Y51305000D02*
X15225000Y51305000D01*
X12475000Y48055000D02*
X12475000Y48555000D01*
X15725000Y48055000D02*
X15725000Y48555000D01*
X15725000Y51305000D02*
X15725000Y50805000D01*
X12475000Y51305000D02*
X12475000Y50805000D01*
G04 #@! TO.C,U11*
X16825000Y41405000D02*
X16325000Y41405000D01*
X16825000Y38155000D02*
X16325000Y38155000D01*
X13575000Y38155000D02*
X14075000Y38155000D01*
X13575000Y41405000D02*
X14075000Y41405000D01*
X16825000Y38155000D02*
X16825000Y38655000D01*
X13575000Y38155000D02*
X13575000Y38655000D01*
X16825000Y41405000D02*
X16825000Y40905000D01*
G04 #@! TD*
G04 #@! TO.C,P1*
X24691400Y2721000D02*
X24691400Y839000D01*
X26268600Y839000D01*
X26268600Y2721000D01*
X24691400Y2721000D01*
X22151400Y1932400D02*
X22151400Y1627600D01*
X23728600Y1932400D02*
X23728600Y1627600D01*
X22151400Y1627600D02*
G75*
G03X23728600Y1627600I788600J0D01*
G01*
X23728600Y1932400D02*
G75*
G03X22151400Y1932400I-788600J0D01*
G01*
X19611400Y1932400D02*
X19611400Y1627600D01*
X21188600Y1932400D02*
X21188600Y1627600D01*
X19611400Y1627600D02*
G75*
G03X21188600Y1627600I788600J0D01*
G01*
X21188600Y1932400D02*
G75*
G03X19611400Y1932400I-788600J0D01*
G01*
X17071400Y1932400D02*
X17071400Y1627600D01*
X18648600Y1932400D02*
X18648600Y1627600D01*
X17071400Y1627600D02*
G75*
G03X18648600Y1627600I788600J0D01*
G01*
X18648600Y1932400D02*
G75*
G03X17071400Y1932400I-788600J0D01*
G01*
X14531400Y1932400D02*
X14531400Y1627600D01*
X16108600Y1932400D02*
X16108600Y1627600D01*
X14531400Y1627600D02*
G75*
G03X16108600Y1627600I788600J0D01*
G01*
X16108600Y1932400D02*
G75*
G03X14531400Y1932400I-788600J0D01*
G01*
X11991400Y1932400D02*
X11991400Y1627600D01*
X13568600Y1932400D02*
X13568600Y1627600D01*
X11991400Y1627600D02*
G75*
G03X13568600Y1627600I788600J0D01*
G01*
X13568600Y1932400D02*
G75*
G03X11991400Y1932400I-788600J0D01*
G01*
X9451400Y1932400D02*
X9451400Y1627600D01*
X11028600Y1932400D02*
X11028600Y1627600D01*
X9451400Y1627600D02*
G75*
G03X11028600Y1627600I788600J0D01*
G01*
X11028600Y1932400D02*
G75*
G03X9451400Y1932400I-788600J0D01*
G01*
X6911400Y1932400D02*
X6911400Y1627600D01*
X8488600Y1932400D02*
X8488600Y1627600D01*
X6911400Y1627600D02*
G75*
G03X8488600Y1627600I788600J0D01*
G01*
X8488600Y1932400D02*
G75*
G03X6911400Y1932400I-788600J0D01*
G01*
X4371400Y1932400D02*
X4371400Y1627600D01*
X5948600Y1932400D02*
X5948600Y1627600D01*
X4371400Y1627600D02*
G75*
G03X5948600Y1627600I788600J0D01*
G01*
X5948600Y1932400D02*
G75*
G03X4371400Y1932400I-788600J0D01*
G01*
X1831400Y1932400D02*
X1831400Y1627600D01*
X3408600Y1932400D02*
X3408600Y1627600D01*
X1831400Y1627600D02*
G75*
G03X3408600Y1627600I788600J0D01*
G01*
X3408600Y1932400D02*
G75*
G03X1831400Y1932400I-788600J0D01*
G01*
G04 #@! TD*
G04 #@! TO.C,U5*
X51694800Y26680000D02*
G75*
G03X51694800Y26680000I-864800J0D01*
G01*
X51694800Y29220000D02*
G75*
G03X51694800Y29220000I-864800J0D01*
G01*
X51694800Y41920000D02*
G75*
G03X51694800Y41920000I-864800J0D01*
G01*
X51694800Y44460000D02*
G75*
G03X51694800Y44460000I-864800J0D01*
G01*
X51694800Y47000000D02*
G75*
G03X51694800Y47000000I-864800J0D01*
G01*
X51694800Y49540000D02*
G75*
G03X51694800Y49540000I-864800J0D01*
G01*
X51694800Y52080000D02*
G75*
G03X51694800Y52080000I-864800J0D01*
G01*
X51694800Y54620000D02*
G75*
G03X51694800Y54620000I-864800J0D01*
G01*
X3434800Y15250000D02*
G75*
G03X3434800Y15250000I-864800J0D01*
G01*
X3434800Y49540000D02*
G75*
G03X3434800Y49540000I-864800J0D01*
G01*
X3434800Y47000000D02*
G75*
G03X3434800Y47000000I-864800J0D01*
G01*
X3434800Y44460000D02*
G75*
G03X3434800Y44460000I-864800J0D01*
G01*
X3434800Y41920000D02*
G75*
G03X3434800Y41920000I-864800J0D01*
G01*
X3434800Y39380000D02*
G75*
G03X3434800Y39380000I-864800J0D01*
G01*
X3434800Y36840000D02*
G75*
G03X3434800Y36840000I-864800J0D01*
G01*
X3434800Y33030000D02*
G75*
G03X3434800Y33030000I-864800J0D01*
G01*
X3434800Y30490000D02*
G75*
G03X3434800Y30490000I-864800J0D01*
G01*
X3434800Y27950000D02*
G75*
G03X3434800Y27950000I-864800J0D01*
G01*
X3434800Y25410000D02*
G75*
G03X3434800Y25410000I-864800J0D01*
G01*
X3434800Y22870000D02*
G75*
G03X3434800Y22870000I-864800J0D01*
G01*
X3434800Y20330000D02*
G75*
G03X3434800Y20330000I-864800J0D01*
G01*
X51694800Y31760000D02*
G75*
G03X51694800Y31760000I-864800J0D01*
G01*
X51694800Y34300000D02*
G75*
G03X51694800Y34300000I-864800J0D01*
G01*
X3434800Y17790000D02*
G75*
G03X3434800Y17790000I-864800J0D01*
G01*
X51694800Y24140000D02*
G75*
G03X51694800Y24140000I-864800J0D01*
G01*
X3434800Y54620000D02*
G75*
G03X3434800Y54620000I-864800J0D01*
G01*
X3434800Y52080000D02*
G75*
G03X3434800Y52080000I-864800J0D01*
G01*
X51694800Y36840000D02*
G75*
G03X51694800Y36840000I-864800J0D01*
G01*
X4245000Y6360000D02*
G75*
G03X4245000Y6360000I-1675000J0D01*
G01*
X47430000Y57165000D02*
G75*
G03X47430000Y57165000I-1675000J0D01*
G01*
X19490000Y57160000D02*
G75*
G03X19490000Y57160000I-1675000J0D01*
G01*
X52505000Y5095000D02*
G75*
G03X52505000Y5095000I-1675000J0D01*
G01*
X3434800Y12710000D02*
G75*
G03X3434800Y12710000I-864800J0D01*
G01*
X3434800Y10170000D02*
G75*
G03X3434800Y10170000I-864800J0D01*
G01*
X51694800Y21600000D02*
G75*
G03X51694800Y21600000I-864800J0D01*
G01*
X51694800Y19060000D02*
G75*
G03X51694800Y19060000I-864800J0D01*
G01*
G04 #@! TD*
G04 #@! TO.C,R36*
D21*
X44676190Y46258572D02*
X44438095Y46091905D01*
X44676190Y45972858D02*
X44176190Y45972858D01*
X44176190Y46163334D01*
X44200000Y46210953D01*
X44223809Y46234762D01*
X44271428Y46258572D01*
X44342857Y46258572D01*
X44390476Y46234762D01*
X44414285Y46210953D01*
X44438095Y46163334D01*
X44438095Y45972858D01*
X44176190Y46425239D02*
X44176190Y46734762D01*
X44366666Y46568096D01*
X44366666Y46639524D01*
X44390476Y46687143D01*
X44414285Y46710953D01*
X44461904Y46734762D01*
X44580952Y46734762D01*
X44628571Y46710953D01*
X44652380Y46687143D01*
X44676190Y46639524D01*
X44676190Y46496667D01*
X44652380Y46449048D01*
X44628571Y46425239D01*
X44176190Y47163334D02*
X44176190Y47068096D01*
X44200000Y47020477D01*
X44223809Y46996667D01*
X44295238Y46949048D01*
X44390476Y46925239D01*
X44580952Y46925239D01*
X44628571Y46949048D01*
X44652380Y46972858D01*
X44676190Y47020477D01*
X44676190Y47115715D01*
X44652380Y47163334D01*
X44628571Y47187143D01*
X44580952Y47210953D01*
X44461904Y47210953D01*
X44414285Y47187143D01*
X44390476Y47163334D01*
X44366666Y47115715D01*
X44366666Y47020477D01*
X44390476Y46972858D01*
X44414285Y46949048D01*
X44461904Y46925239D01*
G04 #@! TO.C,J2*
X46633333Y8528810D02*
X46633333Y8171667D01*
X46609523Y8100239D01*
X46561904Y8052620D01*
X46490476Y8028810D01*
X46442857Y8028810D01*
X46847619Y8481191D02*
X46871428Y8505000D01*
X46919047Y8528810D01*
X47038095Y8528810D01*
X47085714Y8505000D01*
X47109523Y8481191D01*
X47133333Y8433572D01*
X47133333Y8385953D01*
X47109523Y8314524D01*
X46823809Y8028810D01*
X47133333Y8028810D01*
G04 #@! TO.C,U1*
X19244047Y6903810D02*
X19244047Y6499048D01*
X19267857Y6451429D01*
X19291666Y6427620D01*
X19339285Y6403810D01*
X19434523Y6403810D01*
X19482142Y6427620D01*
X19505952Y6451429D01*
X19529761Y6499048D01*
X19529761Y6903810D01*
X20029761Y6403810D02*
X19744047Y6403810D01*
X19886904Y6403810D02*
X19886904Y6903810D01*
X19839285Y6832381D01*
X19791666Y6784762D01*
X19744047Y6760953D01*
G04 #@! TO.C,U3*
X43319047Y15153810D02*
X43319047Y14749048D01*
X43342857Y14701429D01*
X43366666Y14677620D01*
X43414285Y14653810D01*
X43509523Y14653810D01*
X43557142Y14677620D01*
X43580952Y14701429D01*
X43604761Y14749048D01*
X43604761Y15153810D01*
X43795238Y15153810D02*
X44104761Y15153810D01*
X43938095Y14963334D01*
X44009523Y14963334D01*
X44057142Y14939524D01*
X44080952Y14915715D01*
X44104761Y14868096D01*
X44104761Y14749048D01*
X44080952Y14701429D01*
X44057142Y14677620D01*
X44009523Y14653810D01*
X43866666Y14653810D01*
X43819047Y14677620D01*
X43795238Y14701429D01*
G04 #@! TO.C,S1*
X43002380Y57449048D02*
X43026190Y57520477D01*
X43026190Y57639524D01*
X43002380Y57687143D01*
X42978571Y57710953D01*
X42930952Y57734762D01*
X42883333Y57734762D01*
X42835714Y57710953D01*
X42811904Y57687143D01*
X42788095Y57639524D01*
X42764285Y57544286D01*
X42740476Y57496667D01*
X42716666Y57472858D01*
X42669047Y57449048D01*
X42621428Y57449048D01*
X42573809Y57472858D01*
X42550000Y57496667D01*
X42526190Y57544286D01*
X42526190Y57663334D01*
X42550000Y57734762D01*
X43026190Y58210953D02*
X43026190Y57925239D01*
X43026190Y58068096D02*
X42526190Y58068096D01*
X42597619Y58020477D01*
X42645238Y57972858D01*
X42669047Y57925239D01*
G04 #@! TO.C,P1*
X27230952Y-146190D02*
X27230952Y353810D01*
X27421428Y353810D01*
X27469047Y330000D01*
X27492857Y306191D01*
X27516666Y258572D01*
X27516666Y187143D01*
X27492857Y139524D01*
X27469047Y115715D01*
X27421428Y91905D01*
X27230952Y91905D01*
X27992857Y-146190D02*
X27707142Y-146190D01*
X27850000Y-146190D02*
X27850000Y353810D01*
X27802380Y282381D01*
X27754761Y234762D01*
X27707142Y210953D01*
G04 #@! TO.C,C20*
X37828571Y27608572D02*
X37852380Y27584762D01*
X37876190Y27513334D01*
X37876190Y27465715D01*
X37852380Y27394286D01*
X37804761Y27346667D01*
X37757142Y27322858D01*
X37661904Y27299048D01*
X37590476Y27299048D01*
X37495238Y27322858D01*
X37447619Y27346667D01*
X37400000Y27394286D01*
X37376190Y27465715D01*
X37376190Y27513334D01*
X37400000Y27584762D01*
X37423809Y27608572D01*
X37423809Y27799048D02*
X37400000Y27822858D01*
X37376190Y27870477D01*
X37376190Y27989524D01*
X37400000Y28037143D01*
X37423809Y28060953D01*
X37471428Y28084762D01*
X37519047Y28084762D01*
X37590476Y28060953D01*
X37876190Y27775239D01*
X37876190Y28084762D01*
X37376190Y28394286D02*
X37376190Y28441905D01*
X37400000Y28489524D01*
X37423809Y28513334D01*
X37471428Y28537143D01*
X37566666Y28560953D01*
X37685714Y28560953D01*
X37780952Y28537143D01*
X37828571Y28513334D01*
X37852380Y28489524D01*
X37876190Y28441905D01*
X37876190Y28394286D01*
X37852380Y28346667D01*
X37828571Y28322858D01*
X37780952Y28299048D01*
X37685714Y28275239D01*
X37566666Y28275239D01*
X37471428Y28299048D01*
X37423809Y28322858D01*
X37400000Y28346667D01*
X37376190Y28394286D01*
G04 #@! TO.C,U9*
X11754047Y32548810D02*
X11754047Y32144048D01*
X11777857Y32096429D01*
X11801666Y32072620D01*
X11849285Y32048810D01*
X11944523Y32048810D01*
X11992142Y32072620D01*
X12015952Y32096429D01*
X12039761Y32144048D01*
X12039761Y32548810D01*
X12301666Y32048810D02*
X12396904Y32048810D01*
X12444523Y32072620D01*
X12468333Y32096429D01*
X12515952Y32167858D01*
X12539761Y32263096D01*
X12539761Y32453572D01*
X12515952Y32501191D01*
X12492142Y32525000D01*
X12444523Y32548810D01*
X12349285Y32548810D01*
X12301666Y32525000D01*
X12277857Y32501191D01*
X12254047Y32453572D01*
X12254047Y32334524D01*
X12277857Y32286905D01*
X12301666Y32263096D01*
X12349285Y32239286D01*
X12444523Y32239286D01*
X12492142Y32263096D01*
X12515952Y32286905D01*
X12539761Y32334524D01*
G04 #@! TO.C,C1*
X25616666Y5951429D02*
X25592857Y5927620D01*
X25521428Y5903810D01*
X25473809Y5903810D01*
X25402380Y5927620D01*
X25354761Y5975239D01*
X25330952Y6022858D01*
X25307142Y6118096D01*
X25307142Y6189524D01*
X25330952Y6284762D01*
X25354761Y6332381D01*
X25402380Y6380000D01*
X25473809Y6403810D01*
X25521428Y6403810D01*
X25592857Y6380000D01*
X25616666Y6356191D01*
X26092857Y5903810D02*
X25807142Y5903810D01*
X25950000Y5903810D02*
X25950000Y6403810D01*
X25902380Y6332381D01*
X25854761Y6284762D01*
X25807142Y6260953D01*
G04 #@! TO.C,C2*
X27166666Y3851429D02*
X27142857Y3827620D01*
X27071428Y3803810D01*
X27023809Y3803810D01*
X26952380Y3827620D01*
X26904761Y3875239D01*
X26880952Y3922858D01*
X26857142Y4018096D01*
X26857142Y4089524D01*
X26880952Y4184762D01*
X26904761Y4232381D01*
X26952380Y4280000D01*
X27023809Y4303810D01*
X27071428Y4303810D01*
X27142857Y4280000D01*
X27166666Y4256191D01*
X27357142Y4256191D02*
X27380952Y4280000D01*
X27428571Y4303810D01*
X27547619Y4303810D01*
X27595238Y4280000D01*
X27619047Y4256191D01*
X27642857Y4208572D01*
X27642857Y4160953D01*
X27619047Y4089524D01*
X27333333Y3803810D01*
X27642857Y3803810D01*
G04 #@! TO.C,C3*
X17228571Y6196667D02*
X17252380Y6172858D01*
X17276190Y6101429D01*
X17276190Y6053810D01*
X17252380Y5982381D01*
X17204761Y5934762D01*
X17157142Y5910953D01*
X17061904Y5887143D01*
X16990476Y5887143D01*
X16895238Y5910953D01*
X16847619Y5934762D01*
X16800000Y5982381D01*
X16776190Y6053810D01*
X16776190Y6101429D01*
X16800000Y6172858D01*
X16823809Y6196667D01*
X16776190Y6363334D02*
X16776190Y6672858D01*
X16966666Y6506191D01*
X16966666Y6577620D01*
X16990476Y6625239D01*
X17014285Y6649048D01*
X17061904Y6672858D01*
X17180952Y6672858D01*
X17228571Y6649048D01*
X17252380Y6625239D01*
X17276190Y6577620D01*
X17276190Y6434762D01*
X17252380Y6387143D01*
X17228571Y6363334D01*
G04 #@! TO.C,C4*
X15553571Y6196667D02*
X15577380Y6172858D01*
X15601190Y6101429D01*
X15601190Y6053810D01*
X15577380Y5982381D01*
X15529761Y5934762D01*
X15482142Y5910953D01*
X15386904Y5887143D01*
X15315476Y5887143D01*
X15220238Y5910953D01*
X15172619Y5934762D01*
X15125000Y5982381D01*
X15101190Y6053810D01*
X15101190Y6101429D01*
X15125000Y6172858D01*
X15148809Y6196667D01*
X15267857Y6625239D02*
X15601190Y6625239D01*
X15077380Y6506191D02*
X15434523Y6387143D01*
X15434523Y6696667D01*
G04 #@! TO.C,C5*
X27946666Y8091429D02*
X27922857Y8067620D01*
X27851428Y8043810D01*
X27803809Y8043810D01*
X27732380Y8067620D01*
X27684761Y8115239D01*
X27660952Y8162858D01*
X27637142Y8258096D01*
X27637142Y8329524D01*
X27660952Y8424762D01*
X27684761Y8472381D01*
X27732380Y8520000D01*
X27803809Y8543810D01*
X27851428Y8543810D01*
X27922857Y8520000D01*
X27946666Y8496191D01*
X28399047Y8543810D02*
X28160952Y8543810D01*
X28137142Y8305715D01*
X28160952Y8329524D01*
X28208571Y8353334D01*
X28327619Y8353334D01*
X28375238Y8329524D01*
X28399047Y8305715D01*
X28422857Y8258096D01*
X28422857Y8139048D01*
X28399047Y8091429D01*
X28375238Y8067620D01*
X28327619Y8043810D01*
X28208571Y8043810D01*
X28160952Y8067620D01*
X28137142Y8091429D01*
G04 #@! TO.C,C6*
X27956666Y7131429D02*
X27932857Y7107620D01*
X27861428Y7083810D01*
X27813809Y7083810D01*
X27742380Y7107620D01*
X27694761Y7155239D01*
X27670952Y7202858D01*
X27647142Y7298096D01*
X27647142Y7369524D01*
X27670952Y7464762D01*
X27694761Y7512381D01*
X27742380Y7560000D01*
X27813809Y7583810D01*
X27861428Y7583810D01*
X27932857Y7560000D01*
X27956666Y7536191D01*
X28385238Y7583810D02*
X28290000Y7583810D01*
X28242380Y7560000D01*
X28218571Y7536191D01*
X28170952Y7464762D01*
X28147142Y7369524D01*
X28147142Y7179048D01*
X28170952Y7131429D01*
X28194761Y7107620D01*
X28242380Y7083810D01*
X28337619Y7083810D01*
X28385238Y7107620D01*
X28409047Y7131429D01*
X28432857Y7179048D01*
X28432857Y7298096D01*
X28409047Y7345715D01*
X28385238Y7369524D01*
X28337619Y7393334D01*
X28242380Y7393334D01*
X28194761Y7369524D01*
X28170952Y7345715D01*
X28147142Y7298096D01*
G04 #@! TO.C,C7*
X14128571Y6256667D02*
X14152380Y6232858D01*
X14176190Y6161429D01*
X14176190Y6113810D01*
X14152380Y6042381D01*
X14104761Y5994762D01*
X14057142Y5970953D01*
X13961904Y5947143D01*
X13890476Y5947143D01*
X13795238Y5970953D01*
X13747619Y5994762D01*
X13700000Y6042381D01*
X13676190Y6113810D01*
X13676190Y6161429D01*
X13700000Y6232858D01*
X13723809Y6256667D01*
X13676190Y6423334D02*
X13676190Y6756667D01*
X14176190Y6542381D01*
G04 #@! TO.C,C8*
X12258571Y7796667D02*
X12282380Y7772858D01*
X12306190Y7701429D01*
X12306190Y7653810D01*
X12282380Y7582381D01*
X12234761Y7534762D01*
X12187142Y7510953D01*
X12091904Y7487143D01*
X12020476Y7487143D01*
X11925238Y7510953D01*
X11877619Y7534762D01*
X11830000Y7582381D01*
X11806190Y7653810D01*
X11806190Y7701429D01*
X11830000Y7772858D01*
X11853809Y7796667D01*
X12020476Y8082381D02*
X11996666Y8034762D01*
X11972857Y8010953D01*
X11925238Y7987143D01*
X11901428Y7987143D01*
X11853809Y8010953D01*
X11830000Y8034762D01*
X11806190Y8082381D01*
X11806190Y8177620D01*
X11830000Y8225239D01*
X11853809Y8249048D01*
X11901428Y8272858D01*
X11925238Y8272858D01*
X11972857Y8249048D01*
X11996666Y8225239D01*
X12020476Y8177620D01*
X12020476Y8082381D01*
X12044285Y8034762D01*
X12068095Y8010953D01*
X12115714Y7987143D01*
X12210952Y7987143D01*
X12258571Y8010953D01*
X12282380Y8034762D01*
X12306190Y8082381D01*
X12306190Y8177620D01*
X12282380Y8225239D01*
X12258571Y8249048D01*
X12210952Y8272858D01*
X12115714Y8272858D01*
X12068095Y8249048D01*
X12044285Y8225239D01*
X12020476Y8177620D01*
G04 #@! TO.C,C9*
X32530306Y8089261D02*
X32506497Y8065452D01*
X32435068Y8041642D01*
X32387449Y8041642D01*
X32316020Y8065452D01*
X32268401Y8113071D01*
X32244592Y8160690D01*
X32220782Y8255928D01*
X32220782Y8327356D01*
X32244592Y8422594D01*
X32268401Y8470213D01*
X32316020Y8517832D01*
X32387449Y8541642D01*
X32435068Y8541642D01*
X32506497Y8517832D01*
X32530306Y8494023D01*
X32768401Y8041642D02*
X32863640Y8041642D01*
X32911259Y8065452D01*
X32935068Y8089261D01*
X32982687Y8160690D01*
X33006497Y8255928D01*
X33006497Y8446404D01*
X32982687Y8494023D01*
X32958878Y8517832D01*
X32911259Y8541642D01*
X32816020Y8541642D01*
X32768401Y8517832D01*
X32744592Y8494023D01*
X32720782Y8446404D01*
X32720782Y8327356D01*
X32744592Y8279737D01*
X32768401Y8255928D01*
X32816020Y8232118D01*
X32911259Y8232118D01*
X32958878Y8255928D01*
X32982687Y8279737D01*
X33006497Y8327356D01*
G04 #@! TO.C,C10*
X29923571Y17151429D02*
X29899761Y17127620D01*
X29828333Y17103810D01*
X29780714Y17103810D01*
X29709285Y17127620D01*
X29661666Y17175239D01*
X29637857Y17222858D01*
X29614047Y17318096D01*
X29614047Y17389524D01*
X29637857Y17484762D01*
X29661666Y17532381D01*
X29709285Y17580000D01*
X29780714Y17603810D01*
X29828333Y17603810D01*
X29899761Y17580000D01*
X29923571Y17556191D01*
X30399761Y17103810D02*
X30114047Y17103810D01*
X30256904Y17103810D02*
X30256904Y17603810D01*
X30209285Y17532381D01*
X30161666Y17484762D01*
X30114047Y17460953D01*
X30709285Y17603810D02*
X30756904Y17603810D01*
X30804523Y17580000D01*
X30828333Y17556191D01*
X30852142Y17508572D01*
X30875952Y17413334D01*
X30875952Y17294286D01*
X30852142Y17199048D01*
X30828333Y17151429D01*
X30804523Y17127620D01*
X30756904Y17103810D01*
X30709285Y17103810D01*
X30661666Y17127620D01*
X30637857Y17151429D01*
X30614047Y17199048D01*
X30590238Y17294286D01*
X30590238Y17413334D01*
X30614047Y17508572D01*
X30637857Y17556191D01*
X30661666Y17580000D01*
X30709285Y17603810D01*
G04 #@! TO.C,C12*
X20053571Y15321429D02*
X20029761Y15297620D01*
X19958333Y15273810D01*
X19910714Y15273810D01*
X19839285Y15297620D01*
X19791666Y15345239D01*
X19767857Y15392858D01*
X19744047Y15488096D01*
X19744047Y15559524D01*
X19767857Y15654762D01*
X19791666Y15702381D01*
X19839285Y15750000D01*
X19910714Y15773810D01*
X19958333Y15773810D01*
X20029761Y15750000D01*
X20053571Y15726191D01*
X20529761Y15273810D02*
X20244047Y15273810D01*
X20386904Y15273810D02*
X20386904Y15773810D01*
X20339285Y15702381D01*
X20291666Y15654762D01*
X20244047Y15630953D01*
X20720238Y15726191D02*
X20744047Y15750000D01*
X20791666Y15773810D01*
X20910714Y15773810D01*
X20958333Y15750000D01*
X20982142Y15726191D01*
X21005952Y15678572D01*
X21005952Y15630953D01*
X20982142Y15559524D01*
X20696428Y15273810D01*
X21005952Y15273810D01*
G04 #@! TO.C,C13*
X20128571Y16296429D02*
X20104761Y16272620D01*
X20033333Y16248810D01*
X19985714Y16248810D01*
X19914285Y16272620D01*
X19866666Y16320239D01*
X19842857Y16367858D01*
X19819047Y16463096D01*
X19819047Y16534524D01*
X19842857Y16629762D01*
X19866666Y16677381D01*
X19914285Y16725000D01*
X19985714Y16748810D01*
X20033333Y16748810D01*
X20104761Y16725000D01*
X20128571Y16701191D01*
X20604761Y16248810D02*
X20319047Y16248810D01*
X20461904Y16248810D02*
X20461904Y16748810D01*
X20414285Y16677381D01*
X20366666Y16629762D01*
X20319047Y16605953D01*
X20771428Y16748810D02*
X21080952Y16748810D01*
X20914285Y16558334D01*
X20985714Y16558334D01*
X21033333Y16534524D01*
X21057142Y16510715D01*
X21080952Y16463096D01*
X21080952Y16344048D01*
X21057142Y16296429D01*
X21033333Y16272620D01*
X20985714Y16248810D01*
X20842857Y16248810D01*
X20795238Y16272620D01*
X20771428Y16296429D01*
G04 #@! TO.C,C14*
X18638571Y14728572D02*
X18662380Y14704762D01*
X18686190Y14633334D01*
X18686190Y14585715D01*
X18662380Y14514286D01*
X18614761Y14466667D01*
X18567142Y14442858D01*
X18471904Y14419048D01*
X18400476Y14419048D01*
X18305238Y14442858D01*
X18257619Y14466667D01*
X18210000Y14514286D01*
X18186190Y14585715D01*
X18186190Y14633334D01*
X18210000Y14704762D01*
X18233809Y14728572D01*
X18686190Y15204762D02*
X18686190Y14919048D01*
X18686190Y15061905D02*
X18186190Y15061905D01*
X18257619Y15014286D01*
X18305238Y14966667D01*
X18329047Y14919048D01*
X18352857Y15633334D02*
X18686190Y15633334D01*
X18162380Y15514286D02*
X18519523Y15395239D01*
X18519523Y15704762D01*
G04 #@! TO.C,C15*
X17128571Y14678572D02*
X17152380Y14654762D01*
X17176190Y14583334D01*
X17176190Y14535715D01*
X17152380Y14464286D01*
X17104761Y14416667D01*
X17057142Y14392858D01*
X16961904Y14369048D01*
X16890476Y14369048D01*
X16795238Y14392858D01*
X16747619Y14416667D01*
X16700000Y14464286D01*
X16676190Y14535715D01*
X16676190Y14583334D01*
X16700000Y14654762D01*
X16723809Y14678572D01*
X17176190Y15154762D02*
X17176190Y14869048D01*
X17176190Y15011905D02*
X16676190Y15011905D01*
X16747619Y14964286D01*
X16795238Y14916667D01*
X16819047Y14869048D01*
X16676190Y15607143D02*
X16676190Y15369048D01*
X16914285Y15345239D01*
X16890476Y15369048D01*
X16866666Y15416667D01*
X16866666Y15535715D01*
X16890476Y15583334D01*
X16914285Y15607143D01*
X16961904Y15630953D01*
X17080952Y15630953D01*
X17128571Y15607143D01*
X17152380Y15583334D01*
X17176190Y15535715D01*
X17176190Y15416667D01*
X17152380Y15369048D01*
X17128571Y15345239D01*
G04 #@! TO.C,C16*
X28968571Y-6946428D02*
X28992380Y-6970238D01*
X29016190Y-7041666D01*
X29016190Y-7089285D01*
X28992380Y-7160714D01*
X28944761Y-7208333D01*
X28897142Y-7232142D01*
X28801904Y-7255952D01*
X28730476Y-7255952D01*
X28635238Y-7232142D01*
X28587619Y-7208333D01*
X28540000Y-7160714D01*
X28516190Y-7089285D01*
X28516190Y-7041666D01*
X28540000Y-6970238D01*
X28563809Y-6946428D01*
X29016190Y-6470238D02*
X29016190Y-6755952D01*
X29016190Y-6613095D02*
X28516190Y-6613095D01*
X28587619Y-6660714D01*
X28635238Y-6708333D01*
X28659047Y-6755952D01*
X28516190Y-6041666D02*
X28516190Y-6136904D01*
X28540000Y-6184523D01*
X28563809Y-6208333D01*
X28635238Y-6255952D01*
X28730476Y-6279761D01*
X28920952Y-6279761D01*
X28968571Y-6255952D01*
X28992380Y-6232142D01*
X29016190Y-6184523D01*
X29016190Y-6089285D01*
X28992380Y-6041666D01*
X28968571Y-6017857D01*
X28920952Y-5994047D01*
X28801904Y-5994047D01*
X28754285Y-6017857D01*
X28730476Y-6041666D01*
X28706666Y-6089285D01*
X28706666Y-6184523D01*
X28730476Y-6232142D01*
X28754285Y-6255952D01*
X28801904Y-6279761D01*
G04 #@! TO.C,C17*
X17178571Y-7348571D02*
X17154761Y-7372380D01*
X17083333Y-7396190D01*
X17035714Y-7396190D01*
X16964285Y-7372380D01*
X16916666Y-7324761D01*
X16892857Y-7277142D01*
X16869047Y-7181904D01*
X16869047Y-7110476D01*
X16892857Y-7015238D01*
X16916666Y-6967619D01*
X16964285Y-6920000D01*
X17035714Y-6896190D01*
X17083333Y-6896190D01*
X17154761Y-6920000D01*
X17178571Y-6943809D01*
X17654761Y-7396190D02*
X17369047Y-7396190D01*
X17511904Y-7396190D02*
X17511904Y-6896190D01*
X17464285Y-6967619D01*
X17416666Y-7015238D01*
X17369047Y-7039047D01*
X17821428Y-6896190D02*
X18154761Y-6896190D01*
X17940476Y-7396190D01*
G04 #@! TO.C,C19*
X10763571Y52668572D02*
X10787380Y52644762D01*
X10811190Y52573334D01*
X10811190Y52525715D01*
X10787380Y52454286D01*
X10739761Y52406667D01*
X10692142Y52382858D01*
X10596904Y52359048D01*
X10525476Y52359048D01*
X10430238Y52382858D01*
X10382619Y52406667D01*
X10335000Y52454286D01*
X10311190Y52525715D01*
X10311190Y52573334D01*
X10335000Y52644762D01*
X10358809Y52668572D01*
X10811190Y53144762D02*
X10811190Y52859048D01*
X10811190Y53001905D02*
X10311190Y53001905D01*
X10382619Y52954286D01*
X10430238Y52906667D01*
X10454047Y52859048D01*
X10811190Y53382858D02*
X10811190Y53478096D01*
X10787380Y53525715D01*
X10763571Y53549524D01*
X10692142Y53597143D01*
X10596904Y53620953D01*
X10406428Y53620953D01*
X10358809Y53597143D01*
X10335000Y53573334D01*
X10311190Y53525715D01*
X10311190Y53430477D01*
X10335000Y53382858D01*
X10358809Y53359048D01*
X10406428Y53335239D01*
X10525476Y53335239D01*
X10573095Y53359048D01*
X10596904Y53382858D01*
X10620714Y53430477D01*
X10620714Y53525715D01*
X10596904Y53573334D01*
X10573095Y53597143D01*
X10525476Y53620953D01*
G04 #@! TO.C,C23*
X14878571Y33791429D02*
X14854761Y33767620D01*
X14783333Y33743810D01*
X14735714Y33743810D01*
X14664285Y33767620D01*
X14616666Y33815239D01*
X14592857Y33862858D01*
X14569047Y33958096D01*
X14569047Y34029524D01*
X14592857Y34124762D01*
X14616666Y34172381D01*
X14664285Y34220000D01*
X14735714Y34243810D01*
X14783333Y34243810D01*
X14854761Y34220000D01*
X14878571Y34196191D01*
X15069047Y34196191D02*
X15092857Y34220000D01*
X15140476Y34243810D01*
X15259523Y34243810D01*
X15307142Y34220000D01*
X15330952Y34196191D01*
X15354761Y34148572D01*
X15354761Y34100953D01*
X15330952Y34029524D01*
X15045238Y33743810D01*
X15354761Y33743810D01*
X15521428Y34243810D02*
X15830952Y34243810D01*
X15664285Y34053334D01*
X15735714Y34053334D01*
X15783333Y34029524D01*
X15807142Y34005715D01*
X15830952Y33958096D01*
X15830952Y33839048D01*
X15807142Y33791429D01*
X15783333Y33767620D01*
X15735714Y33743810D01*
X15592857Y33743810D01*
X15545238Y33767620D01*
X15521428Y33791429D01*
G04 #@! TO.C,C24*
X16028571Y36201429D02*
X16004761Y36177620D01*
X15933333Y36153810D01*
X15885714Y36153810D01*
X15814285Y36177620D01*
X15766666Y36225239D01*
X15742857Y36272858D01*
X15719047Y36368096D01*
X15719047Y36439524D01*
X15742857Y36534762D01*
X15766666Y36582381D01*
X15814285Y36630000D01*
X15885714Y36653810D01*
X15933333Y36653810D01*
X16004761Y36630000D01*
X16028571Y36606191D01*
X16219047Y36606191D02*
X16242857Y36630000D01*
X16290476Y36653810D01*
X16409523Y36653810D01*
X16457142Y36630000D01*
X16480952Y36606191D01*
X16504761Y36558572D01*
X16504761Y36510953D01*
X16480952Y36439524D01*
X16195238Y36153810D01*
X16504761Y36153810D01*
X16933333Y36487143D02*
X16933333Y36153810D01*
X16814285Y36677620D02*
X16695238Y36320477D01*
X17004761Y36320477D01*
G04 #@! TO.C,C25*
X16228571Y43301429D02*
X16204761Y43277620D01*
X16133333Y43253810D01*
X16085714Y43253810D01*
X16014285Y43277620D01*
X15966666Y43325239D01*
X15942857Y43372858D01*
X15919047Y43468096D01*
X15919047Y43539524D01*
X15942857Y43634762D01*
X15966666Y43682381D01*
X16014285Y43730000D01*
X16085714Y43753810D01*
X16133333Y43753810D01*
X16204761Y43730000D01*
X16228571Y43706191D01*
X16419047Y43706191D02*
X16442857Y43730000D01*
X16490476Y43753810D01*
X16609523Y43753810D01*
X16657142Y43730000D01*
X16680952Y43706191D01*
X16704761Y43658572D01*
X16704761Y43610953D01*
X16680952Y43539524D01*
X16395238Y43253810D01*
X16704761Y43253810D01*
X17157142Y43753810D02*
X16919047Y43753810D01*
X16895238Y43515715D01*
X16919047Y43539524D01*
X16966666Y43563334D01*
X17085714Y43563334D01*
X17133333Y43539524D01*
X17157142Y43515715D01*
X17180952Y43468096D01*
X17180952Y43349048D01*
X17157142Y43301429D01*
X17133333Y43277620D01*
X17085714Y43253810D01*
X16966666Y43253810D01*
X16919047Y43277620D01*
X16895238Y43301429D01*
G04 #@! TO.C,C31*
X12978571Y45501429D02*
X12954761Y45477620D01*
X12883333Y45453810D01*
X12835714Y45453810D01*
X12764285Y45477620D01*
X12716666Y45525239D01*
X12692857Y45572858D01*
X12669047Y45668096D01*
X12669047Y45739524D01*
X12692857Y45834762D01*
X12716666Y45882381D01*
X12764285Y45930000D01*
X12835714Y45953810D01*
X12883333Y45953810D01*
X12954761Y45930000D01*
X12978571Y45906191D01*
X13145238Y45953810D02*
X13454761Y45953810D01*
X13288095Y45763334D01*
X13359523Y45763334D01*
X13407142Y45739524D01*
X13430952Y45715715D01*
X13454761Y45668096D01*
X13454761Y45549048D01*
X13430952Y45501429D01*
X13407142Y45477620D01*
X13359523Y45453810D01*
X13216666Y45453810D01*
X13169047Y45477620D01*
X13145238Y45501429D01*
X13930952Y45453810D02*
X13645238Y45453810D01*
X13788095Y45453810D02*
X13788095Y45953810D01*
X13740476Y45882381D01*
X13692857Y45834762D01*
X13645238Y45810953D01*
G04 #@! TO.C,C35*
X14178571Y43851429D02*
X14154761Y43827620D01*
X14083333Y43803810D01*
X14035714Y43803810D01*
X13964285Y43827620D01*
X13916666Y43875239D01*
X13892857Y43922858D01*
X13869047Y44018096D01*
X13869047Y44089524D01*
X13892857Y44184762D01*
X13916666Y44232381D01*
X13964285Y44280000D01*
X14035714Y44303810D01*
X14083333Y44303810D01*
X14154761Y44280000D01*
X14178571Y44256191D01*
X14345238Y44303810D02*
X14654761Y44303810D01*
X14488095Y44113334D01*
X14559523Y44113334D01*
X14607142Y44089524D01*
X14630952Y44065715D01*
X14654761Y44018096D01*
X14654761Y43899048D01*
X14630952Y43851429D01*
X14607142Y43827620D01*
X14559523Y43803810D01*
X14416666Y43803810D01*
X14369047Y43827620D01*
X14345238Y43851429D01*
X15107142Y44303810D02*
X14869047Y44303810D01*
X14845238Y44065715D01*
X14869047Y44089524D01*
X14916666Y44113334D01*
X15035714Y44113334D01*
X15083333Y44089524D01*
X15107142Y44065715D01*
X15130952Y44018096D01*
X15130952Y43899048D01*
X15107142Y43851429D01*
X15083333Y43827620D01*
X15035714Y43803810D01*
X14916666Y43803810D01*
X14869047Y43827620D01*
X14845238Y43851429D01*
G04 #@! TO.C,C36*
X39908571Y30981429D02*
X39884761Y30957620D01*
X39813333Y30933810D01*
X39765714Y30933810D01*
X39694285Y30957620D01*
X39646666Y31005239D01*
X39622857Y31052858D01*
X39599047Y31148096D01*
X39599047Y31219524D01*
X39622857Y31314762D01*
X39646666Y31362381D01*
X39694285Y31410000D01*
X39765714Y31433810D01*
X39813333Y31433810D01*
X39884761Y31410000D01*
X39908571Y31386191D01*
X40075238Y31433810D02*
X40384761Y31433810D01*
X40218095Y31243334D01*
X40289523Y31243334D01*
X40337142Y31219524D01*
X40360952Y31195715D01*
X40384761Y31148096D01*
X40384761Y31029048D01*
X40360952Y30981429D01*
X40337142Y30957620D01*
X40289523Y30933810D01*
X40146666Y30933810D01*
X40099047Y30957620D01*
X40075238Y30981429D01*
X40813333Y31433810D02*
X40718095Y31433810D01*
X40670476Y31410000D01*
X40646666Y31386191D01*
X40599047Y31314762D01*
X40575238Y31219524D01*
X40575238Y31029048D01*
X40599047Y30981429D01*
X40622857Y30957620D01*
X40670476Y30933810D01*
X40765714Y30933810D01*
X40813333Y30957620D01*
X40837142Y30981429D01*
X40860952Y31029048D01*
X40860952Y31148096D01*
X40837142Y31195715D01*
X40813333Y31219524D01*
X40765714Y31243334D01*
X40670476Y31243334D01*
X40622857Y31219524D01*
X40599047Y31195715D01*
X40575238Y31148096D01*
G04 #@! TO.C,C37*
X21228571Y32958572D02*
X21252380Y32934762D01*
X21276190Y32863334D01*
X21276190Y32815715D01*
X21252380Y32744286D01*
X21204761Y32696667D01*
X21157142Y32672858D01*
X21061904Y32649048D01*
X20990476Y32649048D01*
X20895238Y32672858D01*
X20847619Y32696667D01*
X20800000Y32744286D01*
X20776190Y32815715D01*
X20776190Y32863334D01*
X20800000Y32934762D01*
X20823809Y32958572D01*
X20776190Y33125239D02*
X20776190Y33434762D01*
X20966666Y33268096D01*
X20966666Y33339524D01*
X20990476Y33387143D01*
X21014285Y33410953D01*
X21061904Y33434762D01*
X21180952Y33434762D01*
X21228571Y33410953D01*
X21252380Y33387143D01*
X21276190Y33339524D01*
X21276190Y33196667D01*
X21252380Y33149048D01*
X21228571Y33125239D01*
X20776190Y33601429D02*
X20776190Y33934762D01*
X21276190Y33720477D01*
G04 #@! TO.C,C39*
X48178571Y15001429D02*
X48154761Y14977620D01*
X48083333Y14953810D01*
X48035714Y14953810D01*
X47964285Y14977620D01*
X47916666Y15025239D01*
X47892857Y15072858D01*
X47869047Y15168096D01*
X47869047Y15239524D01*
X47892857Y15334762D01*
X47916666Y15382381D01*
X47964285Y15430000D01*
X48035714Y15453810D01*
X48083333Y15453810D01*
X48154761Y15430000D01*
X48178571Y15406191D01*
X48345238Y15453810D02*
X48654761Y15453810D01*
X48488095Y15263334D01*
X48559523Y15263334D01*
X48607142Y15239524D01*
X48630952Y15215715D01*
X48654761Y15168096D01*
X48654761Y15049048D01*
X48630952Y15001429D01*
X48607142Y14977620D01*
X48559523Y14953810D01*
X48416666Y14953810D01*
X48369047Y14977620D01*
X48345238Y15001429D01*
X48892857Y14953810D02*
X48988095Y14953810D01*
X49035714Y14977620D01*
X49059523Y15001429D01*
X49107142Y15072858D01*
X49130952Y15168096D01*
X49130952Y15358572D01*
X49107142Y15406191D01*
X49083333Y15430000D01*
X49035714Y15453810D01*
X48940476Y15453810D01*
X48892857Y15430000D01*
X48869047Y15406191D01*
X48845238Y15358572D01*
X48845238Y15239524D01*
X48869047Y15191905D01*
X48892857Y15168096D01*
X48940476Y15144286D01*
X49035714Y15144286D01*
X49083333Y15168096D01*
X49107142Y15191905D01*
X49130952Y15239524D01*
G04 #@! TO.C,C40*
X39428571Y21601429D02*
X39404761Y21577620D01*
X39333333Y21553810D01*
X39285714Y21553810D01*
X39214285Y21577620D01*
X39166666Y21625239D01*
X39142857Y21672858D01*
X39119047Y21768096D01*
X39119047Y21839524D01*
X39142857Y21934762D01*
X39166666Y21982381D01*
X39214285Y22030000D01*
X39285714Y22053810D01*
X39333333Y22053810D01*
X39404761Y22030000D01*
X39428571Y22006191D01*
X39857142Y21887143D02*
X39857142Y21553810D01*
X39738095Y22077620D02*
X39619047Y21720477D01*
X39928571Y21720477D01*
X40214285Y22053810D02*
X40261904Y22053810D01*
X40309523Y22030000D01*
X40333333Y22006191D01*
X40357142Y21958572D01*
X40380952Y21863334D01*
X40380952Y21744286D01*
X40357142Y21649048D01*
X40333333Y21601429D01*
X40309523Y21577620D01*
X40261904Y21553810D01*
X40214285Y21553810D01*
X40166666Y21577620D01*
X40142857Y21601429D01*
X40119047Y21649048D01*
X40095238Y21744286D01*
X40095238Y21863334D01*
X40119047Y21958572D01*
X40142857Y22006191D01*
X40166666Y22030000D01*
X40214285Y22053810D01*
G04 #@! TO.C,C41*
X44628571Y22951429D02*
X44604761Y22927620D01*
X44533333Y22903810D01*
X44485714Y22903810D01*
X44414285Y22927620D01*
X44366666Y22975239D01*
X44342857Y23022858D01*
X44319047Y23118096D01*
X44319047Y23189524D01*
X44342857Y23284762D01*
X44366666Y23332381D01*
X44414285Y23380000D01*
X44485714Y23403810D01*
X44533333Y23403810D01*
X44604761Y23380000D01*
X44628571Y23356191D01*
X45057142Y23237143D02*
X45057142Y22903810D01*
X44938095Y23427620D02*
X44819047Y23070477D01*
X45128571Y23070477D01*
X45580952Y22903810D02*
X45295238Y22903810D01*
X45438095Y22903810D02*
X45438095Y23403810D01*
X45390476Y23332381D01*
X45342857Y23284762D01*
X45295238Y23260953D01*
G04 #@! TO.C,C43*
X37078571Y9221429D02*
X37054761Y9197620D01*
X36983333Y9173810D01*
X36935714Y9173810D01*
X36864285Y9197620D01*
X36816666Y9245239D01*
X36792857Y9292858D01*
X36769047Y9388096D01*
X36769047Y9459524D01*
X36792857Y9554762D01*
X36816666Y9602381D01*
X36864285Y9650000D01*
X36935714Y9673810D01*
X36983333Y9673810D01*
X37054761Y9650000D01*
X37078571Y9626191D01*
X37507142Y9507143D02*
X37507142Y9173810D01*
X37388095Y9697620D02*
X37269047Y9340477D01*
X37578571Y9340477D01*
X37721428Y9673810D02*
X38030952Y9673810D01*
X37864285Y9483334D01*
X37935714Y9483334D01*
X37983333Y9459524D01*
X38007142Y9435715D01*
X38030952Y9388096D01*
X38030952Y9269048D01*
X38007142Y9221429D01*
X37983333Y9197620D01*
X37935714Y9173810D01*
X37792857Y9173810D01*
X37745238Y9197620D01*
X37721428Y9221429D01*
G04 #@! TO.C,C56*
X9478571Y38758572D02*
X9502380Y38734762D01*
X9526190Y38663334D01*
X9526190Y38615715D01*
X9502380Y38544286D01*
X9454761Y38496667D01*
X9407142Y38472858D01*
X9311904Y38449048D01*
X9240476Y38449048D01*
X9145238Y38472858D01*
X9097619Y38496667D01*
X9050000Y38544286D01*
X9026190Y38615715D01*
X9026190Y38663334D01*
X9050000Y38734762D01*
X9073809Y38758572D01*
X9026190Y39210953D02*
X9026190Y38972858D01*
X9264285Y38949048D01*
X9240476Y38972858D01*
X9216666Y39020477D01*
X9216666Y39139524D01*
X9240476Y39187143D01*
X9264285Y39210953D01*
X9311904Y39234762D01*
X9430952Y39234762D01*
X9478571Y39210953D01*
X9502380Y39187143D01*
X9526190Y39139524D01*
X9526190Y39020477D01*
X9502380Y38972858D01*
X9478571Y38949048D01*
X9026190Y39663334D02*
X9026190Y39568096D01*
X9050000Y39520477D01*
X9073809Y39496667D01*
X9145238Y39449048D01*
X9240476Y39425239D01*
X9430952Y39425239D01*
X9478571Y39449048D01*
X9502380Y39472858D01*
X9526190Y39520477D01*
X9526190Y39615715D01*
X9502380Y39663334D01*
X9478571Y39687143D01*
X9430952Y39710953D01*
X9311904Y39710953D01*
X9264285Y39687143D01*
X9240476Y39663334D01*
X9216666Y39615715D01*
X9216666Y39520477D01*
X9240476Y39472858D01*
X9264285Y39449048D01*
X9311904Y39425239D01*
G04 #@! TO.C,C59*
X5118571Y42391429D02*
X5094761Y42367620D01*
X5023333Y42343810D01*
X4975714Y42343810D01*
X4904285Y42367620D01*
X4856666Y42415239D01*
X4832857Y42462858D01*
X4809047Y42558096D01*
X4809047Y42629524D01*
X4832857Y42724762D01*
X4856666Y42772381D01*
X4904285Y42820000D01*
X4975714Y42843810D01*
X5023333Y42843810D01*
X5094761Y42820000D01*
X5118571Y42796191D01*
X5570952Y42843810D02*
X5332857Y42843810D01*
X5309047Y42605715D01*
X5332857Y42629524D01*
X5380476Y42653334D01*
X5499523Y42653334D01*
X5547142Y42629524D01*
X5570952Y42605715D01*
X5594761Y42558096D01*
X5594761Y42439048D01*
X5570952Y42391429D01*
X5547142Y42367620D01*
X5499523Y42343810D01*
X5380476Y42343810D01*
X5332857Y42367620D01*
X5309047Y42391429D01*
X5832857Y42343810D02*
X5928095Y42343810D01*
X5975714Y42367620D01*
X5999523Y42391429D01*
X6047142Y42462858D01*
X6070952Y42558096D01*
X6070952Y42748572D01*
X6047142Y42796191D01*
X6023333Y42820000D01*
X5975714Y42843810D01*
X5880476Y42843810D01*
X5832857Y42820000D01*
X5809047Y42796191D01*
X5785238Y42748572D01*
X5785238Y42629524D01*
X5809047Y42581905D01*
X5832857Y42558096D01*
X5880476Y42534286D01*
X5975714Y42534286D01*
X6023333Y42558096D01*
X6047142Y42581905D01*
X6070952Y42629524D01*
G04 #@! TO.C,C60*
X9478571Y41108572D02*
X9502380Y41084762D01*
X9526190Y41013334D01*
X9526190Y40965715D01*
X9502380Y40894286D01*
X9454761Y40846667D01*
X9407142Y40822858D01*
X9311904Y40799048D01*
X9240476Y40799048D01*
X9145238Y40822858D01*
X9097619Y40846667D01*
X9050000Y40894286D01*
X9026190Y40965715D01*
X9026190Y41013334D01*
X9050000Y41084762D01*
X9073809Y41108572D01*
X9026190Y41537143D02*
X9026190Y41441905D01*
X9050000Y41394286D01*
X9073809Y41370477D01*
X9145238Y41322858D01*
X9240476Y41299048D01*
X9430952Y41299048D01*
X9478571Y41322858D01*
X9502380Y41346667D01*
X9526190Y41394286D01*
X9526190Y41489524D01*
X9502380Y41537143D01*
X9478571Y41560953D01*
X9430952Y41584762D01*
X9311904Y41584762D01*
X9264285Y41560953D01*
X9240476Y41537143D01*
X9216666Y41489524D01*
X9216666Y41394286D01*
X9240476Y41346667D01*
X9264285Y41322858D01*
X9311904Y41299048D01*
X9026190Y41894286D02*
X9026190Y41941905D01*
X9050000Y41989524D01*
X9073809Y42013334D01*
X9121428Y42037143D01*
X9216666Y42060953D01*
X9335714Y42060953D01*
X9430952Y42037143D01*
X9478571Y42013334D01*
X9502380Y41989524D01*
X9526190Y41941905D01*
X9526190Y41894286D01*
X9502380Y41846667D01*
X9478571Y41822858D01*
X9430952Y41799048D01*
X9335714Y41775239D01*
X9216666Y41775239D01*
X9121428Y41799048D01*
X9073809Y41822858D01*
X9050000Y41846667D01*
X9026190Y41894286D01*
G04 #@! TO.C,C94*
X34588571Y6148572D02*
X34612380Y6124762D01*
X34636190Y6053334D01*
X34636190Y6005715D01*
X34612380Y5934286D01*
X34564761Y5886667D01*
X34517142Y5862858D01*
X34421904Y5839048D01*
X34350476Y5839048D01*
X34255238Y5862858D01*
X34207619Y5886667D01*
X34160000Y5934286D01*
X34136190Y6005715D01*
X34136190Y6053334D01*
X34160000Y6124762D01*
X34183809Y6148572D01*
X34636190Y6386667D02*
X34636190Y6481905D01*
X34612380Y6529524D01*
X34588571Y6553334D01*
X34517142Y6600953D01*
X34421904Y6624762D01*
X34231428Y6624762D01*
X34183809Y6600953D01*
X34160000Y6577143D01*
X34136190Y6529524D01*
X34136190Y6434286D01*
X34160000Y6386667D01*
X34183809Y6362858D01*
X34231428Y6339048D01*
X34350476Y6339048D01*
X34398095Y6362858D01*
X34421904Y6386667D01*
X34445714Y6434286D01*
X34445714Y6529524D01*
X34421904Y6577143D01*
X34398095Y6600953D01*
X34350476Y6624762D01*
X34302857Y7053334D02*
X34636190Y7053334D01*
X34112380Y6934286D02*
X34469523Y6815239D01*
X34469523Y7124762D01*
G04 #@! TO.C,R3*
X17991666Y9153810D02*
X17825000Y9391905D01*
X17705952Y9153810D02*
X17705952Y9653810D01*
X17896428Y9653810D01*
X17944047Y9630000D01*
X17967857Y9606191D01*
X17991666Y9558572D01*
X17991666Y9487143D01*
X17967857Y9439524D01*
X17944047Y9415715D01*
X17896428Y9391905D01*
X17705952Y9391905D01*
X18158333Y9653810D02*
X18467857Y9653810D01*
X18301190Y9463334D01*
X18372619Y9463334D01*
X18420238Y9439524D01*
X18444047Y9415715D01*
X18467857Y9368096D01*
X18467857Y9249048D01*
X18444047Y9201429D01*
X18420238Y9177620D01*
X18372619Y9153810D01*
X18229761Y9153810D01*
X18182142Y9177620D01*
X18158333Y9201429D01*
G04 #@! TO.C,R12*
X40378571Y20303810D02*
X40211904Y20541905D01*
X40092857Y20303810D02*
X40092857Y20803810D01*
X40283333Y20803810D01*
X40330952Y20780000D01*
X40354761Y20756191D01*
X40378571Y20708572D01*
X40378571Y20637143D01*
X40354761Y20589524D01*
X40330952Y20565715D01*
X40283333Y20541905D01*
X40092857Y20541905D01*
X40854761Y20303810D02*
X40569047Y20303810D01*
X40711904Y20303810D02*
X40711904Y20803810D01*
X40664285Y20732381D01*
X40616666Y20684762D01*
X40569047Y20660953D01*
X41045238Y20756191D02*
X41069047Y20780000D01*
X41116666Y20803810D01*
X41235714Y20803810D01*
X41283333Y20780000D01*
X41307142Y20756191D01*
X41330952Y20708572D01*
X41330952Y20660953D01*
X41307142Y20589524D01*
X41021428Y20303810D01*
X41330952Y20303810D01*
G04 #@! TO.C,R13*
X41126190Y14708572D02*
X40888095Y14541905D01*
X41126190Y14422858D02*
X40626190Y14422858D01*
X40626190Y14613334D01*
X40650000Y14660953D01*
X40673809Y14684762D01*
X40721428Y14708572D01*
X40792857Y14708572D01*
X40840476Y14684762D01*
X40864285Y14660953D01*
X40888095Y14613334D01*
X40888095Y14422858D01*
X41126190Y15184762D02*
X41126190Y14899048D01*
X41126190Y15041905D02*
X40626190Y15041905D01*
X40697619Y14994286D01*
X40745238Y14946667D01*
X40769047Y14899048D01*
X40626190Y15351429D02*
X40626190Y15660953D01*
X40816666Y15494286D01*
X40816666Y15565715D01*
X40840476Y15613334D01*
X40864285Y15637143D01*
X40911904Y15660953D01*
X41030952Y15660953D01*
X41078571Y15637143D01*
X41102380Y15613334D01*
X41126190Y15565715D01*
X41126190Y15422858D01*
X41102380Y15375239D01*
X41078571Y15351429D01*
G04 #@! TO.C,R23*
X45476190Y21308572D02*
X45238095Y21141905D01*
X45476190Y21022858D02*
X44976190Y21022858D01*
X44976190Y21213334D01*
X45000000Y21260953D01*
X45023809Y21284762D01*
X45071428Y21308572D01*
X45142857Y21308572D01*
X45190476Y21284762D01*
X45214285Y21260953D01*
X45238095Y21213334D01*
X45238095Y21022858D01*
X45023809Y21499048D02*
X45000000Y21522858D01*
X44976190Y21570477D01*
X44976190Y21689524D01*
X45000000Y21737143D01*
X45023809Y21760953D01*
X45071428Y21784762D01*
X45119047Y21784762D01*
X45190476Y21760953D01*
X45476190Y21475239D01*
X45476190Y21784762D01*
X44976190Y21951429D02*
X44976190Y22260953D01*
X45166666Y22094286D01*
X45166666Y22165715D01*
X45190476Y22213334D01*
X45214285Y22237143D01*
X45261904Y22260953D01*
X45380952Y22260953D01*
X45428571Y22237143D01*
X45452380Y22213334D01*
X45476190Y22165715D01*
X45476190Y22022858D01*
X45452380Y21975239D01*
X45428571Y21951429D01*
G04 #@! TO.C,R24*
X43781190Y24498572D02*
X43543095Y24331905D01*
X43781190Y24212858D02*
X43281190Y24212858D01*
X43281190Y24403334D01*
X43305000Y24450953D01*
X43328809Y24474762D01*
X43376428Y24498572D01*
X43447857Y24498572D01*
X43495476Y24474762D01*
X43519285Y24450953D01*
X43543095Y24403334D01*
X43543095Y24212858D01*
X43328809Y24689048D02*
X43305000Y24712858D01*
X43281190Y24760477D01*
X43281190Y24879524D01*
X43305000Y24927143D01*
X43328809Y24950953D01*
X43376428Y24974762D01*
X43424047Y24974762D01*
X43495476Y24950953D01*
X43781190Y24665239D01*
X43781190Y24974762D01*
X43447857Y25403334D02*
X43781190Y25403334D01*
X43257380Y25284286D02*
X43614523Y25165239D01*
X43614523Y25474762D01*
G04 #@! TO.C,R27*
X47078571Y15828810D02*
X46911904Y16066905D01*
X46792857Y15828810D02*
X46792857Y16328810D01*
X46983333Y16328810D01*
X47030952Y16305000D01*
X47054761Y16281191D01*
X47078571Y16233572D01*
X47078571Y16162143D01*
X47054761Y16114524D01*
X47030952Y16090715D01*
X46983333Y16066905D01*
X46792857Y16066905D01*
X47269047Y16281191D02*
X47292857Y16305000D01*
X47340476Y16328810D01*
X47459523Y16328810D01*
X47507142Y16305000D01*
X47530952Y16281191D01*
X47554761Y16233572D01*
X47554761Y16185953D01*
X47530952Y16114524D01*
X47245238Y15828810D01*
X47554761Y15828810D01*
X47721428Y16328810D02*
X48054761Y16328810D01*
X47840476Y15828810D01*
G04 #@! TO.C,R28*
X48601190Y17158572D02*
X48363095Y16991905D01*
X48601190Y16872858D02*
X48101190Y16872858D01*
X48101190Y17063334D01*
X48125000Y17110953D01*
X48148809Y17134762D01*
X48196428Y17158572D01*
X48267857Y17158572D01*
X48315476Y17134762D01*
X48339285Y17110953D01*
X48363095Y17063334D01*
X48363095Y16872858D01*
X48148809Y17349048D02*
X48125000Y17372858D01*
X48101190Y17420477D01*
X48101190Y17539524D01*
X48125000Y17587143D01*
X48148809Y17610953D01*
X48196428Y17634762D01*
X48244047Y17634762D01*
X48315476Y17610953D01*
X48601190Y17325239D01*
X48601190Y17634762D01*
X48315476Y17920477D02*
X48291666Y17872858D01*
X48267857Y17849048D01*
X48220238Y17825239D01*
X48196428Y17825239D01*
X48148809Y17849048D01*
X48125000Y17872858D01*
X48101190Y17920477D01*
X48101190Y18015715D01*
X48125000Y18063334D01*
X48148809Y18087143D01*
X48196428Y18110953D01*
X48220238Y18110953D01*
X48267857Y18087143D01*
X48291666Y18063334D01*
X48315476Y18015715D01*
X48315476Y17920477D01*
X48339285Y17872858D01*
X48363095Y17849048D01*
X48410714Y17825239D01*
X48505952Y17825239D01*
X48553571Y17849048D01*
X48577380Y17872858D01*
X48601190Y17920477D01*
X48601190Y18015715D01*
X48577380Y18063334D01*
X48553571Y18087143D01*
X48505952Y18110953D01*
X48410714Y18110953D01*
X48363095Y18087143D01*
X48339285Y18063334D01*
X48315476Y18015715D01*
G04 #@! TO.C,R31*
X38096190Y6638572D02*
X37858095Y6471905D01*
X38096190Y6352858D02*
X37596190Y6352858D01*
X37596190Y6543334D01*
X37620000Y6590953D01*
X37643809Y6614762D01*
X37691428Y6638572D01*
X37762857Y6638572D01*
X37810476Y6614762D01*
X37834285Y6590953D01*
X37858095Y6543334D01*
X37858095Y6352858D01*
X37596190Y6805239D02*
X37596190Y7114762D01*
X37786666Y6948096D01*
X37786666Y7019524D01*
X37810476Y7067143D01*
X37834285Y7090953D01*
X37881904Y7114762D01*
X38000952Y7114762D01*
X38048571Y7090953D01*
X38072380Y7067143D01*
X38096190Y7019524D01*
X38096190Y6876667D01*
X38072380Y6829048D01*
X38048571Y6805239D01*
X38096190Y7590953D02*
X38096190Y7305239D01*
X38096190Y7448096D02*
X37596190Y7448096D01*
X37667619Y7400477D01*
X37715238Y7352858D01*
X37739047Y7305239D01*
G04 #@! TO.C,R37*
X39876190Y47358572D02*
X39638095Y47191905D01*
X39876190Y47072858D02*
X39376190Y47072858D01*
X39376190Y47263334D01*
X39400000Y47310953D01*
X39423809Y47334762D01*
X39471428Y47358572D01*
X39542857Y47358572D01*
X39590476Y47334762D01*
X39614285Y47310953D01*
X39638095Y47263334D01*
X39638095Y47072858D01*
X39376190Y47525239D02*
X39376190Y47834762D01*
X39566666Y47668096D01*
X39566666Y47739524D01*
X39590476Y47787143D01*
X39614285Y47810953D01*
X39661904Y47834762D01*
X39780952Y47834762D01*
X39828571Y47810953D01*
X39852380Y47787143D01*
X39876190Y47739524D01*
X39876190Y47596667D01*
X39852380Y47549048D01*
X39828571Y47525239D01*
X39376190Y48001429D02*
X39376190Y48334762D01*
X39876190Y48120477D01*
G04 #@! TO.C,Q1*
X27402380Y-2598809D02*
X27354761Y-2575000D01*
X27307142Y-2527380D01*
X27235714Y-2455952D01*
X27188095Y-2432142D01*
X27140476Y-2432142D01*
X27164285Y-2551190D02*
X27116666Y-2527380D01*
X27069047Y-2479761D01*
X27045238Y-2384523D01*
X27045238Y-2217857D01*
X27069047Y-2122619D01*
X27116666Y-2075000D01*
X27164285Y-2051190D01*
X27259523Y-2051190D01*
X27307142Y-2075000D01*
X27354761Y-2122619D01*
X27378571Y-2217857D01*
X27378571Y-2384523D01*
X27354761Y-2479761D01*
X27307142Y-2527380D01*
X27259523Y-2551190D01*
X27164285Y-2551190D01*
X27854761Y-2551190D02*
X27569047Y-2551190D01*
X27711904Y-2551190D02*
X27711904Y-2051190D01*
X27664285Y-2122619D01*
X27616666Y-2170238D01*
X27569047Y-2194047D01*
G04 #@! TO.C,R4*
X24406190Y-6673333D02*
X24168095Y-6840000D01*
X24406190Y-6959047D02*
X23906190Y-6959047D01*
X23906190Y-6768571D01*
X23930000Y-6720952D01*
X23953809Y-6697142D01*
X24001428Y-6673333D01*
X24072857Y-6673333D01*
X24120476Y-6697142D01*
X24144285Y-6720952D01*
X24168095Y-6768571D01*
X24168095Y-6959047D01*
X24072857Y-6244761D02*
X24406190Y-6244761D01*
X23882380Y-6363809D02*
X24239523Y-6482857D01*
X24239523Y-6173333D01*
G04 #@! TO.C,R5*
X19516666Y41103810D02*
X19350000Y41341905D01*
X19230952Y41103810D02*
X19230952Y41603810D01*
X19421428Y41603810D01*
X19469047Y41580000D01*
X19492857Y41556191D01*
X19516666Y41508572D01*
X19516666Y41437143D01*
X19492857Y41389524D01*
X19469047Y41365715D01*
X19421428Y41341905D01*
X19230952Y41341905D01*
X19969047Y41603810D02*
X19730952Y41603810D01*
X19707142Y41365715D01*
X19730952Y41389524D01*
X19778571Y41413334D01*
X19897619Y41413334D01*
X19945238Y41389524D01*
X19969047Y41365715D01*
X19992857Y41318096D01*
X19992857Y41199048D01*
X19969047Y41151429D01*
X19945238Y41127620D01*
X19897619Y41103810D01*
X19778571Y41103810D01*
X19730952Y41127620D01*
X19707142Y41151429D01*
G04 #@! TO.C,R6*
X41826190Y13946667D02*
X41588095Y13780000D01*
X41826190Y13660953D02*
X41326190Y13660953D01*
X41326190Y13851429D01*
X41350000Y13899048D01*
X41373809Y13922858D01*
X41421428Y13946667D01*
X41492857Y13946667D01*
X41540476Y13922858D01*
X41564285Y13899048D01*
X41588095Y13851429D01*
X41588095Y13660953D01*
X41326190Y14375239D02*
X41326190Y14280000D01*
X41350000Y14232381D01*
X41373809Y14208572D01*
X41445238Y14160953D01*
X41540476Y14137143D01*
X41730952Y14137143D01*
X41778571Y14160953D01*
X41802380Y14184762D01*
X41826190Y14232381D01*
X41826190Y14327620D01*
X41802380Y14375239D01*
X41778571Y14399048D01*
X41730952Y14422858D01*
X41611904Y14422858D01*
X41564285Y14399048D01*
X41540476Y14375239D01*
X41516666Y14327620D01*
X41516666Y14232381D01*
X41540476Y14184762D01*
X41564285Y14160953D01*
X41611904Y14137143D01*
G04 #@! TO.C,R7*
X43666666Y20953810D02*
X43500000Y21191905D01*
X43380952Y20953810D02*
X43380952Y21453810D01*
X43571428Y21453810D01*
X43619047Y21430000D01*
X43642857Y21406191D01*
X43666666Y21358572D01*
X43666666Y21287143D01*
X43642857Y21239524D01*
X43619047Y21215715D01*
X43571428Y21191905D01*
X43380952Y21191905D01*
X43833333Y21453810D02*
X44166666Y21453810D01*
X43952380Y20953810D01*
G04 #@! TO.C,D1*
X21125952Y-6151190D02*
X21125952Y-5651190D01*
X21245000Y-5651190D01*
X21316428Y-5675000D01*
X21364047Y-5722619D01*
X21387857Y-5770238D01*
X21411666Y-5865476D01*
X21411666Y-5936904D01*
X21387857Y-6032142D01*
X21364047Y-6079761D01*
X21316428Y-6127380D01*
X21245000Y-6151190D01*
X21125952Y-6151190D01*
X21887857Y-6151190D02*
X21602142Y-6151190D01*
X21745000Y-6151190D02*
X21745000Y-5651190D01*
X21697380Y-5722619D01*
X21649761Y-5770238D01*
X21602142Y-5794047D01*
G04 #@! TO.C,C58*
X20478571Y44351429D02*
X20454761Y44327620D01*
X20383333Y44303810D01*
X20335714Y44303810D01*
X20264285Y44327620D01*
X20216666Y44375239D01*
X20192857Y44422858D01*
X20169047Y44518096D01*
X20169047Y44589524D01*
X20192857Y44684762D01*
X20216666Y44732381D01*
X20264285Y44780000D01*
X20335714Y44803810D01*
X20383333Y44803810D01*
X20454761Y44780000D01*
X20478571Y44756191D01*
X20930952Y44803810D02*
X20692857Y44803810D01*
X20669047Y44565715D01*
X20692857Y44589524D01*
X20740476Y44613334D01*
X20859523Y44613334D01*
X20907142Y44589524D01*
X20930952Y44565715D01*
X20954761Y44518096D01*
X20954761Y44399048D01*
X20930952Y44351429D01*
X20907142Y44327620D01*
X20859523Y44303810D01*
X20740476Y44303810D01*
X20692857Y44327620D01*
X20669047Y44351429D01*
X21240476Y44589524D02*
X21192857Y44613334D01*
X21169047Y44637143D01*
X21145238Y44684762D01*
X21145238Y44708572D01*
X21169047Y44756191D01*
X21192857Y44780000D01*
X21240476Y44803810D01*
X21335714Y44803810D01*
X21383333Y44780000D01*
X21407142Y44756191D01*
X21430952Y44708572D01*
X21430952Y44684762D01*
X21407142Y44637143D01*
X21383333Y44613334D01*
X21335714Y44589524D01*
X21240476Y44589524D01*
X21192857Y44565715D01*
X21169047Y44541905D01*
X21145238Y44494286D01*
X21145238Y44399048D01*
X21169047Y44351429D01*
X21192857Y44327620D01*
X21240476Y44303810D01*
X21335714Y44303810D01*
X21383333Y44327620D01*
X21407142Y44351429D01*
X21430952Y44399048D01*
X21430952Y44494286D01*
X21407142Y44541905D01*
X21383333Y44565715D01*
X21335714Y44589524D01*
G04 #@! TO.C,U12*
X16325952Y-2491190D02*
X16325952Y-2895952D01*
X16349761Y-2943571D01*
X16373571Y-2967380D01*
X16421190Y-2991190D01*
X16516428Y-2991190D01*
X16564047Y-2967380D01*
X16587857Y-2943571D01*
X16611666Y-2895952D01*
X16611666Y-2491190D01*
X17111666Y-2991190D02*
X16825952Y-2991190D01*
X16968809Y-2991190D02*
X16968809Y-2491190D01*
X16921190Y-2562619D01*
X16873571Y-2610238D01*
X16825952Y-2634047D01*
X17302142Y-2538809D02*
X17325952Y-2515000D01*
X17373571Y-2491190D01*
X17492619Y-2491190D01*
X17540238Y-2515000D01*
X17564047Y-2538809D01*
X17587857Y-2586428D01*
X17587857Y-2634047D01*
X17564047Y-2705476D01*
X17278333Y-2991190D01*
X17587857Y-2991190D01*
G04 #@! TO.C,C61*
X20328571Y45551429D02*
X20304761Y45527620D01*
X20233333Y45503810D01*
X20185714Y45503810D01*
X20114285Y45527620D01*
X20066666Y45575239D01*
X20042857Y45622858D01*
X20019047Y45718096D01*
X20019047Y45789524D01*
X20042857Y45884762D01*
X20066666Y45932381D01*
X20114285Y45980000D01*
X20185714Y46003810D01*
X20233333Y46003810D01*
X20304761Y45980000D01*
X20328571Y45956191D01*
X20757142Y46003810D02*
X20661904Y46003810D01*
X20614285Y45980000D01*
X20590476Y45956191D01*
X20542857Y45884762D01*
X20519047Y45789524D01*
X20519047Y45599048D01*
X20542857Y45551429D01*
X20566666Y45527620D01*
X20614285Y45503810D01*
X20709523Y45503810D01*
X20757142Y45527620D01*
X20780952Y45551429D01*
X20804761Y45599048D01*
X20804761Y45718096D01*
X20780952Y45765715D01*
X20757142Y45789524D01*
X20709523Y45813334D01*
X20614285Y45813334D01*
X20566666Y45789524D01*
X20542857Y45765715D01*
X20519047Y45718096D01*
X21280952Y45503810D02*
X20995238Y45503810D01*
X21138095Y45503810D02*
X21138095Y46003810D01*
X21090476Y45932381D01*
X21042857Y45884762D01*
X20995238Y45860953D01*
G04 #@! TO.C,C67*
X8318571Y51991429D02*
X8294761Y51967620D01*
X8223333Y51943810D01*
X8175714Y51943810D01*
X8104285Y51967620D01*
X8056666Y52015239D01*
X8032857Y52062858D01*
X8009047Y52158096D01*
X8009047Y52229524D01*
X8032857Y52324762D01*
X8056666Y52372381D01*
X8104285Y52420000D01*
X8175714Y52443810D01*
X8223333Y52443810D01*
X8294761Y52420000D01*
X8318571Y52396191D01*
X8747142Y52443810D02*
X8651904Y52443810D01*
X8604285Y52420000D01*
X8580476Y52396191D01*
X8532857Y52324762D01*
X8509047Y52229524D01*
X8509047Y52039048D01*
X8532857Y51991429D01*
X8556666Y51967620D01*
X8604285Y51943810D01*
X8699523Y51943810D01*
X8747142Y51967620D01*
X8770952Y51991429D01*
X8794761Y52039048D01*
X8794761Y52158096D01*
X8770952Y52205715D01*
X8747142Y52229524D01*
X8699523Y52253334D01*
X8604285Y52253334D01*
X8556666Y52229524D01*
X8532857Y52205715D01*
X8509047Y52158096D01*
X8961428Y52443810D02*
X9294761Y52443810D01*
X9080476Y51943810D01*
G04 #@! TO.C,C73*
X7278571Y12658572D02*
X7302380Y12634762D01*
X7326190Y12563334D01*
X7326190Y12515715D01*
X7302380Y12444286D01*
X7254761Y12396667D01*
X7207142Y12372858D01*
X7111904Y12349048D01*
X7040476Y12349048D01*
X6945238Y12372858D01*
X6897619Y12396667D01*
X6850000Y12444286D01*
X6826190Y12515715D01*
X6826190Y12563334D01*
X6850000Y12634762D01*
X6873809Y12658572D01*
X6826190Y12825239D02*
X6826190Y13158572D01*
X7326190Y12944286D01*
X6826190Y13301429D02*
X6826190Y13610953D01*
X7016666Y13444286D01*
X7016666Y13515715D01*
X7040476Y13563334D01*
X7064285Y13587143D01*
X7111904Y13610953D01*
X7230952Y13610953D01*
X7278571Y13587143D01*
X7302380Y13563334D01*
X7326190Y13515715D01*
X7326190Y13372858D01*
X7302380Y13325239D01*
X7278571Y13301429D01*
G04 #@! TO.C,L18*
X7126190Y35908572D02*
X7126190Y35670477D01*
X6626190Y35670477D01*
X7126190Y36337143D02*
X7126190Y36051429D01*
X7126190Y36194286D02*
X6626190Y36194286D01*
X6697619Y36146667D01*
X6745238Y36099048D01*
X6769047Y36051429D01*
X6840476Y36622858D02*
X6816666Y36575239D01*
X6792857Y36551429D01*
X6745238Y36527620D01*
X6721428Y36527620D01*
X6673809Y36551429D01*
X6650000Y36575239D01*
X6626190Y36622858D01*
X6626190Y36718096D01*
X6650000Y36765715D01*
X6673809Y36789524D01*
X6721428Y36813334D01*
X6745238Y36813334D01*
X6792857Y36789524D01*
X6816666Y36765715D01*
X6840476Y36718096D01*
X6840476Y36622858D01*
X6864285Y36575239D01*
X6888095Y36551429D01*
X6935714Y36527620D01*
X7030952Y36527620D01*
X7078571Y36551429D01*
X7102380Y36575239D01*
X7126190Y36622858D01*
X7126190Y36718096D01*
X7102380Y36765715D01*
X7078571Y36789524D01*
X7030952Y36813334D01*
X6935714Y36813334D01*
X6888095Y36789524D01*
X6864285Y36765715D01*
X6840476Y36718096D01*
G04 #@! TO.C,L19*
X10526190Y36958572D02*
X10526190Y36720477D01*
X10026190Y36720477D01*
X10526190Y37387143D02*
X10526190Y37101429D01*
X10526190Y37244286D02*
X10026190Y37244286D01*
X10097619Y37196667D01*
X10145238Y37149048D01*
X10169047Y37101429D01*
X10526190Y37625239D02*
X10526190Y37720477D01*
X10502380Y37768096D01*
X10478571Y37791905D01*
X10407142Y37839524D01*
X10311904Y37863334D01*
X10121428Y37863334D01*
X10073809Y37839524D01*
X10050000Y37815715D01*
X10026190Y37768096D01*
X10026190Y37672858D01*
X10050000Y37625239D01*
X10073809Y37601429D01*
X10121428Y37577620D01*
X10240476Y37577620D01*
X10288095Y37601429D01*
X10311904Y37625239D01*
X10335714Y37672858D01*
X10335714Y37768096D01*
X10311904Y37815715D01*
X10288095Y37839524D01*
X10240476Y37863334D01*
G04 #@! TO.C,L21*
X7126190Y40008572D02*
X7126190Y39770477D01*
X6626190Y39770477D01*
X6673809Y40151429D02*
X6650000Y40175239D01*
X6626190Y40222858D01*
X6626190Y40341905D01*
X6650000Y40389524D01*
X6673809Y40413334D01*
X6721428Y40437143D01*
X6769047Y40437143D01*
X6840476Y40413334D01*
X7126190Y40127620D01*
X7126190Y40437143D01*
X7126190Y40913334D02*
X7126190Y40627620D01*
X7126190Y40770477D02*
X6626190Y40770477D01*
X6697619Y40722858D01*
X6745238Y40675239D01*
X6769047Y40627620D01*
G04 #@! TO.C,L24*
X7026190Y45158572D02*
X7026190Y44920477D01*
X6526190Y44920477D01*
X6573809Y45301429D02*
X6550000Y45325239D01*
X6526190Y45372858D01*
X6526190Y45491905D01*
X6550000Y45539524D01*
X6573809Y45563334D01*
X6621428Y45587143D01*
X6669047Y45587143D01*
X6740476Y45563334D01*
X7026190Y45277620D01*
X7026190Y45587143D01*
X6692857Y46015715D02*
X7026190Y46015715D01*
X6502380Y45896667D02*
X6859523Y45777620D01*
X6859523Y46087143D01*
G04 #@! TO.C,L27*
X7076190Y47958572D02*
X7076190Y47720477D01*
X6576190Y47720477D01*
X6623809Y48101429D02*
X6600000Y48125239D01*
X6576190Y48172858D01*
X6576190Y48291905D01*
X6600000Y48339524D01*
X6623809Y48363334D01*
X6671428Y48387143D01*
X6719047Y48387143D01*
X6790476Y48363334D01*
X7076190Y48077620D01*
X7076190Y48387143D01*
X6576190Y48553810D02*
X6576190Y48887143D01*
X7076190Y48672858D01*
G04 #@! TO.C,L28*
X11426190Y45208572D02*
X11426190Y44970477D01*
X10926190Y44970477D01*
X10973809Y45351429D02*
X10950000Y45375239D01*
X10926190Y45422858D01*
X10926190Y45541905D01*
X10950000Y45589524D01*
X10973809Y45613334D01*
X11021428Y45637143D01*
X11069047Y45637143D01*
X11140476Y45613334D01*
X11426190Y45327620D01*
X11426190Y45637143D01*
X11140476Y45922858D02*
X11116666Y45875239D01*
X11092857Y45851429D01*
X11045238Y45827620D01*
X11021428Y45827620D01*
X10973809Y45851429D01*
X10950000Y45875239D01*
X10926190Y45922858D01*
X10926190Y46018096D01*
X10950000Y46065715D01*
X10973809Y46089524D01*
X11021428Y46113334D01*
X11045238Y46113334D01*
X11092857Y46089524D01*
X11116666Y46065715D01*
X11140476Y46018096D01*
X11140476Y45922858D01*
X11164285Y45875239D01*
X11188095Y45851429D01*
X11235714Y45827620D01*
X11330952Y45827620D01*
X11378571Y45851429D01*
X11402380Y45875239D01*
X11426190Y45922858D01*
X11426190Y46018096D01*
X11402380Y46065715D01*
X11378571Y46089524D01*
X11330952Y46113334D01*
X11235714Y46113334D01*
X11188095Y46089524D01*
X11164285Y46065715D01*
X11140476Y46018096D01*
G04 #@! TO.C,C30*
X20128571Y32993572D02*
X20152380Y32969762D01*
X20176190Y32898334D01*
X20176190Y32850715D01*
X20152380Y32779286D01*
X20104761Y32731667D01*
X20057142Y32707858D01*
X19961904Y32684048D01*
X19890476Y32684048D01*
X19795238Y32707858D01*
X19747619Y32731667D01*
X19700000Y32779286D01*
X19676190Y32850715D01*
X19676190Y32898334D01*
X19700000Y32969762D01*
X19723809Y32993572D01*
X19676190Y33160239D02*
X19676190Y33469762D01*
X19866666Y33303096D01*
X19866666Y33374524D01*
X19890476Y33422143D01*
X19914285Y33445953D01*
X19961904Y33469762D01*
X20080952Y33469762D01*
X20128571Y33445953D01*
X20152380Y33422143D01*
X20176190Y33374524D01*
X20176190Y33231667D01*
X20152380Y33184048D01*
X20128571Y33160239D01*
X19676190Y33779286D02*
X19676190Y33826905D01*
X19700000Y33874524D01*
X19723809Y33898334D01*
X19771428Y33922143D01*
X19866666Y33945953D01*
X19985714Y33945953D01*
X20080952Y33922143D01*
X20128571Y33898334D01*
X20152380Y33874524D01*
X20176190Y33826905D01*
X20176190Y33779286D01*
X20152380Y33731667D01*
X20128571Y33707858D01*
X20080952Y33684048D01*
X19985714Y33660239D01*
X19866666Y33660239D01*
X19771428Y33684048D01*
X19723809Y33707858D01*
X19700000Y33731667D01*
X19676190Y33779286D01*
G04 #@! TO.C,C46*
X20873571Y37428572D02*
X20897380Y37404762D01*
X20921190Y37333334D01*
X20921190Y37285715D01*
X20897380Y37214286D01*
X20849761Y37166667D01*
X20802142Y37142858D01*
X20706904Y37119048D01*
X20635476Y37119048D01*
X20540238Y37142858D01*
X20492619Y37166667D01*
X20445000Y37214286D01*
X20421190Y37285715D01*
X20421190Y37333334D01*
X20445000Y37404762D01*
X20468809Y37428572D01*
X20587857Y37857143D02*
X20921190Y37857143D01*
X20397380Y37738096D02*
X20754523Y37619048D01*
X20754523Y37928572D01*
X20421190Y38333334D02*
X20421190Y38238096D01*
X20445000Y38190477D01*
X20468809Y38166667D01*
X20540238Y38119048D01*
X20635476Y38095239D01*
X20825952Y38095239D01*
X20873571Y38119048D01*
X20897380Y38142858D01*
X20921190Y38190477D01*
X20921190Y38285715D01*
X20897380Y38333334D01*
X20873571Y38357143D01*
X20825952Y38380953D01*
X20706904Y38380953D01*
X20659285Y38357143D01*
X20635476Y38333334D01*
X20611666Y38285715D01*
X20611666Y38190477D01*
X20635476Y38142858D01*
X20659285Y38119048D01*
X20706904Y38095239D01*
G04 #@! TO.C,C51*
X22328571Y32958572D02*
X22352380Y32934762D01*
X22376190Y32863334D01*
X22376190Y32815715D01*
X22352380Y32744286D01*
X22304761Y32696667D01*
X22257142Y32672858D01*
X22161904Y32649048D01*
X22090476Y32649048D01*
X21995238Y32672858D01*
X21947619Y32696667D01*
X21900000Y32744286D01*
X21876190Y32815715D01*
X21876190Y32863334D01*
X21900000Y32934762D01*
X21923809Y32958572D01*
X21876190Y33410953D02*
X21876190Y33172858D01*
X22114285Y33149048D01*
X22090476Y33172858D01*
X22066666Y33220477D01*
X22066666Y33339524D01*
X22090476Y33387143D01*
X22114285Y33410953D01*
X22161904Y33434762D01*
X22280952Y33434762D01*
X22328571Y33410953D01*
X22352380Y33387143D01*
X22376190Y33339524D01*
X22376190Y33220477D01*
X22352380Y33172858D01*
X22328571Y33149048D01*
X22376190Y33910953D02*
X22376190Y33625239D01*
X22376190Y33768096D02*
X21876190Y33768096D01*
X21947619Y33720477D01*
X21995238Y33672858D01*
X22019047Y33625239D01*
G04 #@! TO.C,C53*
X5778571Y37101429D02*
X5754761Y37077620D01*
X5683333Y37053810D01*
X5635714Y37053810D01*
X5564285Y37077620D01*
X5516666Y37125239D01*
X5492857Y37172858D01*
X5469047Y37268096D01*
X5469047Y37339524D01*
X5492857Y37434762D01*
X5516666Y37482381D01*
X5564285Y37530000D01*
X5635714Y37553810D01*
X5683333Y37553810D01*
X5754761Y37530000D01*
X5778571Y37506191D01*
X6230952Y37553810D02*
X5992857Y37553810D01*
X5969047Y37315715D01*
X5992857Y37339524D01*
X6040476Y37363334D01*
X6159523Y37363334D01*
X6207142Y37339524D01*
X6230952Y37315715D01*
X6254761Y37268096D01*
X6254761Y37149048D01*
X6230952Y37101429D01*
X6207142Y37077620D01*
X6159523Y37053810D01*
X6040476Y37053810D01*
X5992857Y37077620D01*
X5969047Y37101429D01*
X6421428Y37553810D02*
X6730952Y37553810D01*
X6564285Y37363334D01*
X6635714Y37363334D01*
X6683333Y37339524D01*
X6707142Y37315715D01*
X6730952Y37268096D01*
X6730952Y37149048D01*
X6707142Y37101429D01*
X6683333Y37077620D01*
X6635714Y37053810D01*
X6492857Y37053810D01*
X6445238Y37077620D01*
X6421428Y37101429D01*
G04 #@! TO.C,C62*
X6128571Y45508572D02*
X6152380Y45484762D01*
X6176190Y45413334D01*
X6176190Y45365715D01*
X6152380Y45294286D01*
X6104761Y45246667D01*
X6057142Y45222858D01*
X5961904Y45199048D01*
X5890476Y45199048D01*
X5795238Y45222858D01*
X5747619Y45246667D01*
X5700000Y45294286D01*
X5676190Y45365715D01*
X5676190Y45413334D01*
X5700000Y45484762D01*
X5723809Y45508572D01*
X5676190Y45937143D02*
X5676190Y45841905D01*
X5700000Y45794286D01*
X5723809Y45770477D01*
X5795238Y45722858D01*
X5890476Y45699048D01*
X6080952Y45699048D01*
X6128571Y45722858D01*
X6152380Y45746667D01*
X6176190Y45794286D01*
X6176190Y45889524D01*
X6152380Y45937143D01*
X6128571Y45960953D01*
X6080952Y45984762D01*
X5961904Y45984762D01*
X5914285Y45960953D01*
X5890476Y45937143D01*
X5866666Y45889524D01*
X5866666Y45794286D01*
X5890476Y45746667D01*
X5914285Y45722858D01*
X5961904Y45699048D01*
X5723809Y46175239D02*
X5700000Y46199048D01*
X5676190Y46246667D01*
X5676190Y46365715D01*
X5700000Y46413334D01*
X5723809Y46437143D01*
X5771428Y46460953D01*
X5819047Y46460953D01*
X5890476Y46437143D01*
X6176190Y46151429D01*
X6176190Y46460953D01*
G04 #@! TO.C,C63*
X12128571Y44301429D02*
X12104761Y44277620D01*
X12033333Y44253810D01*
X11985714Y44253810D01*
X11914285Y44277620D01*
X11866666Y44325239D01*
X11842857Y44372858D01*
X11819047Y44468096D01*
X11819047Y44539524D01*
X11842857Y44634762D01*
X11866666Y44682381D01*
X11914285Y44730000D01*
X11985714Y44753810D01*
X12033333Y44753810D01*
X12104761Y44730000D01*
X12128571Y44706191D01*
X12557142Y44753810D02*
X12461904Y44753810D01*
X12414285Y44730000D01*
X12390476Y44706191D01*
X12342857Y44634762D01*
X12319047Y44539524D01*
X12319047Y44349048D01*
X12342857Y44301429D01*
X12366666Y44277620D01*
X12414285Y44253810D01*
X12509523Y44253810D01*
X12557142Y44277620D01*
X12580952Y44301429D01*
X12604761Y44349048D01*
X12604761Y44468096D01*
X12580952Y44515715D01*
X12557142Y44539524D01*
X12509523Y44563334D01*
X12414285Y44563334D01*
X12366666Y44539524D01*
X12342857Y44515715D01*
X12319047Y44468096D01*
X12771428Y44753810D02*
X13080952Y44753810D01*
X12914285Y44563334D01*
X12985714Y44563334D01*
X13033333Y44539524D01*
X13057142Y44515715D01*
X13080952Y44468096D01*
X13080952Y44349048D01*
X13057142Y44301429D01*
X13033333Y44277620D01*
X12985714Y44253810D01*
X12842857Y44253810D01*
X12795238Y44277620D01*
X12771428Y44301429D01*
G04 #@! TO.C,C66*
X18888571Y48326429D02*
X18864761Y48302620D01*
X18793333Y48278810D01*
X18745714Y48278810D01*
X18674285Y48302620D01*
X18626666Y48350239D01*
X18602857Y48397858D01*
X18579047Y48493096D01*
X18579047Y48564524D01*
X18602857Y48659762D01*
X18626666Y48707381D01*
X18674285Y48755000D01*
X18745714Y48778810D01*
X18793333Y48778810D01*
X18864761Y48755000D01*
X18888571Y48731191D01*
X19317142Y48778810D02*
X19221904Y48778810D01*
X19174285Y48755000D01*
X19150476Y48731191D01*
X19102857Y48659762D01*
X19079047Y48564524D01*
X19079047Y48374048D01*
X19102857Y48326429D01*
X19126666Y48302620D01*
X19174285Y48278810D01*
X19269523Y48278810D01*
X19317142Y48302620D01*
X19340952Y48326429D01*
X19364761Y48374048D01*
X19364761Y48493096D01*
X19340952Y48540715D01*
X19317142Y48564524D01*
X19269523Y48588334D01*
X19174285Y48588334D01*
X19126666Y48564524D01*
X19102857Y48540715D01*
X19079047Y48493096D01*
X19793333Y48778810D02*
X19698095Y48778810D01*
X19650476Y48755000D01*
X19626666Y48731191D01*
X19579047Y48659762D01*
X19555238Y48564524D01*
X19555238Y48374048D01*
X19579047Y48326429D01*
X19602857Y48302620D01*
X19650476Y48278810D01*
X19745714Y48278810D01*
X19793333Y48302620D01*
X19817142Y48326429D01*
X19840952Y48374048D01*
X19840952Y48493096D01*
X19817142Y48540715D01*
X19793333Y48564524D01*
X19745714Y48588334D01*
X19650476Y48588334D01*
X19602857Y48564524D01*
X19579047Y48540715D01*
X19555238Y48493096D01*
G04 #@! TO.C,C68*
X9328571Y48458572D02*
X9352380Y48434762D01*
X9376190Y48363334D01*
X9376190Y48315715D01*
X9352380Y48244286D01*
X9304761Y48196667D01*
X9257142Y48172858D01*
X9161904Y48149048D01*
X9090476Y48149048D01*
X8995238Y48172858D01*
X8947619Y48196667D01*
X8900000Y48244286D01*
X8876190Y48315715D01*
X8876190Y48363334D01*
X8900000Y48434762D01*
X8923809Y48458572D01*
X8876190Y48887143D02*
X8876190Y48791905D01*
X8900000Y48744286D01*
X8923809Y48720477D01*
X8995238Y48672858D01*
X9090476Y48649048D01*
X9280952Y48649048D01*
X9328571Y48672858D01*
X9352380Y48696667D01*
X9376190Y48744286D01*
X9376190Y48839524D01*
X9352380Y48887143D01*
X9328571Y48910953D01*
X9280952Y48934762D01*
X9161904Y48934762D01*
X9114285Y48910953D01*
X9090476Y48887143D01*
X9066666Y48839524D01*
X9066666Y48744286D01*
X9090476Y48696667D01*
X9114285Y48672858D01*
X9161904Y48649048D01*
X9090476Y49220477D02*
X9066666Y49172858D01*
X9042857Y49149048D01*
X8995238Y49125239D01*
X8971428Y49125239D01*
X8923809Y49149048D01*
X8900000Y49172858D01*
X8876190Y49220477D01*
X8876190Y49315715D01*
X8900000Y49363334D01*
X8923809Y49387143D01*
X8971428Y49410953D01*
X8995238Y49410953D01*
X9042857Y49387143D01*
X9066666Y49363334D01*
X9090476Y49315715D01*
X9090476Y49220477D01*
X9114285Y49172858D01*
X9138095Y49149048D01*
X9185714Y49125239D01*
X9280952Y49125239D01*
X9328571Y49149048D01*
X9352380Y49172858D01*
X9376190Y49220477D01*
X9376190Y49315715D01*
X9352380Y49363334D01*
X9328571Y49387143D01*
X9280952Y49410953D01*
X9185714Y49410953D01*
X9138095Y49387143D01*
X9114285Y49363334D01*
X9090476Y49315715D01*
G04 #@! TO.C,C70*
X17828571Y50701429D02*
X17804761Y50677620D01*
X17733333Y50653810D01*
X17685714Y50653810D01*
X17614285Y50677620D01*
X17566666Y50725239D01*
X17542857Y50772858D01*
X17519047Y50868096D01*
X17519047Y50939524D01*
X17542857Y51034762D01*
X17566666Y51082381D01*
X17614285Y51130000D01*
X17685714Y51153810D01*
X17733333Y51153810D01*
X17804761Y51130000D01*
X17828571Y51106191D01*
X17995238Y51153810D02*
X18328571Y51153810D01*
X18114285Y50653810D01*
X18614285Y51153810D02*
X18661904Y51153810D01*
X18709523Y51130000D01*
X18733333Y51106191D01*
X18757142Y51058572D01*
X18780952Y50963334D01*
X18780952Y50844286D01*
X18757142Y50749048D01*
X18733333Y50701429D01*
X18709523Y50677620D01*
X18661904Y50653810D01*
X18614285Y50653810D01*
X18566666Y50677620D01*
X18542857Y50701429D01*
X18519047Y50749048D01*
X18495238Y50844286D01*
X18495238Y50963334D01*
X18519047Y51058572D01*
X18542857Y51106191D01*
X18566666Y51130000D01*
X18614285Y51153810D01*
G04 #@! TO.C,C71*
X13378571Y10126429D02*
X13354761Y10102620D01*
X13283333Y10078810D01*
X13235714Y10078810D01*
X13164285Y10102620D01*
X13116666Y10150239D01*
X13092857Y10197858D01*
X13069047Y10293096D01*
X13069047Y10364524D01*
X13092857Y10459762D01*
X13116666Y10507381D01*
X13164285Y10555000D01*
X13235714Y10578810D01*
X13283333Y10578810D01*
X13354761Y10555000D01*
X13378571Y10531191D01*
X13545238Y10578810D02*
X13878571Y10578810D01*
X13664285Y10078810D01*
X14330952Y10078810D02*
X14045238Y10078810D01*
X14188095Y10078810D02*
X14188095Y10578810D01*
X14140476Y10507381D01*
X14092857Y10459762D01*
X14045238Y10435953D01*
G04 #@! TO.C,C72*
X26978571Y29701429D02*
X26954761Y29677620D01*
X26883333Y29653810D01*
X26835714Y29653810D01*
X26764285Y29677620D01*
X26716666Y29725239D01*
X26692857Y29772858D01*
X26669047Y29868096D01*
X26669047Y29939524D01*
X26692857Y30034762D01*
X26716666Y30082381D01*
X26764285Y30130000D01*
X26835714Y30153810D01*
X26883333Y30153810D01*
X26954761Y30130000D01*
X26978571Y30106191D01*
X27145238Y30153810D02*
X27478571Y30153810D01*
X27264285Y29653810D01*
X27645238Y30106191D02*
X27669047Y30130000D01*
X27716666Y30153810D01*
X27835714Y30153810D01*
X27883333Y30130000D01*
X27907142Y30106191D01*
X27930952Y30058572D01*
X27930952Y30010953D01*
X27907142Y29939524D01*
X27621428Y29653810D01*
X27930952Y29653810D01*
G04 #@! TO.C,C75*
X5978571Y7471429D02*
X5954761Y7447620D01*
X5883333Y7423810D01*
X5835714Y7423810D01*
X5764285Y7447620D01*
X5716666Y7495239D01*
X5692857Y7542858D01*
X5669047Y7638096D01*
X5669047Y7709524D01*
X5692857Y7804762D01*
X5716666Y7852381D01*
X5764285Y7900000D01*
X5835714Y7923810D01*
X5883333Y7923810D01*
X5954761Y7900000D01*
X5978571Y7876191D01*
X6145238Y7923810D02*
X6478571Y7923810D01*
X6264285Y7423810D01*
X6907142Y7923810D02*
X6669047Y7923810D01*
X6645238Y7685715D01*
X6669047Y7709524D01*
X6716666Y7733334D01*
X6835714Y7733334D01*
X6883333Y7709524D01*
X6907142Y7685715D01*
X6930952Y7638096D01*
X6930952Y7519048D01*
X6907142Y7471429D01*
X6883333Y7447620D01*
X6835714Y7423810D01*
X6716666Y7423810D01*
X6669047Y7447620D01*
X6645238Y7471429D01*
G04 #@! TO.C,C76*
X10053571Y5933572D02*
X10077380Y5909762D01*
X10101190Y5838334D01*
X10101190Y5790715D01*
X10077380Y5719286D01*
X10029761Y5671667D01*
X9982142Y5647858D01*
X9886904Y5624048D01*
X9815476Y5624048D01*
X9720238Y5647858D01*
X9672619Y5671667D01*
X9625000Y5719286D01*
X9601190Y5790715D01*
X9601190Y5838334D01*
X9625000Y5909762D01*
X9648809Y5933572D01*
X9601190Y6100239D02*
X9601190Y6433572D01*
X10101190Y6219286D01*
X9601190Y6838334D02*
X9601190Y6743096D01*
X9625000Y6695477D01*
X9648809Y6671667D01*
X9720238Y6624048D01*
X9815476Y6600239D01*
X10005952Y6600239D01*
X10053571Y6624048D01*
X10077380Y6647858D01*
X10101190Y6695477D01*
X10101190Y6790715D01*
X10077380Y6838334D01*
X10053571Y6862143D01*
X10005952Y6885953D01*
X9886904Y6885953D01*
X9839285Y6862143D01*
X9815476Y6838334D01*
X9791666Y6790715D01*
X9791666Y6695477D01*
X9815476Y6647858D01*
X9839285Y6624048D01*
X9886904Y6600239D01*
G04 #@! TO.C,L22*
X10526190Y40258572D02*
X10526190Y40020477D01*
X10026190Y40020477D01*
X10073809Y40401429D02*
X10050000Y40425239D01*
X10026190Y40472858D01*
X10026190Y40591905D01*
X10050000Y40639524D01*
X10073809Y40663334D01*
X10121428Y40687143D01*
X10169047Y40687143D01*
X10240476Y40663334D01*
X10526190Y40377620D01*
X10526190Y40687143D01*
X10073809Y40877620D02*
X10050000Y40901429D01*
X10026190Y40949048D01*
X10026190Y41068096D01*
X10050000Y41115715D01*
X10073809Y41139524D01*
X10121428Y41163334D01*
X10169047Y41163334D01*
X10240476Y41139524D01*
X10526190Y40853810D01*
X10526190Y41163334D01*
G04 #@! TO.C,L23*
X25141190Y43248572D02*
X25141190Y43010477D01*
X24641190Y43010477D01*
X24688809Y43391429D02*
X24665000Y43415239D01*
X24641190Y43462858D01*
X24641190Y43581905D01*
X24665000Y43629524D01*
X24688809Y43653334D01*
X24736428Y43677143D01*
X24784047Y43677143D01*
X24855476Y43653334D01*
X25141190Y43367620D01*
X25141190Y43677143D01*
X24641190Y43843810D02*
X24641190Y44153334D01*
X24831666Y43986667D01*
X24831666Y44058096D01*
X24855476Y44105715D01*
X24879285Y44129524D01*
X24926904Y44153334D01*
X25045952Y44153334D01*
X25093571Y44129524D01*
X25117380Y44105715D01*
X25141190Y44058096D01*
X25141190Y43915239D01*
X25117380Y43867620D01*
X25093571Y43843810D01*
G04 #@! TO.C,L25*
X9526190Y42858572D02*
X9526190Y42620477D01*
X9026190Y42620477D01*
X9073809Y43001429D02*
X9050000Y43025239D01*
X9026190Y43072858D01*
X9026190Y43191905D01*
X9050000Y43239524D01*
X9073809Y43263334D01*
X9121428Y43287143D01*
X9169047Y43287143D01*
X9240476Y43263334D01*
X9526190Y42977620D01*
X9526190Y43287143D01*
X9026190Y43739524D02*
X9026190Y43501429D01*
X9264285Y43477620D01*
X9240476Y43501429D01*
X9216666Y43549048D01*
X9216666Y43668096D01*
X9240476Y43715715D01*
X9264285Y43739524D01*
X9311904Y43763334D01*
X9430952Y43763334D01*
X9478571Y43739524D01*
X9502380Y43715715D01*
X9526190Y43668096D01*
X9526190Y43549048D01*
X9502380Y43501429D01*
X9478571Y43477620D01*
G04 #@! TO.C,L26*
X19818571Y46993810D02*
X19580476Y46993810D01*
X19580476Y47493810D01*
X19961428Y47446191D02*
X19985238Y47470000D01*
X20032857Y47493810D01*
X20151904Y47493810D01*
X20199523Y47470000D01*
X20223333Y47446191D01*
X20247142Y47398572D01*
X20247142Y47350953D01*
X20223333Y47279524D01*
X19937619Y46993810D01*
X20247142Y46993810D01*
X20675714Y47493810D02*
X20580476Y47493810D01*
X20532857Y47470000D01*
X20509047Y47446191D01*
X20461428Y47374762D01*
X20437619Y47279524D01*
X20437619Y47089048D01*
X20461428Y47041429D01*
X20485238Y47017620D01*
X20532857Y46993810D01*
X20628095Y46993810D01*
X20675714Y47017620D01*
X20699523Y47041429D01*
X20723333Y47089048D01*
X20723333Y47208096D01*
X20699523Y47255715D01*
X20675714Y47279524D01*
X20628095Y47303334D01*
X20532857Y47303334D01*
X20485238Y47279524D01*
X20461428Y47255715D01*
X20437619Y47208096D01*
G04 #@! TO.C,C74*
X12053571Y9751429D02*
X12029761Y9727620D01*
X11958333Y9703810D01*
X11910714Y9703810D01*
X11839285Y9727620D01*
X11791666Y9775239D01*
X11767857Y9822858D01*
X11744047Y9918096D01*
X11744047Y9989524D01*
X11767857Y10084762D01*
X11791666Y10132381D01*
X11839285Y10180000D01*
X11910714Y10203810D01*
X11958333Y10203810D01*
X12029761Y10180000D01*
X12053571Y10156191D01*
X12220238Y10203810D02*
X12553571Y10203810D01*
X12339285Y9703810D01*
X12958333Y10037143D02*
X12958333Y9703810D01*
X12839285Y10227620D02*
X12720238Y9870477D01*
X13029761Y9870477D01*
G04 #@! TO.C,R8*
X8266666Y7403810D02*
X8100000Y7641905D01*
X7980952Y7403810D02*
X7980952Y7903810D01*
X8171428Y7903810D01*
X8219047Y7880000D01*
X8242857Y7856191D01*
X8266666Y7808572D01*
X8266666Y7737143D01*
X8242857Y7689524D01*
X8219047Y7665715D01*
X8171428Y7641905D01*
X7980952Y7641905D01*
X8552380Y7689524D02*
X8504761Y7713334D01*
X8480952Y7737143D01*
X8457142Y7784762D01*
X8457142Y7808572D01*
X8480952Y7856191D01*
X8504761Y7880000D01*
X8552380Y7903810D01*
X8647619Y7903810D01*
X8695238Y7880000D01*
X8719047Y7856191D01*
X8742857Y7808572D01*
X8742857Y7784762D01*
X8719047Y7737143D01*
X8695238Y7713334D01*
X8647619Y7689524D01*
X8552380Y7689524D01*
X8504761Y7665715D01*
X8480952Y7641905D01*
X8457142Y7594286D01*
X8457142Y7499048D01*
X8480952Y7451429D01*
X8504761Y7427620D01*
X8552380Y7403810D01*
X8647619Y7403810D01*
X8695238Y7427620D01*
X8719047Y7451429D01*
X8742857Y7499048D01*
X8742857Y7594286D01*
X8719047Y7641905D01*
X8695238Y7665715D01*
X8647619Y7689524D01*
G04 #@! TO.C,C11*
X23388571Y19048572D02*
X23412380Y19024762D01*
X23436190Y18953334D01*
X23436190Y18905715D01*
X23412380Y18834286D01*
X23364761Y18786667D01*
X23317142Y18762858D01*
X23221904Y18739048D01*
X23150476Y18739048D01*
X23055238Y18762858D01*
X23007619Y18786667D01*
X22960000Y18834286D01*
X22936190Y18905715D01*
X22936190Y18953334D01*
X22960000Y19024762D01*
X22983809Y19048572D01*
X23436190Y19524762D02*
X23436190Y19239048D01*
X23436190Y19381905D02*
X22936190Y19381905D01*
X23007619Y19334286D01*
X23055238Y19286667D01*
X23079047Y19239048D01*
X23436190Y20000953D02*
X23436190Y19715239D01*
X23436190Y19858096D02*
X22936190Y19858096D01*
X23007619Y19810477D01*
X23055238Y19762858D01*
X23079047Y19715239D01*
G04 #@! TO.C,U4*
X11219047Y13453810D02*
X11219047Y13049048D01*
X11242857Y13001429D01*
X11266666Y12977620D01*
X11314285Y12953810D01*
X11409523Y12953810D01*
X11457142Y12977620D01*
X11480952Y13001429D01*
X11504761Y13049048D01*
X11504761Y13453810D01*
X11957142Y13287143D02*
X11957142Y12953810D01*
X11838095Y13477620D02*
X11719047Y13120477D01*
X12028571Y13120477D01*
G04 #@! TO.C,C77*
X26778571Y47158572D02*
X26802380Y47134762D01*
X26826190Y47063334D01*
X26826190Y47015715D01*
X26802380Y46944286D01*
X26754761Y46896667D01*
X26707142Y46872858D01*
X26611904Y46849048D01*
X26540476Y46849048D01*
X26445238Y46872858D01*
X26397619Y46896667D01*
X26350000Y46944286D01*
X26326190Y47015715D01*
X26326190Y47063334D01*
X26350000Y47134762D01*
X26373809Y47158572D01*
X26326190Y47325239D02*
X26326190Y47658572D01*
X26826190Y47444286D01*
X26326190Y47801429D02*
X26326190Y48134762D01*
X26826190Y47920477D01*
G04 #@! TO.C,L30*
X26028571Y49453810D02*
X25790476Y49453810D01*
X25790476Y49953810D01*
X26147619Y49953810D02*
X26457142Y49953810D01*
X26290476Y49763334D01*
X26361904Y49763334D01*
X26409523Y49739524D01*
X26433333Y49715715D01*
X26457142Y49668096D01*
X26457142Y49549048D01*
X26433333Y49501429D01*
X26409523Y49477620D01*
X26361904Y49453810D01*
X26219047Y49453810D01*
X26171428Y49477620D01*
X26147619Y49501429D01*
X26766666Y49953810D02*
X26814285Y49953810D01*
X26861904Y49930000D01*
X26885714Y49906191D01*
X26909523Y49858572D01*
X26933333Y49763334D01*
X26933333Y49644286D01*
X26909523Y49549048D01*
X26885714Y49501429D01*
X26861904Y49477620D01*
X26814285Y49453810D01*
X26766666Y49453810D01*
X26719047Y49477620D01*
X26695238Y49501429D01*
X26671428Y49549048D01*
X26647619Y49644286D01*
X26647619Y49763334D01*
X26671428Y49858572D01*
X26695238Y49906191D01*
X26719047Y49930000D01*
X26766666Y49953810D01*
G04 #@! TO.C,L31*
X26078571Y44803810D02*
X25840476Y44803810D01*
X25840476Y45303810D01*
X26197619Y45303810D02*
X26507142Y45303810D01*
X26340476Y45113334D01*
X26411904Y45113334D01*
X26459523Y45089524D01*
X26483333Y45065715D01*
X26507142Y45018096D01*
X26507142Y44899048D01*
X26483333Y44851429D01*
X26459523Y44827620D01*
X26411904Y44803810D01*
X26269047Y44803810D01*
X26221428Y44827620D01*
X26197619Y44851429D01*
X26983333Y44803810D02*
X26697619Y44803810D01*
X26840476Y44803810D02*
X26840476Y45303810D01*
X26792857Y45232381D01*
X26745238Y45184762D01*
X26697619Y45160953D01*
G04 #@! TO.C,L32*
X16318571Y52033810D02*
X16080476Y52033810D01*
X16080476Y52533810D01*
X16437619Y52533810D02*
X16747142Y52533810D01*
X16580476Y52343334D01*
X16651904Y52343334D01*
X16699523Y52319524D01*
X16723333Y52295715D01*
X16747142Y52248096D01*
X16747142Y52129048D01*
X16723333Y52081429D01*
X16699523Y52057620D01*
X16651904Y52033810D01*
X16509047Y52033810D01*
X16461428Y52057620D01*
X16437619Y52081429D01*
X16937619Y52486191D02*
X16961428Y52510000D01*
X17009047Y52533810D01*
X17128095Y52533810D01*
X17175714Y52510000D01*
X17199523Y52486191D01*
X17223333Y52438572D01*
X17223333Y52390953D01*
X17199523Y52319524D01*
X16913809Y52033810D01*
X17223333Y52033810D01*
G04 #@! TO.C,L33*
X6478571Y14753810D02*
X6240476Y14753810D01*
X6240476Y15253810D01*
X6597619Y15253810D02*
X6907142Y15253810D01*
X6740476Y15063334D01*
X6811904Y15063334D01*
X6859523Y15039524D01*
X6883333Y15015715D01*
X6907142Y14968096D01*
X6907142Y14849048D01*
X6883333Y14801429D01*
X6859523Y14777620D01*
X6811904Y14753810D01*
X6669047Y14753810D01*
X6621428Y14777620D01*
X6597619Y14801429D01*
X7073809Y15253810D02*
X7383333Y15253810D01*
X7216666Y15063334D01*
X7288095Y15063334D01*
X7335714Y15039524D01*
X7359523Y15015715D01*
X7383333Y14968096D01*
X7383333Y14849048D01*
X7359523Y14801429D01*
X7335714Y14777620D01*
X7288095Y14753810D01*
X7145238Y14753810D01*
X7097619Y14777620D01*
X7073809Y14801429D01*
G04 #@! TO.C,R9*
X14616666Y53543810D02*
X14450000Y53781905D01*
X14330952Y53543810D02*
X14330952Y54043810D01*
X14521428Y54043810D01*
X14569047Y54020000D01*
X14592857Y53996191D01*
X14616666Y53948572D01*
X14616666Y53877143D01*
X14592857Y53829524D01*
X14569047Y53805715D01*
X14521428Y53781905D01*
X14330952Y53781905D01*
X14854761Y53543810D02*
X14950000Y53543810D01*
X14997619Y53567620D01*
X15021428Y53591429D01*
X15069047Y53662858D01*
X15092857Y53758096D01*
X15092857Y53948572D01*
X15069047Y53996191D01*
X15045238Y54020000D01*
X14997619Y54043810D01*
X14902380Y54043810D01*
X14854761Y54020000D01*
X14830952Y53996191D01*
X14807142Y53948572D01*
X14807142Y53829524D01*
X14830952Y53781905D01*
X14854761Y53758096D01*
X14902380Y53734286D01*
X14997619Y53734286D01*
X15045238Y53758096D01*
X15069047Y53781905D01*
X15092857Y53829524D01*
G04 #@! TO.C,C28*
X45738571Y30038572D02*
X45762380Y30014762D01*
X45786190Y29943334D01*
X45786190Y29895715D01*
X45762380Y29824286D01*
X45714761Y29776667D01*
X45667142Y29752858D01*
X45571904Y29729048D01*
X45500476Y29729048D01*
X45405238Y29752858D01*
X45357619Y29776667D01*
X45310000Y29824286D01*
X45286190Y29895715D01*
X45286190Y29943334D01*
X45310000Y30014762D01*
X45333809Y30038572D01*
X45333809Y30229048D02*
X45310000Y30252858D01*
X45286190Y30300477D01*
X45286190Y30419524D01*
X45310000Y30467143D01*
X45333809Y30490953D01*
X45381428Y30514762D01*
X45429047Y30514762D01*
X45500476Y30490953D01*
X45786190Y30205239D01*
X45786190Y30514762D01*
X45500476Y30800477D02*
X45476666Y30752858D01*
X45452857Y30729048D01*
X45405238Y30705239D01*
X45381428Y30705239D01*
X45333809Y30729048D01*
X45310000Y30752858D01*
X45286190Y30800477D01*
X45286190Y30895715D01*
X45310000Y30943334D01*
X45333809Y30967143D01*
X45381428Y30990953D01*
X45405238Y30990953D01*
X45452857Y30967143D01*
X45476666Y30943334D01*
X45500476Y30895715D01*
X45500476Y30800477D01*
X45524285Y30752858D01*
X45548095Y30729048D01*
X45595714Y30705239D01*
X45690952Y30705239D01*
X45738571Y30729048D01*
X45762380Y30752858D01*
X45786190Y30800477D01*
X45786190Y30895715D01*
X45762380Y30943334D01*
X45738571Y30967143D01*
X45690952Y30990953D01*
X45595714Y30990953D01*
X45548095Y30967143D01*
X45524285Y30943334D01*
X45500476Y30895715D01*
G04 #@! TO.C,C29*
X45378571Y28101429D02*
X45354761Y28077620D01*
X45283333Y28053810D01*
X45235714Y28053810D01*
X45164285Y28077620D01*
X45116666Y28125239D01*
X45092857Y28172858D01*
X45069047Y28268096D01*
X45069047Y28339524D01*
X45092857Y28434762D01*
X45116666Y28482381D01*
X45164285Y28530000D01*
X45235714Y28553810D01*
X45283333Y28553810D01*
X45354761Y28530000D01*
X45378571Y28506191D01*
X45569047Y28506191D02*
X45592857Y28530000D01*
X45640476Y28553810D01*
X45759523Y28553810D01*
X45807142Y28530000D01*
X45830952Y28506191D01*
X45854761Y28458572D01*
X45854761Y28410953D01*
X45830952Y28339524D01*
X45545238Y28053810D01*
X45854761Y28053810D01*
X46092857Y28053810D02*
X46188095Y28053810D01*
X46235714Y28077620D01*
X46259523Y28101429D01*
X46307142Y28172858D01*
X46330952Y28268096D01*
X46330952Y28458572D01*
X46307142Y28506191D01*
X46283333Y28530000D01*
X46235714Y28553810D01*
X46140476Y28553810D01*
X46092857Y28530000D01*
X46069047Y28506191D01*
X46045238Y28458572D01*
X46045238Y28339524D01*
X46069047Y28291905D01*
X46092857Y28268096D01*
X46140476Y28244286D01*
X46235714Y28244286D01*
X46283333Y28268096D01*
X46307142Y28291905D01*
X46330952Y28339524D01*
G04 #@! TO.C,C79*
X32138571Y29978572D02*
X32162380Y29954762D01*
X32186190Y29883334D01*
X32186190Y29835715D01*
X32162380Y29764286D01*
X32114761Y29716667D01*
X32067142Y29692858D01*
X31971904Y29669048D01*
X31900476Y29669048D01*
X31805238Y29692858D01*
X31757619Y29716667D01*
X31710000Y29764286D01*
X31686190Y29835715D01*
X31686190Y29883334D01*
X31710000Y29954762D01*
X31733809Y29978572D01*
X31686190Y30145239D02*
X31686190Y30478572D01*
X32186190Y30264286D01*
X32186190Y30692858D02*
X32186190Y30788096D01*
X32162380Y30835715D01*
X32138571Y30859524D01*
X32067142Y30907143D01*
X31971904Y30930953D01*
X31781428Y30930953D01*
X31733809Y30907143D01*
X31710000Y30883334D01*
X31686190Y30835715D01*
X31686190Y30740477D01*
X31710000Y30692858D01*
X31733809Y30669048D01*
X31781428Y30645239D01*
X31900476Y30645239D01*
X31948095Y30669048D01*
X31971904Y30692858D01*
X31995714Y30740477D01*
X31995714Y30835715D01*
X31971904Y30883334D01*
X31948095Y30907143D01*
X31900476Y30930953D01*
G04 #@! TO.C,R10*
X41808571Y29273810D02*
X41641904Y29511905D01*
X41522857Y29273810D02*
X41522857Y29773810D01*
X41713333Y29773810D01*
X41760952Y29750000D01*
X41784761Y29726191D01*
X41808571Y29678572D01*
X41808571Y29607143D01*
X41784761Y29559524D01*
X41760952Y29535715D01*
X41713333Y29511905D01*
X41522857Y29511905D01*
X42284761Y29273810D02*
X41999047Y29273810D01*
X42141904Y29273810D02*
X42141904Y29773810D01*
X42094285Y29702381D01*
X42046666Y29654762D01*
X41999047Y29630953D01*
X42594285Y29773810D02*
X42641904Y29773810D01*
X42689523Y29750000D01*
X42713333Y29726191D01*
X42737142Y29678572D01*
X42760952Y29583334D01*
X42760952Y29464286D01*
X42737142Y29369048D01*
X42713333Y29321429D01*
X42689523Y29297620D01*
X42641904Y29273810D01*
X42594285Y29273810D01*
X42546666Y29297620D01*
X42522857Y29321429D01*
X42499047Y29369048D01*
X42475238Y29464286D01*
X42475238Y29583334D01*
X42499047Y29678572D01*
X42522857Y29726191D01*
X42546666Y29750000D01*
X42594285Y29773810D01*
G04 #@! TO.C,R11*
X41938571Y30583810D02*
X41771904Y30821905D01*
X41652857Y30583810D02*
X41652857Y31083810D01*
X41843333Y31083810D01*
X41890952Y31060000D01*
X41914761Y31036191D01*
X41938571Y30988572D01*
X41938571Y30917143D01*
X41914761Y30869524D01*
X41890952Y30845715D01*
X41843333Y30821905D01*
X41652857Y30821905D01*
X42414761Y30583810D02*
X42129047Y30583810D01*
X42271904Y30583810D02*
X42271904Y31083810D01*
X42224285Y31012381D01*
X42176666Y30964762D01*
X42129047Y30940953D01*
X42890952Y30583810D02*
X42605238Y30583810D01*
X42748095Y30583810D02*
X42748095Y31083810D01*
X42700476Y31012381D01*
X42652857Y30964762D01*
X42605238Y30940953D01*
G04 #@! TO.C,C18*
X45928571Y35451429D02*
X45904761Y35427620D01*
X45833333Y35403810D01*
X45785714Y35403810D01*
X45714285Y35427620D01*
X45666666Y35475239D01*
X45642857Y35522858D01*
X45619047Y35618096D01*
X45619047Y35689524D01*
X45642857Y35784762D01*
X45666666Y35832381D01*
X45714285Y35880000D01*
X45785714Y35903810D01*
X45833333Y35903810D01*
X45904761Y35880000D01*
X45928571Y35856191D01*
X46404761Y35403810D02*
X46119047Y35403810D01*
X46261904Y35403810D02*
X46261904Y35903810D01*
X46214285Y35832381D01*
X46166666Y35784762D01*
X46119047Y35760953D01*
X46690476Y35689524D02*
X46642857Y35713334D01*
X46619047Y35737143D01*
X46595238Y35784762D01*
X46595238Y35808572D01*
X46619047Y35856191D01*
X46642857Y35880000D01*
X46690476Y35903810D01*
X46785714Y35903810D01*
X46833333Y35880000D01*
X46857142Y35856191D01*
X46880952Y35808572D01*
X46880952Y35784762D01*
X46857142Y35737143D01*
X46833333Y35713334D01*
X46785714Y35689524D01*
X46690476Y35689524D01*
X46642857Y35665715D01*
X46619047Y35641905D01*
X46595238Y35594286D01*
X46595238Y35499048D01*
X46619047Y35451429D01*
X46642857Y35427620D01*
X46690476Y35403810D01*
X46785714Y35403810D01*
X46833333Y35427620D01*
X46857142Y35451429D01*
X46880952Y35499048D01*
X46880952Y35594286D01*
X46857142Y35641905D01*
X46833333Y35665715D01*
X46785714Y35689524D01*
G04 #@! TO.C,C21*
X43978571Y35451429D02*
X43954761Y35427620D01*
X43883333Y35403810D01*
X43835714Y35403810D01*
X43764285Y35427620D01*
X43716666Y35475239D01*
X43692857Y35522858D01*
X43669047Y35618096D01*
X43669047Y35689524D01*
X43692857Y35784762D01*
X43716666Y35832381D01*
X43764285Y35880000D01*
X43835714Y35903810D01*
X43883333Y35903810D01*
X43954761Y35880000D01*
X43978571Y35856191D01*
X44169047Y35856191D02*
X44192857Y35880000D01*
X44240476Y35903810D01*
X44359523Y35903810D01*
X44407142Y35880000D01*
X44430952Y35856191D01*
X44454761Y35808572D01*
X44454761Y35760953D01*
X44430952Y35689524D01*
X44145238Y35403810D01*
X44454761Y35403810D01*
X44930952Y35403810D02*
X44645238Y35403810D01*
X44788095Y35403810D02*
X44788095Y35903810D01*
X44740476Y35832381D01*
X44692857Y35784762D01*
X44645238Y35760953D01*
G04 #@! TO.C,C78*
X33278571Y32758572D02*
X33302380Y32734762D01*
X33326190Y32663334D01*
X33326190Y32615715D01*
X33302380Y32544286D01*
X33254761Y32496667D01*
X33207142Y32472858D01*
X33111904Y32449048D01*
X33040476Y32449048D01*
X32945238Y32472858D01*
X32897619Y32496667D01*
X32850000Y32544286D01*
X32826190Y32615715D01*
X32826190Y32663334D01*
X32850000Y32734762D01*
X32873809Y32758572D01*
X32826190Y32925239D02*
X32826190Y33258572D01*
X33326190Y33044286D01*
X33040476Y33520477D02*
X33016666Y33472858D01*
X32992857Y33449048D01*
X32945238Y33425239D01*
X32921428Y33425239D01*
X32873809Y33449048D01*
X32850000Y33472858D01*
X32826190Y33520477D01*
X32826190Y33615715D01*
X32850000Y33663334D01*
X32873809Y33687143D01*
X32921428Y33710953D01*
X32945238Y33710953D01*
X32992857Y33687143D01*
X33016666Y33663334D01*
X33040476Y33615715D01*
X33040476Y33520477D01*
X33064285Y33472858D01*
X33088095Y33449048D01*
X33135714Y33425239D01*
X33230952Y33425239D01*
X33278571Y33449048D01*
X33302380Y33472858D01*
X33326190Y33520477D01*
X33326190Y33615715D01*
X33302380Y33663334D01*
X33278571Y33687143D01*
X33230952Y33710953D01*
X33135714Y33710953D01*
X33088095Y33687143D01*
X33064285Y33663334D01*
X33040476Y33615715D01*
G04 #@! TO.C,L2*
X41626190Y38396667D02*
X41626190Y38158572D01*
X41126190Y38158572D01*
X41173809Y38539524D02*
X41150000Y38563334D01*
X41126190Y38610953D01*
X41126190Y38730000D01*
X41150000Y38777620D01*
X41173809Y38801429D01*
X41221428Y38825239D01*
X41269047Y38825239D01*
X41340476Y38801429D01*
X41626190Y38515715D01*
X41626190Y38825239D01*
G04 #@! TO.C,C22*
X31428571Y25058572D02*
X31452380Y25034762D01*
X31476190Y24963334D01*
X31476190Y24915715D01*
X31452380Y24844286D01*
X31404761Y24796667D01*
X31357142Y24772858D01*
X31261904Y24749048D01*
X31190476Y24749048D01*
X31095238Y24772858D01*
X31047619Y24796667D01*
X31000000Y24844286D01*
X30976190Y24915715D01*
X30976190Y24963334D01*
X31000000Y25034762D01*
X31023809Y25058572D01*
X31023809Y25249048D02*
X31000000Y25272858D01*
X30976190Y25320477D01*
X30976190Y25439524D01*
X31000000Y25487143D01*
X31023809Y25510953D01*
X31071428Y25534762D01*
X31119047Y25534762D01*
X31190476Y25510953D01*
X31476190Y25225239D01*
X31476190Y25534762D01*
X31023809Y25725239D02*
X31000000Y25749048D01*
X30976190Y25796667D01*
X30976190Y25915715D01*
X31000000Y25963334D01*
X31023809Y25987143D01*
X31071428Y26010953D01*
X31119047Y26010953D01*
X31190476Y25987143D01*
X31476190Y25701429D01*
X31476190Y26010953D01*
G04 #@! TO.C,L3*
X5986190Y10186667D02*
X5986190Y9948572D01*
X5486190Y9948572D01*
X5486190Y10305715D02*
X5486190Y10615239D01*
X5676666Y10448572D01*
X5676666Y10520000D01*
X5700476Y10567620D01*
X5724285Y10591429D01*
X5771904Y10615239D01*
X5890952Y10615239D01*
X5938571Y10591429D01*
X5962380Y10567620D01*
X5986190Y10520000D01*
X5986190Y10377143D01*
X5962380Y10329524D01*
X5938571Y10305715D01*
G04 #@! TO.C,L20*
X18778571Y43353810D02*
X18540476Y43353810D01*
X18540476Y43853810D01*
X18921428Y43806191D02*
X18945238Y43830000D01*
X18992857Y43853810D01*
X19111904Y43853810D01*
X19159523Y43830000D01*
X19183333Y43806191D01*
X19207142Y43758572D01*
X19207142Y43710953D01*
X19183333Y43639524D01*
X18897619Y43353810D01*
X19207142Y43353810D01*
X19516666Y43853810D02*
X19564285Y43853810D01*
X19611904Y43830000D01*
X19635714Y43806191D01*
X19659523Y43758572D01*
X19683333Y43663334D01*
X19683333Y43544286D01*
X19659523Y43449048D01*
X19635714Y43401429D01*
X19611904Y43377620D01*
X19564285Y43353810D01*
X19516666Y43353810D01*
X19469047Y43377620D01*
X19445238Y43401429D01*
X19421428Y43449048D01*
X19397619Y43544286D01*
X19397619Y43663334D01*
X19421428Y43758572D01*
X19445238Y43806191D01*
X19469047Y43830000D01*
X19516666Y43853810D01*
G04 #@! TO.C,L29*
X20358571Y50743810D02*
X20120476Y50743810D01*
X20120476Y51243810D01*
X20501428Y51196191D02*
X20525238Y51220000D01*
X20572857Y51243810D01*
X20691904Y51243810D01*
X20739523Y51220000D01*
X20763333Y51196191D01*
X20787142Y51148572D01*
X20787142Y51100953D01*
X20763333Y51029524D01*
X20477619Y50743810D01*
X20787142Y50743810D01*
X21025238Y50743810D02*
X21120476Y50743810D01*
X21168095Y50767620D01*
X21191904Y50791429D01*
X21239523Y50862858D01*
X21263333Y50958096D01*
X21263333Y51148572D01*
X21239523Y51196191D01*
X21215714Y51220000D01*
X21168095Y51243810D01*
X21072857Y51243810D01*
X21025238Y51220000D01*
X21001428Y51196191D01*
X20977619Y51148572D01*
X20977619Y51029524D01*
X21001428Y50981905D01*
X21025238Y50958096D01*
X21072857Y50934286D01*
X21168095Y50934286D01*
X21215714Y50958096D01*
X21239523Y50981905D01*
X21263333Y51029524D01*
G04 #@! TO.C,C80*
X28828571Y4351429D02*
X28804761Y4327620D01*
X28733333Y4303810D01*
X28685714Y4303810D01*
X28614285Y4327620D01*
X28566666Y4375239D01*
X28542857Y4422858D01*
X28519047Y4518096D01*
X28519047Y4589524D01*
X28542857Y4684762D01*
X28566666Y4732381D01*
X28614285Y4780000D01*
X28685714Y4803810D01*
X28733333Y4803810D01*
X28804761Y4780000D01*
X28828571Y4756191D01*
X29114285Y4589524D02*
X29066666Y4613334D01*
X29042857Y4637143D01*
X29019047Y4684762D01*
X29019047Y4708572D01*
X29042857Y4756191D01*
X29066666Y4780000D01*
X29114285Y4803810D01*
X29209523Y4803810D01*
X29257142Y4780000D01*
X29280952Y4756191D01*
X29304761Y4708572D01*
X29304761Y4684762D01*
X29280952Y4637143D01*
X29257142Y4613334D01*
X29209523Y4589524D01*
X29114285Y4589524D01*
X29066666Y4565715D01*
X29042857Y4541905D01*
X29019047Y4494286D01*
X29019047Y4399048D01*
X29042857Y4351429D01*
X29066666Y4327620D01*
X29114285Y4303810D01*
X29209523Y4303810D01*
X29257142Y4327620D01*
X29280952Y4351429D01*
X29304761Y4399048D01*
X29304761Y4494286D01*
X29280952Y4541905D01*
X29257142Y4565715D01*
X29209523Y4589524D01*
X29614285Y4803810D02*
X29661904Y4803810D01*
X29709523Y4780000D01*
X29733333Y4756191D01*
X29757142Y4708572D01*
X29780952Y4613334D01*
X29780952Y4494286D01*
X29757142Y4399048D01*
X29733333Y4351429D01*
X29709523Y4327620D01*
X29661904Y4303810D01*
X29614285Y4303810D01*
X29566666Y4327620D01*
X29542857Y4351429D01*
X29519047Y4399048D01*
X29495238Y4494286D01*
X29495238Y4613334D01*
X29519047Y4708572D01*
X29542857Y4756191D01*
X29566666Y4780000D01*
X29614285Y4803810D01*
G04 #@! TO.C,C81*
X22118571Y-1891428D02*
X22142380Y-1915238D01*
X22166190Y-1986666D01*
X22166190Y-2034285D01*
X22142380Y-2105714D01*
X22094761Y-2153333D01*
X22047142Y-2177142D01*
X21951904Y-2200952D01*
X21880476Y-2200952D01*
X21785238Y-2177142D01*
X21737619Y-2153333D01*
X21690000Y-2105714D01*
X21666190Y-2034285D01*
X21666190Y-1986666D01*
X21690000Y-1915238D01*
X21713809Y-1891428D01*
X21880476Y-1605714D02*
X21856666Y-1653333D01*
X21832857Y-1677142D01*
X21785238Y-1700952D01*
X21761428Y-1700952D01*
X21713809Y-1677142D01*
X21690000Y-1653333D01*
X21666190Y-1605714D01*
X21666190Y-1510476D01*
X21690000Y-1462857D01*
X21713809Y-1439047D01*
X21761428Y-1415238D01*
X21785238Y-1415238D01*
X21832857Y-1439047D01*
X21856666Y-1462857D01*
X21880476Y-1510476D01*
X21880476Y-1605714D01*
X21904285Y-1653333D01*
X21928095Y-1677142D01*
X21975714Y-1700952D01*
X22070952Y-1700952D01*
X22118571Y-1677142D01*
X22142380Y-1653333D01*
X22166190Y-1605714D01*
X22166190Y-1510476D01*
X22142380Y-1462857D01*
X22118571Y-1439047D01*
X22070952Y-1415238D01*
X21975714Y-1415238D01*
X21928095Y-1439047D01*
X21904285Y-1462857D01*
X21880476Y-1510476D01*
X22166190Y-939047D02*
X22166190Y-1224761D01*
X22166190Y-1081904D02*
X21666190Y-1081904D01*
X21737619Y-1129523D01*
X21785238Y-1177142D01*
X21809047Y-1224761D01*
G04 #@! TO.C,U2*
X41859047Y34893810D02*
X41859047Y34489048D01*
X41882857Y34441429D01*
X41906666Y34417620D01*
X41954285Y34393810D01*
X42049523Y34393810D01*
X42097142Y34417620D01*
X42120952Y34441429D01*
X42144761Y34489048D01*
X42144761Y34893810D01*
X42359047Y34846191D02*
X42382857Y34870000D01*
X42430476Y34893810D01*
X42549523Y34893810D01*
X42597142Y34870000D01*
X42620952Y34846191D01*
X42644761Y34798572D01*
X42644761Y34750953D01*
X42620952Y34679524D01*
X42335238Y34393810D01*
X42644761Y34393810D01*
G04 #@! TO.C,C301*
X17040476Y10151429D02*
X17016666Y10127620D01*
X16945238Y10103810D01*
X16897619Y10103810D01*
X16826190Y10127620D01*
X16778571Y10175239D01*
X16754761Y10222858D01*
X16730952Y10318096D01*
X16730952Y10389524D01*
X16754761Y10484762D01*
X16778571Y10532381D01*
X16826190Y10580000D01*
X16897619Y10603810D01*
X16945238Y10603810D01*
X17016666Y10580000D01*
X17040476Y10556191D01*
X17207142Y10603810D02*
X17516666Y10603810D01*
X17350000Y10413334D01*
X17421428Y10413334D01*
X17469047Y10389524D01*
X17492857Y10365715D01*
X17516666Y10318096D01*
X17516666Y10199048D01*
X17492857Y10151429D01*
X17469047Y10127620D01*
X17421428Y10103810D01*
X17278571Y10103810D01*
X17230952Y10127620D01*
X17207142Y10151429D01*
X17826190Y10603810D02*
X17873809Y10603810D01*
X17921428Y10580000D01*
X17945238Y10556191D01*
X17969047Y10508572D01*
X17992857Y10413334D01*
X17992857Y10294286D01*
X17969047Y10199048D01*
X17945238Y10151429D01*
X17921428Y10127620D01*
X17873809Y10103810D01*
X17826190Y10103810D01*
X17778571Y10127620D01*
X17754761Y10151429D01*
X17730952Y10199048D01*
X17707142Y10294286D01*
X17707142Y10413334D01*
X17730952Y10508572D01*
X17754761Y10556191D01*
X17778571Y10580000D01*
X17826190Y10603810D01*
X18469047Y10103810D02*
X18183333Y10103810D01*
X18326190Y10103810D02*
X18326190Y10603810D01*
X18278571Y10532381D01*
X18230952Y10484762D01*
X18183333Y10460953D01*
G04 #@! TO.C,L301*
X13640476Y9403810D02*
X13402380Y9403810D01*
X13402380Y9903810D01*
X13759523Y9903810D02*
X14069047Y9903810D01*
X13902380Y9713334D01*
X13973809Y9713334D01*
X14021428Y9689524D01*
X14045238Y9665715D01*
X14069047Y9618096D01*
X14069047Y9499048D01*
X14045238Y9451429D01*
X14021428Y9427620D01*
X13973809Y9403810D01*
X13830952Y9403810D01*
X13783333Y9427620D01*
X13759523Y9451429D01*
X14378571Y9903810D02*
X14426190Y9903810D01*
X14473809Y9880000D01*
X14497619Y9856191D01*
X14521428Y9808572D01*
X14545238Y9713334D01*
X14545238Y9594286D01*
X14521428Y9499048D01*
X14497619Y9451429D01*
X14473809Y9427620D01*
X14426190Y9403810D01*
X14378571Y9403810D01*
X14330952Y9427620D01*
X14307142Y9451429D01*
X14283333Y9499048D01*
X14259523Y9594286D01*
X14259523Y9713334D01*
X14283333Y9808572D01*
X14307142Y9856191D01*
X14330952Y9880000D01*
X14378571Y9903810D01*
X15021428Y9403810D02*
X14735714Y9403810D01*
X14878571Y9403810D02*
X14878571Y9903810D01*
X14830952Y9832381D01*
X14783333Y9784762D01*
X14735714Y9760953D01*
G04 #@! TO.C,R1*
X36016666Y40003810D02*
X35850000Y40241905D01*
X35730952Y40003810D02*
X35730952Y40503810D01*
X35921428Y40503810D01*
X35969047Y40480000D01*
X35992857Y40456191D01*
X36016666Y40408572D01*
X36016666Y40337143D01*
X35992857Y40289524D01*
X35969047Y40265715D01*
X35921428Y40241905D01*
X35730952Y40241905D01*
X36492857Y40003810D02*
X36207142Y40003810D01*
X36350000Y40003810D02*
X36350000Y40503810D01*
X36302380Y40432381D01*
X36254761Y40384762D01*
X36207142Y40360953D01*
G04 #@! TO.C,R2*
X28101190Y11571667D02*
X27863095Y11405000D01*
X28101190Y11285953D02*
X27601190Y11285953D01*
X27601190Y11476429D01*
X27625000Y11524048D01*
X27648809Y11547858D01*
X27696428Y11571667D01*
X27767857Y11571667D01*
X27815476Y11547858D01*
X27839285Y11524048D01*
X27863095Y11476429D01*
X27863095Y11285953D01*
X27648809Y11762143D02*
X27625000Y11785953D01*
X27601190Y11833572D01*
X27601190Y11952620D01*
X27625000Y12000239D01*
X27648809Y12024048D01*
X27696428Y12047858D01*
X27744047Y12047858D01*
X27815476Y12024048D01*
X28101190Y11738334D01*
X28101190Y12047858D01*
G04 #@! TO.C,R14*
X39828571Y40053810D02*
X39661904Y40291905D01*
X39542857Y40053810D02*
X39542857Y40553810D01*
X39733333Y40553810D01*
X39780952Y40530000D01*
X39804761Y40506191D01*
X39828571Y40458572D01*
X39828571Y40387143D01*
X39804761Y40339524D01*
X39780952Y40315715D01*
X39733333Y40291905D01*
X39542857Y40291905D01*
X40304761Y40053810D02*
X40019047Y40053810D01*
X40161904Y40053810D02*
X40161904Y40553810D01*
X40114285Y40482381D01*
X40066666Y40434762D01*
X40019047Y40410953D01*
X40733333Y40387143D02*
X40733333Y40053810D01*
X40614285Y40577620D02*
X40495238Y40220477D01*
X40804761Y40220477D01*
G04 #@! TO.C,R15*
X43728571Y40003810D02*
X43561904Y40241905D01*
X43442857Y40003810D02*
X43442857Y40503810D01*
X43633333Y40503810D01*
X43680952Y40480000D01*
X43704761Y40456191D01*
X43728571Y40408572D01*
X43728571Y40337143D01*
X43704761Y40289524D01*
X43680952Y40265715D01*
X43633333Y40241905D01*
X43442857Y40241905D01*
X44204761Y40003810D02*
X43919047Y40003810D01*
X44061904Y40003810D02*
X44061904Y40503810D01*
X44014285Y40432381D01*
X43966666Y40384762D01*
X43919047Y40360953D01*
X44657142Y40503810D02*
X44419047Y40503810D01*
X44395238Y40265715D01*
X44419047Y40289524D01*
X44466666Y40313334D01*
X44585714Y40313334D01*
X44633333Y40289524D01*
X44657142Y40265715D01*
X44680952Y40218096D01*
X44680952Y40099048D01*
X44657142Y40051429D01*
X44633333Y40027620D01*
X44585714Y40003810D01*
X44466666Y40003810D01*
X44419047Y40027620D01*
X44395238Y40051429D01*
G04 #@! TO.C,R16*
X35726190Y47333572D02*
X35488095Y47166905D01*
X35726190Y47047858D02*
X35226190Y47047858D01*
X35226190Y47238334D01*
X35250000Y47285953D01*
X35273809Y47309762D01*
X35321428Y47333572D01*
X35392857Y47333572D01*
X35440476Y47309762D01*
X35464285Y47285953D01*
X35488095Y47238334D01*
X35488095Y47047858D01*
X35726190Y47809762D02*
X35726190Y47524048D01*
X35726190Y47666905D02*
X35226190Y47666905D01*
X35297619Y47619286D01*
X35345238Y47571667D01*
X35369047Y47524048D01*
X35226190Y48238334D02*
X35226190Y48143096D01*
X35250000Y48095477D01*
X35273809Y48071667D01*
X35345238Y48024048D01*
X35440476Y48000239D01*
X35630952Y48000239D01*
X35678571Y48024048D01*
X35702380Y48047858D01*
X35726190Y48095477D01*
X35726190Y48190715D01*
X35702380Y48238334D01*
X35678571Y48262143D01*
X35630952Y48285953D01*
X35511904Y48285953D01*
X35464285Y48262143D01*
X35440476Y48238334D01*
X35416666Y48190715D01*
X35416666Y48095477D01*
X35440476Y48047858D01*
X35464285Y48024048D01*
X35511904Y48000239D01*
G04 #@! TO.C,R17*
X26976190Y11058572D02*
X26738095Y10891905D01*
X26976190Y10772858D02*
X26476190Y10772858D01*
X26476190Y10963334D01*
X26500000Y11010953D01*
X26523809Y11034762D01*
X26571428Y11058572D01*
X26642857Y11058572D01*
X26690476Y11034762D01*
X26714285Y11010953D01*
X26738095Y10963334D01*
X26738095Y10772858D01*
X26976190Y11534762D02*
X26976190Y11249048D01*
X26976190Y11391905D02*
X26476190Y11391905D01*
X26547619Y11344286D01*
X26595238Y11296667D01*
X26619047Y11249048D01*
X26476190Y11701429D02*
X26476190Y12034762D01*
X26976190Y11820477D01*
G04 #@! TO.C,D2*
X10230952Y-7246190D02*
X10230952Y-6746190D01*
X10350000Y-6746190D01*
X10421428Y-6770000D01*
X10469047Y-6817619D01*
X10492857Y-6865238D01*
X10516666Y-6960476D01*
X10516666Y-7031904D01*
X10492857Y-7127142D01*
X10469047Y-7174761D01*
X10421428Y-7222380D01*
X10350000Y-7246190D01*
X10230952Y-7246190D01*
X10707142Y-6793809D02*
X10730952Y-6770000D01*
X10778571Y-6746190D01*
X10897619Y-6746190D01*
X10945238Y-6770000D01*
X10969047Y-6793809D01*
X10992857Y-6841428D01*
X10992857Y-6889047D01*
X10969047Y-6960476D01*
X10683333Y-7246190D01*
X10992857Y-7246190D01*
G04 #@! TO.C,D3*
X6730952Y-7296190D02*
X6730952Y-6796190D01*
X6850000Y-6796190D01*
X6921428Y-6820000D01*
X6969047Y-6867619D01*
X6992857Y-6915238D01*
X7016666Y-7010476D01*
X7016666Y-7081904D01*
X6992857Y-7177142D01*
X6969047Y-7224761D01*
X6921428Y-7272380D01*
X6850000Y-7296190D01*
X6730952Y-7296190D01*
X7183333Y-6796190D02*
X7492857Y-6796190D01*
X7326190Y-6986666D01*
X7397619Y-6986666D01*
X7445238Y-7010476D01*
X7469047Y-7034285D01*
X7492857Y-7081904D01*
X7492857Y-7200952D01*
X7469047Y-7248571D01*
X7445238Y-7272380D01*
X7397619Y-7296190D01*
X7254761Y-7296190D01*
X7207142Y-7272380D01*
X7183333Y-7248571D01*
G04 #@! TO.C,R20*
X11926190Y-2541428D02*
X11688095Y-2708095D01*
X11926190Y-2827142D02*
X11426190Y-2827142D01*
X11426190Y-2636666D01*
X11450000Y-2589047D01*
X11473809Y-2565238D01*
X11521428Y-2541428D01*
X11592857Y-2541428D01*
X11640476Y-2565238D01*
X11664285Y-2589047D01*
X11688095Y-2636666D01*
X11688095Y-2827142D01*
X11473809Y-2350952D02*
X11450000Y-2327142D01*
X11426190Y-2279523D01*
X11426190Y-2160476D01*
X11450000Y-2112857D01*
X11473809Y-2089047D01*
X11521428Y-2065238D01*
X11569047Y-2065238D01*
X11640476Y-2089047D01*
X11926190Y-2374761D01*
X11926190Y-2065238D01*
X11426190Y-1755714D02*
X11426190Y-1708095D01*
X11450000Y-1660476D01*
X11473809Y-1636666D01*
X11521428Y-1612857D01*
X11616666Y-1589047D01*
X11735714Y-1589047D01*
X11830952Y-1612857D01*
X11878571Y-1636666D01*
X11902380Y-1660476D01*
X11926190Y-1708095D01*
X11926190Y-1755714D01*
X11902380Y-1803333D01*
X11878571Y-1827142D01*
X11830952Y-1850952D01*
X11735714Y-1874761D01*
X11616666Y-1874761D01*
X11521428Y-1850952D01*
X11473809Y-1827142D01*
X11450000Y-1803333D01*
X11426190Y-1755714D01*
G04 #@! TO.C,R22*
X8376190Y-2541428D02*
X8138095Y-2708095D01*
X8376190Y-2827142D02*
X7876190Y-2827142D01*
X7876190Y-2636666D01*
X7900000Y-2589047D01*
X7923809Y-2565238D01*
X7971428Y-2541428D01*
X8042857Y-2541428D01*
X8090476Y-2565238D01*
X8114285Y-2589047D01*
X8138095Y-2636666D01*
X8138095Y-2827142D01*
X7923809Y-2350952D02*
X7900000Y-2327142D01*
X7876190Y-2279523D01*
X7876190Y-2160476D01*
X7900000Y-2112857D01*
X7923809Y-2089047D01*
X7971428Y-2065238D01*
X8019047Y-2065238D01*
X8090476Y-2089047D01*
X8376190Y-2374761D01*
X8376190Y-2065238D01*
X7923809Y-1874761D02*
X7900000Y-1850952D01*
X7876190Y-1803333D01*
X7876190Y-1684285D01*
X7900000Y-1636666D01*
X7923809Y-1612857D01*
X7971428Y-1589047D01*
X8019047Y-1589047D01*
X8090476Y-1612857D01*
X8376190Y-1898571D01*
X8376190Y-1589047D01*
G04 #@! TO.C,C33*
X15228571Y22451429D02*
X15204761Y22427620D01*
X15133333Y22403810D01*
X15085714Y22403810D01*
X15014285Y22427620D01*
X14966666Y22475239D01*
X14942857Y22522858D01*
X14919047Y22618096D01*
X14919047Y22689524D01*
X14942857Y22784762D01*
X14966666Y22832381D01*
X15014285Y22880000D01*
X15085714Y22903810D01*
X15133333Y22903810D01*
X15204761Y22880000D01*
X15228571Y22856191D01*
X15395238Y22903810D02*
X15704761Y22903810D01*
X15538095Y22713334D01*
X15609523Y22713334D01*
X15657142Y22689524D01*
X15680952Y22665715D01*
X15704761Y22618096D01*
X15704761Y22499048D01*
X15680952Y22451429D01*
X15657142Y22427620D01*
X15609523Y22403810D01*
X15466666Y22403810D01*
X15419047Y22427620D01*
X15395238Y22451429D01*
X15871428Y22903810D02*
X16180952Y22903810D01*
X16014285Y22713334D01*
X16085714Y22713334D01*
X16133333Y22689524D01*
X16157142Y22665715D01*
X16180952Y22618096D01*
X16180952Y22499048D01*
X16157142Y22451429D01*
X16133333Y22427620D01*
X16085714Y22403810D01*
X15942857Y22403810D01*
X15895238Y22427620D01*
X15871428Y22451429D01*
G04 #@! TO.C,C38*
X23278571Y35951429D02*
X23254761Y35927620D01*
X23183333Y35903810D01*
X23135714Y35903810D01*
X23064285Y35927620D01*
X23016666Y35975239D01*
X22992857Y36022858D01*
X22969047Y36118096D01*
X22969047Y36189524D01*
X22992857Y36284762D01*
X23016666Y36332381D01*
X23064285Y36380000D01*
X23135714Y36403810D01*
X23183333Y36403810D01*
X23254761Y36380000D01*
X23278571Y36356191D01*
X23445238Y36403810D02*
X23754761Y36403810D01*
X23588095Y36213334D01*
X23659523Y36213334D01*
X23707142Y36189524D01*
X23730952Y36165715D01*
X23754761Y36118096D01*
X23754761Y35999048D01*
X23730952Y35951429D01*
X23707142Y35927620D01*
X23659523Y35903810D01*
X23516666Y35903810D01*
X23469047Y35927620D01*
X23445238Y35951429D01*
X24040476Y36189524D02*
X23992857Y36213334D01*
X23969047Y36237143D01*
X23945238Y36284762D01*
X23945238Y36308572D01*
X23969047Y36356191D01*
X23992857Y36380000D01*
X24040476Y36403810D01*
X24135714Y36403810D01*
X24183333Y36380000D01*
X24207142Y36356191D01*
X24230952Y36308572D01*
X24230952Y36284762D01*
X24207142Y36237143D01*
X24183333Y36213334D01*
X24135714Y36189524D01*
X24040476Y36189524D01*
X23992857Y36165715D01*
X23969047Y36141905D01*
X23945238Y36094286D01*
X23945238Y35999048D01*
X23969047Y35951429D01*
X23992857Y35927620D01*
X24040476Y35903810D01*
X24135714Y35903810D01*
X24183333Y35927620D01*
X24207142Y35951429D01*
X24230952Y35999048D01*
X24230952Y36094286D01*
X24207142Y36141905D01*
X24183333Y36165715D01*
X24135714Y36189524D01*
G04 #@! TO.C,L4*
X16826190Y18196667D02*
X16826190Y17958572D01*
X16326190Y17958572D01*
X16492857Y18577620D02*
X16826190Y18577620D01*
X16302380Y18458572D02*
X16659523Y18339524D01*
X16659523Y18649048D01*
G04 #@! TO.C,L6*
X26126190Y31446667D02*
X26126190Y31208572D01*
X25626190Y31208572D01*
X25626190Y31827620D02*
X25626190Y31732381D01*
X25650000Y31684762D01*
X25673809Y31660953D01*
X25745238Y31613334D01*
X25840476Y31589524D01*
X26030952Y31589524D01*
X26078571Y31613334D01*
X26102380Y31637143D01*
X26126190Y31684762D01*
X26126190Y31780000D01*
X26102380Y31827620D01*
X26078571Y31851429D01*
X26030952Y31875239D01*
X25911904Y31875239D01*
X25864285Y31851429D01*
X25840476Y31827620D01*
X25816666Y31780000D01*
X25816666Y31684762D01*
X25840476Y31637143D01*
X25864285Y31613334D01*
X25911904Y31589524D01*
G04 #@! TO.C,L11*
X11826190Y26258572D02*
X11826190Y26020477D01*
X11326190Y26020477D01*
X11826190Y26687143D02*
X11826190Y26401429D01*
X11826190Y26544286D02*
X11326190Y26544286D01*
X11397619Y26496667D01*
X11445238Y26449048D01*
X11469047Y26401429D01*
X11826190Y27163334D02*
X11826190Y26877620D01*
X11826190Y27020477D02*
X11326190Y27020477D01*
X11397619Y26972858D01*
X11445238Y26925239D01*
X11469047Y26877620D01*
G04 #@! TO.C,L12*
X24428571Y39853810D02*
X24190476Y39853810D01*
X24190476Y40353810D01*
X24857142Y39853810D02*
X24571428Y39853810D01*
X24714285Y39853810D02*
X24714285Y40353810D01*
X24666666Y40282381D01*
X24619047Y40234762D01*
X24571428Y40210953D01*
X25047619Y40306191D02*
X25071428Y40330000D01*
X25119047Y40353810D01*
X25238095Y40353810D01*
X25285714Y40330000D01*
X25309523Y40306191D01*
X25333333Y40258572D01*
X25333333Y40210953D01*
X25309523Y40139524D01*
X25023809Y39853810D01*
X25333333Y39853810D01*
G04 #@! TO.C,C26*
X11128571Y18708572D02*
X11152380Y18684762D01*
X11176190Y18613334D01*
X11176190Y18565715D01*
X11152380Y18494286D01*
X11104761Y18446667D01*
X11057142Y18422858D01*
X10961904Y18399048D01*
X10890476Y18399048D01*
X10795238Y18422858D01*
X10747619Y18446667D01*
X10700000Y18494286D01*
X10676190Y18565715D01*
X10676190Y18613334D01*
X10700000Y18684762D01*
X10723809Y18708572D01*
X10723809Y18899048D02*
X10700000Y18922858D01*
X10676190Y18970477D01*
X10676190Y19089524D01*
X10700000Y19137143D01*
X10723809Y19160953D01*
X10771428Y19184762D01*
X10819047Y19184762D01*
X10890476Y19160953D01*
X11176190Y18875239D01*
X11176190Y19184762D01*
X10676190Y19613334D02*
X10676190Y19518096D01*
X10700000Y19470477D01*
X10723809Y19446667D01*
X10795238Y19399048D01*
X10890476Y19375239D01*
X11080952Y19375239D01*
X11128571Y19399048D01*
X11152380Y19422858D01*
X11176190Y19470477D01*
X11176190Y19565715D01*
X11152380Y19613334D01*
X11128571Y19637143D01*
X11080952Y19660953D01*
X10961904Y19660953D01*
X10914285Y19637143D01*
X10890476Y19613334D01*
X10866666Y19565715D01*
X10866666Y19470477D01*
X10890476Y19422858D01*
X10914285Y19399048D01*
X10961904Y19375239D01*
G04 #@! TO.C,C32*
X17728571Y19851429D02*
X17704761Y19827620D01*
X17633333Y19803810D01*
X17585714Y19803810D01*
X17514285Y19827620D01*
X17466666Y19875239D01*
X17442857Y19922858D01*
X17419047Y20018096D01*
X17419047Y20089524D01*
X17442857Y20184762D01*
X17466666Y20232381D01*
X17514285Y20280000D01*
X17585714Y20303810D01*
X17633333Y20303810D01*
X17704761Y20280000D01*
X17728571Y20256191D01*
X17895238Y20303810D02*
X18204761Y20303810D01*
X18038095Y20113334D01*
X18109523Y20113334D01*
X18157142Y20089524D01*
X18180952Y20065715D01*
X18204761Y20018096D01*
X18204761Y19899048D01*
X18180952Y19851429D01*
X18157142Y19827620D01*
X18109523Y19803810D01*
X17966666Y19803810D01*
X17919047Y19827620D01*
X17895238Y19851429D01*
X18395238Y20256191D02*
X18419047Y20280000D01*
X18466666Y20303810D01*
X18585714Y20303810D01*
X18633333Y20280000D01*
X18657142Y20256191D01*
X18680952Y20208572D01*
X18680952Y20160953D01*
X18657142Y20089524D01*
X18371428Y19803810D01*
X18680952Y19803810D01*
G04 #@! TO.C,JP3*
X35183333Y-5346190D02*
X35183333Y-5703333D01*
X35159523Y-5774761D01*
X35111904Y-5822380D01*
X35040476Y-5846190D01*
X34992857Y-5846190D01*
X35421428Y-5846190D02*
X35421428Y-5346190D01*
X35611904Y-5346190D01*
X35659523Y-5370000D01*
X35683333Y-5393809D01*
X35707142Y-5441428D01*
X35707142Y-5512857D01*
X35683333Y-5560476D01*
X35659523Y-5584285D01*
X35611904Y-5608095D01*
X35421428Y-5608095D01*
X35873809Y-5346190D02*
X36183333Y-5346190D01*
X36016666Y-5536666D01*
X36088095Y-5536666D01*
X36135714Y-5560476D01*
X36159523Y-5584285D01*
X36183333Y-5631904D01*
X36183333Y-5750952D01*
X36159523Y-5798571D01*
X36135714Y-5822380D01*
X36088095Y-5846190D01*
X35945238Y-5846190D01*
X35897619Y-5822380D01*
X35873809Y-5798571D01*
G04 #@! TO.C,Q5*
X34352380Y44856191D02*
X34304761Y44880000D01*
X34257142Y44927620D01*
X34185714Y44999048D01*
X34138095Y45022858D01*
X34090476Y45022858D01*
X34114285Y44903810D02*
X34066666Y44927620D01*
X34019047Y44975239D01*
X33995238Y45070477D01*
X33995238Y45237143D01*
X34019047Y45332381D01*
X34066666Y45380000D01*
X34114285Y45403810D01*
X34209523Y45403810D01*
X34257142Y45380000D01*
X34304761Y45332381D01*
X34328571Y45237143D01*
X34328571Y45070477D01*
X34304761Y44975239D01*
X34257142Y44927620D01*
X34209523Y44903810D01*
X34114285Y44903810D01*
X34780952Y45403810D02*
X34542857Y45403810D01*
X34519047Y45165715D01*
X34542857Y45189524D01*
X34590476Y45213334D01*
X34709523Y45213334D01*
X34757142Y45189524D01*
X34780952Y45165715D01*
X34804761Y45118096D01*
X34804761Y44999048D01*
X34780952Y44951429D01*
X34757142Y44927620D01*
X34709523Y44903810D01*
X34590476Y44903810D01*
X34542857Y44927620D01*
X34519047Y44951429D01*
G04 #@! TO.C,Q6*
X38352380Y44756191D02*
X38304761Y44780000D01*
X38257142Y44827620D01*
X38185714Y44899048D01*
X38138095Y44922858D01*
X38090476Y44922858D01*
X38114285Y44803810D02*
X38066666Y44827620D01*
X38019047Y44875239D01*
X37995238Y44970477D01*
X37995238Y45137143D01*
X38019047Y45232381D01*
X38066666Y45280000D01*
X38114285Y45303810D01*
X38209523Y45303810D01*
X38257142Y45280000D01*
X38304761Y45232381D01*
X38328571Y45137143D01*
X38328571Y44970477D01*
X38304761Y44875239D01*
X38257142Y44827620D01*
X38209523Y44803810D01*
X38114285Y44803810D01*
X38757142Y45303810D02*
X38661904Y45303810D01*
X38614285Y45280000D01*
X38590476Y45256191D01*
X38542857Y45184762D01*
X38519047Y45089524D01*
X38519047Y44899048D01*
X38542857Y44851429D01*
X38566666Y44827620D01*
X38614285Y44803810D01*
X38709523Y44803810D01*
X38757142Y44827620D01*
X38780952Y44851429D01*
X38804761Y44899048D01*
X38804761Y45018096D01*
X38780952Y45065715D01*
X38757142Y45089524D01*
X38709523Y45113334D01*
X38614285Y45113334D01*
X38566666Y45089524D01*
X38542857Y45065715D01*
X38519047Y45018096D01*
G04 #@! TO.C,Q7*
X42302380Y44756191D02*
X42254761Y44780000D01*
X42207142Y44827620D01*
X42135714Y44899048D01*
X42088095Y44922858D01*
X42040476Y44922858D01*
X42064285Y44803810D02*
X42016666Y44827620D01*
X41969047Y44875239D01*
X41945238Y44970477D01*
X41945238Y45137143D01*
X41969047Y45232381D01*
X42016666Y45280000D01*
X42064285Y45303810D01*
X42159523Y45303810D01*
X42207142Y45280000D01*
X42254761Y45232381D01*
X42278571Y45137143D01*
X42278571Y44970477D01*
X42254761Y44875239D01*
X42207142Y44827620D01*
X42159523Y44803810D01*
X42064285Y44803810D01*
X42445238Y45303810D02*
X42778571Y45303810D01*
X42564285Y44803810D01*
G04 #@! TO.C,U6*
X36519047Y24203810D02*
X36519047Y23799048D01*
X36542857Y23751429D01*
X36566666Y23727620D01*
X36614285Y23703810D01*
X36709523Y23703810D01*
X36757142Y23727620D01*
X36780952Y23751429D01*
X36804761Y23799048D01*
X36804761Y24203810D01*
X37257142Y24203810D02*
X37161904Y24203810D01*
X37114285Y24180000D01*
X37090476Y24156191D01*
X37042857Y24084762D01*
X37019047Y23989524D01*
X37019047Y23799048D01*
X37042857Y23751429D01*
X37066666Y23727620D01*
X37114285Y23703810D01*
X37209523Y23703810D01*
X37257142Y23727620D01*
X37280952Y23751429D01*
X37304761Y23799048D01*
X37304761Y23918096D01*
X37280952Y23965715D01*
X37257142Y23989524D01*
X37209523Y24013334D01*
X37114285Y24013334D01*
X37066666Y23989524D01*
X37042857Y23965715D01*
X37019047Y23918096D01*
G04 #@! TO.C,Y1*
X33238095Y10691905D02*
X33476190Y10691905D01*
X32976190Y10525239D02*
X33238095Y10691905D01*
X32976190Y10858572D01*
X33476190Y11287143D02*
X33476190Y11001429D01*
X33476190Y11144286D02*
X32976190Y11144286D01*
X33047619Y11096667D01*
X33095238Y11049048D01*
X33119047Y11001429D01*
G04 #@! TO.C,C27*
X14878571Y15008572D02*
X14902380Y14984762D01*
X14926190Y14913334D01*
X14926190Y14865715D01*
X14902380Y14794286D01*
X14854761Y14746667D01*
X14807142Y14722858D01*
X14711904Y14699048D01*
X14640476Y14699048D01*
X14545238Y14722858D01*
X14497619Y14746667D01*
X14450000Y14794286D01*
X14426190Y14865715D01*
X14426190Y14913334D01*
X14450000Y14984762D01*
X14473809Y15008572D01*
X14473809Y15199048D02*
X14450000Y15222858D01*
X14426190Y15270477D01*
X14426190Y15389524D01*
X14450000Y15437143D01*
X14473809Y15460953D01*
X14521428Y15484762D01*
X14569047Y15484762D01*
X14640476Y15460953D01*
X14926190Y15175239D01*
X14926190Y15484762D01*
X14426190Y15651429D02*
X14426190Y15984762D01*
X14926190Y15770477D01*
G04 #@! TO.C,C34*
X26978571Y32901429D02*
X26954761Y32877620D01*
X26883333Y32853810D01*
X26835714Y32853810D01*
X26764285Y32877620D01*
X26716666Y32925239D01*
X26692857Y32972858D01*
X26669047Y33068096D01*
X26669047Y33139524D01*
X26692857Y33234762D01*
X26716666Y33282381D01*
X26764285Y33330000D01*
X26835714Y33353810D01*
X26883333Y33353810D01*
X26954761Y33330000D01*
X26978571Y33306191D01*
X27145238Y33353810D02*
X27454761Y33353810D01*
X27288095Y33163334D01*
X27359523Y33163334D01*
X27407142Y33139524D01*
X27430952Y33115715D01*
X27454761Y33068096D01*
X27454761Y32949048D01*
X27430952Y32901429D01*
X27407142Y32877620D01*
X27359523Y32853810D01*
X27216666Y32853810D01*
X27169047Y32877620D01*
X27145238Y32901429D01*
X27883333Y33187143D02*
X27883333Y32853810D01*
X27764285Y33377620D02*
X27645238Y33020477D01*
X27954761Y33020477D01*
G04 #@! TO.C,C42*
X48068571Y19388572D02*
X48092380Y19364762D01*
X48116190Y19293334D01*
X48116190Y19245715D01*
X48092380Y19174286D01*
X48044761Y19126667D01*
X47997142Y19102858D01*
X47901904Y19079048D01*
X47830476Y19079048D01*
X47735238Y19102858D01*
X47687619Y19126667D01*
X47640000Y19174286D01*
X47616190Y19245715D01*
X47616190Y19293334D01*
X47640000Y19364762D01*
X47663809Y19388572D01*
X47782857Y19817143D02*
X48116190Y19817143D01*
X47592380Y19698096D02*
X47949523Y19579048D01*
X47949523Y19888572D01*
X47663809Y20055239D02*
X47640000Y20079048D01*
X47616190Y20126667D01*
X47616190Y20245715D01*
X47640000Y20293334D01*
X47663809Y20317143D01*
X47711428Y20340953D01*
X47759047Y20340953D01*
X47830476Y20317143D01*
X48116190Y20031429D01*
X48116190Y20340953D01*
G04 #@! TO.C,C44*
X13628571Y24851429D02*
X13604761Y24827620D01*
X13533333Y24803810D01*
X13485714Y24803810D01*
X13414285Y24827620D01*
X13366666Y24875239D01*
X13342857Y24922858D01*
X13319047Y25018096D01*
X13319047Y25089524D01*
X13342857Y25184762D01*
X13366666Y25232381D01*
X13414285Y25280000D01*
X13485714Y25303810D01*
X13533333Y25303810D01*
X13604761Y25280000D01*
X13628571Y25256191D01*
X14057142Y25137143D02*
X14057142Y24803810D01*
X13938095Y25327620D02*
X13819047Y24970477D01*
X14128571Y24970477D01*
X14533333Y25137143D02*
X14533333Y24803810D01*
X14414285Y25327620D02*
X14295238Y24970477D01*
X14604761Y24970477D01*
G04 #@! TO.C,C47*
X43578571Y12451429D02*
X43554761Y12427620D01*
X43483333Y12403810D01*
X43435714Y12403810D01*
X43364285Y12427620D01*
X43316666Y12475239D01*
X43292857Y12522858D01*
X43269047Y12618096D01*
X43269047Y12689524D01*
X43292857Y12784762D01*
X43316666Y12832381D01*
X43364285Y12880000D01*
X43435714Y12903810D01*
X43483333Y12903810D01*
X43554761Y12880000D01*
X43578571Y12856191D01*
X44007142Y12737143D02*
X44007142Y12403810D01*
X43888095Y12927620D02*
X43769047Y12570477D01*
X44078571Y12570477D01*
X44221428Y12903810D02*
X44554761Y12903810D01*
X44340476Y12403810D01*
G04 #@! TO.C,C49*
X6678571Y16151429D02*
X6654761Y16127620D01*
X6583333Y16103810D01*
X6535714Y16103810D01*
X6464285Y16127620D01*
X6416666Y16175239D01*
X6392857Y16222858D01*
X6369047Y16318096D01*
X6369047Y16389524D01*
X6392857Y16484762D01*
X6416666Y16532381D01*
X6464285Y16580000D01*
X6535714Y16603810D01*
X6583333Y16603810D01*
X6654761Y16580000D01*
X6678571Y16556191D01*
X7107142Y16437143D02*
X7107142Y16103810D01*
X6988095Y16627620D02*
X6869047Y16270477D01*
X7178571Y16270477D01*
X7392857Y16103810D02*
X7488095Y16103810D01*
X7535714Y16127620D01*
X7559523Y16151429D01*
X7607142Y16222858D01*
X7630952Y16318096D01*
X7630952Y16508572D01*
X7607142Y16556191D01*
X7583333Y16580000D01*
X7535714Y16603810D01*
X7440476Y16603810D01*
X7392857Y16580000D01*
X7369047Y16556191D01*
X7345238Y16508572D01*
X7345238Y16389524D01*
X7369047Y16341905D01*
X7392857Y16318096D01*
X7440476Y16294286D01*
X7535714Y16294286D01*
X7583333Y16318096D01*
X7607142Y16341905D01*
X7630952Y16389524D01*
G04 #@! TO.C,C69*
X22328571Y26551429D02*
X22304761Y26527620D01*
X22233333Y26503810D01*
X22185714Y26503810D01*
X22114285Y26527620D01*
X22066666Y26575239D01*
X22042857Y26622858D01*
X22019047Y26718096D01*
X22019047Y26789524D01*
X22042857Y26884762D01*
X22066666Y26932381D01*
X22114285Y26980000D01*
X22185714Y27003810D01*
X22233333Y27003810D01*
X22304761Y26980000D01*
X22328571Y26956191D01*
X22757142Y27003810D02*
X22661904Y27003810D01*
X22614285Y26980000D01*
X22590476Y26956191D01*
X22542857Y26884762D01*
X22519047Y26789524D01*
X22519047Y26599048D01*
X22542857Y26551429D01*
X22566666Y26527620D01*
X22614285Y26503810D01*
X22709523Y26503810D01*
X22757142Y26527620D01*
X22780952Y26551429D01*
X22804761Y26599048D01*
X22804761Y26718096D01*
X22780952Y26765715D01*
X22757142Y26789524D01*
X22709523Y26813334D01*
X22614285Y26813334D01*
X22566666Y26789524D01*
X22542857Y26765715D01*
X22519047Y26718096D01*
X23042857Y26503810D02*
X23138095Y26503810D01*
X23185714Y26527620D01*
X23209523Y26551429D01*
X23257142Y26622858D01*
X23280952Y26718096D01*
X23280952Y26908572D01*
X23257142Y26956191D01*
X23233333Y26980000D01*
X23185714Y27003810D01*
X23090476Y27003810D01*
X23042857Y26980000D01*
X23019047Y26956191D01*
X22995238Y26908572D01*
X22995238Y26789524D01*
X23019047Y26741905D01*
X23042857Y26718096D01*
X23090476Y26694286D01*
X23185714Y26694286D01*
X23233333Y26718096D01*
X23257142Y26741905D01*
X23280952Y26789524D01*
G04 #@! TO.C,C93*
X38328571Y18456429D02*
X38304761Y18432620D01*
X38233333Y18408810D01*
X38185714Y18408810D01*
X38114285Y18432620D01*
X38066666Y18480239D01*
X38042857Y18527858D01*
X38019047Y18623096D01*
X38019047Y18694524D01*
X38042857Y18789762D01*
X38066666Y18837381D01*
X38114285Y18885000D01*
X38185714Y18908810D01*
X38233333Y18908810D01*
X38304761Y18885000D01*
X38328571Y18861191D01*
X38566666Y18408810D02*
X38661904Y18408810D01*
X38709523Y18432620D01*
X38733333Y18456429D01*
X38780952Y18527858D01*
X38804761Y18623096D01*
X38804761Y18813572D01*
X38780952Y18861191D01*
X38757142Y18885000D01*
X38709523Y18908810D01*
X38614285Y18908810D01*
X38566666Y18885000D01*
X38542857Y18861191D01*
X38519047Y18813572D01*
X38519047Y18694524D01*
X38542857Y18646905D01*
X38566666Y18623096D01*
X38614285Y18599286D01*
X38709523Y18599286D01*
X38757142Y18623096D01*
X38780952Y18646905D01*
X38804761Y18694524D01*
X38971428Y18908810D02*
X39280952Y18908810D01*
X39114285Y18718334D01*
X39185714Y18718334D01*
X39233333Y18694524D01*
X39257142Y18670715D01*
X39280952Y18623096D01*
X39280952Y18504048D01*
X39257142Y18456429D01*
X39233333Y18432620D01*
X39185714Y18408810D01*
X39042857Y18408810D01*
X38995238Y18432620D01*
X38971428Y18456429D01*
G04 #@! TO.C,L1*
X12716666Y16403810D02*
X12478571Y16403810D01*
X12478571Y16903810D01*
X13145238Y16403810D02*
X12859523Y16403810D01*
X13002380Y16403810D02*
X13002380Y16903810D01*
X12954761Y16832381D01*
X12907142Y16784762D01*
X12859523Y16760953D01*
G04 #@! TO.C,L5*
X16766666Y21103810D02*
X16528571Y21103810D01*
X16528571Y21603810D01*
X17171428Y21603810D02*
X16933333Y21603810D01*
X16909523Y21365715D01*
X16933333Y21389524D01*
X16980952Y21413334D01*
X17100000Y21413334D01*
X17147619Y21389524D01*
X17171428Y21365715D01*
X17195238Y21318096D01*
X17195238Y21199048D01*
X17171428Y21151429D01*
X17147619Y21127620D01*
X17100000Y21103810D01*
X16980952Y21103810D01*
X16933333Y21127620D01*
X16909523Y21151429D01*
G04 #@! TO.C,L7*
X15166666Y23603810D02*
X14928571Y23603810D01*
X14928571Y24103810D01*
X15285714Y24103810D02*
X15619047Y24103810D01*
X15404761Y23603810D01*
G04 #@! TO.C,L8*
X26126190Y34496667D02*
X26126190Y34258572D01*
X25626190Y34258572D01*
X25840476Y34734762D02*
X25816666Y34687143D01*
X25792857Y34663334D01*
X25745238Y34639524D01*
X25721428Y34639524D01*
X25673809Y34663334D01*
X25650000Y34687143D01*
X25626190Y34734762D01*
X25626190Y34830000D01*
X25650000Y34877620D01*
X25673809Y34901429D01*
X25721428Y34925239D01*
X25745238Y34925239D01*
X25792857Y34901429D01*
X25816666Y34877620D01*
X25840476Y34830000D01*
X25840476Y34734762D01*
X25864285Y34687143D01*
X25888095Y34663334D01*
X25935714Y34639524D01*
X26030952Y34639524D01*
X26078571Y34663334D01*
X26102380Y34687143D01*
X26126190Y34734762D01*
X26126190Y34830000D01*
X26102380Y34877620D01*
X26078571Y34901429D01*
X26030952Y34925239D01*
X25935714Y34925239D01*
X25888095Y34901429D01*
X25864285Y34877620D01*
X25840476Y34830000D01*
G04 #@! TO.C,L9*
X6966666Y17553810D02*
X6728571Y17553810D01*
X6728571Y18053810D01*
X7157142Y17553810D02*
X7252380Y17553810D01*
X7300000Y17577620D01*
X7323809Y17601429D01*
X7371428Y17672858D01*
X7395238Y17768096D01*
X7395238Y17958572D01*
X7371428Y18006191D01*
X7347619Y18030000D01*
X7300000Y18053810D01*
X7204761Y18053810D01*
X7157142Y18030000D01*
X7133333Y18006191D01*
X7109523Y17958572D01*
X7109523Y17839524D01*
X7133333Y17791905D01*
X7157142Y17768096D01*
X7204761Y17744286D01*
X7300000Y17744286D01*
X7347619Y17768096D01*
X7371428Y17791905D01*
X7395238Y17839524D01*
G04 #@! TO.C,L10*
X25928571Y37153810D02*
X25690476Y37153810D01*
X25690476Y37653810D01*
X26357142Y37153810D02*
X26071428Y37153810D01*
X26214285Y37153810D02*
X26214285Y37653810D01*
X26166666Y37582381D01*
X26119047Y37534762D01*
X26071428Y37510953D01*
X26666666Y37653810D02*
X26714285Y37653810D01*
X26761904Y37630000D01*
X26785714Y37606191D01*
X26809523Y37558572D01*
X26833333Y37463334D01*
X26833333Y37344286D01*
X26809523Y37249048D01*
X26785714Y37201429D01*
X26761904Y37177620D01*
X26714285Y37153810D01*
X26666666Y37153810D01*
X26619047Y37177620D01*
X26595238Y37201429D01*
X26571428Y37249048D01*
X26547619Y37344286D01*
X26547619Y37463334D01*
X26571428Y37558572D01*
X26595238Y37606191D01*
X26619047Y37630000D01*
X26666666Y37653810D01*
G04 #@! TO.C,L15*
X17578571Y27403810D02*
X17340476Y27403810D01*
X17340476Y27903810D01*
X18007142Y27403810D02*
X17721428Y27403810D01*
X17864285Y27403810D02*
X17864285Y27903810D01*
X17816666Y27832381D01*
X17769047Y27784762D01*
X17721428Y27760953D01*
X18459523Y27903810D02*
X18221428Y27903810D01*
X18197619Y27665715D01*
X18221428Y27689524D01*
X18269047Y27713334D01*
X18388095Y27713334D01*
X18435714Y27689524D01*
X18459523Y27665715D01*
X18483333Y27618096D01*
X18483333Y27499048D01*
X18459523Y27451429D01*
X18435714Y27427620D01*
X18388095Y27403810D01*
X18269047Y27403810D01*
X18221428Y27427620D01*
X18197619Y27451429D01*
G04 #@! TO.C,L16*
X20428571Y27453810D02*
X20190476Y27453810D01*
X20190476Y27953810D01*
X20857142Y27453810D02*
X20571428Y27453810D01*
X20714285Y27453810D02*
X20714285Y27953810D01*
X20666666Y27882381D01*
X20619047Y27834762D01*
X20571428Y27810953D01*
X21285714Y27953810D02*
X21190476Y27953810D01*
X21142857Y27930000D01*
X21119047Y27906191D01*
X21071428Y27834762D01*
X21047619Y27739524D01*
X21047619Y27549048D01*
X21071428Y27501429D01*
X21095238Y27477620D01*
X21142857Y27453810D01*
X21238095Y27453810D01*
X21285714Y27477620D01*
X21309523Y27501429D01*
X21333333Y27549048D01*
X21333333Y27668096D01*
X21309523Y27715715D01*
X21285714Y27739524D01*
X21238095Y27763334D01*
X21142857Y27763334D01*
X21095238Y27739524D01*
X21071428Y27715715D01*
X21047619Y27668096D01*
G04 #@! TO.C,L17*
X25778571Y28553810D02*
X25540476Y28553810D01*
X25540476Y29053810D01*
X26207142Y28553810D02*
X25921428Y28553810D01*
X26064285Y28553810D02*
X26064285Y29053810D01*
X26016666Y28982381D01*
X25969047Y28934762D01*
X25921428Y28910953D01*
X26373809Y29053810D02*
X26707142Y29053810D01*
X26492857Y28553810D01*
G04 #@! TO.C,C48*
X18328571Y38801429D02*
X18304761Y38777620D01*
X18233333Y38753810D01*
X18185714Y38753810D01*
X18114285Y38777620D01*
X18066666Y38825239D01*
X18042857Y38872858D01*
X18019047Y38968096D01*
X18019047Y39039524D01*
X18042857Y39134762D01*
X18066666Y39182381D01*
X18114285Y39230000D01*
X18185714Y39253810D01*
X18233333Y39253810D01*
X18304761Y39230000D01*
X18328571Y39206191D01*
X18757142Y39087143D02*
X18757142Y38753810D01*
X18638095Y39277620D02*
X18519047Y38920477D01*
X18828571Y38920477D01*
X19090476Y39039524D02*
X19042857Y39063334D01*
X19019047Y39087143D01*
X18995238Y39134762D01*
X18995238Y39158572D01*
X19019047Y39206191D01*
X19042857Y39230000D01*
X19090476Y39253810D01*
X19185714Y39253810D01*
X19233333Y39230000D01*
X19257142Y39206191D01*
X19280952Y39158572D01*
X19280952Y39134762D01*
X19257142Y39087143D01*
X19233333Y39063334D01*
X19185714Y39039524D01*
X19090476Y39039524D01*
X19042857Y39015715D01*
X19019047Y38991905D01*
X18995238Y38944286D01*
X18995238Y38849048D01*
X19019047Y38801429D01*
X19042857Y38777620D01*
X19090476Y38753810D01*
X19185714Y38753810D01*
X19233333Y38777620D01*
X19257142Y38801429D01*
X19280952Y38849048D01*
X19280952Y38944286D01*
X19257142Y38991905D01*
X19233333Y39015715D01*
X19185714Y39039524D01*
G04 #@! TO.C,J1*
X6926190Y57213334D02*
X7283333Y57213334D01*
X7354761Y57189524D01*
X7402380Y57141905D01*
X7426190Y57070477D01*
X7426190Y57022858D01*
X7426190Y57713334D02*
X7426190Y57427620D01*
X7426190Y57570477D02*
X6926190Y57570477D01*
X6997619Y57522858D01*
X7045238Y57475239D01*
X7069047Y57427620D01*
G04 #@! TO.C,C45*
X25508571Y38591429D02*
X25484761Y38567620D01*
X25413333Y38543810D01*
X25365714Y38543810D01*
X25294285Y38567620D01*
X25246666Y38615239D01*
X25222857Y38662858D01*
X25199047Y38758096D01*
X25199047Y38829524D01*
X25222857Y38924762D01*
X25246666Y38972381D01*
X25294285Y39020000D01*
X25365714Y39043810D01*
X25413333Y39043810D01*
X25484761Y39020000D01*
X25508571Y38996191D01*
X25937142Y38877143D02*
X25937142Y38543810D01*
X25818095Y39067620D02*
X25699047Y38710477D01*
X26008571Y38710477D01*
X26437142Y39043810D02*
X26199047Y39043810D01*
X26175238Y38805715D01*
X26199047Y38829524D01*
X26246666Y38853334D01*
X26365714Y38853334D01*
X26413333Y38829524D01*
X26437142Y38805715D01*
X26460952Y38758096D01*
X26460952Y38639048D01*
X26437142Y38591429D01*
X26413333Y38567620D01*
X26365714Y38543810D01*
X26246666Y38543810D01*
X26199047Y38567620D01*
X26175238Y38591429D01*
G04 #@! TO.C,U7*
X8319047Y27153810D02*
X8319047Y26749048D01*
X8342857Y26701429D01*
X8366666Y26677620D01*
X8414285Y26653810D01*
X8509523Y26653810D01*
X8557142Y26677620D01*
X8580952Y26701429D01*
X8604761Y26749048D01*
X8604761Y27153810D01*
X8795238Y27153810D02*
X9128571Y27153810D01*
X8914285Y26653810D01*
G04 #@! TO.C,U10*
X16080952Y48503810D02*
X16080952Y48099048D01*
X16104761Y48051429D01*
X16128571Y48027620D01*
X16176190Y48003810D01*
X16271428Y48003810D01*
X16319047Y48027620D01*
X16342857Y48051429D01*
X16366666Y48099048D01*
X16366666Y48503810D01*
X16866666Y48003810D02*
X16580952Y48003810D01*
X16723809Y48003810D02*
X16723809Y48503810D01*
X16676190Y48432381D01*
X16628571Y48384762D01*
X16580952Y48360953D01*
X17176190Y48503810D02*
X17223809Y48503810D01*
X17271428Y48480000D01*
X17295238Y48456191D01*
X17319047Y48408572D01*
X17342857Y48313334D01*
X17342857Y48194286D01*
X17319047Y48099048D01*
X17295238Y48051429D01*
X17271428Y48027620D01*
X17223809Y48003810D01*
X17176190Y48003810D01*
X17128571Y48027620D01*
X17104761Y48051429D01*
X17080952Y48099048D01*
X17057142Y48194286D01*
X17057142Y48313334D01*
X17080952Y48408572D01*
X17104761Y48456191D01*
X17128571Y48480000D01*
X17176190Y48503810D01*
G04 #@! TO.C,U11*
X16380952Y37853810D02*
X16380952Y37449048D01*
X16404761Y37401429D01*
X16428571Y37377620D01*
X16476190Y37353810D01*
X16571428Y37353810D01*
X16619047Y37377620D01*
X16642857Y37401429D01*
X16666666Y37449048D01*
X16666666Y37853810D01*
X17166666Y37353810D02*
X16880952Y37353810D01*
X17023809Y37353810D02*
X17023809Y37853810D01*
X16976190Y37782381D01*
X16928571Y37734762D01*
X16880952Y37710953D01*
X17642857Y37353810D02*
X17357142Y37353810D01*
X17500000Y37353810D02*
X17500000Y37853810D01*
X17452380Y37782381D01*
X17404761Y37734762D01*
X17357142Y37710953D01*
G04 #@! TD*
%LPC*%
D22*
G04 #@! TO.C,R36*
X43600000Y46280000D03*
X42700000Y46280000D03*
G04 #@! TD*
D23*
G04 #@! TO.C,J2*
X39600000Y-5220000D03*
X39600000Y-2420000D03*
D24*
X46800000Y-4320000D03*
X46800000Y-7120000D03*
D25*
X46800000Y5080000D03*
X42450000Y9180000D03*
D26*
X43200000Y-3220000D03*
X43200000Y3780000D03*
G04 #@! TD*
D27*
G04 #@! TO.C,U1*
X23349680Y7680640D03*
X22849300Y7680640D03*
X22348920Y7680640D03*
X23850060Y7680640D03*
D28*
X24599360Y8429940D03*
X24599360Y8930320D03*
X24599360Y9430700D03*
X24599360Y9931080D03*
X24599360Y10428920D03*
X24599360Y10929300D03*
X24599360Y11429680D03*
X24599360Y11930060D03*
D27*
X20349940Y12679360D03*
X23850060Y12679360D03*
X23349680Y12679360D03*
X22849300Y12679360D03*
X22348920Y12679360D03*
X21851080Y12679360D03*
X21350700Y12679360D03*
X20850320Y12679360D03*
D28*
X19600640Y11930060D03*
X19600640Y11429680D03*
X19600640Y10929300D03*
X19600640Y10428920D03*
X19600640Y9931080D03*
X19600640Y9430700D03*
X19600640Y8930320D03*
X19600640Y8429940D03*
D27*
X20349940Y7680640D03*
X20850320Y7680640D03*
X21350700Y7680640D03*
X21851080Y7680640D03*
D29*
X22100000Y10180000D03*
G04 #@! TD*
D30*
G04 #@! TO.C,U3*
X42510040Y18777940D03*
X43460000Y18777940D03*
X44409960Y18777940D03*
X44409960Y16182060D03*
X43460000Y16182060D03*
X42510040Y16182060D03*
G04 #@! TD*
D31*
G04 #@! TO.C,S1*
X41175000Y52730000D03*
X33225000Y52730000D03*
X33225000Y57230000D03*
X41175000Y57230000D03*
G04 #@! TD*
D32*
G04 #@! TO.C,P1*
X25480000Y1780000D03*
D33*
X22940000Y1780000D03*
X20400000Y1780000D03*
X17860000Y1780000D03*
X15320000Y1780000D03*
X12780000Y1780000D03*
X10240000Y1780000D03*
X7700000Y1780000D03*
X5160000Y1780000D03*
X2620000Y1780000D03*
G04 #@! TD*
D34*
G04 #@! TO.C,C20*
X36400000Y27980000D03*
X34900000Y27980000D03*
G04 #@! TD*
D35*
G04 #@! TO.C,U9*
X12648860Y28678340D03*
X14150000Y28678340D03*
X15651140Y28678340D03*
D36*
X14150000Y31629820D03*
D37*
X14150000Y29780700D03*
D11*
G36*
X15384545Y30280350D02*
X14717215Y29281050D01*
X13582785Y29281050D01*
X12915455Y30280350D01*
X15384545Y30280350D01*
X15384545Y30280350D01*
G37*
G04 #@! TD*
D38*
G04 #@! TO.C,C1*
X25060000Y5190000D03*
X26160000Y5190000D03*
G04 #@! TD*
G04 #@! TO.C,C2*
X25060000Y4040000D03*
X26160000Y4040000D03*
G04 #@! TD*
D39*
G04 #@! TO.C,C3*
X16500000Y8430000D03*
X16500000Y7330000D03*
G04 #@! TD*
G04 #@! TO.C,C4*
X15360000Y8430000D03*
X15360000Y7330000D03*
G04 #@! TD*
D38*
G04 #@! TO.C,C5*
X29100000Y8280000D03*
X30200000Y8280000D03*
G04 #@! TD*
G04 #@! TO.C,C6*
X29100000Y7280000D03*
X30200000Y7280000D03*
G04 #@! TD*
D39*
G04 #@! TO.C,C7*
X14190000Y8430000D03*
X14190000Y7330000D03*
G04 #@! TD*
G04 #@! TO.C,C8*
X12950000Y8430000D03*
X12950000Y7330000D03*
G04 #@! TD*
D38*
G04 #@! TO.C,C9*
X32000000Y9180000D03*
X33100000Y9180000D03*
G04 #@! TD*
G04 #@! TO.C,C10*
X29700000Y16380000D03*
X30800000Y16380000D03*
G04 #@! TD*
G04 #@! TO.C,C12*
X21820000Y15510000D03*
X22920000Y15510000D03*
G04 #@! TD*
G04 #@! TO.C,C13*
X21820000Y16460000D03*
X22920000Y16460000D03*
G04 #@! TD*
D39*
G04 #@! TO.C,C14*
X18320000Y12680000D03*
X18320000Y13780000D03*
G04 #@! TD*
G04 #@! TO.C,C15*
X17180000Y12680000D03*
X17180000Y13780000D03*
G04 #@! TD*
G04 #@! TO.C,C16*
X28750000Y-4220000D03*
X28750000Y-5320000D03*
G04 #@! TD*
D38*
G04 #@! TO.C,C17*
X17400000Y-6170000D03*
X16300000Y-6170000D03*
G04 #@! TD*
D40*
G04 #@! TO.C,C19*
X11610000Y52280000D03*
X11610000Y53780000D03*
G04 #@! TD*
D34*
G04 #@! TO.C,C23*
X15950000Y35030000D03*
X14450000Y35030000D03*
G04 #@! TD*
G04 #@! TO.C,C24*
X14950000Y36430000D03*
X13450000Y36430000D03*
G04 #@! TD*
G04 #@! TO.C,C25*
X15050000Y42530000D03*
X16550000Y42530000D03*
G04 #@! TD*
D38*
G04 #@! TO.C,C31*
X13850000Y46680000D03*
X12750000Y46680000D03*
G04 #@! TD*
D39*
G04 #@! TO.C,C35*
X13300000Y42280000D03*
X13300000Y43380000D03*
G04 #@! TD*
G04 #@! TO.C,C36*
X39950000Y32120000D03*
X39950000Y33220000D03*
G04 #@! TD*
G04 #@! TO.C,C37*
X21050000Y30980000D03*
X21050000Y32080000D03*
G04 #@! TD*
D38*
G04 #@! TO.C,C39*
X47100000Y15120000D03*
X46000000Y15120000D03*
G04 #@! TD*
D34*
G04 #@! TO.C,C40*
X41100000Y21780000D03*
X42600000Y21780000D03*
G04 #@! TD*
D38*
G04 #@! TO.C,C41*
X43700000Y23180000D03*
X42600000Y23180000D03*
G04 #@! TD*
G04 #@! TO.C,C43*
X37930000Y8450000D03*
X36830000Y8450000D03*
G04 #@! TD*
G04 #@! TO.C,C56*
X11250000Y39080000D03*
X10150000Y39080000D03*
G04 #@! TD*
G04 #@! TO.C,C59*
X7900000Y42580000D03*
X6800000Y42580000D03*
G04 #@! TD*
G04 #@! TO.C,C60*
X11250000Y42180000D03*
X10150000Y42180000D03*
G04 #@! TD*
D40*
G04 #@! TO.C,C94*
X35460000Y8000000D03*
X35460000Y6500000D03*
G04 #@! TD*
D22*
G04 #@! TO.C,R3*
X18500000Y8430000D03*
X17600000Y8430000D03*
G04 #@! TD*
D41*
G04 #@! TO.C,R12*
X41180000Y19690000D03*
X41180000Y18790000D03*
G04 #@! TD*
G04 #@! TO.C,R13*
X41100000Y16180000D03*
X41100000Y17080000D03*
G04 #@! TD*
D22*
G04 #@! TO.C,R23*
X44410000Y20260000D03*
X45310000Y20260000D03*
G04 #@! TD*
D41*
G04 #@! TO.C,R24*
X42600000Y24380000D03*
X42600000Y25280000D03*
G04 #@! TD*
G04 #@! TO.C,R27*
X46000000Y17080000D03*
X46000000Y16180000D03*
G04 #@! TD*
G04 #@! TO.C,R28*
X47430000Y17090000D03*
X47430000Y17990000D03*
G04 #@! TD*
G04 #@! TO.C,R31*
X36830000Y7410000D03*
X36830000Y6510000D03*
G04 #@! TD*
D22*
G04 #@! TO.C,R37*
X39600000Y46280000D03*
X38700000Y46280000D03*
G04 #@! TD*
D42*
G04 #@! TO.C,Q1*
X27200000Y-5170000D03*
X27200000Y-4220000D03*
X27200000Y-3270000D03*
X25000000Y-3270000D03*
X25000000Y-4220000D03*
X25000000Y-5170000D03*
G04 #@! TD*
D22*
G04 #@! TO.C,R4*
X25900000Y-6570000D03*
X25000000Y-6570000D03*
G04 #@! TD*
G04 #@! TO.C,R5*
X18600000Y41430000D03*
X17700000Y41430000D03*
G04 #@! TD*
D41*
G04 #@! TO.C,R6*
X42520000Y13850000D03*
X42520000Y14750000D03*
G04 #@! TD*
D22*
G04 #@! TO.C,R7*
X42500000Y20230000D03*
X43400000Y20230000D03*
G04 #@! TD*
D43*
G04 #@! TO.C,D1*
X20600000Y-3570000D03*
X20600000Y-4220000D03*
X20600000Y-4870000D03*
X22500000Y-4870000D03*
X22500000Y-4220000D03*
X22500000Y-3570000D03*
G04 #@! TD*
D39*
G04 #@! TO.C,C58*
X21050000Y42530000D03*
X21050000Y43630000D03*
G04 #@! TD*
D44*
G04 #@! TO.C,U12*
X17349960Y-4770240D03*
X17349960Y-4120000D03*
X17349960Y-3469760D03*
X15450040Y-3469760D03*
X15450040Y-4120000D03*
X15450040Y-4770240D03*
G04 #@! TD*
D34*
G04 #@! TO.C,C61*
X23600000Y45780000D03*
X22100000Y45780000D03*
G04 #@! TD*
G04 #@! TO.C,C67*
X9400000Y51130000D03*
X7900000Y51130000D03*
G04 #@! TD*
D40*
G04 #@! TO.C,C73*
X8200000Y12930000D03*
X8200000Y11430000D03*
G04 #@! TD*
G04 #@! TO.C,L18*
X7950000Y36930000D03*
X7950000Y35430000D03*
G04 #@! TD*
G04 #@! TO.C,L19*
X11300000Y37980000D03*
X11300000Y36480000D03*
G04 #@! TD*
G04 #@! TO.C,L21*
X7950000Y41080000D03*
X7950000Y39580000D03*
G04 #@! TD*
G04 #@! TO.C,L24*
X7900000Y45530000D03*
X7900000Y44030000D03*
G04 #@! TD*
G04 #@! TO.C,L27*
X7900000Y49780000D03*
X7900000Y48280000D03*
G04 #@! TD*
G04 #@! TO.C,L28*
X10150000Y46780000D03*
X10150000Y45280000D03*
G04 #@! TD*
D39*
G04 #@! TO.C,C30*
X19950000Y30980000D03*
X19950000Y32080000D03*
G04 #@! TD*
G04 #@! TO.C,C46*
X20700000Y40080000D03*
X20700000Y38980000D03*
G04 #@! TD*
G04 #@! TO.C,C51*
X22150000Y30980000D03*
X22150000Y32080000D03*
G04 #@! TD*
D38*
G04 #@! TO.C,C53*
X7950000Y38180000D03*
X6850000Y38180000D03*
G04 #@! TD*
G04 #@! TO.C,C62*
X7900000Y46880000D03*
X6800000Y46880000D03*
G04 #@! TD*
G04 #@! TO.C,C63*
X10150000Y44180000D03*
X11250000Y44180000D03*
G04 #@! TD*
G04 #@! TO.C,C66*
X21650000Y48530000D03*
X20550000Y48530000D03*
G04 #@! TD*
D40*
G04 #@! TO.C,C68*
X10150000Y49430000D03*
X10150000Y47930000D03*
G04 #@! TD*
D34*
G04 #@! TO.C,C70*
X17350000Y49780000D03*
X18850000Y49780000D03*
G04 #@! TD*
G04 #@! TO.C,C71*
X12950000Y11430000D03*
X14450000Y11430000D03*
G04 #@! TD*
D38*
G04 #@! TO.C,C72*
X24900000Y29880000D03*
X26000000Y29880000D03*
G04 #@! TD*
G04 #@! TO.C,C75*
X6850000Y8680000D03*
X5750000Y8680000D03*
G04 #@! TD*
D39*
G04 #@! TO.C,C76*
X9850000Y8680000D03*
X9850000Y7580000D03*
G04 #@! TD*
G04 #@! TO.C,L22*
X11250000Y41180000D03*
X11250000Y40080000D03*
G04 #@! TD*
D45*
G04 #@! TO.C,L23*
X23600000Y44530000D03*
X23600000Y42530000D03*
G04 #@! TD*
D38*
G04 #@! TO.C,L25*
X10150000Y43180000D03*
X11250000Y43180000D03*
G04 #@! TD*
D46*
G04 #@! TO.C,L26*
X21600000Y47280000D03*
X23600000Y47280000D03*
G04 #@! TD*
D38*
G04 #@! TO.C,C74*
X11050000Y9880000D03*
X9950000Y9880000D03*
G04 #@! TD*
D22*
G04 #@! TO.C,R8*
X7900000Y8680000D03*
X8800000Y8680000D03*
G04 #@! TD*
D47*
G04 #@! TO.C,FD1*
X51960000Y-6190000D03*
G04 #@! TD*
G04 #@! TO.C,FD2*
X2050000Y58160000D03*
G04 #@! TD*
D48*
G04 #@! TO.C,C11*
X25200000Y18790000D03*
X25200000Y15870000D03*
G04 #@! TD*
D49*
G04 #@! TO.C,U4*
X11450000Y10930000D03*
X11450000Y11430000D03*
X11450000Y11930000D03*
X11450000Y12430000D03*
X9550000Y12430000D03*
X9550000Y11930000D03*
X9550000Y11430000D03*
X9550000Y10930000D03*
D50*
X10500000Y12120000D03*
X10500000Y11240000D03*
G04 #@! TD*
D40*
G04 #@! TO.C,C77*
X27700000Y46680000D03*
X27700000Y48180000D03*
G04 #@! TD*
D34*
G04 #@! TO.C,L30*
X27700000Y49680000D03*
X29200000Y49680000D03*
G04 #@! TD*
G04 #@! TO.C,L31*
X27700000Y45080000D03*
X29200000Y45080000D03*
G04 #@! TD*
G04 #@! TO.C,L32*
X15350000Y52280000D03*
X13850000Y52280000D03*
G04 #@! TD*
G04 #@! TO.C,L33*
X9700000Y14980000D03*
X8200000Y14980000D03*
G04 #@! TD*
D22*
G04 #@! TO.C,R9*
X12910000Y53780000D03*
X13810000Y53780000D03*
G04 #@! TD*
D39*
G04 #@! TO.C,C28*
X45560000Y32720000D03*
X45560000Y31620000D03*
G04 #@! TD*
D38*
G04 #@! TO.C,C29*
X44480000Y28230000D03*
X43380000Y28230000D03*
G04 #@! TD*
D51*
G04 #@! TO.C,C79*
X33440000Y30330000D03*
X36360000Y30330000D03*
G04 #@! TD*
D22*
G04 #@! TO.C,R10*
X43380000Y29470000D03*
X44280000Y29470000D03*
G04 #@! TD*
G04 #@! TO.C,R11*
X44280000Y30810000D03*
X43380000Y30810000D03*
G04 #@! TD*
D45*
G04 #@! TO.C,C18*
X46360000Y36810000D03*
X46360000Y38810000D03*
G04 #@! TD*
G04 #@! TO.C,C21*
X44280000Y36810000D03*
X44280000Y38810000D03*
G04 #@! TD*
D46*
G04 #@! TO.C,C78*
X34400000Y33080000D03*
X36400000Y33080000D03*
G04 #@! TD*
D52*
G04 #@! TO.C,L2*
X39950000Y36480000D03*
X36350000Y36480000D03*
G04 #@! TD*
D45*
G04 #@! TO.C,C22*
X32650000Y26330000D03*
X32650000Y24330000D03*
G04 #@! TD*
D40*
G04 #@! TO.C,L3*
X6850000Y11430000D03*
X6850000Y9930000D03*
G04 #@! TD*
D34*
G04 #@! TO.C,L20*
X19900000Y42530000D03*
X18400000Y42530000D03*
G04 #@! TD*
G04 #@! TO.C,L29*
X20100000Y49780000D03*
X21600000Y49780000D03*
G04 #@! TD*
D46*
G04 #@! TO.C,C80*
X31100000Y5830000D03*
X29100000Y5830000D03*
G04 #@! TD*
G04 #@! TO.C,C81*
X23000000Y-1570000D03*
X25000000Y-1570000D03*
G04 #@! TD*
D53*
G04 #@! TO.C,U2*
X44280000Y32220000D03*
X44280000Y32720000D03*
X44280000Y33220000D03*
X44280000Y33720000D03*
X41380000Y33720000D03*
X41380000Y33220000D03*
X41380000Y32720000D03*
X41380000Y32220000D03*
D54*
X42392500Y33332500D03*
X42392500Y32607500D03*
X43267500Y33332500D03*
X43267500Y32607500D03*
G04 #@! TD*
D34*
G04 #@! TO.C,C301*
X16850000Y11430000D03*
X18350000Y11430000D03*
G04 #@! TD*
D40*
G04 #@! TO.C,L301*
X15650000Y9930000D03*
X15650000Y11430000D03*
G04 #@! TD*
D22*
G04 #@! TO.C,R1*
X36550000Y41280000D03*
X35650000Y41280000D03*
G04 #@! TD*
D41*
G04 #@! TO.C,R2*
X27875000Y12530000D03*
X27875000Y13430000D03*
G04 #@! TD*
D22*
G04 #@! TO.C,R14*
X40550000Y41280000D03*
X39650000Y41280000D03*
G04 #@! TD*
G04 #@! TO.C,R15*
X44550000Y41280000D03*
X43650000Y41280000D03*
G04 #@! TD*
G04 #@! TO.C,R16*
X35600000Y46280000D03*
X34700000Y46280000D03*
G04 #@! TD*
D41*
G04 #@! TO.C,R17*
X26750000Y12530000D03*
X26750000Y13430000D03*
G04 #@! TD*
D55*
G04 #@! TO.C,D2*
X10600000Y-6070000D03*
X10600000Y-4370000D03*
G04 #@! TD*
G04 #@! TO.C,D3*
X7100000Y-6070000D03*
X7100000Y-4370000D03*
G04 #@! TD*
D41*
G04 #@! TO.C,R20*
X10600000Y-1770000D03*
X10600000Y-2670000D03*
G04 #@! TD*
G04 #@! TO.C,R22*
X7100000Y-1770000D03*
X7100000Y-2670000D03*
G04 #@! TD*
D34*
G04 #@! TO.C,C33*
X14150000Y22580000D03*
X12650000Y22580000D03*
G04 #@! TD*
D38*
G04 #@! TO.C,C38*
X24900000Y36180000D03*
X26000000Y36180000D03*
G04 #@! TD*
D39*
G04 #@! TO.C,L4*
X15650000Y17730000D03*
X15650000Y18830000D03*
G04 #@! TD*
G04 #@! TO.C,L6*
X24900000Y32080000D03*
X24900000Y30980000D03*
G04 #@! TD*
G04 #@! TO.C,L11*
X12650000Y26080000D03*
X12650000Y27180000D03*
G04 #@! TD*
D34*
G04 #@! TO.C,L12*
X21900000Y40080000D03*
X23400000Y40080000D03*
G04 #@! TD*
D39*
G04 #@! TO.C,C26*
X10950000Y17730000D03*
X10950000Y16630000D03*
G04 #@! TD*
D38*
G04 #@! TO.C,C32*
X15650000Y20080000D03*
X16750000Y20080000D03*
G04 #@! TD*
D56*
G04 #@! TO.C,JP3*
X35470000Y4165000D03*
D57*
X35470000Y1625000D03*
X35470000Y-915000D03*
X35470000Y-3455000D03*
G04 #@! TD*
D58*
G04 #@! TO.C,Q5*
X34650000Y42780000D03*
X36550000Y42780000D03*
X35600000Y44780000D03*
G04 #@! TD*
G04 #@! TO.C,Q6*
X38650000Y42780000D03*
X40550000Y42780000D03*
X39600000Y44780000D03*
G04 #@! TD*
G04 #@! TO.C,Q7*
X42650000Y42780000D03*
X44550000Y42780000D03*
X43600000Y44780000D03*
G04 #@! TD*
D59*
G04 #@! TO.C,U6*
X34400000Y26230000D03*
X34400000Y24330000D03*
X36400000Y25280000D03*
G04 #@! TD*
D60*
G04 #@! TO.C,Y1*
X31998080Y10880880D03*
X31998080Y14579120D03*
X29701920Y14579120D03*
X29701920Y10880880D03*
G04 #@! TD*
D39*
G04 #@! TO.C,C27*
X14650000Y17730000D03*
X14650000Y16630000D03*
G04 #@! TD*
D38*
G04 #@! TO.C,C34*
X24900000Y33080000D03*
X26000000Y33080000D03*
G04 #@! TD*
D40*
G04 #@! TO.C,C42*
X46390000Y20460000D03*
X46390000Y18960000D03*
G04 #@! TD*
D38*
G04 #@! TO.C,C44*
X12650000Y24980000D03*
X11550000Y24980000D03*
G04 #@! TD*
D34*
G04 #@! TO.C,C47*
X41020000Y12680000D03*
X42520000Y12680000D03*
G04 #@! TD*
D38*
G04 #@! TO.C,C49*
X8200000Y16330000D03*
X9300000Y16330000D03*
G04 #@! TD*
D39*
G04 #@! TO.C,C69*
X22700000Y28780000D03*
X22700000Y27680000D03*
G04 #@! TD*
D48*
G04 #@! TO.C,C93*
X38680000Y14190000D03*
X38680000Y17110000D03*
G04 #@! TD*
D34*
G04 #@! TO.C,L1*
X12050000Y17730000D03*
X13550000Y17730000D03*
G04 #@! TD*
G04 #@! TO.C,L5*
X15650000Y21330000D03*
X14150000Y21330000D03*
G04 #@! TD*
G04 #@! TO.C,L7*
X14150000Y23830000D03*
X12650000Y23830000D03*
G04 #@! TD*
D39*
G04 #@! TO.C,L8*
X24900000Y35180000D03*
X24900000Y34080000D03*
G04 #@! TD*
D34*
G04 #@! TO.C,L9*
X8200000Y17730000D03*
X9700000Y17730000D03*
G04 #@! TD*
G04 #@! TO.C,L10*
X23400000Y37380000D03*
X24900000Y37380000D03*
G04 #@! TD*
D61*
G04 #@! TO.C,L15*
X17900000Y28780000D03*
X17900000Y30980000D03*
G04 #@! TD*
D34*
G04 #@! TO.C,L16*
X21450000Y28780000D03*
X19950000Y28780000D03*
G04 #@! TD*
D38*
G04 #@! TO.C,L17*
X24900000Y28780000D03*
X23800000Y28780000D03*
G04 #@! TD*
D47*
G04 #@! TO.C,FD3*
X2050000Y-6190000D03*
G04 #@! TD*
D34*
G04 #@! TO.C,C48*
X19400000Y40080000D03*
X17900000Y40080000D03*
G04 #@! TD*
D62*
G04 #@! TO.C,U5*
X50830000Y26680000D03*
X50830000Y29220000D03*
X50830000Y41920000D03*
X50830000Y44460000D03*
X50830000Y47000000D03*
X50830000Y49540000D03*
X50830000Y52080000D03*
X50830000Y54620000D03*
X2570000Y15250000D03*
X2570000Y49540000D03*
X2570000Y47000000D03*
X2570000Y44460000D03*
X2570000Y41920000D03*
X2570000Y39380000D03*
X2570000Y36840000D03*
X2570000Y33030000D03*
X2570000Y30490000D03*
X2570000Y27950000D03*
X2570000Y25410000D03*
X2570000Y22870000D03*
X2570000Y20330000D03*
X50830000Y31760000D03*
X50830000Y34300000D03*
X2570000Y17790000D03*
X50830000Y24140000D03*
X2570000Y54620000D03*
X2570000Y52080000D03*
X50830000Y36840000D03*
D63*
X2570000Y6360000D03*
X45755000Y57165000D03*
X17815000Y57160000D03*
X50830000Y5095000D03*
D62*
X2570000Y12710000D03*
X2570000Y10170000D03*
X50830000Y21600000D03*
X50830000Y19060000D03*
G04 #@! TD*
D64*
G04 #@! TO.C,J1*
X8838000Y57240000D03*
X14362000Y57240000D03*
D65*
X11600000Y57240000D03*
G04 #@! TD*
D38*
G04 #@! TO.C,C45*
X23400000Y38760000D03*
X24500000Y38760000D03*
G04 #@! TD*
D66*
G04 #@! TO.C,U7*
X6950000Y29730000D03*
X8250000Y29730000D03*
X7600000Y27830000D03*
X8250000Y27830000D03*
X6950000Y27830000D03*
G04 #@! TD*
D67*
G04 #@! TO.C,U10*
X13350000Y48205000D03*
X13850000Y48205000D03*
X14350000Y48205000D03*
X14850000Y48205000D03*
D68*
X15575000Y48930000D03*
X15575000Y49430000D03*
X15575000Y49930000D03*
X15575000Y50430000D03*
D67*
X14850000Y51155000D03*
X14350000Y51155000D03*
X13850000Y51155000D03*
X13350000Y51155000D03*
D68*
X12625000Y50430000D03*
X12625000Y49930000D03*
X12625000Y49430000D03*
X12625000Y48930000D03*
D69*
X14550000Y50130000D03*
X13650000Y50130000D03*
X14550000Y49230000D03*
X13650000Y49230000D03*
G04 #@! TD*
G04 #@! TO.C,U11*
X14750000Y40230000D03*
X14750000Y39330000D03*
X15650000Y40230000D03*
X15650000Y39330000D03*
D67*
X14450000Y41255000D03*
X14950000Y41255000D03*
X15450000Y41255000D03*
X15950000Y41255000D03*
D68*
X16675000Y40530000D03*
X16675000Y40030000D03*
X16675000Y39530000D03*
X16675000Y39030000D03*
D67*
X15950000Y38305000D03*
X15450000Y38305000D03*
X14950000Y38305000D03*
X14450000Y38305000D03*
D68*
X13725000Y39030000D03*
X13725000Y39530000D03*
X13725000Y40030000D03*
X13725000Y40530000D03*
G04 #@! TD*
M02*
