G04 #@! TF.GenerationSoftware,KiCad,Pcbnew,(5.0.0)*
G04 #@! TF.CreationDate,2018-12-02T13:03:49-08:00*
G04 #@! TF.ProjectId,HamShield1.1,48616D536869656C64312E312E6B6963,rev?*
G04 #@! TF.SameCoordinates,PX581e980PY882a660*
G04 #@! TF.FileFunction,Copper,L2,Inr,Signal*
G04 #@! TF.FilePolarity,Positive*
%FSLAX46Y46*%
G04 Gerber Fmt 4.6, Leading zero omitted, Abs format (unit mm)*
G04 Created by KiCad (PCBNEW (5.0.0)) date 12/02/18 13:03:49*
%MOMM*%
%LPD*%
G01*
G04 APERTURE LIST*
G04 #@! TA.AperFunction,ViaPad*
%ADD10C,0.838200*%
G04 #@! TD*
G04 #@! TA.AperFunction,ViaPad*
%ADD11R,1.727200X2.032000*%
G04 #@! TD*
G04 #@! TA.AperFunction,ViaPad*
%ADD12O,1.727200X2.032000*%
G04 #@! TD*
G04 #@! TA.AperFunction,ViaPad*
%ADD13R,1.700000X1.700000*%
G04 #@! TD*
G04 #@! TA.AperFunction,ViaPad*
%ADD14O,1.700000X1.700000*%
G04 #@! TD*
G04 #@! TA.AperFunction,ViaPad*
%ADD15C,1.879600*%
G04 #@! TD*
G04 #@! TA.AperFunction,ViaPad*
%ADD16C,0.558800*%
G04 #@! TD*
G04 #@! TA.AperFunction,ViaPad*
%ADD17C,0.750000*%
G04 #@! TD*
G04 #@! TA.AperFunction,Conductor*
%ADD18C,0.175260*%
G04 #@! TD*
G04 #@! TA.AperFunction,Conductor*
%ADD19C,0.203200*%
G04 #@! TD*
G04 #@! TA.AperFunction,Conductor*
%ADD20C,0.200000*%
G04 #@! TD*
G04 APERTURE END LIST*
D10*
G04 #@! TO.N,GND*
G04 #@! TO.C,REF\002A\002A*
X27650000Y-6370000D03*
G04 #@! TD*
G04 #@! TO.N,GND*
G04 #@! TO.C,REF\002A\002A*
X16150000Y-2720000D03*
G04 #@! TD*
G04 #@! TO.N,GND*
G04 #@! TO.C,REF\002A\002A*
X13050000Y-2720000D03*
G04 #@! TD*
G04 #@! TO.N,GND*
G04 #@! TO.C,REF\002A\002A*
X22850000Y20430000D03*
G04 #@! TD*
G04 #@! TO.N,GND*
G04 #@! TO.C,REF\002A\002A*
X31850000Y22680000D03*
G04 #@! TD*
G04 #@! TO.N,GND*
G04 #@! TO.C,REF\002A\002A*
X34700000Y22730000D03*
G04 #@! TD*
G04 #@! TO.N,GND*
G04 #@! TO.C,REF\002A\002A*
X50850000Y39280000D03*
G04 #@! TD*
G04 #@! TO.N,GND*
G04 #@! TO.C,REF\002A\002A*
X46450000Y45830000D03*
G04 #@! TD*
G04 #@! TO.N,GND*
G04 #@! TO.C,REF\002A\002A*
X41300000Y45930000D03*
G04 #@! TD*
G04 #@! TO.N,GND*
G04 #@! TO.C,REF\002A\002A*
X37400000Y45980000D03*
G04 #@! TD*
G04 #@! TO.N,GND*
G04 #@! TO.C,REF\002A\002A*
X45700000Y51180000D03*
G04 #@! TD*
G04 #@! TO.N,GND*
G04 #@! TO.C,REF\002A\002A*
X45700000Y54180000D03*
G04 #@! TD*
G04 #@! TO.N,GND*
G04 #@! TO.C,REF\002A\002A*
X38400000Y50380000D03*
G04 #@! TD*
G04 #@! TO.N,GND*
G04 #@! TO.C,REF\002A\002A*
X43400000Y50380000D03*
G04 #@! TD*
G04 #@! TO.N,GND*
G04 #@! TO.C,REF\002A\002A*
X38300000Y-7170000D03*
G04 #@! TD*
G04 #@! TO.N,GND*
G04 #@! TO.C,REF\002A\002A*
X43100000Y-7220000D03*
G04 #@! TD*
G04 #@! TO.N,GND*
G04 #@! TO.C,REF\002A\002A*
X35600000Y-6320000D03*
G04 #@! TD*
G04 #@! TO.N,GND*
G04 #@! TO.C,REF\002A\002A*
X22800000Y41280000D03*
G04 #@! TD*
G04 #@! TO.N,GND*
G04 #@! TO.C,REF\002A\002A*
X20700000Y41330000D03*
G04 #@! TD*
G04 #@! TO.N,GND*
G04 #@! TO.C,REF\002A\002A*
X21450000Y36780000D03*
G04 #@! TD*
G04 #@! TO.N,GND*
G04 #@! TO.C,REF\002A\002A*
X23750000Y35680000D03*
G04 #@! TD*
G04 #@! TO.N,GND*
G04 #@! TO.C,REF\002A\002A*
X22000000Y38580000D03*
G04 #@! TD*
G04 #@! TO.N,GND*
G04 #@! TO.C,REF\002A\002A*
X19600000Y38830000D03*
G04 #@! TD*
G04 #@! TO.N,GND*
G04 #@! TO.C,REF\002A\002A*
X21200000Y34130000D03*
G04 #@! TD*
G04 #@! TO.N,GND*
G04 #@! TO.C,REF\002A\002A*
X19900000Y35330000D03*
G04 #@! TD*
G04 #@! TO.N,GND*
G04 #@! TO.C,REF\002A\002A*
X18400000Y34280000D03*
G04 #@! TD*
G04 #@! TO.N,GND*
G04 #@! TO.C,REF\002A\002A*
X18400000Y36680000D03*
G04 #@! TD*
G04 #@! TO.N,GND*
G04 #@! TO.C,REF\002A\002A*
X23700000Y33630000D03*
G04 #@! TD*
G04 #@! TO.N,GND*
G04 #@! TO.C,REF\002A\002A*
X23400000Y32280000D03*
G04 #@! TD*
G04 #@! TO.N,GND*
G04 #@! TO.C,REF\002A\002A*
X18900000Y32630000D03*
G04 #@! TD*
G04 #@! TO.N,GND*
G04 #@! TO.C,REF\002A\002A*
X17700000Y32580000D03*
G04 #@! TD*
G04 #@! TO.N,GND*
G04 #@! TO.C,REF\002A\002A*
X22200000Y29930000D03*
G04 #@! TD*
G04 #@! TO.N,GND*
G04 #@! TO.C,REF\002A\002A*
X20000000Y29930000D03*
G04 #@! TD*
G04 #@! TO.N,GND*
G04 #@! TO.C,REF\002A\002A*
X14150000Y28380000D03*
G04 #@! TD*
G04 #@! TO.N,GND*
G04 #@! TO.C,REF\002A\002A*
X14150000Y29830000D03*
G04 #@! TD*
G04 #@! TO.N,GND*
G04 #@! TO.C,REF\002A\002A*
X14150000Y31480000D03*
G04 #@! TD*
G04 #@! TO.N,GND*
G04 #@! TO.C,REF\002A\002A*
X14200000Y33530000D03*
G04 #@! TD*
G04 #@! TO.N,GND*
G04 #@! TO.C,REF\002A\002A*
X16050000Y31480000D03*
G04 #@! TD*
G04 #@! TO.N,GND*
G04 #@! TO.C,REF\002A\002A*
X12300000Y31480000D03*
G04 #@! TD*
G04 #@! TO.N,GND*
G04 #@! TO.C,REF\002A\002A*
X16050000Y33480000D03*
G04 #@! TD*
G04 #@! TO.N,GND*
G04 #@! TO.C,REF\002A\002A*
X12300000Y33480000D03*
G04 #@! TD*
G04 #@! TO.N,GND*
G04 #@! TO.C,REF\002A\002A*
X19550000Y20480000D03*
G04 #@! TD*
G04 #@! TO.N,GND*
G04 #@! TO.C,REF\002A\002A*
X24800000Y20730000D03*
G04 #@! TD*
G04 #@! TO.N,GND*
G04 #@! TO.C,REF\002A\002A*
X27300000Y22230000D03*
G04 #@! TD*
G04 #@! TO.N,GND*
G04 #@! TO.C,REF\002A\002A*
X29800000Y24730000D03*
G04 #@! TD*
G04 #@! TO.N,GND*
G04 #@! TO.C,REF\002A\002A*
X31050000Y3980000D03*
G04 #@! TD*
G04 #@! TO.N,GND*
G04 #@! TO.C,REF\002A\002A*
X36300000Y10730000D03*
G04 #@! TD*
G04 #@! TO.N,GND*
G04 #@! TO.C,REF\002A\002A*
X45300000Y13730000D03*
G04 #@! TD*
G04 #@! TO.N,GND*
G04 #@! TO.C,REF\002A\002A*
X48800000Y11230000D03*
G04 #@! TD*
G04 #@! TO.N,GND*
G04 #@! TO.C,REF\002A\002A*
X48800000Y8230000D03*
G04 #@! TD*
G04 #@! TO.N,GND*
G04 #@! TO.C,REF\002A\002A*
X42050000Y37230000D03*
G04 #@! TD*
G04 #@! TO.N,GND*
G04 #@! TO.C,REF\002A\002A*
X45300000Y39980000D03*
G04 #@! TD*
G04 #@! TO.N,GND*
G04 #@! TO.C,REF\002A\002A*
X42300000Y35480000D03*
G04 #@! TD*
G04 #@! TO.N,GND*
G04 #@! TO.C,REF\002A\002A*
X40800000Y29480000D03*
G04 #@! TD*
G04 #@! TO.N,GND*
G04 #@! TO.C,REF\002A\002A*
X43300000Y26480000D03*
G04 #@! TD*
G04 #@! TO.N,GND*
G04 #@! TO.C,REF\002A\002A*
X40550000Y26480000D03*
G04 #@! TD*
G04 #@! TO.N,GND*
G04 #@! TO.C,REF\002A\002A*
X37800000Y26480000D03*
G04 #@! TD*
G04 #@! TO.N,GND*
G04 #@! TO.C,REF\002A\002A*
X32300000Y32480000D03*
G04 #@! TD*
G04 #@! TO.N,GND*
G04 #@! TO.C,REF\002A\002A*
X32800000Y27980000D03*
G04 #@! TD*
G04 #@! TO.N,GND*
G04 #@! TO.C,REF\002A\002A*
X34300000Y34980000D03*
G04 #@! TD*
G04 #@! TO.N,GND*
G04 #@! TO.C,REF\002A\002A*
X38550000Y33230000D03*
G04 #@! TD*
G04 #@! TO.N,GND*
G04 #@! TO.C,REF\002A\002A*
X38550000Y30230000D03*
G04 #@! TD*
G04 #@! TO.N,GND*
G04 #@! TO.C,REF\002A\002A*
X38300000Y37980000D03*
G04 #@! TD*
G04 #@! TO.N,GND*
G04 #@! TO.C,REF\002A\002A*
X38300000Y34980000D03*
G04 #@! TD*
G04 #@! TO.N,GND*
G04 #@! TO.C,REF\002A\002A*
X32300000Y35980000D03*
G04 #@! TD*
G04 #@! TO.N,GND*
G04 #@! TO.C,REF\002A\002A*
X31300000Y39980000D03*
G04 #@! TD*
G04 #@! TO.N,GND*
G04 #@! TO.C,REF\002A\002A*
X33300000Y41230000D03*
G04 #@! TD*
G04 #@! TO.N,GND*
G04 #@! TO.C,REF\002A\002A*
X33300000Y38230000D03*
G04 #@! TD*
G04 #@! TO.N,GND*
G04 #@! TO.C,REF\002A\002A*
X26350000Y48780000D03*
G04 #@! TD*
G04 #@! TO.N,GND*
G04 #@! TO.C,REF\002A\002A*
X26350000Y46030000D03*
G04 #@! TD*
G04 #@! TO.N,GND*
G04 #@! TO.C,REF\002A\002A*
X26600000Y42530000D03*
G04 #@! TD*
G04 #@! TO.N,GND*
G04 #@! TO.C,REF\002A\002A*
X29050000Y40230000D03*
G04 #@! TD*
G04 #@! TO.N,GND*
G04 #@! TO.C,REF\002A\002A*
X32050000Y44230000D03*
G04 #@! TD*
G04 #@! TO.N,GND*
G04 #@! TO.C,REF\002A\002A*
X32050000Y47230000D03*
G04 #@! TD*
G04 #@! TO.N,GND*
G04 #@! TO.C,REF\002A\002A*
X32050000Y49730000D03*
G04 #@! TD*
G04 #@! TO.N,GND*
G04 #@! TO.C,REF\002A\002A*
X26850000Y39530000D03*
G04 #@! TD*
G04 #@! TO.N,GND*
G04 #@! TO.C,REF\002A\002A*
X28800000Y37730000D03*
G04 #@! TD*
G04 #@! TO.N,GND*
G04 #@! TO.C,REF\002A\002A*
X26800000Y30830000D03*
G04 #@! TD*
G04 #@! TO.N,GND*
G04 #@! TO.C,REF\002A\002A*
X26850000Y37030000D03*
G04 #@! TD*
G04 #@! TO.N,GND*
G04 #@! TO.C,REF\002A\002A*
X26800000Y32330000D03*
G04 #@! TD*
G04 #@! TO.N,GND*
G04 #@! TO.C,REF\002A\002A*
X28800000Y32980000D03*
G04 #@! TD*
G04 #@! TO.N,GND*
G04 #@! TO.C,REF\002A\002A*
X28800000Y35980000D03*
G04 #@! TD*
G04 #@! TO.N,GND*
G04 #@! TO.C,REF\002A\002A*
X28800000Y30480000D03*
G04 #@! TD*
G04 #@! TO.N,GND*
G04 #@! TO.C,REF\002A\002A*
X28800000Y27480000D03*
G04 #@! TD*
G04 #@! TO.N,GND*
G04 #@! TO.C,REF\002A\002A*
X24300000Y25980000D03*
G04 #@! TD*
G04 #@! TO.N,GND*
G04 #@! TO.C,REF\002A\002A*
X26550000Y27980000D03*
G04 #@! TD*
G04 #@! TO.N,GND*
G04 #@! TO.C,REF\002A\002A*
X26800000Y25230000D03*
G04 #@! TD*
G04 #@! TO.N,GND*
G04 #@! TO.C,REF\002A\002A*
X24550000Y23230000D03*
G04 #@! TD*
G04 #@! TO.N,GND*
G04 #@! TO.C,REF\002A\002A*
X22050000Y26230000D03*
G04 #@! TD*
G04 #@! TO.N,GND*
G04 #@! TO.C,REF\002A\002A*
X22050000Y24230000D03*
G04 #@! TD*
G04 #@! TO.N,GND*
G04 #@! TO.C,REF\002A\002A*
X19800000Y17230000D03*
G04 #@! TD*
G04 #@! TO.N,GND*
G04 #@! TO.C,REF\002A\002A*
X21800000Y18230000D03*
G04 #@! TD*
G04 #@! TO.N,GND*
G04 #@! TO.C,REF\002A\002A*
X19300000Y15230000D03*
G04 #@! TD*
G04 #@! TO.N,GND*
G04 #@! TO.C,REF\002A\002A*
X15800000Y16730000D03*
G04 #@! TD*
G04 #@! TO.N,GND*
G04 #@! TO.C,REF\002A\002A*
X16000000Y13730000D03*
G04 #@! TD*
G04 #@! TO.N,GND*
G04 #@! TO.C,REF\002A\002A*
X16800000Y9730000D03*
G04 #@! TD*
G04 #@! TO.N,GND*
G04 #@! TO.C,REF\002A\002A*
X16300000Y6230000D03*
G04 #@! TD*
G04 #@! TO.N,GND*
G04 #@! TO.C,REF\002A\002A*
X17800000Y7230000D03*
G04 #@! TD*
G04 #@! TO.N,GND*
G04 #@! TO.C,REF\002A\002A*
X8800000Y-270000D03*
G04 #@! TD*
G04 #@! TO.N,GND*
G04 #@! TO.C,REF\002A\002A*
X21800000Y230000D03*
G04 #@! TD*
G04 #@! TO.N,GND*
G04 #@! TO.C,REF\002A\002A*
X16300000Y230000D03*
G04 #@! TD*
G04 #@! TO.N,GND*
G04 #@! TO.C,REF\002A\002A*
X26800000Y6730000D03*
G04 #@! TD*
G04 #@! TO.N,GND*
G04 #@! TO.C,REF\002A\002A*
X29800000Y2230000D03*
G04 #@! TD*
G04 #@! TO.N,GND*
G04 #@! TO.C,REF\002A\002A*
X31300000Y730000D03*
G04 #@! TD*
G04 #@! TO.N,GND*
G04 #@! TO.C,REF\002A\002A*
X27500000Y4730000D03*
G04 #@! TD*
G04 #@! TO.N,GND*
G04 #@! TO.C,REF\002A\002A*
X33300000Y11730000D03*
G04 #@! TD*
G04 #@! TO.N,GND*
G04 #@! TO.C,REF\002A\002A*
X36300000Y14230000D03*
G04 #@! TD*
G04 #@! TO.N,GND*
G04 #@! TO.C,REF\002A\002A*
X36300000Y17230000D03*
G04 #@! TD*
G04 #@! TO.N,GND*
G04 #@! TO.C,REF\002A\002A*
X38750000Y19730000D03*
G04 #@! TD*
G04 #@! TO.N,GND*
G04 #@! TO.C,REF\002A\002A*
X36300000Y20230000D03*
G04 #@! TD*
G04 #@! TO.N,GND*
G04 #@! TO.C,REF\002A\002A*
X41300000Y23730000D03*
G04 #@! TD*
G04 #@! TO.N,GND*
G04 #@! TO.C,REF\002A\002A*
X38800000Y23730000D03*
G04 #@! TD*
G04 #@! TO.N,GND*
G04 #@! TO.C,REF\002A\002A*
X29300000Y17730000D03*
G04 #@! TD*
G04 #@! TO.N,GND*
G04 #@! TO.C,REF\002A\002A*
X29300000Y20730000D03*
G04 #@! TD*
G04 #@! TO.N,GND*
G04 #@! TO.C,REF\002A\002A*
X45800000Y26730000D03*
G04 #@! TD*
G04 #@! TO.N,GND*
G04 #@! TO.C,REF\002A\002A*
X44300000Y22230000D03*
G04 #@! TD*
G04 #@! TO.N,GND*
G04 #@! TO.C,REF\002A\002A*
X44300000Y25230000D03*
G04 #@! TD*
G04 #@! TO.N,GND*
G04 #@! TO.C,REF\002A\002A*
X32800000Y20730000D03*
G04 #@! TD*
G04 #@! TO.N,GND*
G04 #@! TO.C,REF\002A\002A*
X32800000Y17730000D03*
G04 #@! TD*
G04 #@! TO.N,GND*
G04 #@! TO.C,REF\002A\002A*
X50800000Y10230000D03*
G04 #@! TD*
G04 #@! TO.N,GND*
G04 #@! TO.C,REF\002A\002A*
X50800000Y13230000D03*
G04 #@! TD*
G04 #@! TO.N,GND*
G04 #@! TO.C,REF\002A\002A*
X40800000Y2730000D03*
G04 #@! TD*
G04 #@! TO.N,GND*
G04 #@! TO.C,REF\002A\002A*
X40800000Y5730000D03*
G04 #@! TD*
G04 #@! TO.N,GND*
G04 #@! TO.C,REF\002A\002A*
X51800000Y1230000D03*
G04 #@! TD*
G04 #@! TO.N,GND*
G04 #@! TO.C,REF\002A\002A*
X51800000Y-1770000D03*
G04 #@! TD*
G04 #@! TO.N,GND*
G04 #@! TO.C,REF\002A\002A*
X49300000Y-1770000D03*
G04 #@! TD*
G04 #@! TO.N,GND*
G04 #@! TO.C,REF\002A\002A*
X49300000Y1230000D03*
G04 #@! TD*
G04 #@! TO.N,GND*
G04 #@! TO.C,REF\002A\002A*
X21800000Y-7770000D03*
G04 #@! TD*
G04 #@! TO.N,GND*
G04 #@! TO.C,REF\002A\002A*
X14300000Y-7770000D03*
G04 #@! TD*
G04 #@! TO.N,GND*
G04 #@! TO.C,REF\002A\002A*
X12300000Y-5770000D03*
G04 #@! TD*
G04 #@! TO.N,GND*
G04 #@! TO.C,REF\002A\002A*
X18800000Y-2270000D03*
G04 #@! TD*
G04 #@! TO.N,GND*
G04 #@! TO.C,REF\002A\002A*
X30800000Y-3270000D03*
G04 #@! TD*
G04 #@! TO.N,GND*
G04 #@! TO.C,REF\002A\002A*
X30800000Y-6270000D03*
G04 #@! TD*
G04 #@! TO.N,GND*
G04 #@! TO.C,REF\002A\002A*
X2800000Y-4270000D03*
G04 #@! TD*
G04 #@! TO.N,GND*
G04 #@! TO.C,REF\002A\002A*
X2800000Y-1270000D03*
G04 #@! TD*
G04 #@! TO.N,GND*
G04 #@! TO.C,REF\002A\002A*
X4290000Y13980000D03*
G04 #@! TD*
G04 #@! TO.N,GND*
G04 #@! TO.C,REF\002A\002A*
X4320000Y11400000D03*
G04 #@! TD*
G04 #@! TO.N,GND*
G04 #@! TO.C,REF\002A\002A*
X4300000Y26230000D03*
G04 #@! TD*
G04 #@! TO.N,GND*
G04 #@! TO.C,REF\002A\002A*
X4300000Y23230000D03*
G04 #@! TD*
G04 #@! TO.N,GND*
G04 #@! TO.C,REF\002A\002A*
X4300000Y16230000D03*
G04 #@! TD*
G04 #@! TO.N,GND*
G04 #@! TO.C,REF\002A\002A*
X4300000Y19230000D03*
G04 #@! TD*
G04 #@! TO.N,GND*
G04 #@! TO.C,REF\002A\002A*
X4300000Y33730000D03*
G04 #@! TD*
G04 #@! TO.N,GND*
G04 #@! TO.C,REF\002A\002A*
X4300000Y30730000D03*
G04 #@! TD*
G04 #@! TO.N,GND*
G04 #@! TO.C,REF\002A\002A*
X4300000Y37730000D03*
G04 #@! TD*
G04 #@! TO.N,GND*
G04 #@! TO.C,REF\002A\002A*
X4300000Y40730000D03*
G04 #@! TD*
G04 #@! TO.N,GND*
G04 #@! TO.C,REF\002A\002A*
X11300000Y6730000D03*
G04 #@! TD*
G04 #@! TO.N,GND*
G04 #@! TO.C,REF\002A\002A*
X8800000Y7230000D03*
G04 #@! TD*
G04 #@! TO.N,GND*
G04 #@! TO.C,REF\002A\002A*
X8300000Y10230000D03*
G04 #@! TD*
G04 #@! TO.N,GND*
G04 #@! TO.C,REF\002A\002A*
X12800000Y12730000D03*
G04 #@! TD*
G04 #@! TO.N,GND*
G04 #@! TO.C,REF\002A\002A*
X9300000Y13730000D03*
G04 #@! TD*
G04 #@! TO.N,GND*
G04 #@! TO.C,REF\002A\002A*
X10800000Y15230000D03*
G04 #@! TD*
G04 #@! TO.N,GND*
G04 #@! TO.C,REF\002A\002A*
X13300000Y15730000D03*
G04 #@! TD*
G04 #@! TO.N,GND*
G04 #@! TO.C,REF\002A\002A*
X17300000Y18730000D03*
G04 #@! TD*
G04 #@! TO.N,GND*
G04 #@! TO.C,REF\002A\002A*
X17800000Y21230000D03*
G04 #@! TD*
G04 #@! TO.N,GND*
G04 #@! TO.C,REF\002A\002A*
X19800000Y22730000D03*
G04 #@! TD*
G04 #@! TO.N,GND*
G04 #@! TO.C,REF\002A\002A*
X16800000Y22730000D03*
G04 #@! TD*
G04 #@! TO.N,GND*
G04 #@! TO.C,REF\002A\002A*
X16800000Y24730000D03*
G04 #@! TD*
G04 #@! TO.N,GND*
G04 #@! TO.C,REF\002A\002A*
X19800000Y24730000D03*
G04 #@! TD*
G04 #@! TO.N,GND*
G04 #@! TO.C,REF\002A\002A*
X19800000Y26730000D03*
G04 #@! TD*
G04 #@! TO.N,GND*
G04 #@! TO.C,REF\002A\002A*
X16800000Y26730000D03*
G04 #@! TD*
G04 #@! TO.N,GND*
G04 #@! TO.C,REF\002A\002A*
X14300000Y26730000D03*
G04 #@! TD*
G04 #@! TO.N,GND*
G04 #@! TO.C,REF\002A\002A*
X12800000Y21230000D03*
G04 #@! TD*
G04 #@! TO.N,GND*
G04 #@! TO.C,REF\002A\002A*
X14300000Y19730000D03*
G04 #@! TD*
G04 #@! TO.N,GND*
G04 #@! TO.C,REF\002A\002A*
X9500000Y31480000D03*
G04 #@! TD*
G04 #@! TO.N,GND*
G04 #@! TO.C,REF\002A\002A*
X9900000Y34130000D03*
G04 #@! TD*
G04 #@! TO.N,GND*
G04 #@! TO.C,REF\002A\002A*
X10300000Y27730000D03*
G04 #@! TD*
G04 #@! TO.N,GND*
G04 #@! TO.C,REF\002A\002A*
X10300000Y24730000D03*
G04 #@! TD*
G04 #@! TO.N,GND*
G04 #@! TO.C,REF\002A\002A*
X10300000Y18730000D03*
G04 #@! TD*
G04 #@! TO.N,GND*
G04 #@! TO.C,REF\002A\002A*
X10300000Y21730000D03*
G04 #@! TD*
G04 #@! TO.N,GND*
G04 #@! TO.C,REF\002A\002A*
X7300000Y21730000D03*
G04 #@! TD*
G04 #@! TO.N,GND*
G04 #@! TO.C,REF\002A\002A*
X7300000Y18730000D03*
G04 #@! TD*
G04 #@! TO.N,GND*
G04 #@! TO.C,REF\002A\002A*
X7300000Y24730000D03*
G04 #@! TD*
G04 #@! TO.N,GND*
G04 #@! TO.C,REF\002A\002A*
X7300000Y34230000D03*
G04 #@! TD*
G04 #@! TO.N,GND*
G04 #@! TO.C,REF\002A\002A*
X7300000Y31230000D03*
G04 #@! TD*
G04 #@! TO.N,GND*
G04 #@! TO.C,REF\002A\002A*
X9050000Y50030000D03*
G04 #@! TD*
G04 #@! TO.N,GND*
G04 #@! TO.C,REF\002A\002A*
X12150000Y47780000D03*
G04 #@! TD*
G04 #@! TO.N,GND*
G04 #@! TO.C,REF\002A\002A*
X13350000Y44480000D03*
G04 #@! TD*
G04 #@! TO.N,GND*
G04 #@! TO.C,REF\002A\002A*
X15600000Y43780000D03*
G04 #@! TD*
G04 #@! TO.N,GND*
G04 #@! TO.C,REF\002A\002A*
X9100000Y42280000D03*
G04 #@! TD*
G04 #@! TO.N,GND*
G04 #@! TO.C,REF\002A\002A*
X9100000Y40280000D03*
G04 #@! TD*
G04 #@! TO.N,GND*
G04 #@! TO.C,REF\002A\002A*
X10100000Y37780000D03*
G04 #@! TD*
G04 #@! TO.N,GND*
G04 #@! TO.C,REF\002A\002A*
X10100000Y36280000D03*
G04 #@! TD*
G04 #@! TO.N,GND*
G04 #@! TO.C,REF\002A\002A*
X6400000Y39280000D03*
G04 #@! TD*
G04 #@! TO.N,GND*
G04 #@! TO.C,REF\002A\002A*
X6700000Y43680000D03*
G04 #@! TD*
G04 #@! TO.N,GND*
G04 #@! TO.C,REF\002A\002A*
X6400000Y41280000D03*
G04 #@! TD*
G04 #@! TO.N,GND*
G04 #@! TO.C,REF\002A\002A*
X4950000Y45430000D03*
G04 #@! TD*
G04 #@! TO.N,GND*
G04 #@! TO.C,REF\002A\002A*
X9100000Y44280000D03*
G04 #@! TD*
G04 #@! TO.N,GND*
G04 #@! TO.C,REF\002A\002A*
X9100000Y47280000D03*
G04 #@! TD*
G04 #@! TO.N,GND*
G04 #@! TO.C,REF\002A\002A*
X6300000Y50580000D03*
G04 #@! TD*
G04 #@! TO.N,GND*
G04 #@! TO.C,REF\002A\002A*
X6350000Y47930000D03*
G04 #@! TD*
G04 #@! TO.N,GND*
G04 #@! TO.C,REF\002A\002A*
X18100000Y45280000D03*
G04 #@! TD*
G04 #@! TO.N,GND*
G04 #@! TO.C,REF\002A\002A*
X19600000Y44280000D03*
G04 #@! TD*
G04 #@! TO.N,GND*
G04 #@! TO.C,REF\002A\002A*
X16050000Y45830000D03*
G04 #@! TD*
G04 #@! TO.N,GND*
G04 #@! TO.C,REF\002A\002A*
X18100000Y47280000D03*
G04 #@! TD*
G04 #@! TO.N,GND*
G04 #@! TO.C,REF\002A\002A*
X16100000Y47280000D03*
G04 #@! TD*
G04 #@! TO.N,GND*
G04 #@! TO.C,REF\002A\002A*
X23000000Y50630000D03*
G04 #@! TD*
G04 #@! TO.N,GND*
G04 #@! TO.C,REF\002A\002A*
X9100000Y53780000D03*
G04 #@! TD*
G04 #@! TO.N,GND*
G04 #@! TO.C,REF\002A\002A*
X16600000Y53780000D03*
G04 #@! TD*
G04 #@! TO.N,GND*
G04 #@! TO.C,REF\002A\002A*
X25050000Y44780000D03*
G04 #@! TD*
G04 #@! TO.N,GND*
G04 #@! TO.C,REF\002A\002A*
X25100000Y41280000D03*
G04 #@! TD*
G04 #@! TO.N,GND*
G04 #@! TO.C,REF\002A\002A*
X29100000Y46280000D03*
G04 #@! TD*
G04 #@! TO.N,GND*
G04 #@! TO.C,REF\002A\002A*
X29100000Y43280000D03*
G04 #@! TD*
G04 #@! TO.N,GND*
G04 #@! TO.C,REF\002A\002A*
X29100000Y51280000D03*
G04 #@! TD*
G04 #@! TO.N,GND*
G04 #@! TO.C,REF\002A\002A*
X29100000Y48280000D03*
G04 #@! TD*
G04 #@! TO.N,GND*
G04 #@! TO.C,REF\002A\002A*
X24600000Y49780000D03*
G04 #@! TD*
G04 #@! TO.N,GND*
G04 #@! TO.C,REF\002A\002A*
X25050000Y46780000D03*
G04 #@! TD*
G04 #@! TO.N,GND*
G04 #@! TO.C,REF\002A\002A*
X36600000Y57780000D03*
G04 #@! TD*
G04 #@! TO.N,GND*
G04 #@! TO.C,REF\002A\002A*
X36600000Y54780000D03*
G04 #@! TD*
G04 #@! TO.N,GND*
G04 #@! TO.C,REF\002A\002A*
X26600000Y54780000D03*
G04 #@! TD*
G04 #@! TO.N,GND*
G04 #@! TO.C,REF\002A\002A*
X26600000Y57780000D03*
G04 #@! TD*
G04 #@! TO.N,GND*
G04 #@! TO.C,REF\002A\002A*
X21600000Y57780000D03*
G04 #@! TD*
G04 #@! TO.N,GND*
G04 #@! TO.C,REF\002A\002A*
X21600000Y54780000D03*
G04 #@! TD*
G04 #@! TO.N,GND*
G04 #@! TO.C,REF\002A\002A*
X5600000Y54780000D03*
G04 #@! TD*
G04 #@! TO.N,GND*
G04 #@! TO.C,REF\002A\002A*
X5600000Y57780000D03*
G04 #@! TD*
D11*
G04 #@! TO.N,VCC*
G04 #@! TO.C,P1*
X25480000Y1780000D03*
D12*
G04 #@! TO.N,/GPIO0*
X22940000Y1780000D03*
G04 #@! TO.N,/GPIO1*
X20400000Y1780000D03*
G04 #@! TO.N,/GPIO2*
X17860000Y1780000D03*
G04 #@! TO.N,/GPIO3*
X15320000Y1780000D03*
G04 #@! TO.N,/GPIO4*
X12780000Y1780000D03*
G04 #@! TO.N,/GPIO5*
X10240000Y1780000D03*
G04 #@! TO.N,/GPIO6*
X7700000Y1780000D03*
G04 #@! TO.N,/GPIO7*
X5160000Y1780000D03*
G04 #@! TO.N,GND*
X2620000Y1780000D03*
G04 #@! TD*
D13*
G04 #@! TO.N,Net-(C94-Pad2)*
G04 #@! TO.C,JP3*
X35470000Y4165000D03*
D14*
G04 #@! TO.N,Net-(C93-Pad2)*
X35470000Y1625000D03*
G04 #@! TO.N,Net-(J2-Pad2)*
X35470000Y-915000D03*
G04 #@! TO.N,GND*
X35470000Y-3455000D03*
G04 #@! TD*
D10*
G04 #@! TO.N,GND*
G04 #@! TO.C,REF\002A\002A*
X46600000Y41530000D03*
G04 #@! TD*
D15*
G04 #@! TO.N,N/C*
G04 #@! TO.C,U5*
X50830000Y26680000D03*
G04 #@! TO.N,+5VL*
X50830000Y29220000D03*
G04 #@! TO.N,N/C*
X50830000Y41920000D03*
G04 #@! TO.N,Net-(Q5-Pad3)*
X50830000Y44460000D03*
G04 #@! TO.N,/User Interface/ARD_AUDIO_OUT*
X50830000Y47000000D03*
G04 #@! TO.N,/nRST*
X50830000Y49540000D03*
G04 #@! TO.N,Net-(Q6-Pad3)*
X50830000Y52080000D03*
G04 #@! TO.N,Net-(Q7-Pad3)*
X50830000Y54620000D03*
G04 #@! TO.N,N/C*
X2570000Y15250000D03*
G04 #@! TO.N,Net-(S1-Pad1)*
X2570000Y49540000D03*
G04 #@! TO.N,/User Interface/PWM_AUDIO_IN*
X2570000Y47000000D03*
G04 #@! TO.N,N/C*
X2570000Y44460000D03*
X2570000Y41920000D03*
X2570000Y39380000D03*
X2570000Y36840000D03*
X2570000Y33030000D03*
X2570000Y30490000D03*
X2570000Y27950000D03*
X2570000Y25410000D03*
X2570000Y22870000D03*
X2570000Y20330000D03*
G04 #@! TO.N,GND*
X50830000Y31760000D03*
X50830000Y34300000D03*
G04 #@! TO.N,N/C*
X2570000Y17790000D03*
X50830000Y24140000D03*
X2570000Y54620000D03*
X2570000Y52080000D03*
G04 #@! TO.N,VIN*
X50830000Y36840000D03*
G04 #@! TO.N,N/C*
X2570000Y12710000D03*
X2570000Y10170000D03*
X50830000Y21600000D03*
X50830000Y19060000D03*
G04 #@! TD*
D16*
G04 #@! TO.N,GND*
X15200000Y39780000D03*
X10500000Y11240000D03*
X10500000Y12120000D03*
X14100000Y49680000D03*
X22890000Y9480000D03*
X22690000Y14550000D03*
X43155000Y33332500D03*
X43155000Y32607500D03*
X42505000Y33332500D03*
X41310000Y30560000D03*
X42505000Y32607500D03*
X22880000Y10970000D03*
X21370000Y10870000D03*
X21370000Y9420000D03*
D17*
G04 #@! TO.N,VCC*
X39800000Y19680000D03*
X27850000Y5830000D03*
X16300000Y-7120000D03*
X27850000Y16180000D03*
X44400000Y14655000D03*
X12950000Y9430000D03*
X21820000Y13930000D03*
X16200000Y12680000D03*
G04 #@! TO.N,VTX*
X36850000Y9680000D03*
X10600000Y-920000D03*
X23200000Y30980000D03*
X11050000Y8680000D03*
X28750000Y-3270000D03*
D16*
G04 #@! TO.N,Net-(C94-Pad2)*
X50200000Y2580000D03*
G04 #@! TO.N,Net-(J2-Pad2)*
X46800000Y530000D03*
G04 #@! TO.N,Net-(S1-Pad1)*
X31450000Y52730000D03*
G04 #@! TO.N,/User Interface/ARD_AUDIO_OUT*
X48750000Y18980000D03*
G04 #@! TO.N,/User Interface/PWM_AUDIO_IN*
X41500000Y25280000D03*
G04 #@! TO.N,Net-(Q7-Pad3)*
X43600000Y47330000D03*
G04 #@! TO.N,+5VL*
X42700000Y47430000D03*
X38700000Y47430000D03*
X34700000Y47380000D03*
G04 #@! TO.N,/MIC_IN*
X23850000Y13630000D03*
X35450000Y18230000D03*
G04 #@! TO.N,/AFOUT*
X39750000Y12580000D03*
X25250000Y12880000D03*
G04 #@! TO.N,/nSEN*
X37550000Y41280000D03*
X25800000Y12080000D03*
G04 #@! TO.N,/SDIO*
X41500000Y41280000D03*
X26750000Y8180000D03*
G04 #@! TO.N,/SCLK*
X26150000Y7380000D03*
X45650000Y41280000D03*
G04 #@! TO.N,/nRST*
X47960000Y48190000D03*
X47960000Y35490000D03*
G04 #@! TO.N,/Y1*
X14100000Y-4770000D03*
D17*
G04 #@! TO.N,VCC*
X31200000Y34730000D03*
X14600000Y44530000D03*
X9800000Y29480000D03*
D16*
G04 #@! TO.N,/GPIO4*
X12900000Y38280000D03*
X6403862Y28780000D03*
G04 #@! TO.N,/GPIO5*
X5822202Y26380000D03*
G04 #@! TO.N,/Y1*
X15350000Y46580000D03*
G04 #@! TO.N,/RF Front End/V1xorV2*
X12650000Y39280000D03*
X5800000Y32780000D03*
X14700000Y45580000D03*
G04 #@! TD*
D18*
G04 #@! TO.N,GND*
X13850000Y50180000D02*
X13850000Y49780000D01*
D19*
X35835000Y-3455000D02*
X35470000Y-3455000D01*
X22880000Y10970000D02*
X22880000Y9490000D01*
X22880000Y9490000D02*
X22890000Y9480000D01*
X21370000Y10870000D02*
X21370000Y9420000D01*
G04 #@! TD*
D20*
G04 #@! TO.N,GND*
G36*
X16625446Y58940294D02*
X16034706Y58349554D01*
X15715000Y57577716D01*
X15715000Y56742284D01*
X16034706Y55970446D01*
X16625446Y55379706D01*
X17397284Y55060000D01*
X18232716Y55060000D01*
X19004554Y55379706D01*
X19595294Y55970446D01*
X19915000Y56742284D01*
X19915000Y57577716D01*
X19595294Y58349554D01*
X19004554Y58940294D01*
X18523629Y59139500D01*
X45034300Y59139500D01*
X44565446Y58945294D01*
X43974706Y58354554D01*
X43655000Y57582716D01*
X43655000Y56747284D01*
X43974706Y55975446D01*
X44565446Y55384706D01*
X45337284Y55065000D01*
X46172716Y55065000D01*
X46944554Y55384706D01*
X47535294Y55975446D01*
X47855000Y56747284D01*
X47855000Y57582716D01*
X47535294Y58354554D01*
X46944554Y58945294D01*
X46475700Y59139500D01*
X48076118Y59139500D01*
X50430166Y56785451D01*
X50460321Y56740321D01*
X50505451Y56710166D01*
X50639107Y56620860D01*
X50850000Y56578911D01*
X50903235Y56589500D01*
X52809501Y56589500D01*
X52809500Y5803628D01*
X52610294Y6284554D01*
X52019554Y6875294D01*
X51247716Y7195000D01*
X50412284Y7195000D01*
X49640446Y6875294D01*
X49049706Y6284554D01*
X48730000Y5512716D01*
X48730000Y4677284D01*
X49049706Y3905446D01*
X49640446Y3314706D01*
X49984740Y3172095D01*
X49843473Y3113580D01*
X49666420Y2936527D01*
X49570600Y2705196D01*
X49570600Y2454804D01*
X49666420Y2223473D01*
X49843473Y2046420D01*
X50074804Y1950600D01*
X50325196Y1950600D01*
X50556527Y2046420D01*
X50733580Y2223473D01*
X50829400Y2454804D01*
X50829400Y2705196D01*
X50733580Y2936527D01*
X50675107Y2995000D01*
X51247716Y2995000D01*
X52019554Y3314706D01*
X52610294Y3905446D01*
X52809500Y4386372D01*
X52809500Y-8354500D01*
X590500Y-8354500D01*
X590500Y-6974993D01*
X15571000Y-6974993D01*
X15571000Y-7265007D01*
X15681984Y-7532945D01*
X15887055Y-7738016D01*
X16154993Y-7849000D01*
X16445007Y-7849000D01*
X16712945Y-7738016D01*
X16918016Y-7532945D01*
X17029000Y-7265007D01*
X17029000Y-6974993D01*
X16918016Y-6707055D01*
X16712945Y-6501984D01*
X16445007Y-6391000D01*
X16154993Y-6391000D01*
X15887055Y-6501984D01*
X15681984Y-6707055D01*
X15571000Y-6974993D01*
X590500Y-6974993D01*
X590500Y-4644804D01*
X13470600Y-4644804D01*
X13470600Y-4895196D01*
X13566420Y-5126527D01*
X13743473Y-5303580D01*
X13974804Y-5399400D01*
X14225196Y-5399400D01*
X14456527Y-5303580D01*
X14633580Y-5126527D01*
X14729400Y-4895196D01*
X14729400Y-4644804D01*
X14633580Y-4413473D01*
X14456527Y-4236420D01*
X14225196Y-4140600D01*
X13974804Y-4140600D01*
X13743473Y-4236420D01*
X13566420Y-4413473D01*
X13470600Y-4644804D01*
X590500Y-4644804D01*
X590500Y-3124993D01*
X28021000Y-3124993D01*
X28021000Y-3415007D01*
X28131984Y-3682945D01*
X28337055Y-3888016D01*
X28604993Y-3999000D01*
X28895007Y-3999000D01*
X29162945Y-3888016D01*
X29217051Y-3833910D01*
X34062097Y-3833910D01*
X34206523Y-4182616D01*
X34581146Y-4610741D01*
X35091089Y-4862915D01*
X35316000Y-4752856D01*
X35316000Y-3609000D01*
X35624000Y-3609000D01*
X35624000Y-4752856D01*
X35848911Y-4862915D01*
X36358854Y-4610741D01*
X36733477Y-4182616D01*
X36877903Y-3833910D01*
X36766889Y-3609000D01*
X35624000Y-3609000D01*
X35316000Y-3609000D01*
X34173111Y-3609000D01*
X34062097Y-3833910D01*
X29217051Y-3833910D01*
X29368016Y-3682945D01*
X29479000Y-3415007D01*
X29479000Y-3124993D01*
X29458744Y-3076090D01*
X34062097Y-3076090D01*
X34173111Y-3301000D01*
X35316000Y-3301000D01*
X35316000Y-3281000D01*
X35624000Y-3281000D01*
X35624000Y-3301000D01*
X36766889Y-3301000D01*
X36877903Y-3076090D01*
X36838646Y-2981305D01*
X42000000Y-2981305D01*
X42000000Y-3458695D01*
X42182689Y-3899745D01*
X42520255Y-4237311D01*
X42961305Y-4420000D01*
X43438695Y-4420000D01*
X43879745Y-4237311D01*
X44217311Y-3899745D01*
X44400000Y-3458695D01*
X44400000Y-2981305D01*
X44217311Y-2540255D01*
X43879745Y-2202689D01*
X43438695Y-2020000D01*
X42961305Y-2020000D01*
X42520255Y-2202689D01*
X42182689Y-2540255D01*
X42000000Y-2981305D01*
X36838646Y-2981305D01*
X36733477Y-2727384D01*
X36358854Y-2299259D01*
X35872063Y-2058534D01*
X35938217Y-2045375D01*
X36335152Y-1780152D01*
X36600375Y-1383217D01*
X36693509Y-915000D01*
X36600375Y-446783D01*
X36335152Y-49848D01*
X35938217Y215375D01*
X35588188Y285000D01*
X35351812Y285000D01*
X35001783Y215375D01*
X34604848Y-49848D01*
X34339625Y-446783D01*
X34246491Y-915000D01*
X34339625Y-1383217D01*
X34604848Y-1780152D01*
X35001783Y-2045375D01*
X35067937Y-2058534D01*
X34581146Y-2299259D01*
X34206523Y-2727384D01*
X34062097Y-3076090D01*
X29458744Y-3076090D01*
X29368016Y-2857055D01*
X29162945Y-2651984D01*
X28895007Y-2541000D01*
X28604993Y-2541000D01*
X28337055Y-2651984D01*
X28131984Y-2857055D01*
X28021000Y-3124993D01*
X590500Y-3124993D01*
X590500Y-774993D01*
X9871000Y-774993D01*
X9871000Y-1065007D01*
X9981984Y-1332945D01*
X10187055Y-1538016D01*
X10454993Y-1649000D01*
X10745007Y-1649000D01*
X11012945Y-1538016D01*
X11218016Y-1332945D01*
X11329000Y-1065007D01*
X11329000Y-774993D01*
X11218016Y-507055D01*
X11012945Y-301984D01*
X10745007Y-191000D01*
X10454993Y-191000D01*
X10187055Y-301984D01*
X9981984Y-507055D01*
X9871000Y-774993D01*
X590500Y-774993D01*
X590500Y1395824D01*
X1166851Y1395824D01*
X1366162Y857371D01*
X1756359Y436178D01*
X2238951Y206189D01*
X2466000Y317017D01*
X2466000Y1626000D01*
X1300484Y1626000D01*
X1166851Y1395824D01*
X590500Y1395824D01*
X590500Y2164176D01*
X1166851Y2164176D01*
X1300484Y1934000D01*
X2466000Y1934000D01*
X2466000Y3242983D01*
X2774000Y3242983D01*
X2774000Y1934000D01*
X2794000Y1934000D01*
X2794000Y1626000D01*
X2774000Y1626000D01*
X2774000Y317017D01*
X3001049Y206189D01*
X3483641Y436178D01*
X3873838Y857371D01*
X4005228Y1212330D01*
X4016815Y1154078D01*
X4285044Y752644D01*
X4686477Y484415D01*
X5160000Y390225D01*
X5633522Y484415D01*
X6034956Y752644D01*
X6303185Y1154077D01*
X6373600Y1508076D01*
X6373600Y2051923D01*
X6373600Y2051924D01*
X6486400Y2051924D01*
X6486400Y1508077D01*
X6556815Y1154078D01*
X6825044Y752644D01*
X7226477Y484415D01*
X7700000Y390225D01*
X8173522Y484415D01*
X8574956Y752644D01*
X8843185Y1154077D01*
X8913600Y1508076D01*
X8913600Y2051923D01*
X8913600Y2051924D01*
X9026400Y2051924D01*
X9026400Y1508077D01*
X9096815Y1154078D01*
X9365044Y752644D01*
X9766477Y484415D01*
X10240000Y390225D01*
X10713522Y484415D01*
X11114956Y752644D01*
X11383185Y1154077D01*
X11453600Y1508076D01*
X11453600Y2051923D01*
X11453600Y2051924D01*
X11566400Y2051924D01*
X11566400Y1508077D01*
X11636815Y1154078D01*
X11905044Y752644D01*
X12306477Y484415D01*
X12780000Y390225D01*
X13253522Y484415D01*
X13654956Y752644D01*
X13923185Y1154077D01*
X13993600Y1508076D01*
X13993600Y2051923D01*
X13993600Y2051924D01*
X14106400Y2051924D01*
X14106400Y1508077D01*
X14176815Y1154078D01*
X14445044Y752644D01*
X14846477Y484415D01*
X15320000Y390225D01*
X15793522Y484415D01*
X16194956Y752644D01*
X16463185Y1154077D01*
X16533600Y1508076D01*
X16533600Y2051923D01*
X16533600Y2051924D01*
X16646400Y2051924D01*
X16646400Y1508077D01*
X16716815Y1154078D01*
X16985044Y752644D01*
X17386477Y484415D01*
X17860000Y390225D01*
X18333522Y484415D01*
X18734956Y752644D01*
X19003185Y1154077D01*
X19073600Y1508076D01*
X19073600Y2051923D01*
X19073600Y2051924D01*
X19186400Y2051924D01*
X19186400Y1508077D01*
X19256815Y1154078D01*
X19525044Y752644D01*
X19926477Y484415D01*
X20400000Y390225D01*
X20873522Y484415D01*
X21274956Y752644D01*
X21543185Y1154077D01*
X21613600Y1508076D01*
X21613600Y2051923D01*
X21613600Y2051924D01*
X21726400Y2051924D01*
X21726400Y1508077D01*
X21796815Y1154078D01*
X22065044Y752644D01*
X22466477Y484415D01*
X22940000Y390225D01*
X23413522Y484415D01*
X23814956Y752644D01*
X24083185Y1154077D01*
X24153600Y1508076D01*
X24153600Y2051923D01*
X24083185Y2405922D01*
X23822544Y2796000D01*
X24255465Y2796000D01*
X24255465Y764000D01*
X24282940Y625876D01*
X24361180Y508780D01*
X24478276Y430540D01*
X24616400Y403065D01*
X26343600Y403065D01*
X26481724Y430540D01*
X26598820Y508780D01*
X26677060Y625876D01*
X26704535Y764000D01*
X26704535Y1625000D01*
X34246491Y1625000D01*
X34339625Y1156783D01*
X34604848Y759848D01*
X35001783Y494625D01*
X35351812Y425000D01*
X35588188Y425000D01*
X35938217Y494625D01*
X36178528Y655196D01*
X46170600Y655196D01*
X46170600Y404804D01*
X46266420Y173473D01*
X46443473Y-3580D01*
X46674804Y-99400D01*
X46925196Y-99400D01*
X47156527Y-3580D01*
X47333580Y173473D01*
X47429400Y404804D01*
X47429400Y655196D01*
X47333580Y886527D01*
X47156527Y1063580D01*
X46925196Y1159400D01*
X46674804Y1159400D01*
X46443473Y1063580D01*
X46266420Y886527D01*
X46170600Y655196D01*
X36178528Y655196D01*
X36335152Y759848D01*
X36600375Y1156783D01*
X36693509Y1625000D01*
X36600375Y2093217D01*
X36335152Y2490152D01*
X35938217Y2755375D01*
X35588188Y2825000D01*
X35351812Y2825000D01*
X35001783Y2755375D01*
X34604848Y2490152D01*
X34339625Y2093217D01*
X34246491Y1625000D01*
X26704535Y1625000D01*
X26704535Y2796000D01*
X26677060Y2934124D01*
X26598820Y3051220D01*
X26481724Y3129460D01*
X26343600Y3156935D01*
X24616400Y3156935D01*
X24478276Y3129460D01*
X24361180Y3051220D01*
X24282940Y2934124D01*
X24255465Y2796000D01*
X23822544Y2796000D01*
X23814956Y2807356D01*
X23413523Y3075585D01*
X22940000Y3169775D01*
X22466478Y3075585D01*
X22065045Y2807356D01*
X21796815Y2405923D01*
X21726400Y2051924D01*
X21613600Y2051924D01*
X21543185Y2405922D01*
X21274956Y2807356D01*
X20873523Y3075585D01*
X20400000Y3169775D01*
X19926478Y3075585D01*
X19525045Y2807356D01*
X19256815Y2405923D01*
X19186400Y2051924D01*
X19073600Y2051924D01*
X19003185Y2405922D01*
X18734956Y2807356D01*
X18333523Y3075585D01*
X17860000Y3169775D01*
X17386478Y3075585D01*
X16985045Y2807356D01*
X16716815Y2405923D01*
X16646400Y2051924D01*
X16533600Y2051924D01*
X16463185Y2405922D01*
X16194956Y2807356D01*
X15793523Y3075585D01*
X15320000Y3169775D01*
X14846478Y3075585D01*
X14445045Y2807356D01*
X14176815Y2405923D01*
X14106400Y2051924D01*
X13993600Y2051924D01*
X13923185Y2405922D01*
X13654956Y2807356D01*
X13253523Y3075585D01*
X12780000Y3169775D01*
X12306478Y3075585D01*
X11905045Y2807356D01*
X11636815Y2405923D01*
X11566400Y2051924D01*
X11453600Y2051924D01*
X11383185Y2405922D01*
X11114956Y2807356D01*
X10713523Y3075585D01*
X10240000Y3169775D01*
X9766478Y3075585D01*
X9365045Y2807356D01*
X9096815Y2405923D01*
X9026400Y2051924D01*
X8913600Y2051924D01*
X8843185Y2405922D01*
X8574956Y2807356D01*
X8173523Y3075585D01*
X7700000Y3169775D01*
X7226478Y3075585D01*
X6825045Y2807356D01*
X6556815Y2405923D01*
X6486400Y2051924D01*
X6373600Y2051924D01*
X6303185Y2405922D01*
X6034956Y2807356D01*
X5633523Y3075585D01*
X5160000Y3169775D01*
X4686478Y3075585D01*
X4285045Y2807356D01*
X4016815Y2405923D01*
X4005228Y2347670D01*
X3873838Y2702629D01*
X3483641Y3123822D01*
X3001049Y3353811D01*
X2774000Y3242983D01*
X2466000Y3242983D01*
X2238951Y3353811D01*
X1756359Y3123822D01*
X1366162Y2702629D01*
X1166851Y2164176D01*
X590500Y2164176D01*
X590500Y5651371D01*
X789706Y5170446D01*
X1380446Y4579706D01*
X2152284Y4260000D01*
X2987716Y4260000D01*
X3759554Y4579706D01*
X4194848Y5015000D01*
X34263144Y5015000D01*
X34263144Y3315000D01*
X34290308Y3178437D01*
X34367665Y3062665D01*
X34483437Y2985308D01*
X34620000Y2958144D01*
X36320000Y2958144D01*
X36456563Y2985308D01*
X36572335Y3062665D01*
X36649692Y3178437D01*
X36676856Y3315000D01*
X36676856Y4018695D01*
X42000000Y4018695D01*
X42000000Y3541305D01*
X42182689Y3100255D01*
X42520255Y2762689D01*
X42961305Y2580000D01*
X43438695Y2580000D01*
X43879745Y2762689D01*
X44217311Y3100255D01*
X44400000Y3541305D01*
X44400000Y4018695D01*
X44217311Y4459745D01*
X43879745Y4797311D01*
X43438695Y4980000D01*
X42961305Y4980000D01*
X42520255Y4797311D01*
X42182689Y4459745D01*
X42000000Y4018695D01*
X36676856Y4018695D01*
X36676856Y5015000D01*
X36649692Y5151563D01*
X36572335Y5267335D01*
X36456563Y5344692D01*
X36320000Y5371856D01*
X34620000Y5371856D01*
X34483437Y5344692D01*
X34367665Y5267335D01*
X34290308Y5151563D01*
X34263144Y5015000D01*
X4194848Y5015000D01*
X4350294Y5170446D01*
X4670000Y5942284D01*
X4670000Y5975007D01*
X27121000Y5975007D01*
X27121000Y5684993D01*
X27231984Y5417055D01*
X27437055Y5211984D01*
X27704993Y5101000D01*
X27995007Y5101000D01*
X28262945Y5211984D01*
X28468016Y5417055D01*
X28579000Y5684993D01*
X28579000Y5975007D01*
X28468016Y6242945D01*
X28262945Y6448016D01*
X27995007Y6559000D01*
X27704993Y6559000D01*
X27437055Y6448016D01*
X27231984Y6242945D01*
X27121000Y5975007D01*
X4670000Y5975007D01*
X4670000Y6777716D01*
X4368668Y7505196D01*
X25520600Y7505196D01*
X25520600Y7254804D01*
X25616420Y7023473D01*
X25793473Y6846420D01*
X26024804Y6750600D01*
X26275196Y6750600D01*
X26506527Y6846420D01*
X26683580Y7023473D01*
X26779400Y7254804D01*
X26779400Y7505196D01*
X26760593Y7550600D01*
X26875196Y7550600D01*
X27106527Y7646420D01*
X27283580Y7823473D01*
X27379400Y8054804D01*
X27379400Y8305196D01*
X27283580Y8536527D01*
X27106527Y8713580D01*
X26875196Y8809400D01*
X26624804Y8809400D01*
X26393473Y8713580D01*
X26216420Y8536527D01*
X26120600Y8305196D01*
X26120600Y8054804D01*
X26139407Y8009400D01*
X26024804Y8009400D01*
X25793473Y7913580D01*
X25616420Y7736527D01*
X25520600Y7505196D01*
X4368668Y7505196D01*
X4350294Y7549554D01*
X3759554Y8140294D01*
X2987716Y8460000D01*
X2152284Y8460000D01*
X1380446Y8140294D01*
X789706Y7549554D01*
X590500Y7068629D01*
X590500Y8825007D01*
X10321000Y8825007D01*
X10321000Y8534993D01*
X10431984Y8267055D01*
X10637055Y8061984D01*
X10904993Y7951000D01*
X11195007Y7951000D01*
X11462945Y8061984D01*
X11668016Y8267055D01*
X11779000Y8534993D01*
X11779000Y8825007D01*
X11668016Y9092945D01*
X11462945Y9298016D01*
X11195007Y9409000D01*
X10904993Y9409000D01*
X10637055Y9298016D01*
X10431984Y9092945D01*
X10321000Y8825007D01*
X590500Y8825007D01*
X590500Y33286557D01*
X1280200Y33286557D01*
X1280200Y32773443D01*
X1476560Y32299387D01*
X1839387Y31936560D01*
X2265641Y31760000D01*
X1839387Y31583440D01*
X1476560Y31220613D01*
X1280200Y30746557D01*
X1280200Y30233443D01*
X1476560Y29759387D01*
X1839387Y29396560D01*
X2265641Y29220000D01*
X1839387Y29043440D01*
X1476560Y28680613D01*
X1280200Y28206557D01*
X1280200Y27693443D01*
X1476560Y27219387D01*
X1839387Y26856560D01*
X2265641Y26680000D01*
X1839387Y26503440D01*
X1476560Y26140613D01*
X1280200Y25666557D01*
X1280200Y25153443D01*
X1476560Y24679387D01*
X1839387Y24316560D01*
X2265641Y24140000D01*
X1839387Y23963440D01*
X1476560Y23600613D01*
X1280200Y23126557D01*
X1280200Y22613443D01*
X1476560Y22139387D01*
X1839387Y21776560D01*
X2265641Y21600000D01*
X1839387Y21423440D01*
X1476560Y21060613D01*
X1280200Y20586557D01*
X1280200Y20073443D01*
X1476560Y19599387D01*
X1839387Y19236560D01*
X2265641Y19060000D01*
X1839387Y18883440D01*
X1476560Y18520613D01*
X1280200Y18046557D01*
X1280200Y17533443D01*
X1476560Y17059387D01*
X1839387Y16696560D01*
X2265641Y16520000D01*
X1839387Y16343440D01*
X1476560Y15980613D01*
X1280200Y15506557D01*
X1280200Y14993443D01*
X1476560Y14519387D01*
X1839387Y14156560D01*
X2265641Y13980000D01*
X1839387Y13803440D01*
X1476560Y13440613D01*
X1280200Y12966557D01*
X1280200Y12453443D01*
X1476560Y11979387D01*
X1839387Y11616560D01*
X2265641Y11440000D01*
X1839387Y11263440D01*
X1476560Y10900613D01*
X1280200Y10426557D01*
X1280200Y9913443D01*
X1476560Y9439387D01*
X1839387Y9076560D01*
X2313443Y8880200D01*
X2826557Y8880200D01*
X3300613Y9076560D01*
X3663440Y9439387D01*
X3719615Y9575007D01*
X12221000Y9575007D01*
X12221000Y9284993D01*
X12331984Y9017055D01*
X12537055Y8811984D01*
X12804993Y8701000D01*
X13095007Y8701000D01*
X13362945Y8811984D01*
X13568016Y9017055D01*
X13679000Y9284993D01*
X13679000Y9575007D01*
X13575447Y9825007D01*
X36121000Y9825007D01*
X36121000Y9534993D01*
X36231984Y9267055D01*
X36437055Y9061984D01*
X36704993Y8951000D01*
X36995007Y8951000D01*
X37262945Y9061984D01*
X37468016Y9267055D01*
X37579000Y9534993D01*
X37579000Y9825007D01*
X37468016Y10092945D01*
X37262945Y10298016D01*
X36995007Y10409000D01*
X36704993Y10409000D01*
X36437055Y10298016D01*
X36231984Y10092945D01*
X36121000Y9825007D01*
X13575447Y9825007D01*
X13568016Y9842945D01*
X13362945Y10048016D01*
X13095007Y10159000D01*
X12804993Y10159000D01*
X12537055Y10048016D01*
X12331984Y9842945D01*
X12221000Y9575007D01*
X3719615Y9575007D01*
X3859800Y9913443D01*
X3859800Y10426557D01*
X3663440Y10900613D01*
X3300613Y11263440D01*
X2874359Y11440000D01*
X3300613Y11616560D01*
X3663440Y11979387D01*
X3859800Y12453443D01*
X3859800Y12825007D01*
X15471000Y12825007D01*
X15471000Y12534993D01*
X15581984Y12267055D01*
X15787055Y12061984D01*
X16054993Y11951000D01*
X16345007Y11951000D01*
X16612945Y12061984D01*
X16818016Y12267055D01*
X16929000Y12534993D01*
X16929000Y12825007D01*
X16818016Y13092945D01*
X16612945Y13298016D01*
X16345007Y13409000D01*
X16054993Y13409000D01*
X15787055Y13298016D01*
X15581984Y13092945D01*
X15471000Y12825007D01*
X3859800Y12825007D01*
X3859800Y12966557D01*
X3663440Y13440613D01*
X3300613Y13803440D01*
X2874359Y13980000D01*
X3103726Y14075007D01*
X21091000Y14075007D01*
X21091000Y13784993D01*
X21201984Y13517055D01*
X21407055Y13311984D01*
X21674993Y13201000D01*
X21965007Y13201000D01*
X22232945Y13311984D01*
X22438016Y13517055D01*
X22536657Y13755196D01*
X23220600Y13755196D01*
X23220600Y13504804D01*
X23316420Y13273473D01*
X23493473Y13096420D01*
X23724804Y13000600D01*
X23975196Y13000600D01*
X23986291Y13005196D01*
X24620600Y13005196D01*
X24620600Y12754804D01*
X24716420Y12523473D01*
X24893473Y12346420D01*
X25124804Y12250600D01*
X25189407Y12250600D01*
X25170600Y12205196D01*
X25170600Y11954804D01*
X25266420Y11723473D01*
X25443473Y11546420D01*
X25674804Y11450600D01*
X25925196Y11450600D01*
X26156527Y11546420D01*
X26333580Y11723473D01*
X26429400Y11954804D01*
X26429400Y12205196D01*
X26333580Y12436527D01*
X26156527Y12613580D01*
X25935346Y12705196D01*
X39120600Y12705196D01*
X39120600Y12454804D01*
X39216420Y12223473D01*
X39393473Y12046420D01*
X39624804Y11950600D01*
X39875196Y11950600D01*
X40106527Y12046420D01*
X40283580Y12223473D01*
X40379400Y12454804D01*
X40379400Y12705196D01*
X40283580Y12936527D01*
X40106527Y13113580D01*
X39875196Y13209400D01*
X39624804Y13209400D01*
X39393473Y13113580D01*
X39216420Y12936527D01*
X39120600Y12705196D01*
X25935346Y12705196D01*
X25925196Y12709400D01*
X25860593Y12709400D01*
X25879400Y12754804D01*
X25879400Y13005196D01*
X25783580Y13236527D01*
X25606527Y13413580D01*
X25375196Y13509400D01*
X25124804Y13509400D01*
X24893473Y13413580D01*
X24716420Y13236527D01*
X24620600Y13005196D01*
X23986291Y13005196D01*
X24206527Y13096420D01*
X24383580Y13273473D01*
X24479400Y13504804D01*
X24479400Y13755196D01*
X24383580Y13986527D01*
X24206527Y14163580D01*
X23975196Y14259400D01*
X23724804Y14259400D01*
X23493473Y14163580D01*
X23316420Y13986527D01*
X23220600Y13755196D01*
X22536657Y13755196D01*
X22549000Y13784993D01*
X22549000Y14075007D01*
X22438016Y14342945D01*
X22232945Y14548016D01*
X21965007Y14659000D01*
X21674993Y14659000D01*
X21407055Y14548016D01*
X21201984Y14342945D01*
X21091000Y14075007D01*
X3103726Y14075007D01*
X3300613Y14156560D01*
X3663440Y14519387D01*
X3779676Y14800007D01*
X43671000Y14800007D01*
X43671000Y14509993D01*
X43781984Y14242055D01*
X43987055Y14036984D01*
X44254993Y13926000D01*
X44545007Y13926000D01*
X44812945Y14036984D01*
X45018016Y14242055D01*
X45129000Y14509993D01*
X45129000Y14800007D01*
X45018016Y15067945D01*
X44812945Y15273016D01*
X44545007Y15384000D01*
X44254993Y15384000D01*
X43987055Y15273016D01*
X43781984Y15067945D01*
X43671000Y14800007D01*
X3779676Y14800007D01*
X3859800Y14993443D01*
X3859800Y15506557D01*
X3663440Y15980613D01*
X3319046Y16325007D01*
X27121000Y16325007D01*
X27121000Y16034993D01*
X27231984Y15767055D01*
X27437055Y15561984D01*
X27704993Y15451000D01*
X27995007Y15451000D01*
X28262945Y15561984D01*
X28468016Y15767055D01*
X28579000Y16034993D01*
X28579000Y16325007D01*
X28468016Y16592945D01*
X28262945Y16798016D01*
X27995007Y16909000D01*
X27704993Y16909000D01*
X27437055Y16798016D01*
X27231984Y16592945D01*
X27121000Y16325007D01*
X3319046Y16325007D01*
X3300613Y16343440D01*
X2874359Y16520000D01*
X3300613Y16696560D01*
X3663440Y17059387D01*
X3859800Y17533443D01*
X3859800Y18046557D01*
X3731958Y18355196D01*
X34820600Y18355196D01*
X34820600Y18104804D01*
X34916420Y17873473D01*
X35093473Y17696420D01*
X35324804Y17600600D01*
X35575196Y17600600D01*
X35806527Y17696420D01*
X35983580Y17873473D01*
X36079400Y18104804D01*
X36079400Y18355196D01*
X35983580Y18586527D01*
X35806527Y18763580D01*
X35575196Y18859400D01*
X35324804Y18859400D01*
X35093473Y18763580D01*
X34916420Y18586527D01*
X34820600Y18355196D01*
X3731958Y18355196D01*
X3663440Y18520613D01*
X3300613Y18883440D01*
X2874359Y19060000D01*
X3300613Y19236560D01*
X3663440Y19599387D01*
X3756894Y19825007D01*
X39071000Y19825007D01*
X39071000Y19534993D01*
X39181984Y19267055D01*
X39387055Y19061984D01*
X39654993Y18951000D01*
X39945007Y18951000D01*
X40212945Y19061984D01*
X40256157Y19105196D01*
X48120600Y19105196D01*
X48120600Y18854804D01*
X48216420Y18623473D01*
X48393473Y18446420D01*
X48624804Y18350600D01*
X48875196Y18350600D01*
X49106527Y18446420D01*
X49283580Y18623473D01*
X49379400Y18854804D01*
X49379400Y19105196D01*
X49283580Y19336527D01*
X49106527Y19513580D01*
X48875196Y19609400D01*
X48624804Y19609400D01*
X48393473Y19513580D01*
X48216420Y19336527D01*
X48120600Y19105196D01*
X40256157Y19105196D01*
X40418016Y19267055D01*
X40529000Y19534993D01*
X40529000Y19825007D01*
X40418016Y20092945D01*
X40212945Y20298016D01*
X39945007Y20409000D01*
X39654993Y20409000D01*
X39387055Y20298016D01*
X39181984Y20092945D01*
X39071000Y19825007D01*
X3756894Y19825007D01*
X3859800Y20073443D01*
X3859800Y20586557D01*
X3663440Y21060613D01*
X3300613Y21423440D01*
X2874359Y21600000D01*
X3300613Y21776560D01*
X3663440Y22139387D01*
X3859800Y22613443D01*
X3859800Y23126557D01*
X3663440Y23600613D01*
X3300613Y23963440D01*
X2874359Y24140000D01*
X3300613Y24316560D01*
X3663440Y24679387D01*
X3859800Y25153443D01*
X3859800Y25405196D01*
X40870600Y25405196D01*
X40870600Y25154804D01*
X40966420Y24923473D01*
X41143473Y24746420D01*
X41374804Y24650600D01*
X41625196Y24650600D01*
X41856527Y24746420D01*
X42033580Y24923473D01*
X42129400Y25154804D01*
X42129400Y25405196D01*
X42033580Y25636527D01*
X41856527Y25813580D01*
X41625196Y25909400D01*
X41374804Y25909400D01*
X41143473Y25813580D01*
X40966420Y25636527D01*
X40870600Y25405196D01*
X3859800Y25405196D01*
X3859800Y25666557D01*
X3663440Y26140613D01*
X3300613Y26503440D01*
X3296374Y26505196D01*
X5192802Y26505196D01*
X5192802Y26254804D01*
X5288622Y26023473D01*
X5465675Y25846420D01*
X5697006Y25750600D01*
X5947398Y25750600D01*
X6178729Y25846420D01*
X6355782Y26023473D01*
X6451602Y26254804D01*
X6451602Y26505196D01*
X6355782Y26736527D01*
X6178729Y26913580D01*
X5947398Y27009400D01*
X5697006Y27009400D01*
X5465675Y26913580D01*
X5288622Y26736527D01*
X5192802Y26505196D01*
X3296374Y26505196D01*
X2874359Y26680000D01*
X3300613Y26856560D01*
X3663440Y27219387D01*
X3859800Y27693443D01*
X3859800Y28206557D01*
X3663440Y28680613D01*
X3438857Y28905196D01*
X5774462Y28905196D01*
X5774462Y28654804D01*
X5870282Y28423473D01*
X6047335Y28246420D01*
X6278666Y28150600D01*
X6529058Y28150600D01*
X6760389Y28246420D01*
X6937442Y28423473D01*
X7033262Y28654804D01*
X7033262Y28905196D01*
X6937442Y29136527D01*
X6760389Y29313580D01*
X6529058Y29409400D01*
X6278666Y29409400D01*
X6047335Y29313580D01*
X5870282Y29136527D01*
X5774462Y28905196D01*
X3438857Y28905196D01*
X3300613Y29043440D01*
X2874359Y29220000D01*
X3300613Y29396560D01*
X3529060Y29625007D01*
X9071000Y29625007D01*
X9071000Y29334993D01*
X9181984Y29067055D01*
X9387055Y28861984D01*
X9654993Y28751000D01*
X9945007Y28751000D01*
X10212945Y28861984D01*
X10418016Y29067055D01*
X10529000Y29334993D01*
X10529000Y29476557D01*
X49540200Y29476557D01*
X49540200Y28963443D01*
X49736560Y28489387D01*
X50099387Y28126560D01*
X50525641Y27950000D01*
X50099387Y27773440D01*
X49736560Y27410613D01*
X49540200Y26936557D01*
X49540200Y26423443D01*
X49736560Y25949387D01*
X50099387Y25586560D01*
X50525641Y25410000D01*
X50099387Y25233440D01*
X49736560Y24870613D01*
X49540200Y24396557D01*
X49540200Y23883443D01*
X49736560Y23409387D01*
X50099387Y23046560D01*
X50525641Y22870000D01*
X50099387Y22693440D01*
X49736560Y22330613D01*
X49540200Y21856557D01*
X49540200Y21343443D01*
X49736560Y20869387D01*
X50099387Y20506560D01*
X50525641Y20330000D01*
X50099387Y20153440D01*
X49736560Y19790613D01*
X49540200Y19316557D01*
X49540200Y18803443D01*
X49736560Y18329387D01*
X50099387Y17966560D01*
X50573443Y17770200D01*
X51086557Y17770200D01*
X51560613Y17966560D01*
X51923440Y18329387D01*
X52119800Y18803443D01*
X52119800Y19316557D01*
X51923440Y19790613D01*
X51560613Y20153440D01*
X51134359Y20330000D01*
X51560613Y20506560D01*
X51923440Y20869387D01*
X52119800Y21343443D01*
X52119800Y21856557D01*
X51923440Y22330613D01*
X51560613Y22693440D01*
X51134359Y22870000D01*
X51560613Y23046560D01*
X51923440Y23409387D01*
X52119800Y23883443D01*
X52119800Y24396557D01*
X51923440Y24870613D01*
X51560613Y25233440D01*
X51134359Y25410000D01*
X51560613Y25586560D01*
X51923440Y25949387D01*
X52119800Y26423443D01*
X52119800Y26936557D01*
X51923440Y27410613D01*
X51560613Y27773440D01*
X51134359Y27950000D01*
X51560613Y28126560D01*
X51923440Y28489387D01*
X52119800Y28963443D01*
X52119800Y29476557D01*
X51923440Y29950613D01*
X51560613Y30313440D01*
X51491503Y30342066D01*
X51628582Y30398846D01*
X51723630Y30648581D01*
X50830000Y31542211D01*
X49936370Y30648581D01*
X50031418Y30398846D01*
X50180550Y30347059D01*
X50099387Y30313440D01*
X49736560Y29950613D01*
X49540200Y29476557D01*
X10529000Y29476557D01*
X10529000Y29625007D01*
X10418016Y29892945D01*
X10212945Y30098016D01*
X9945007Y30209000D01*
X9654993Y30209000D01*
X9387055Y30098016D01*
X9181984Y29892945D01*
X9071000Y29625007D01*
X3529060Y29625007D01*
X3663440Y29759387D01*
X3859800Y30233443D01*
X3859800Y30746557D01*
X3703042Y31125007D01*
X22471000Y31125007D01*
X22471000Y30834993D01*
X22581984Y30567055D01*
X22787055Y30361984D01*
X23054993Y30251000D01*
X23345007Y30251000D01*
X23612945Y30361984D01*
X23818016Y30567055D01*
X23929000Y30834993D01*
X23929000Y31125007D01*
X23818016Y31392945D01*
X23612945Y31598016D01*
X23345007Y31709000D01*
X23054993Y31709000D01*
X22787055Y31598016D01*
X22581984Y31392945D01*
X22471000Y31125007D01*
X3703042Y31125007D01*
X3663440Y31220613D01*
X3300613Y31583440D01*
X2874359Y31760000D01*
X3300613Y31936560D01*
X3340954Y31976901D01*
X49266853Y31976901D01*
X49302837Y31362201D01*
X49468846Y30961418D01*
X49718581Y30866370D01*
X50612211Y31760000D01*
X51047789Y31760000D01*
X51941419Y30866370D01*
X52191154Y30961418D01*
X52393147Y31543099D01*
X52357163Y32157799D01*
X52191154Y32558582D01*
X51941419Y32653630D01*
X51047789Y31760000D01*
X50612211Y31760000D01*
X49718581Y32653630D01*
X49468846Y32558582D01*
X49266853Y31976901D01*
X3340954Y31976901D01*
X3663440Y32299387D01*
X3859800Y32773443D01*
X3859800Y32905196D01*
X5170600Y32905196D01*
X5170600Y32654804D01*
X5266420Y32423473D01*
X5443473Y32246420D01*
X5674804Y32150600D01*
X5925196Y32150600D01*
X6156527Y32246420D01*
X6333580Y32423473D01*
X6429400Y32654804D01*
X6429400Y32905196D01*
X6333580Y33136527D01*
X6281526Y33188581D01*
X49936370Y33188581D01*
X49996725Y33030000D01*
X49936370Y32871419D01*
X50830000Y31977789D01*
X51723630Y32871419D01*
X51663275Y33030000D01*
X51723630Y33188581D01*
X50830000Y34082211D01*
X49936370Y33188581D01*
X6281526Y33188581D01*
X6156527Y33313580D01*
X5925196Y33409400D01*
X5674804Y33409400D01*
X5443473Y33313580D01*
X5266420Y33136527D01*
X5170600Y32905196D01*
X3859800Y32905196D01*
X3859800Y33286557D01*
X3663440Y33760613D01*
X3300613Y34123440D01*
X2826557Y34319800D01*
X2313443Y34319800D01*
X1839387Y34123440D01*
X1476560Y33760613D01*
X1280200Y33286557D01*
X590500Y33286557D01*
X590500Y34875007D01*
X30471000Y34875007D01*
X30471000Y34584993D01*
X30581984Y34317055D01*
X30787055Y34111984D01*
X31054993Y34001000D01*
X31345007Y34001000D01*
X31612945Y34111984D01*
X31818016Y34317055D01*
X31900795Y34516901D01*
X49266853Y34516901D01*
X49302837Y33902201D01*
X49468846Y33501418D01*
X49718581Y33406370D01*
X50612211Y34300000D01*
X51047789Y34300000D01*
X51941419Y33406370D01*
X52191154Y33501418D01*
X52393147Y34083099D01*
X52357163Y34697799D01*
X52191154Y35098582D01*
X51941419Y35193630D01*
X51047789Y34300000D01*
X50612211Y34300000D01*
X49718581Y35193630D01*
X49468846Y35098582D01*
X49266853Y34516901D01*
X31900795Y34516901D01*
X31929000Y34584993D01*
X31929000Y34875007D01*
X31818016Y35142945D01*
X31612945Y35348016D01*
X31345007Y35459000D01*
X31054993Y35459000D01*
X30787055Y35348016D01*
X30581984Y35142945D01*
X30471000Y34875007D01*
X590500Y34875007D01*
X590500Y54876557D01*
X1280200Y54876557D01*
X1280200Y54363443D01*
X1476560Y53889387D01*
X1839387Y53526560D01*
X2265641Y53350000D01*
X1839387Y53173440D01*
X1476560Y52810613D01*
X1280200Y52336557D01*
X1280200Y51823443D01*
X1476560Y51349387D01*
X1839387Y50986560D01*
X2265641Y50810000D01*
X1839387Y50633440D01*
X1476560Y50270613D01*
X1280200Y49796557D01*
X1280200Y49283443D01*
X1476560Y48809387D01*
X1839387Y48446560D01*
X2265641Y48270000D01*
X1839387Y48093440D01*
X1476560Y47730613D01*
X1280200Y47256557D01*
X1280200Y46743443D01*
X1476560Y46269387D01*
X1839387Y45906560D01*
X2265641Y45730000D01*
X1839387Y45553440D01*
X1476560Y45190613D01*
X1280200Y44716557D01*
X1280200Y44203443D01*
X1476560Y43729387D01*
X1839387Y43366560D01*
X2265641Y43190000D01*
X1839387Y43013440D01*
X1476560Y42650613D01*
X1280200Y42176557D01*
X1280200Y41663443D01*
X1476560Y41189387D01*
X1839387Y40826560D01*
X2265641Y40650000D01*
X1839387Y40473440D01*
X1476560Y40110613D01*
X1280200Y39636557D01*
X1280200Y39123443D01*
X1476560Y38649387D01*
X1839387Y38286560D01*
X2265641Y38110000D01*
X1839387Y37933440D01*
X1476560Y37570613D01*
X1280200Y37096557D01*
X1280200Y36583443D01*
X1476560Y36109387D01*
X1839387Y35746560D01*
X2313443Y35550200D01*
X2826557Y35550200D01*
X2983471Y35615196D01*
X47330600Y35615196D01*
X47330600Y35364804D01*
X47426420Y35133473D01*
X47603473Y34956420D01*
X47834804Y34860600D01*
X48085196Y34860600D01*
X48316527Y34956420D01*
X48493580Y35133473D01*
X48589400Y35364804D01*
X48589400Y35615196D01*
X48493580Y35846527D01*
X48316527Y36023580D01*
X48085196Y36119400D01*
X47834804Y36119400D01*
X47603473Y36023580D01*
X47426420Y35846527D01*
X47330600Y35615196D01*
X2983471Y35615196D01*
X3300613Y35746560D01*
X3663440Y36109387D01*
X3859800Y36583443D01*
X3859800Y37096557D01*
X49540200Y37096557D01*
X49540200Y36583443D01*
X49736560Y36109387D01*
X50099387Y35746560D01*
X50168497Y35717934D01*
X50031418Y35661154D01*
X49936370Y35411419D01*
X50830000Y34517789D01*
X51723630Y35411419D01*
X51628582Y35661154D01*
X51479450Y35712941D01*
X51560613Y35746560D01*
X51923440Y36109387D01*
X52119800Y36583443D01*
X52119800Y37096557D01*
X51923440Y37570613D01*
X51560613Y37933440D01*
X51086557Y38129800D01*
X50573443Y38129800D01*
X50099387Y37933440D01*
X49736560Y37570613D01*
X49540200Y37096557D01*
X3859800Y37096557D01*
X3663440Y37570613D01*
X3300613Y37933440D01*
X2874359Y38110000D01*
X3300613Y38286560D01*
X3663440Y38649387D01*
X3859800Y39123443D01*
X3859800Y39405196D01*
X12020600Y39405196D01*
X12020600Y39154804D01*
X12116420Y38923473D01*
X12293473Y38746420D01*
X12422761Y38692868D01*
X12366420Y38636527D01*
X12270600Y38405196D01*
X12270600Y38154804D01*
X12366420Y37923473D01*
X12543473Y37746420D01*
X12774804Y37650600D01*
X13025196Y37650600D01*
X13256527Y37746420D01*
X13433580Y37923473D01*
X13529400Y38154804D01*
X13529400Y38405196D01*
X13433580Y38636527D01*
X13256527Y38813580D01*
X13127239Y38867132D01*
X13183580Y38923473D01*
X13279400Y39154804D01*
X13279400Y39405196D01*
X13183580Y39636527D01*
X13006527Y39813580D01*
X12775196Y39909400D01*
X12524804Y39909400D01*
X12293473Y39813580D01*
X12116420Y39636527D01*
X12020600Y39405196D01*
X3859800Y39405196D01*
X3859800Y39636557D01*
X3663440Y40110613D01*
X3300613Y40473440D01*
X2874359Y40650000D01*
X3300613Y40826560D01*
X3663440Y41189387D01*
X3752830Y41405196D01*
X36920600Y41405196D01*
X36920600Y41154804D01*
X37016420Y40923473D01*
X37193473Y40746420D01*
X37424804Y40650600D01*
X37675196Y40650600D01*
X37906527Y40746420D01*
X38083580Y40923473D01*
X38179400Y41154804D01*
X38179400Y41405196D01*
X40870600Y41405196D01*
X40870600Y41154804D01*
X40966420Y40923473D01*
X41143473Y40746420D01*
X41374804Y40650600D01*
X41625196Y40650600D01*
X41856527Y40746420D01*
X42033580Y40923473D01*
X42129400Y41154804D01*
X42129400Y41405196D01*
X45020600Y41405196D01*
X45020600Y41154804D01*
X45116420Y40923473D01*
X45293473Y40746420D01*
X45524804Y40650600D01*
X45775196Y40650600D01*
X46006527Y40746420D01*
X46183580Y40923473D01*
X46279400Y41154804D01*
X46279400Y41405196D01*
X46183580Y41636527D01*
X46006527Y41813580D01*
X45775196Y41909400D01*
X45524804Y41909400D01*
X45293473Y41813580D01*
X45116420Y41636527D01*
X45020600Y41405196D01*
X42129400Y41405196D01*
X42033580Y41636527D01*
X41856527Y41813580D01*
X41625196Y41909400D01*
X41374804Y41909400D01*
X41143473Y41813580D01*
X40966420Y41636527D01*
X40870600Y41405196D01*
X38179400Y41405196D01*
X38083580Y41636527D01*
X37906527Y41813580D01*
X37675196Y41909400D01*
X37424804Y41909400D01*
X37193473Y41813580D01*
X37016420Y41636527D01*
X36920600Y41405196D01*
X3752830Y41405196D01*
X3859800Y41663443D01*
X3859800Y42176557D01*
X3663440Y42650613D01*
X3300613Y43013440D01*
X2874359Y43190000D01*
X3300613Y43366560D01*
X3663440Y43729387D01*
X3859800Y44203443D01*
X3859800Y44675007D01*
X13871000Y44675007D01*
X13871000Y44384993D01*
X13981984Y44117055D01*
X14187055Y43911984D01*
X14454993Y43801000D01*
X14745007Y43801000D01*
X15012945Y43911984D01*
X15218016Y44117055D01*
X15329000Y44384993D01*
X15329000Y44675007D01*
X15218016Y44942945D01*
X15085534Y45075427D01*
X15233580Y45223473D01*
X15329400Y45454804D01*
X15329400Y45705196D01*
X15233580Y45936527D01*
X15215761Y45954346D01*
X15224804Y45950600D01*
X15475196Y45950600D01*
X15706527Y46046420D01*
X15883580Y46223473D01*
X15979400Y46454804D01*
X15979400Y46705196D01*
X15883580Y46936527D01*
X15706527Y47113580D01*
X15475196Y47209400D01*
X15224804Y47209400D01*
X14993473Y47113580D01*
X14816420Y46936527D01*
X14720600Y46705196D01*
X14720600Y46454804D01*
X14816420Y46223473D01*
X14834239Y46205654D01*
X14825196Y46209400D01*
X14574804Y46209400D01*
X14343473Y46113580D01*
X14166420Y45936527D01*
X14070600Y45705196D01*
X14070600Y45454804D01*
X14166420Y45223473D01*
X14225820Y45164073D01*
X14187055Y45148016D01*
X13981984Y44942945D01*
X13871000Y44675007D01*
X3859800Y44675007D01*
X3859800Y44716557D01*
X3663440Y45190613D01*
X3300613Y45553440D01*
X2874359Y45730000D01*
X3300613Y45906560D01*
X3663440Y46269387D01*
X3859800Y46743443D01*
X3859800Y47256557D01*
X3756811Y47505196D01*
X34070600Y47505196D01*
X34070600Y47254804D01*
X34166420Y47023473D01*
X34343473Y46846420D01*
X34574804Y46750600D01*
X34825196Y46750600D01*
X35056527Y46846420D01*
X35233580Y47023473D01*
X35329400Y47254804D01*
X35329400Y47505196D01*
X35308690Y47555196D01*
X38070600Y47555196D01*
X38070600Y47304804D01*
X38166420Y47073473D01*
X38343473Y46896420D01*
X38574804Y46800600D01*
X38825196Y46800600D01*
X39056527Y46896420D01*
X39233580Y47073473D01*
X39329400Y47304804D01*
X39329400Y47555196D01*
X42070600Y47555196D01*
X42070600Y47304804D01*
X42166420Y47073473D01*
X42343473Y46896420D01*
X42574804Y46800600D01*
X42825196Y46800600D01*
X43056527Y46896420D01*
X43100000Y46939893D01*
X43243473Y46796420D01*
X43474804Y46700600D01*
X43725196Y46700600D01*
X43956527Y46796420D01*
X44133580Y46973473D01*
X44229400Y47204804D01*
X44229400Y47455196D01*
X44133580Y47686527D01*
X43956527Y47863580D01*
X43725196Y47959400D01*
X43474804Y47959400D01*
X43243473Y47863580D01*
X43200000Y47820107D01*
X43056527Y47963580D01*
X42825196Y48059400D01*
X42574804Y48059400D01*
X42343473Y47963580D01*
X42166420Y47786527D01*
X42070600Y47555196D01*
X39329400Y47555196D01*
X39233580Y47786527D01*
X39056527Y47963580D01*
X38825196Y48059400D01*
X38574804Y48059400D01*
X38343473Y47963580D01*
X38166420Y47786527D01*
X38070600Y47555196D01*
X35308690Y47555196D01*
X35233580Y47736527D01*
X35056527Y47913580D01*
X34825196Y48009400D01*
X34574804Y48009400D01*
X34343473Y47913580D01*
X34166420Y47736527D01*
X34070600Y47505196D01*
X3756811Y47505196D01*
X3663440Y47730613D01*
X3300613Y48093440D01*
X2874359Y48270000D01*
X2983471Y48315196D01*
X47330600Y48315196D01*
X47330600Y48064804D01*
X47426420Y47833473D01*
X47603473Y47656420D01*
X47834804Y47560600D01*
X48085196Y47560600D01*
X48316527Y47656420D01*
X48493580Y47833473D01*
X48589400Y48064804D01*
X48589400Y48315196D01*
X48493580Y48546527D01*
X48316527Y48723580D01*
X48085196Y48819400D01*
X47834804Y48819400D01*
X47603473Y48723580D01*
X47426420Y48546527D01*
X47330600Y48315196D01*
X2983471Y48315196D01*
X3300613Y48446560D01*
X3663440Y48809387D01*
X3859800Y49283443D01*
X3859800Y49796557D01*
X3663440Y50270613D01*
X3300613Y50633440D01*
X2874359Y50810000D01*
X3300613Y50986560D01*
X3663440Y51349387D01*
X3859800Y51823443D01*
X3859800Y52336557D01*
X3663440Y52810613D01*
X3618857Y52855196D01*
X30820600Y52855196D01*
X30820600Y52604804D01*
X30916420Y52373473D01*
X31093473Y52196420D01*
X31324804Y52100600D01*
X31575196Y52100600D01*
X31806527Y52196420D01*
X31983580Y52373473D01*
X32079400Y52604804D01*
X32079400Y52855196D01*
X31983580Y53086527D01*
X31806527Y53263580D01*
X31575196Y53359400D01*
X31324804Y53359400D01*
X31093473Y53263580D01*
X30916420Y53086527D01*
X30820600Y52855196D01*
X3618857Y52855196D01*
X3300613Y53173440D01*
X2874359Y53350000D01*
X3300613Y53526560D01*
X3663440Y53889387D01*
X3859800Y54363443D01*
X3859800Y54876557D01*
X49540200Y54876557D01*
X49540200Y54363443D01*
X49736560Y53889387D01*
X50099387Y53526560D01*
X50525641Y53350000D01*
X50099387Y53173440D01*
X49736560Y52810613D01*
X49540200Y52336557D01*
X49540200Y51823443D01*
X49736560Y51349387D01*
X50099387Y50986560D01*
X50525641Y50810000D01*
X50099387Y50633440D01*
X49736560Y50270613D01*
X49540200Y49796557D01*
X49540200Y49283443D01*
X49736560Y48809387D01*
X50099387Y48446560D01*
X50525641Y48270000D01*
X50099387Y48093440D01*
X49736560Y47730613D01*
X49540200Y47256557D01*
X49540200Y46743443D01*
X49736560Y46269387D01*
X50099387Y45906560D01*
X50525641Y45730000D01*
X50099387Y45553440D01*
X49736560Y45190613D01*
X49540200Y44716557D01*
X49540200Y44203443D01*
X49736560Y43729387D01*
X50099387Y43366560D01*
X50525641Y43190000D01*
X50099387Y43013440D01*
X49736560Y42650613D01*
X49540200Y42176557D01*
X49540200Y41663443D01*
X49736560Y41189387D01*
X50099387Y40826560D01*
X50573443Y40630200D01*
X51086557Y40630200D01*
X51560613Y40826560D01*
X51923440Y41189387D01*
X52119800Y41663443D01*
X52119800Y42176557D01*
X51923440Y42650613D01*
X51560613Y43013440D01*
X51134359Y43190000D01*
X51560613Y43366560D01*
X51923440Y43729387D01*
X52119800Y44203443D01*
X52119800Y44716557D01*
X51923440Y45190613D01*
X51560613Y45553440D01*
X51134359Y45730000D01*
X51560613Y45906560D01*
X51923440Y46269387D01*
X52119800Y46743443D01*
X52119800Y47256557D01*
X51923440Y47730613D01*
X51560613Y48093440D01*
X51134359Y48270000D01*
X51560613Y48446560D01*
X51923440Y48809387D01*
X52119800Y49283443D01*
X52119800Y49796557D01*
X51923440Y50270613D01*
X51560613Y50633440D01*
X51134359Y50810000D01*
X51560613Y50986560D01*
X51923440Y51349387D01*
X52119800Y51823443D01*
X52119800Y52336557D01*
X51923440Y52810613D01*
X51560613Y53173440D01*
X51134359Y53350000D01*
X51560613Y53526560D01*
X51923440Y53889387D01*
X52119800Y54363443D01*
X52119800Y54876557D01*
X51923440Y55350613D01*
X51560613Y55713440D01*
X51086557Y55909800D01*
X50573443Y55909800D01*
X50099387Y55713440D01*
X49736560Y55350613D01*
X49540200Y54876557D01*
X3859800Y54876557D01*
X3663440Y55350613D01*
X3300613Y55713440D01*
X2826557Y55909800D01*
X2313443Y55909800D01*
X1839387Y55713440D01*
X1476560Y55350613D01*
X1280200Y54876557D01*
X590500Y54876557D01*
X590500Y59139500D01*
X17106371Y59139500D01*
X16625446Y58940294D01*
X16625446Y58940294D01*
G37*
X16625446Y58940294D02*
X16034706Y58349554D01*
X15715000Y57577716D01*
X15715000Y56742284D01*
X16034706Y55970446D01*
X16625446Y55379706D01*
X17397284Y55060000D01*
X18232716Y55060000D01*
X19004554Y55379706D01*
X19595294Y55970446D01*
X19915000Y56742284D01*
X19915000Y57577716D01*
X19595294Y58349554D01*
X19004554Y58940294D01*
X18523629Y59139500D01*
X45034300Y59139500D01*
X44565446Y58945294D01*
X43974706Y58354554D01*
X43655000Y57582716D01*
X43655000Y56747284D01*
X43974706Y55975446D01*
X44565446Y55384706D01*
X45337284Y55065000D01*
X46172716Y55065000D01*
X46944554Y55384706D01*
X47535294Y55975446D01*
X47855000Y56747284D01*
X47855000Y57582716D01*
X47535294Y58354554D01*
X46944554Y58945294D01*
X46475700Y59139500D01*
X48076118Y59139500D01*
X50430166Y56785451D01*
X50460321Y56740321D01*
X50505451Y56710166D01*
X50639107Y56620860D01*
X50850000Y56578911D01*
X50903235Y56589500D01*
X52809501Y56589500D01*
X52809500Y5803628D01*
X52610294Y6284554D01*
X52019554Y6875294D01*
X51247716Y7195000D01*
X50412284Y7195000D01*
X49640446Y6875294D01*
X49049706Y6284554D01*
X48730000Y5512716D01*
X48730000Y4677284D01*
X49049706Y3905446D01*
X49640446Y3314706D01*
X49984740Y3172095D01*
X49843473Y3113580D01*
X49666420Y2936527D01*
X49570600Y2705196D01*
X49570600Y2454804D01*
X49666420Y2223473D01*
X49843473Y2046420D01*
X50074804Y1950600D01*
X50325196Y1950600D01*
X50556527Y2046420D01*
X50733580Y2223473D01*
X50829400Y2454804D01*
X50829400Y2705196D01*
X50733580Y2936527D01*
X50675107Y2995000D01*
X51247716Y2995000D01*
X52019554Y3314706D01*
X52610294Y3905446D01*
X52809500Y4386372D01*
X52809500Y-8354500D01*
X590500Y-8354500D01*
X590500Y-6974993D01*
X15571000Y-6974993D01*
X15571000Y-7265007D01*
X15681984Y-7532945D01*
X15887055Y-7738016D01*
X16154993Y-7849000D01*
X16445007Y-7849000D01*
X16712945Y-7738016D01*
X16918016Y-7532945D01*
X17029000Y-7265007D01*
X17029000Y-6974993D01*
X16918016Y-6707055D01*
X16712945Y-6501984D01*
X16445007Y-6391000D01*
X16154993Y-6391000D01*
X15887055Y-6501984D01*
X15681984Y-6707055D01*
X15571000Y-6974993D01*
X590500Y-6974993D01*
X590500Y-4644804D01*
X13470600Y-4644804D01*
X13470600Y-4895196D01*
X13566420Y-5126527D01*
X13743473Y-5303580D01*
X13974804Y-5399400D01*
X14225196Y-5399400D01*
X14456527Y-5303580D01*
X14633580Y-5126527D01*
X14729400Y-4895196D01*
X14729400Y-4644804D01*
X14633580Y-4413473D01*
X14456527Y-4236420D01*
X14225196Y-4140600D01*
X13974804Y-4140600D01*
X13743473Y-4236420D01*
X13566420Y-4413473D01*
X13470600Y-4644804D01*
X590500Y-4644804D01*
X590500Y-3124993D01*
X28021000Y-3124993D01*
X28021000Y-3415007D01*
X28131984Y-3682945D01*
X28337055Y-3888016D01*
X28604993Y-3999000D01*
X28895007Y-3999000D01*
X29162945Y-3888016D01*
X29217051Y-3833910D01*
X34062097Y-3833910D01*
X34206523Y-4182616D01*
X34581146Y-4610741D01*
X35091089Y-4862915D01*
X35316000Y-4752856D01*
X35316000Y-3609000D01*
X35624000Y-3609000D01*
X35624000Y-4752856D01*
X35848911Y-4862915D01*
X36358854Y-4610741D01*
X36733477Y-4182616D01*
X36877903Y-3833910D01*
X36766889Y-3609000D01*
X35624000Y-3609000D01*
X35316000Y-3609000D01*
X34173111Y-3609000D01*
X34062097Y-3833910D01*
X29217051Y-3833910D01*
X29368016Y-3682945D01*
X29479000Y-3415007D01*
X29479000Y-3124993D01*
X29458744Y-3076090D01*
X34062097Y-3076090D01*
X34173111Y-3301000D01*
X35316000Y-3301000D01*
X35316000Y-3281000D01*
X35624000Y-3281000D01*
X35624000Y-3301000D01*
X36766889Y-3301000D01*
X36877903Y-3076090D01*
X36838646Y-2981305D01*
X42000000Y-2981305D01*
X42000000Y-3458695D01*
X42182689Y-3899745D01*
X42520255Y-4237311D01*
X42961305Y-4420000D01*
X43438695Y-4420000D01*
X43879745Y-4237311D01*
X44217311Y-3899745D01*
X44400000Y-3458695D01*
X44400000Y-2981305D01*
X44217311Y-2540255D01*
X43879745Y-2202689D01*
X43438695Y-2020000D01*
X42961305Y-2020000D01*
X42520255Y-2202689D01*
X42182689Y-2540255D01*
X42000000Y-2981305D01*
X36838646Y-2981305D01*
X36733477Y-2727384D01*
X36358854Y-2299259D01*
X35872063Y-2058534D01*
X35938217Y-2045375D01*
X36335152Y-1780152D01*
X36600375Y-1383217D01*
X36693509Y-915000D01*
X36600375Y-446783D01*
X36335152Y-49848D01*
X35938217Y215375D01*
X35588188Y285000D01*
X35351812Y285000D01*
X35001783Y215375D01*
X34604848Y-49848D01*
X34339625Y-446783D01*
X34246491Y-915000D01*
X34339625Y-1383217D01*
X34604848Y-1780152D01*
X35001783Y-2045375D01*
X35067937Y-2058534D01*
X34581146Y-2299259D01*
X34206523Y-2727384D01*
X34062097Y-3076090D01*
X29458744Y-3076090D01*
X29368016Y-2857055D01*
X29162945Y-2651984D01*
X28895007Y-2541000D01*
X28604993Y-2541000D01*
X28337055Y-2651984D01*
X28131984Y-2857055D01*
X28021000Y-3124993D01*
X590500Y-3124993D01*
X590500Y-774993D01*
X9871000Y-774993D01*
X9871000Y-1065007D01*
X9981984Y-1332945D01*
X10187055Y-1538016D01*
X10454993Y-1649000D01*
X10745007Y-1649000D01*
X11012945Y-1538016D01*
X11218016Y-1332945D01*
X11329000Y-1065007D01*
X11329000Y-774993D01*
X11218016Y-507055D01*
X11012945Y-301984D01*
X10745007Y-191000D01*
X10454993Y-191000D01*
X10187055Y-301984D01*
X9981984Y-507055D01*
X9871000Y-774993D01*
X590500Y-774993D01*
X590500Y1395824D01*
X1166851Y1395824D01*
X1366162Y857371D01*
X1756359Y436178D01*
X2238951Y206189D01*
X2466000Y317017D01*
X2466000Y1626000D01*
X1300484Y1626000D01*
X1166851Y1395824D01*
X590500Y1395824D01*
X590500Y2164176D01*
X1166851Y2164176D01*
X1300484Y1934000D01*
X2466000Y1934000D01*
X2466000Y3242983D01*
X2774000Y3242983D01*
X2774000Y1934000D01*
X2794000Y1934000D01*
X2794000Y1626000D01*
X2774000Y1626000D01*
X2774000Y317017D01*
X3001049Y206189D01*
X3483641Y436178D01*
X3873838Y857371D01*
X4005228Y1212330D01*
X4016815Y1154078D01*
X4285044Y752644D01*
X4686477Y484415D01*
X5160000Y390225D01*
X5633522Y484415D01*
X6034956Y752644D01*
X6303185Y1154077D01*
X6373600Y1508076D01*
X6373600Y2051923D01*
X6373600Y2051924D01*
X6486400Y2051924D01*
X6486400Y1508077D01*
X6556815Y1154078D01*
X6825044Y752644D01*
X7226477Y484415D01*
X7700000Y390225D01*
X8173522Y484415D01*
X8574956Y752644D01*
X8843185Y1154077D01*
X8913600Y1508076D01*
X8913600Y2051923D01*
X8913600Y2051924D01*
X9026400Y2051924D01*
X9026400Y1508077D01*
X9096815Y1154078D01*
X9365044Y752644D01*
X9766477Y484415D01*
X10240000Y390225D01*
X10713522Y484415D01*
X11114956Y752644D01*
X11383185Y1154077D01*
X11453600Y1508076D01*
X11453600Y2051923D01*
X11453600Y2051924D01*
X11566400Y2051924D01*
X11566400Y1508077D01*
X11636815Y1154078D01*
X11905044Y752644D01*
X12306477Y484415D01*
X12780000Y390225D01*
X13253522Y484415D01*
X13654956Y752644D01*
X13923185Y1154077D01*
X13993600Y1508076D01*
X13993600Y2051923D01*
X13993600Y2051924D01*
X14106400Y2051924D01*
X14106400Y1508077D01*
X14176815Y1154078D01*
X14445044Y752644D01*
X14846477Y484415D01*
X15320000Y390225D01*
X15793522Y484415D01*
X16194956Y752644D01*
X16463185Y1154077D01*
X16533600Y1508076D01*
X16533600Y2051923D01*
X16533600Y2051924D01*
X16646400Y2051924D01*
X16646400Y1508077D01*
X16716815Y1154078D01*
X16985044Y752644D01*
X17386477Y484415D01*
X17860000Y390225D01*
X18333522Y484415D01*
X18734956Y752644D01*
X19003185Y1154077D01*
X19073600Y1508076D01*
X19073600Y2051923D01*
X19073600Y2051924D01*
X19186400Y2051924D01*
X19186400Y1508077D01*
X19256815Y1154078D01*
X19525044Y752644D01*
X19926477Y484415D01*
X20400000Y390225D01*
X20873522Y484415D01*
X21274956Y752644D01*
X21543185Y1154077D01*
X21613600Y1508076D01*
X21613600Y2051923D01*
X21613600Y2051924D01*
X21726400Y2051924D01*
X21726400Y1508077D01*
X21796815Y1154078D01*
X22065044Y752644D01*
X22466477Y484415D01*
X22940000Y390225D01*
X23413522Y484415D01*
X23814956Y752644D01*
X24083185Y1154077D01*
X24153600Y1508076D01*
X24153600Y2051923D01*
X24083185Y2405922D01*
X23822544Y2796000D01*
X24255465Y2796000D01*
X24255465Y764000D01*
X24282940Y625876D01*
X24361180Y508780D01*
X24478276Y430540D01*
X24616400Y403065D01*
X26343600Y403065D01*
X26481724Y430540D01*
X26598820Y508780D01*
X26677060Y625876D01*
X26704535Y764000D01*
X26704535Y1625000D01*
X34246491Y1625000D01*
X34339625Y1156783D01*
X34604848Y759848D01*
X35001783Y494625D01*
X35351812Y425000D01*
X35588188Y425000D01*
X35938217Y494625D01*
X36178528Y655196D01*
X46170600Y655196D01*
X46170600Y404804D01*
X46266420Y173473D01*
X46443473Y-3580D01*
X46674804Y-99400D01*
X46925196Y-99400D01*
X47156527Y-3580D01*
X47333580Y173473D01*
X47429400Y404804D01*
X47429400Y655196D01*
X47333580Y886527D01*
X47156527Y1063580D01*
X46925196Y1159400D01*
X46674804Y1159400D01*
X46443473Y1063580D01*
X46266420Y886527D01*
X46170600Y655196D01*
X36178528Y655196D01*
X36335152Y759848D01*
X36600375Y1156783D01*
X36693509Y1625000D01*
X36600375Y2093217D01*
X36335152Y2490152D01*
X35938217Y2755375D01*
X35588188Y2825000D01*
X35351812Y2825000D01*
X35001783Y2755375D01*
X34604848Y2490152D01*
X34339625Y2093217D01*
X34246491Y1625000D01*
X26704535Y1625000D01*
X26704535Y2796000D01*
X26677060Y2934124D01*
X26598820Y3051220D01*
X26481724Y3129460D01*
X26343600Y3156935D01*
X24616400Y3156935D01*
X24478276Y3129460D01*
X24361180Y3051220D01*
X24282940Y2934124D01*
X24255465Y2796000D01*
X23822544Y2796000D01*
X23814956Y2807356D01*
X23413523Y3075585D01*
X22940000Y3169775D01*
X22466478Y3075585D01*
X22065045Y2807356D01*
X21796815Y2405923D01*
X21726400Y2051924D01*
X21613600Y2051924D01*
X21543185Y2405922D01*
X21274956Y2807356D01*
X20873523Y3075585D01*
X20400000Y3169775D01*
X19926478Y3075585D01*
X19525045Y2807356D01*
X19256815Y2405923D01*
X19186400Y2051924D01*
X19073600Y2051924D01*
X19003185Y2405922D01*
X18734956Y2807356D01*
X18333523Y3075585D01*
X17860000Y3169775D01*
X17386478Y3075585D01*
X16985045Y2807356D01*
X16716815Y2405923D01*
X16646400Y2051924D01*
X16533600Y2051924D01*
X16463185Y2405922D01*
X16194956Y2807356D01*
X15793523Y3075585D01*
X15320000Y3169775D01*
X14846478Y3075585D01*
X14445045Y2807356D01*
X14176815Y2405923D01*
X14106400Y2051924D01*
X13993600Y2051924D01*
X13923185Y2405922D01*
X13654956Y2807356D01*
X13253523Y3075585D01*
X12780000Y3169775D01*
X12306478Y3075585D01*
X11905045Y2807356D01*
X11636815Y2405923D01*
X11566400Y2051924D01*
X11453600Y2051924D01*
X11383185Y2405922D01*
X11114956Y2807356D01*
X10713523Y3075585D01*
X10240000Y3169775D01*
X9766478Y3075585D01*
X9365045Y2807356D01*
X9096815Y2405923D01*
X9026400Y2051924D01*
X8913600Y2051924D01*
X8843185Y2405922D01*
X8574956Y2807356D01*
X8173523Y3075585D01*
X7700000Y3169775D01*
X7226478Y3075585D01*
X6825045Y2807356D01*
X6556815Y2405923D01*
X6486400Y2051924D01*
X6373600Y2051924D01*
X6303185Y2405922D01*
X6034956Y2807356D01*
X5633523Y3075585D01*
X5160000Y3169775D01*
X4686478Y3075585D01*
X4285045Y2807356D01*
X4016815Y2405923D01*
X4005228Y2347670D01*
X3873838Y2702629D01*
X3483641Y3123822D01*
X3001049Y3353811D01*
X2774000Y3242983D01*
X2466000Y3242983D01*
X2238951Y3353811D01*
X1756359Y3123822D01*
X1366162Y2702629D01*
X1166851Y2164176D01*
X590500Y2164176D01*
X590500Y5651371D01*
X789706Y5170446D01*
X1380446Y4579706D01*
X2152284Y4260000D01*
X2987716Y4260000D01*
X3759554Y4579706D01*
X4194848Y5015000D01*
X34263144Y5015000D01*
X34263144Y3315000D01*
X34290308Y3178437D01*
X34367665Y3062665D01*
X34483437Y2985308D01*
X34620000Y2958144D01*
X36320000Y2958144D01*
X36456563Y2985308D01*
X36572335Y3062665D01*
X36649692Y3178437D01*
X36676856Y3315000D01*
X36676856Y4018695D01*
X42000000Y4018695D01*
X42000000Y3541305D01*
X42182689Y3100255D01*
X42520255Y2762689D01*
X42961305Y2580000D01*
X43438695Y2580000D01*
X43879745Y2762689D01*
X44217311Y3100255D01*
X44400000Y3541305D01*
X44400000Y4018695D01*
X44217311Y4459745D01*
X43879745Y4797311D01*
X43438695Y4980000D01*
X42961305Y4980000D01*
X42520255Y4797311D01*
X42182689Y4459745D01*
X42000000Y4018695D01*
X36676856Y4018695D01*
X36676856Y5015000D01*
X36649692Y5151563D01*
X36572335Y5267335D01*
X36456563Y5344692D01*
X36320000Y5371856D01*
X34620000Y5371856D01*
X34483437Y5344692D01*
X34367665Y5267335D01*
X34290308Y5151563D01*
X34263144Y5015000D01*
X4194848Y5015000D01*
X4350294Y5170446D01*
X4670000Y5942284D01*
X4670000Y5975007D01*
X27121000Y5975007D01*
X27121000Y5684993D01*
X27231984Y5417055D01*
X27437055Y5211984D01*
X27704993Y5101000D01*
X27995007Y5101000D01*
X28262945Y5211984D01*
X28468016Y5417055D01*
X28579000Y5684993D01*
X28579000Y5975007D01*
X28468016Y6242945D01*
X28262945Y6448016D01*
X27995007Y6559000D01*
X27704993Y6559000D01*
X27437055Y6448016D01*
X27231984Y6242945D01*
X27121000Y5975007D01*
X4670000Y5975007D01*
X4670000Y6777716D01*
X4368668Y7505196D01*
X25520600Y7505196D01*
X25520600Y7254804D01*
X25616420Y7023473D01*
X25793473Y6846420D01*
X26024804Y6750600D01*
X26275196Y6750600D01*
X26506527Y6846420D01*
X26683580Y7023473D01*
X26779400Y7254804D01*
X26779400Y7505196D01*
X26760593Y7550600D01*
X26875196Y7550600D01*
X27106527Y7646420D01*
X27283580Y7823473D01*
X27379400Y8054804D01*
X27379400Y8305196D01*
X27283580Y8536527D01*
X27106527Y8713580D01*
X26875196Y8809400D01*
X26624804Y8809400D01*
X26393473Y8713580D01*
X26216420Y8536527D01*
X26120600Y8305196D01*
X26120600Y8054804D01*
X26139407Y8009400D01*
X26024804Y8009400D01*
X25793473Y7913580D01*
X25616420Y7736527D01*
X25520600Y7505196D01*
X4368668Y7505196D01*
X4350294Y7549554D01*
X3759554Y8140294D01*
X2987716Y8460000D01*
X2152284Y8460000D01*
X1380446Y8140294D01*
X789706Y7549554D01*
X590500Y7068629D01*
X590500Y8825007D01*
X10321000Y8825007D01*
X10321000Y8534993D01*
X10431984Y8267055D01*
X10637055Y8061984D01*
X10904993Y7951000D01*
X11195007Y7951000D01*
X11462945Y8061984D01*
X11668016Y8267055D01*
X11779000Y8534993D01*
X11779000Y8825007D01*
X11668016Y9092945D01*
X11462945Y9298016D01*
X11195007Y9409000D01*
X10904993Y9409000D01*
X10637055Y9298016D01*
X10431984Y9092945D01*
X10321000Y8825007D01*
X590500Y8825007D01*
X590500Y33286557D01*
X1280200Y33286557D01*
X1280200Y32773443D01*
X1476560Y32299387D01*
X1839387Y31936560D01*
X2265641Y31760000D01*
X1839387Y31583440D01*
X1476560Y31220613D01*
X1280200Y30746557D01*
X1280200Y30233443D01*
X1476560Y29759387D01*
X1839387Y29396560D01*
X2265641Y29220000D01*
X1839387Y29043440D01*
X1476560Y28680613D01*
X1280200Y28206557D01*
X1280200Y27693443D01*
X1476560Y27219387D01*
X1839387Y26856560D01*
X2265641Y26680000D01*
X1839387Y26503440D01*
X1476560Y26140613D01*
X1280200Y25666557D01*
X1280200Y25153443D01*
X1476560Y24679387D01*
X1839387Y24316560D01*
X2265641Y24140000D01*
X1839387Y23963440D01*
X1476560Y23600613D01*
X1280200Y23126557D01*
X1280200Y22613443D01*
X1476560Y22139387D01*
X1839387Y21776560D01*
X2265641Y21600000D01*
X1839387Y21423440D01*
X1476560Y21060613D01*
X1280200Y20586557D01*
X1280200Y20073443D01*
X1476560Y19599387D01*
X1839387Y19236560D01*
X2265641Y19060000D01*
X1839387Y18883440D01*
X1476560Y18520613D01*
X1280200Y18046557D01*
X1280200Y17533443D01*
X1476560Y17059387D01*
X1839387Y16696560D01*
X2265641Y16520000D01*
X1839387Y16343440D01*
X1476560Y15980613D01*
X1280200Y15506557D01*
X1280200Y14993443D01*
X1476560Y14519387D01*
X1839387Y14156560D01*
X2265641Y13980000D01*
X1839387Y13803440D01*
X1476560Y13440613D01*
X1280200Y12966557D01*
X1280200Y12453443D01*
X1476560Y11979387D01*
X1839387Y11616560D01*
X2265641Y11440000D01*
X1839387Y11263440D01*
X1476560Y10900613D01*
X1280200Y10426557D01*
X1280200Y9913443D01*
X1476560Y9439387D01*
X1839387Y9076560D01*
X2313443Y8880200D01*
X2826557Y8880200D01*
X3300613Y9076560D01*
X3663440Y9439387D01*
X3719615Y9575007D01*
X12221000Y9575007D01*
X12221000Y9284993D01*
X12331984Y9017055D01*
X12537055Y8811984D01*
X12804993Y8701000D01*
X13095007Y8701000D01*
X13362945Y8811984D01*
X13568016Y9017055D01*
X13679000Y9284993D01*
X13679000Y9575007D01*
X13575447Y9825007D01*
X36121000Y9825007D01*
X36121000Y9534993D01*
X36231984Y9267055D01*
X36437055Y9061984D01*
X36704993Y8951000D01*
X36995007Y8951000D01*
X37262945Y9061984D01*
X37468016Y9267055D01*
X37579000Y9534993D01*
X37579000Y9825007D01*
X37468016Y10092945D01*
X37262945Y10298016D01*
X36995007Y10409000D01*
X36704993Y10409000D01*
X36437055Y10298016D01*
X36231984Y10092945D01*
X36121000Y9825007D01*
X13575447Y9825007D01*
X13568016Y9842945D01*
X13362945Y10048016D01*
X13095007Y10159000D01*
X12804993Y10159000D01*
X12537055Y10048016D01*
X12331984Y9842945D01*
X12221000Y9575007D01*
X3719615Y9575007D01*
X3859800Y9913443D01*
X3859800Y10426557D01*
X3663440Y10900613D01*
X3300613Y11263440D01*
X2874359Y11440000D01*
X3300613Y11616560D01*
X3663440Y11979387D01*
X3859800Y12453443D01*
X3859800Y12825007D01*
X15471000Y12825007D01*
X15471000Y12534993D01*
X15581984Y12267055D01*
X15787055Y12061984D01*
X16054993Y11951000D01*
X16345007Y11951000D01*
X16612945Y12061984D01*
X16818016Y12267055D01*
X16929000Y12534993D01*
X16929000Y12825007D01*
X16818016Y13092945D01*
X16612945Y13298016D01*
X16345007Y13409000D01*
X16054993Y13409000D01*
X15787055Y13298016D01*
X15581984Y13092945D01*
X15471000Y12825007D01*
X3859800Y12825007D01*
X3859800Y12966557D01*
X3663440Y13440613D01*
X3300613Y13803440D01*
X2874359Y13980000D01*
X3103726Y14075007D01*
X21091000Y14075007D01*
X21091000Y13784993D01*
X21201984Y13517055D01*
X21407055Y13311984D01*
X21674993Y13201000D01*
X21965007Y13201000D01*
X22232945Y13311984D01*
X22438016Y13517055D01*
X22536657Y13755196D01*
X23220600Y13755196D01*
X23220600Y13504804D01*
X23316420Y13273473D01*
X23493473Y13096420D01*
X23724804Y13000600D01*
X23975196Y13000600D01*
X23986291Y13005196D01*
X24620600Y13005196D01*
X24620600Y12754804D01*
X24716420Y12523473D01*
X24893473Y12346420D01*
X25124804Y12250600D01*
X25189407Y12250600D01*
X25170600Y12205196D01*
X25170600Y11954804D01*
X25266420Y11723473D01*
X25443473Y11546420D01*
X25674804Y11450600D01*
X25925196Y11450600D01*
X26156527Y11546420D01*
X26333580Y11723473D01*
X26429400Y11954804D01*
X26429400Y12205196D01*
X26333580Y12436527D01*
X26156527Y12613580D01*
X25935346Y12705196D01*
X39120600Y12705196D01*
X39120600Y12454804D01*
X39216420Y12223473D01*
X39393473Y12046420D01*
X39624804Y11950600D01*
X39875196Y11950600D01*
X40106527Y12046420D01*
X40283580Y12223473D01*
X40379400Y12454804D01*
X40379400Y12705196D01*
X40283580Y12936527D01*
X40106527Y13113580D01*
X39875196Y13209400D01*
X39624804Y13209400D01*
X39393473Y13113580D01*
X39216420Y12936527D01*
X39120600Y12705196D01*
X25935346Y12705196D01*
X25925196Y12709400D01*
X25860593Y12709400D01*
X25879400Y12754804D01*
X25879400Y13005196D01*
X25783580Y13236527D01*
X25606527Y13413580D01*
X25375196Y13509400D01*
X25124804Y13509400D01*
X24893473Y13413580D01*
X24716420Y13236527D01*
X24620600Y13005196D01*
X23986291Y13005196D01*
X24206527Y13096420D01*
X24383580Y13273473D01*
X24479400Y13504804D01*
X24479400Y13755196D01*
X24383580Y13986527D01*
X24206527Y14163580D01*
X23975196Y14259400D01*
X23724804Y14259400D01*
X23493473Y14163580D01*
X23316420Y13986527D01*
X23220600Y13755196D01*
X22536657Y13755196D01*
X22549000Y13784993D01*
X22549000Y14075007D01*
X22438016Y14342945D01*
X22232945Y14548016D01*
X21965007Y14659000D01*
X21674993Y14659000D01*
X21407055Y14548016D01*
X21201984Y14342945D01*
X21091000Y14075007D01*
X3103726Y14075007D01*
X3300613Y14156560D01*
X3663440Y14519387D01*
X3779676Y14800007D01*
X43671000Y14800007D01*
X43671000Y14509993D01*
X43781984Y14242055D01*
X43987055Y14036984D01*
X44254993Y13926000D01*
X44545007Y13926000D01*
X44812945Y14036984D01*
X45018016Y14242055D01*
X45129000Y14509993D01*
X45129000Y14800007D01*
X45018016Y15067945D01*
X44812945Y15273016D01*
X44545007Y15384000D01*
X44254993Y15384000D01*
X43987055Y15273016D01*
X43781984Y15067945D01*
X43671000Y14800007D01*
X3779676Y14800007D01*
X3859800Y14993443D01*
X3859800Y15506557D01*
X3663440Y15980613D01*
X3319046Y16325007D01*
X27121000Y16325007D01*
X27121000Y16034993D01*
X27231984Y15767055D01*
X27437055Y15561984D01*
X27704993Y15451000D01*
X27995007Y15451000D01*
X28262945Y15561984D01*
X28468016Y15767055D01*
X28579000Y16034993D01*
X28579000Y16325007D01*
X28468016Y16592945D01*
X28262945Y16798016D01*
X27995007Y16909000D01*
X27704993Y16909000D01*
X27437055Y16798016D01*
X27231984Y16592945D01*
X27121000Y16325007D01*
X3319046Y16325007D01*
X3300613Y16343440D01*
X2874359Y16520000D01*
X3300613Y16696560D01*
X3663440Y17059387D01*
X3859800Y17533443D01*
X3859800Y18046557D01*
X3731958Y18355196D01*
X34820600Y18355196D01*
X34820600Y18104804D01*
X34916420Y17873473D01*
X35093473Y17696420D01*
X35324804Y17600600D01*
X35575196Y17600600D01*
X35806527Y17696420D01*
X35983580Y17873473D01*
X36079400Y18104804D01*
X36079400Y18355196D01*
X35983580Y18586527D01*
X35806527Y18763580D01*
X35575196Y18859400D01*
X35324804Y18859400D01*
X35093473Y18763580D01*
X34916420Y18586527D01*
X34820600Y18355196D01*
X3731958Y18355196D01*
X3663440Y18520613D01*
X3300613Y18883440D01*
X2874359Y19060000D01*
X3300613Y19236560D01*
X3663440Y19599387D01*
X3756894Y19825007D01*
X39071000Y19825007D01*
X39071000Y19534993D01*
X39181984Y19267055D01*
X39387055Y19061984D01*
X39654993Y18951000D01*
X39945007Y18951000D01*
X40212945Y19061984D01*
X40256157Y19105196D01*
X48120600Y19105196D01*
X48120600Y18854804D01*
X48216420Y18623473D01*
X48393473Y18446420D01*
X48624804Y18350600D01*
X48875196Y18350600D01*
X49106527Y18446420D01*
X49283580Y18623473D01*
X49379400Y18854804D01*
X49379400Y19105196D01*
X49283580Y19336527D01*
X49106527Y19513580D01*
X48875196Y19609400D01*
X48624804Y19609400D01*
X48393473Y19513580D01*
X48216420Y19336527D01*
X48120600Y19105196D01*
X40256157Y19105196D01*
X40418016Y19267055D01*
X40529000Y19534993D01*
X40529000Y19825007D01*
X40418016Y20092945D01*
X40212945Y20298016D01*
X39945007Y20409000D01*
X39654993Y20409000D01*
X39387055Y20298016D01*
X39181984Y20092945D01*
X39071000Y19825007D01*
X3756894Y19825007D01*
X3859800Y20073443D01*
X3859800Y20586557D01*
X3663440Y21060613D01*
X3300613Y21423440D01*
X2874359Y21600000D01*
X3300613Y21776560D01*
X3663440Y22139387D01*
X3859800Y22613443D01*
X3859800Y23126557D01*
X3663440Y23600613D01*
X3300613Y23963440D01*
X2874359Y24140000D01*
X3300613Y24316560D01*
X3663440Y24679387D01*
X3859800Y25153443D01*
X3859800Y25405196D01*
X40870600Y25405196D01*
X40870600Y25154804D01*
X40966420Y24923473D01*
X41143473Y24746420D01*
X41374804Y24650600D01*
X41625196Y24650600D01*
X41856527Y24746420D01*
X42033580Y24923473D01*
X42129400Y25154804D01*
X42129400Y25405196D01*
X42033580Y25636527D01*
X41856527Y25813580D01*
X41625196Y25909400D01*
X41374804Y25909400D01*
X41143473Y25813580D01*
X40966420Y25636527D01*
X40870600Y25405196D01*
X3859800Y25405196D01*
X3859800Y25666557D01*
X3663440Y26140613D01*
X3300613Y26503440D01*
X3296374Y26505196D01*
X5192802Y26505196D01*
X5192802Y26254804D01*
X5288622Y26023473D01*
X5465675Y25846420D01*
X5697006Y25750600D01*
X5947398Y25750600D01*
X6178729Y25846420D01*
X6355782Y26023473D01*
X6451602Y26254804D01*
X6451602Y26505196D01*
X6355782Y26736527D01*
X6178729Y26913580D01*
X5947398Y27009400D01*
X5697006Y27009400D01*
X5465675Y26913580D01*
X5288622Y26736527D01*
X5192802Y26505196D01*
X3296374Y26505196D01*
X2874359Y26680000D01*
X3300613Y26856560D01*
X3663440Y27219387D01*
X3859800Y27693443D01*
X3859800Y28206557D01*
X3663440Y28680613D01*
X3438857Y28905196D01*
X5774462Y28905196D01*
X5774462Y28654804D01*
X5870282Y28423473D01*
X6047335Y28246420D01*
X6278666Y28150600D01*
X6529058Y28150600D01*
X6760389Y28246420D01*
X6937442Y28423473D01*
X7033262Y28654804D01*
X7033262Y28905196D01*
X6937442Y29136527D01*
X6760389Y29313580D01*
X6529058Y29409400D01*
X6278666Y29409400D01*
X6047335Y29313580D01*
X5870282Y29136527D01*
X5774462Y28905196D01*
X3438857Y28905196D01*
X3300613Y29043440D01*
X2874359Y29220000D01*
X3300613Y29396560D01*
X3529060Y29625007D01*
X9071000Y29625007D01*
X9071000Y29334993D01*
X9181984Y29067055D01*
X9387055Y28861984D01*
X9654993Y28751000D01*
X9945007Y28751000D01*
X10212945Y28861984D01*
X10418016Y29067055D01*
X10529000Y29334993D01*
X10529000Y29476557D01*
X49540200Y29476557D01*
X49540200Y28963443D01*
X49736560Y28489387D01*
X50099387Y28126560D01*
X50525641Y27950000D01*
X50099387Y27773440D01*
X49736560Y27410613D01*
X49540200Y26936557D01*
X49540200Y26423443D01*
X49736560Y25949387D01*
X50099387Y25586560D01*
X50525641Y25410000D01*
X50099387Y25233440D01*
X49736560Y24870613D01*
X49540200Y24396557D01*
X49540200Y23883443D01*
X49736560Y23409387D01*
X50099387Y23046560D01*
X50525641Y22870000D01*
X50099387Y22693440D01*
X49736560Y22330613D01*
X49540200Y21856557D01*
X49540200Y21343443D01*
X49736560Y20869387D01*
X50099387Y20506560D01*
X50525641Y20330000D01*
X50099387Y20153440D01*
X49736560Y19790613D01*
X49540200Y19316557D01*
X49540200Y18803443D01*
X49736560Y18329387D01*
X50099387Y17966560D01*
X50573443Y17770200D01*
X51086557Y17770200D01*
X51560613Y17966560D01*
X51923440Y18329387D01*
X52119800Y18803443D01*
X52119800Y19316557D01*
X51923440Y19790613D01*
X51560613Y20153440D01*
X51134359Y20330000D01*
X51560613Y20506560D01*
X51923440Y20869387D01*
X52119800Y21343443D01*
X52119800Y21856557D01*
X51923440Y22330613D01*
X51560613Y22693440D01*
X51134359Y22870000D01*
X51560613Y23046560D01*
X51923440Y23409387D01*
X52119800Y23883443D01*
X52119800Y24396557D01*
X51923440Y24870613D01*
X51560613Y25233440D01*
X51134359Y25410000D01*
X51560613Y25586560D01*
X51923440Y25949387D01*
X52119800Y26423443D01*
X52119800Y26936557D01*
X51923440Y27410613D01*
X51560613Y27773440D01*
X51134359Y27950000D01*
X51560613Y28126560D01*
X51923440Y28489387D01*
X52119800Y28963443D01*
X52119800Y29476557D01*
X51923440Y29950613D01*
X51560613Y30313440D01*
X51491503Y30342066D01*
X51628582Y30398846D01*
X51723630Y30648581D01*
X50830000Y31542211D01*
X49936370Y30648581D01*
X50031418Y30398846D01*
X50180550Y30347059D01*
X50099387Y30313440D01*
X49736560Y29950613D01*
X49540200Y29476557D01*
X10529000Y29476557D01*
X10529000Y29625007D01*
X10418016Y29892945D01*
X10212945Y30098016D01*
X9945007Y30209000D01*
X9654993Y30209000D01*
X9387055Y30098016D01*
X9181984Y29892945D01*
X9071000Y29625007D01*
X3529060Y29625007D01*
X3663440Y29759387D01*
X3859800Y30233443D01*
X3859800Y30746557D01*
X3703042Y31125007D01*
X22471000Y31125007D01*
X22471000Y30834993D01*
X22581984Y30567055D01*
X22787055Y30361984D01*
X23054993Y30251000D01*
X23345007Y30251000D01*
X23612945Y30361984D01*
X23818016Y30567055D01*
X23929000Y30834993D01*
X23929000Y31125007D01*
X23818016Y31392945D01*
X23612945Y31598016D01*
X23345007Y31709000D01*
X23054993Y31709000D01*
X22787055Y31598016D01*
X22581984Y31392945D01*
X22471000Y31125007D01*
X3703042Y31125007D01*
X3663440Y31220613D01*
X3300613Y31583440D01*
X2874359Y31760000D01*
X3300613Y31936560D01*
X3340954Y31976901D01*
X49266853Y31976901D01*
X49302837Y31362201D01*
X49468846Y30961418D01*
X49718581Y30866370D01*
X50612211Y31760000D01*
X51047789Y31760000D01*
X51941419Y30866370D01*
X52191154Y30961418D01*
X52393147Y31543099D01*
X52357163Y32157799D01*
X52191154Y32558582D01*
X51941419Y32653630D01*
X51047789Y31760000D01*
X50612211Y31760000D01*
X49718581Y32653630D01*
X49468846Y32558582D01*
X49266853Y31976901D01*
X3340954Y31976901D01*
X3663440Y32299387D01*
X3859800Y32773443D01*
X3859800Y32905196D01*
X5170600Y32905196D01*
X5170600Y32654804D01*
X5266420Y32423473D01*
X5443473Y32246420D01*
X5674804Y32150600D01*
X5925196Y32150600D01*
X6156527Y32246420D01*
X6333580Y32423473D01*
X6429400Y32654804D01*
X6429400Y32905196D01*
X6333580Y33136527D01*
X6281526Y33188581D01*
X49936370Y33188581D01*
X49996725Y33030000D01*
X49936370Y32871419D01*
X50830000Y31977789D01*
X51723630Y32871419D01*
X51663275Y33030000D01*
X51723630Y33188581D01*
X50830000Y34082211D01*
X49936370Y33188581D01*
X6281526Y33188581D01*
X6156527Y33313580D01*
X5925196Y33409400D01*
X5674804Y33409400D01*
X5443473Y33313580D01*
X5266420Y33136527D01*
X5170600Y32905196D01*
X3859800Y32905196D01*
X3859800Y33286557D01*
X3663440Y33760613D01*
X3300613Y34123440D01*
X2826557Y34319800D01*
X2313443Y34319800D01*
X1839387Y34123440D01*
X1476560Y33760613D01*
X1280200Y33286557D01*
X590500Y33286557D01*
X590500Y34875007D01*
X30471000Y34875007D01*
X30471000Y34584993D01*
X30581984Y34317055D01*
X30787055Y34111984D01*
X31054993Y34001000D01*
X31345007Y34001000D01*
X31612945Y34111984D01*
X31818016Y34317055D01*
X31900795Y34516901D01*
X49266853Y34516901D01*
X49302837Y33902201D01*
X49468846Y33501418D01*
X49718581Y33406370D01*
X50612211Y34300000D01*
X51047789Y34300000D01*
X51941419Y33406370D01*
X52191154Y33501418D01*
X52393147Y34083099D01*
X52357163Y34697799D01*
X52191154Y35098582D01*
X51941419Y35193630D01*
X51047789Y34300000D01*
X50612211Y34300000D01*
X49718581Y35193630D01*
X49468846Y35098582D01*
X49266853Y34516901D01*
X31900795Y34516901D01*
X31929000Y34584993D01*
X31929000Y34875007D01*
X31818016Y35142945D01*
X31612945Y35348016D01*
X31345007Y35459000D01*
X31054993Y35459000D01*
X30787055Y35348016D01*
X30581984Y35142945D01*
X30471000Y34875007D01*
X590500Y34875007D01*
X590500Y54876557D01*
X1280200Y54876557D01*
X1280200Y54363443D01*
X1476560Y53889387D01*
X1839387Y53526560D01*
X2265641Y53350000D01*
X1839387Y53173440D01*
X1476560Y52810613D01*
X1280200Y52336557D01*
X1280200Y51823443D01*
X1476560Y51349387D01*
X1839387Y50986560D01*
X2265641Y50810000D01*
X1839387Y50633440D01*
X1476560Y50270613D01*
X1280200Y49796557D01*
X1280200Y49283443D01*
X1476560Y48809387D01*
X1839387Y48446560D01*
X2265641Y48270000D01*
X1839387Y48093440D01*
X1476560Y47730613D01*
X1280200Y47256557D01*
X1280200Y46743443D01*
X1476560Y46269387D01*
X1839387Y45906560D01*
X2265641Y45730000D01*
X1839387Y45553440D01*
X1476560Y45190613D01*
X1280200Y44716557D01*
X1280200Y44203443D01*
X1476560Y43729387D01*
X1839387Y43366560D01*
X2265641Y43190000D01*
X1839387Y43013440D01*
X1476560Y42650613D01*
X1280200Y42176557D01*
X1280200Y41663443D01*
X1476560Y41189387D01*
X1839387Y40826560D01*
X2265641Y40650000D01*
X1839387Y40473440D01*
X1476560Y40110613D01*
X1280200Y39636557D01*
X1280200Y39123443D01*
X1476560Y38649387D01*
X1839387Y38286560D01*
X2265641Y38110000D01*
X1839387Y37933440D01*
X1476560Y37570613D01*
X1280200Y37096557D01*
X1280200Y36583443D01*
X1476560Y36109387D01*
X1839387Y35746560D01*
X2313443Y35550200D01*
X2826557Y35550200D01*
X2983471Y35615196D01*
X47330600Y35615196D01*
X47330600Y35364804D01*
X47426420Y35133473D01*
X47603473Y34956420D01*
X47834804Y34860600D01*
X48085196Y34860600D01*
X48316527Y34956420D01*
X48493580Y35133473D01*
X48589400Y35364804D01*
X48589400Y35615196D01*
X48493580Y35846527D01*
X48316527Y36023580D01*
X48085196Y36119400D01*
X47834804Y36119400D01*
X47603473Y36023580D01*
X47426420Y35846527D01*
X47330600Y35615196D01*
X2983471Y35615196D01*
X3300613Y35746560D01*
X3663440Y36109387D01*
X3859800Y36583443D01*
X3859800Y37096557D01*
X49540200Y37096557D01*
X49540200Y36583443D01*
X49736560Y36109387D01*
X50099387Y35746560D01*
X50168497Y35717934D01*
X50031418Y35661154D01*
X49936370Y35411419D01*
X50830000Y34517789D01*
X51723630Y35411419D01*
X51628582Y35661154D01*
X51479450Y35712941D01*
X51560613Y35746560D01*
X51923440Y36109387D01*
X52119800Y36583443D01*
X52119800Y37096557D01*
X51923440Y37570613D01*
X51560613Y37933440D01*
X51086557Y38129800D01*
X50573443Y38129800D01*
X50099387Y37933440D01*
X49736560Y37570613D01*
X49540200Y37096557D01*
X3859800Y37096557D01*
X3663440Y37570613D01*
X3300613Y37933440D01*
X2874359Y38110000D01*
X3300613Y38286560D01*
X3663440Y38649387D01*
X3859800Y39123443D01*
X3859800Y39405196D01*
X12020600Y39405196D01*
X12020600Y39154804D01*
X12116420Y38923473D01*
X12293473Y38746420D01*
X12422761Y38692868D01*
X12366420Y38636527D01*
X12270600Y38405196D01*
X12270600Y38154804D01*
X12366420Y37923473D01*
X12543473Y37746420D01*
X12774804Y37650600D01*
X13025196Y37650600D01*
X13256527Y37746420D01*
X13433580Y37923473D01*
X13529400Y38154804D01*
X13529400Y38405196D01*
X13433580Y38636527D01*
X13256527Y38813580D01*
X13127239Y38867132D01*
X13183580Y38923473D01*
X13279400Y39154804D01*
X13279400Y39405196D01*
X13183580Y39636527D01*
X13006527Y39813580D01*
X12775196Y39909400D01*
X12524804Y39909400D01*
X12293473Y39813580D01*
X12116420Y39636527D01*
X12020600Y39405196D01*
X3859800Y39405196D01*
X3859800Y39636557D01*
X3663440Y40110613D01*
X3300613Y40473440D01*
X2874359Y40650000D01*
X3300613Y40826560D01*
X3663440Y41189387D01*
X3752830Y41405196D01*
X36920600Y41405196D01*
X36920600Y41154804D01*
X37016420Y40923473D01*
X37193473Y40746420D01*
X37424804Y40650600D01*
X37675196Y40650600D01*
X37906527Y40746420D01*
X38083580Y40923473D01*
X38179400Y41154804D01*
X38179400Y41405196D01*
X40870600Y41405196D01*
X40870600Y41154804D01*
X40966420Y40923473D01*
X41143473Y40746420D01*
X41374804Y40650600D01*
X41625196Y40650600D01*
X41856527Y40746420D01*
X42033580Y40923473D01*
X42129400Y41154804D01*
X42129400Y41405196D01*
X45020600Y41405196D01*
X45020600Y41154804D01*
X45116420Y40923473D01*
X45293473Y40746420D01*
X45524804Y40650600D01*
X45775196Y40650600D01*
X46006527Y40746420D01*
X46183580Y40923473D01*
X46279400Y41154804D01*
X46279400Y41405196D01*
X46183580Y41636527D01*
X46006527Y41813580D01*
X45775196Y41909400D01*
X45524804Y41909400D01*
X45293473Y41813580D01*
X45116420Y41636527D01*
X45020600Y41405196D01*
X42129400Y41405196D01*
X42033580Y41636527D01*
X41856527Y41813580D01*
X41625196Y41909400D01*
X41374804Y41909400D01*
X41143473Y41813580D01*
X40966420Y41636527D01*
X40870600Y41405196D01*
X38179400Y41405196D01*
X38083580Y41636527D01*
X37906527Y41813580D01*
X37675196Y41909400D01*
X37424804Y41909400D01*
X37193473Y41813580D01*
X37016420Y41636527D01*
X36920600Y41405196D01*
X3752830Y41405196D01*
X3859800Y41663443D01*
X3859800Y42176557D01*
X3663440Y42650613D01*
X3300613Y43013440D01*
X2874359Y43190000D01*
X3300613Y43366560D01*
X3663440Y43729387D01*
X3859800Y44203443D01*
X3859800Y44675007D01*
X13871000Y44675007D01*
X13871000Y44384993D01*
X13981984Y44117055D01*
X14187055Y43911984D01*
X14454993Y43801000D01*
X14745007Y43801000D01*
X15012945Y43911984D01*
X15218016Y44117055D01*
X15329000Y44384993D01*
X15329000Y44675007D01*
X15218016Y44942945D01*
X15085534Y45075427D01*
X15233580Y45223473D01*
X15329400Y45454804D01*
X15329400Y45705196D01*
X15233580Y45936527D01*
X15215761Y45954346D01*
X15224804Y45950600D01*
X15475196Y45950600D01*
X15706527Y46046420D01*
X15883580Y46223473D01*
X15979400Y46454804D01*
X15979400Y46705196D01*
X15883580Y46936527D01*
X15706527Y47113580D01*
X15475196Y47209400D01*
X15224804Y47209400D01*
X14993473Y47113580D01*
X14816420Y46936527D01*
X14720600Y46705196D01*
X14720600Y46454804D01*
X14816420Y46223473D01*
X14834239Y46205654D01*
X14825196Y46209400D01*
X14574804Y46209400D01*
X14343473Y46113580D01*
X14166420Y45936527D01*
X14070600Y45705196D01*
X14070600Y45454804D01*
X14166420Y45223473D01*
X14225820Y45164073D01*
X14187055Y45148016D01*
X13981984Y44942945D01*
X13871000Y44675007D01*
X3859800Y44675007D01*
X3859800Y44716557D01*
X3663440Y45190613D01*
X3300613Y45553440D01*
X2874359Y45730000D01*
X3300613Y45906560D01*
X3663440Y46269387D01*
X3859800Y46743443D01*
X3859800Y47256557D01*
X3756811Y47505196D01*
X34070600Y47505196D01*
X34070600Y47254804D01*
X34166420Y47023473D01*
X34343473Y46846420D01*
X34574804Y46750600D01*
X34825196Y46750600D01*
X35056527Y46846420D01*
X35233580Y47023473D01*
X35329400Y47254804D01*
X35329400Y47505196D01*
X35308690Y47555196D01*
X38070600Y47555196D01*
X38070600Y47304804D01*
X38166420Y47073473D01*
X38343473Y46896420D01*
X38574804Y46800600D01*
X38825196Y46800600D01*
X39056527Y46896420D01*
X39233580Y47073473D01*
X39329400Y47304804D01*
X39329400Y47555196D01*
X42070600Y47555196D01*
X42070600Y47304804D01*
X42166420Y47073473D01*
X42343473Y46896420D01*
X42574804Y46800600D01*
X42825196Y46800600D01*
X43056527Y46896420D01*
X43100000Y46939893D01*
X43243473Y46796420D01*
X43474804Y46700600D01*
X43725196Y46700600D01*
X43956527Y46796420D01*
X44133580Y46973473D01*
X44229400Y47204804D01*
X44229400Y47455196D01*
X44133580Y47686527D01*
X43956527Y47863580D01*
X43725196Y47959400D01*
X43474804Y47959400D01*
X43243473Y47863580D01*
X43200000Y47820107D01*
X43056527Y47963580D01*
X42825196Y48059400D01*
X42574804Y48059400D01*
X42343473Y47963580D01*
X42166420Y47786527D01*
X42070600Y47555196D01*
X39329400Y47555196D01*
X39233580Y47786527D01*
X39056527Y47963580D01*
X38825196Y48059400D01*
X38574804Y48059400D01*
X38343473Y47963580D01*
X38166420Y47786527D01*
X38070600Y47555196D01*
X35308690Y47555196D01*
X35233580Y47736527D01*
X35056527Y47913580D01*
X34825196Y48009400D01*
X34574804Y48009400D01*
X34343473Y47913580D01*
X34166420Y47736527D01*
X34070600Y47505196D01*
X3756811Y47505196D01*
X3663440Y47730613D01*
X3300613Y48093440D01*
X2874359Y48270000D01*
X2983471Y48315196D01*
X47330600Y48315196D01*
X47330600Y48064804D01*
X47426420Y47833473D01*
X47603473Y47656420D01*
X47834804Y47560600D01*
X48085196Y47560600D01*
X48316527Y47656420D01*
X48493580Y47833473D01*
X48589400Y48064804D01*
X48589400Y48315196D01*
X48493580Y48546527D01*
X48316527Y48723580D01*
X48085196Y48819400D01*
X47834804Y48819400D01*
X47603473Y48723580D01*
X47426420Y48546527D01*
X47330600Y48315196D01*
X2983471Y48315196D01*
X3300613Y48446560D01*
X3663440Y48809387D01*
X3859800Y49283443D01*
X3859800Y49796557D01*
X3663440Y50270613D01*
X3300613Y50633440D01*
X2874359Y50810000D01*
X3300613Y50986560D01*
X3663440Y51349387D01*
X3859800Y51823443D01*
X3859800Y52336557D01*
X3663440Y52810613D01*
X3618857Y52855196D01*
X30820600Y52855196D01*
X30820600Y52604804D01*
X30916420Y52373473D01*
X31093473Y52196420D01*
X31324804Y52100600D01*
X31575196Y52100600D01*
X31806527Y52196420D01*
X31983580Y52373473D01*
X32079400Y52604804D01*
X32079400Y52855196D01*
X31983580Y53086527D01*
X31806527Y53263580D01*
X31575196Y53359400D01*
X31324804Y53359400D01*
X31093473Y53263580D01*
X30916420Y53086527D01*
X30820600Y52855196D01*
X3618857Y52855196D01*
X3300613Y53173440D01*
X2874359Y53350000D01*
X3300613Y53526560D01*
X3663440Y53889387D01*
X3859800Y54363443D01*
X3859800Y54876557D01*
X49540200Y54876557D01*
X49540200Y54363443D01*
X49736560Y53889387D01*
X50099387Y53526560D01*
X50525641Y53350000D01*
X50099387Y53173440D01*
X49736560Y52810613D01*
X49540200Y52336557D01*
X49540200Y51823443D01*
X49736560Y51349387D01*
X50099387Y50986560D01*
X50525641Y50810000D01*
X50099387Y50633440D01*
X49736560Y50270613D01*
X49540200Y49796557D01*
X49540200Y49283443D01*
X49736560Y48809387D01*
X50099387Y48446560D01*
X50525641Y48270000D01*
X50099387Y48093440D01*
X49736560Y47730613D01*
X49540200Y47256557D01*
X49540200Y46743443D01*
X49736560Y46269387D01*
X50099387Y45906560D01*
X50525641Y45730000D01*
X50099387Y45553440D01*
X49736560Y45190613D01*
X49540200Y44716557D01*
X49540200Y44203443D01*
X49736560Y43729387D01*
X50099387Y43366560D01*
X50525641Y43190000D01*
X50099387Y43013440D01*
X49736560Y42650613D01*
X49540200Y42176557D01*
X49540200Y41663443D01*
X49736560Y41189387D01*
X50099387Y40826560D01*
X50573443Y40630200D01*
X51086557Y40630200D01*
X51560613Y40826560D01*
X51923440Y41189387D01*
X52119800Y41663443D01*
X52119800Y42176557D01*
X51923440Y42650613D01*
X51560613Y43013440D01*
X51134359Y43190000D01*
X51560613Y43366560D01*
X51923440Y43729387D01*
X52119800Y44203443D01*
X52119800Y44716557D01*
X51923440Y45190613D01*
X51560613Y45553440D01*
X51134359Y45730000D01*
X51560613Y45906560D01*
X51923440Y46269387D01*
X52119800Y46743443D01*
X52119800Y47256557D01*
X51923440Y47730613D01*
X51560613Y48093440D01*
X51134359Y48270000D01*
X51560613Y48446560D01*
X51923440Y48809387D01*
X52119800Y49283443D01*
X52119800Y49796557D01*
X51923440Y50270613D01*
X51560613Y50633440D01*
X51134359Y50810000D01*
X51560613Y50986560D01*
X51923440Y51349387D01*
X52119800Y51823443D01*
X52119800Y52336557D01*
X51923440Y52810613D01*
X51560613Y53173440D01*
X51134359Y53350000D01*
X51560613Y53526560D01*
X51923440Y53889387D01*
X52119800Y54363443D01*
X52119800Y54876557D01*
X51923440Y55350613D01*
X51560613Y55713440D01*
X51086557Y55909800D01*
X50573443Y55909800D01*
X50099387Y55713440D01*
X49736560Y55350613D01*
X49540200Y54876557D01*
X3859800Y54876557D01*
X3663440Y55350613D01*
X3300613Y55713440D01*
X2826557Y55909800D01*
X2313443Y55909800D01*
X1839387Y55713440D01*
X1476560Y55350613D01*
X1280200Y54876557D01*
X590500Y54876557D01*
X590500Y59139500D01*
X17106371Y59139500D01*
X16625446Y58940294D01*
G04 #@! TD*
M02*
